<svg width="16" height="16" viewBox="0 0 16 16" fill="none" xmlns="http://www.w3.org/2000/svg">
<path d="M2.40573 9.11792L0 10.6202L8.61539 16L16 11.3887L13.5943 9.88646L8.61539 12.9955L2.40573 9.11792Z" fill="#214E52"/>
<path d="M4.81149 7.61572L2.40576 9.11796L8.61542 12.9955L13.5943 9.8865L11.1886 8.38427L8.61542 9.99105L4.81149 7.61572Z" fill="#45888E"/>
<path d="M13.5943 9.88654L16 8.3843L13.5943 6.88207L11.1885 8.3843L13.5943 9.88654Z" fill="#71ACB1"/>
<path d="M4.81146 7.61576L2.40573 6.11353L0 7.61576L2.40573 9.11799L4.81146 7.61576Z" fill="#71ACB1"/>
<path d="M11.1886 8.38436L8.61545 9.99114L4.81152 7.61582L7.38468 6.00903L11.1886 8.38436Z" fill="#5D797D"/>
<path d="M13.5943 6.88196L7.38465 3.00439L2.40576 6.11341L4.81149 7.61565L7.38465 6.00887L11.1886 8.38419L13.5943 6.88196Z" fill="#6F878B"/>
<path d="M7.38462 0L0 4.61125L2.40573 6.11349L7.38462 3.00447L13.5943 6.88203L16 5.3798L7.38462 0Z" fill="#A7A9AA"/>
</svg>
