<svg width="96" height="80" viewBox="0 0 96 80" fill="none" xmlns="http://www.w3.org/2000/svg">
<g clip-path="url(#clip0)">
<path opacity="0.1" d="M94.3699 64.5194C91.9921 70.1399 87.1614 73.8982 82.157 76.3768C78.1502 78.3481 73.9149 79.6427 69.5834 80.2202C68.7538 80.333 67.9215 80.4205 67.0865 80.4827C64.953 80.642 62.8126 80.6392 60.6793 80.4745C59.3961 80.3767 58.1174 80.2205 56.8432 80.0059C52.4157 79.266 48.0992 77.8262 44.0171 75.7277C42.839 75.1199 41.6847 74.4564 40.5543 73.7372C38.6663 72.5385 36.8573 71.1834 35.1417 69.6826C34.7621 69.3503 34.3873 69.0109 34.0173 68.6643L33.8651 68.5218C33.5742 68.2469 33.2859 67.966 32.9931 67.6932C32.5066 67.2263 31.99 66.8019 31.448 66.4237C31.4113 66.3991 31.3746 66.3745 31.337 66.3509C31.2367 66.2842 31.1346 66.2217 31.0308 66.1622C30.8168 66.0387 30.5975 65.9278 30.3737 65.8299C29.3397 65.3787 28.2323 65.2147 27.1096 65.2424C26.9234 65.2424 26.7372 65.2567 26.5501 65.2711C26.2887 65.2916 26.0264 65.3223 25.765 65.3613L25.6683 65.3767C24.8353 65.5117 24.0117 65.7142 23.2037 65.9827C21.9557 66.3929 20.7302 66.9056 19.4965 67.3681C18.9728 67.566 18.4482 67.7547 17.9191 67.9239L17.8027 67.9608C17.0502 68.2033 16.2842 68.3869 15.51 68.5105C13.7507 68.7681 11.9637 68.6033 10.263 68.0265L10.2039 68.007L10.0947 67.9701L9.94521 67.9167C9.69455 67.8265 9.44597 67.7277 9.19948 67.6204L9.04997 67.5548C8.81124 67.4495 8.57759 67.3363 8.349 67.2153L8.1995 67.1374C7.96077 67.0102 7.72711 66.8759 7.49852 66.7344C7.41616 66.6852 7.3347 66.6318 7.25412 66.5816C7.01062 66.4257 6.77189 66.2623 6.53793 66.0914C6.28965 65.9103 6.04674 65.7212 5.80921 65.5244C5.69939 65.4341 5.59077 65.3415 5.48334 65.2465C4.86406 64.7039 4.28413 64.1048 3.74926 63.455C3.71972 63.4211 3.69197 63.3863 3.66421 63.3524C3.52187 63.1761 3.38221 62.9966 3.24703 62.813C3.1969 62.7454 3.14677 62.6777 3.09753 62.608C2.93698 62.3837 2.78211 62.1544 2.6329 61.9199C2.61052 61.886 2.58903 61.8512 2.56755 61.8173C1.95586 60.8483 1.44876 59.7982 1.05728 58.6897C1.04474 58.6558 1.03311 58.621 1.02236 58.5871C0.902998 58.2351 0.794077 57.8772 0.695601 57.5135C0.655315 57.3617 0.61682 57.2058 0.582801 57.0541C0.571163 57.009 0.56042 56.9628 0.550572 56.9177C0.0563999 54.6894 0 52.3729 0 50.0697C0 49.801 0 49.5327 0 49.2647C0.0143238 45.5392 0.064457 41.7502 0.544305 38.0759C0.544305 38.0503 0.550572 38.0247 0.554153 38.0001C0.714755 36.7631 0.93321 35.537 1.20857 34.3269C1.49677 33.0572 1.86508 31.8131 2.31061 30.6045C3.41444 27.6306 5.01961 24.9245 6.80203 22.4162C8.9506 19.3983 11.4125 16.6131 14.1546 14.3151C14.5485 13.9849 14.9478 13.6643 15.3525 13.3532L15.5396 13.2127C15.6049 13.1625 15.6703 13.1102 15.7356 13.0661C15.8699 12.9635 16.0042 12.8671 16.1403 12.7697L16.2925 12.661L16.5825 12.4559L16.672 12.3975L16.8269 12.2949L16.98 12.1924C17.1591 12.0714 17.3402 11.9531 17.5234 11.8376C18.3059 11.3378 19.1068 10.8812 19.9262 10.4676C20.168 10.3452 20.4112 10.2273 20.6559 10.1138C21.7668 9.59551 22.908 9.16685 24.0712 8.83094C24.5009 8.70652 24.9333 8.59714 25.3684 8.50279C25.8817 8.38931 26.3976 8.29531 26.9163 8.22079C27.7416 8.10185 28.5716 8.031 29.4032 8.00852C35.2509 7.84548 41.1577 10.0256 45.7405 14.2043C47.5667 15.8697 49.2077 17.8416 51.2587 19.1183C53.0492 20.2299 55.145 20.6904 57.0626 19.8156C58.6471 19.0927 59.6784 18.7338 61.4582 18.8435C65.1409 19.0811 68.7716 19.9508 72.2288 21.4236C72.3685 21.482 72.5081 21.5425 72.6469 21.603C81.6628 25.5561 89.4147 33.406 93.4415 43.4934C93.5477 43.7601 93.6513 44.0287 93.7521 44.2994C96.1541 50.7239 97.0207 58.2559 94.3699 64.5194Z" fill="#306B34"/>
<path opacity="0.1" d="M17.9191 28.2444V67.1256L17.8027 67.1625C17.0502 67.405 16.2842 67.5886 15.51 67.7122C13.7506 67.9698 11.9637 67.805 10.263 67.2282L10.2039 67.2087L10.0947 67.1718L9.9452 67.1184C9.69454 67.0282 9.44596 66.9294 9.19947 66.8221L9.04997 66.7564C8.81124 66.6512 8.57758 66.538 8.349 66.417L8.19949 66.3391C7.96076 66.2119 7.7271 66.0776 7.49852 65.9361C7.41616 65.8869 7.33469 65.8335 7.25412 65.7833C7.01061 65.6274 6.77188 65.464 6.53793 65.2931C6.28965 65.1119 6.04674 64.9229 5.8092 64.726C5.69939 64.6358 5.59076 64.5432 5.48334 64.4481C4.86405 63.9056 4.28413 63.3065 3.74926 62.6567C3.71972 62.6228 3.69196 62.588 3.66421 62.5541C3.52187 62.3777 3.38221 62.1983 3.24703 62.0147C3.1969 61.947 3.14676 61.8794 3.09753 61.8096C2.93698 61.5854 2.7821 61.356 2.6329 61.1216C2.61052 61.0877 2.58903 61.0528 2.56754 61.019C1.95586 60.05 1.44876 58.9999 1.05728 57.8914C1.04474 57.8575 1.03311 57.8227 1.02236 57.7888C0.902997 57.4367 0.794077 57.0789 0.6956 56.7152C0.655315 56.5634 0.616819 56.4075 0.5828 56.2558C0.571162 56.2106 0.560419 56.1645 0.550571 56.1194C0.0563998 53.8911 0 51.5745 0 49.2714C0 49.0027 0 48.7344 0 48.4664C0.0143238 44.7409 0.064457 40.9518 0.544305 37.2776C0.544305 37.252 0.550572 37.2264 0.554153 37.2017C0.714755 35.9648 0.933209 34.7387 1.20857 33.5286H10.3507V28.2444H12.1735V24H16.0964V28.2444H17.9191Z" fill="#306B34"/>
<path opacity="0.1" d="M94.9961 64.0959C92.6184 69.7164 87.7877 73.4747 82.7833 75.9532C78.7765 77.9245 74.5411 79.2191 70.2097 79.7966C69.3801 79.9094 68.5478 79.9969 67.7128 80.0591C65.5793 80.2184 63.4389 80.2157 61.3056 80.0509C60.0224 79.9532 58.7437 79.797 57.4695 79.5823C53.042 78.8424 48.7255 77.4026 44.6434 75.3041C43.4653 74.6963 42.311 74.0329 41.1807 73.3137C39.2926 72.115 37.4836 70.7598 35.768 69.259C35.3885 68.9268 35.0137 68.5874 34.6436 68.2407L34.4914 68.0982C34.2005 67.8234 33.9122 67.5424 33.6195 67.2696C33.1329 66.8028 32.6164 66.3784 32.0743 66.0001C32.0376 65.9755 32.0009 65.9509 31.9633 65.9273C31.863 65.8607 31.761 65.7981 31.6571 65.7386C31.4432 65.6151 31.2238 65.5042 31 65.4064V49.5005H47.6147V53.0414H54.9064V27.1404H63.4891V37.4976H67.7343V31.3653H71.2419V24.8147H72.8533V21C72.9929 21.0585 73.1326 21.119 73.2714 21.1795V24.8147H74.8398V31.3694H78.3447V37.5017H83.5129V60.8646H91.7276V43.8738H94.3748C96.7803 50.3004 97.6469 57.8324 94.9961 64.0959Z" fill="#306B34"/>
<path opacity="0.1" d="M60.836 31H57V35.3941H60.836V31Z" fill="#306B34"/>
<path opacity="0.1" d="M60.836 40H57V44.3941H60.836V40Z" fill="#306B34"/>
<path opacity="0.1" d="M60.836 49H57V53.3941H60.836V49Z" fill="#306B34"/>
<path opacity="0.1" d="M60.836 58H57V62.3941H60.836V58Z" fill="#306B34"/>
<path opacity="0.1" d="M60.836 67H57V71.3941H60.836V67Z" fill="#306B34"/>
<path opacity="0.1" d="M60.836 76V79.4701C59.5529 79.3724 58.2742 79.2162 57 79.0015V76H60.836Z" fill="#306B34"/>
<path opacity="0.1" d="M45.4277 55H32V56.9904H45.4277V55Z" fill="#306B34"/>
<path opacity="0.1" d="M45.4277 62H32V63.9904H45.4277V62Z" fill="#306B34"/>
<path opacity="0.1" d="M45.0714 67V68.9894H35.1486C34.769 68.6571 34.3942 68.3177 34.0242 67.9711L33.872 67.8286C33.581 67.5537 33.2927 67.2728 33 67H45.0714Z" fill="#306B34"/>
<path opacity="0.1" d="M44.5102 74V75.9904H43.4628C42.2846 75.3827 41.1304 74.7192 40 74H44.5102Z" fill="#306B34"/>
<path opacity="0.1" d="M69.4968 43H67V45.86H69.4968V43Z" fill="#306B34"/>
<path opacity="0.1" d="M15.4968 30H13V32.86H15.4968V30Z" fill="#306B34"/>
<path opacity="0.1" d="M15.4968 36H13V38.86H15.4968V36Z" fill="#306B34"/>
<path opacity="0.1" d="M15.4968 43H13V45.86H15.4968V43Z" fill="#306B34"/>
<path opacity="0.1" d="M15.4968 49H13V51.86H15.4968V49Z" fill="#306B34"/>
<path opacity="0.1" d="M15.4968 56H13V58.86H15.4968V56Z" fill="#306B34"/>
<path opacity="0.1" d="M15.4968 63H13V65.86H15.4968V63Z" fill="#306B34"/>
<path opacity="0.1" d="M79.4968 43H77V45.86H79.4968V43Z" fill="#306B34"/>
<path opacity="0.1" d="M69.4968 49H67V51.86H69.4968V49Z" fill="#306B34"/>
<path opacity="0.1" d="M79.4968 49H77V51.86H79.4968V49Z" fill="#306B34"/>
<path opacity="0.1" d="M69.4968 57H67V59.86H69.4968V57Z" fill="#306B34"/>
<path opacity="0.1" d="M79.4968 57H77V59.86H79.4968V57Z" fill="#306B34"/>
<path opacity="0.1" d="M69.4968 64H67V66.86H69.4968V64Z" fill="#306B34"/>
<path opacity="0.1" d="M79.4968 64H77V66.86H79.4968V64Z" fill="#306B34"/>
<path opacity="0.1" d="M69.4968 71H67V73.86H69.4968V71Z" fill="#306B34"/>
<path opacity="0.1" d="M79.4968 71H77V73.86H79.4968V71Z" fill="#306B34"/>
<path opacity="0.1" d="M67 79.8448V78H69.4968V79.5823L67 79.8448Z" fill="#306B34"/>
<path opacity="0.1" d="M1 37V38.6407H10.5495V37H1ZM1.85048 38.5382H1.1495V37.1025H1.85048V38.5382ZM2.70095 38.5382H1.99998V37.1025H2.70095V38.5382ZM3.55143 38.5382H2.85046V37.1025H3.55143V38.5382ZM4.40191 38.5382H3.70093V37.1025H4.40191V38.5382ZM5.25238 38.5382H4.55141V37.1025H5.25238V38.5382ZM6.10286 38.5382H5.40189V37.1025H6.10286V38.5382ZM6.95333 38.5382H6.25236V37.1025H6.95333V38.5382ZM7.80381 38.5382H7.10284V37.1025H7.80381V38.5382ZM8.65429 38.5382H7.95332V37.1025H8.65429V38.5382ZM9.50476 38.5382H8.80379V37.1025H9.50476V38.5382ZM10.4 38.5382H9.65427V37.1025H10.4V38.5382Z" fill="#306B34"/>
<path opacity="0.1" d="M1 42V43.6356H10.5495V42H1ZM1.85048 43.5331H1.1495V42.1025H1.85048V43.5331ZM2.70095 43.5331H1.99998V42.1025H2.70095V43.5331ZM3.55143 43.5331H2.85046V42.1025H3.55143V43.5331ZM4.40191 43.5331H3.70093V42.1025H4.40191V43.5331ZM5.25238 43.5331H4.55141V42.1025H5.25238V43.5331ZM6.10286 43.5331H5.40189V42.1025H6.10286V43.5331ZM6.95333 43.5331H6.25236V42.1025H6.95333V43.5331ZM7.80381 43.5331H7.10284V42.1025H7.80381V43.5331ZM8.65429 43.5331H7.95332V42.1025H8.65429V43.5331ZM9.50476 43.5331H8.80379V42.1025H9.50476V43.5331ZM10.4 43.5331H9.65427V42.1025H10.4V43.5331Z" fill="#306B34"/>
<path opacity="0.1" d="M1 47V48.6356H10.5495V47H1ZM1.85048 48.5331H1.1495V47.1025H1.85048V48.5331ZM2.70095 48.5331H1.99998V47.1025H2.70095V48.5331ZM3.55143 48.5331H2.85046V47.1025H3.55143V48.5331ZM4.40191 48.5331H3.70093V47.1025H4.40191V48.5331ZM5.25238 48.5331H4.55141V47.1025H5.25238V48.5331ZM6.10286 48.5331H5.40189V47.1025H6.10286V48.5331ZM6.95333 48.5331H6.25236V47.1025H6.95333V48.5331ZM7.80381 48.5331H7.10284V47.1025H7.80381V48.5331ZM8.65429 48.5331H7.95332V47.1025H8.65429V48.5331ZM9.50476 48.5331H8.80379V47.1025H9.50476V48.5331ZM10.4 48.5331H9.65427V47.1025H10.4V48.5331Z" fill="#306B34"/>
<path opacity="0.1" d="M1 52V53.6408H10.5495V52H1ZM1.85048 53.5382H1.1495V52.1025H1.85048V53.5382ZM2.70095 53.5382H1.99998V52.1025H2.70095V53.5382ZM3.55143 53.5382H2.85046V52.1025H3.55143V53.5382ZM4.40191 53.5382H3.70093V52.1025H4.40191V53.5382ZM5.25238 53.5382H4.55141V52.1025H5.25238V53.5382ZM6.10286 53.5382H5.40189V52.1025H6.10286V53.5382ZM6.95333 53.5382H6.25236V52.1025H6.95333V53.5382ZM7.80381 53.5382H7.10284V52.1025H7.80381V53.5382ZM8.65429 53.5382H7.95332V52.1025H8.65429V53.5382ZM9.50476 53.5382H8.80379V52.1025H9.50476V53.5382ZM10.4 53.5382H9.65427V52.1025H10.4V53.5382Z" fill="#306B34"/>
<path opacity="0.1" d="M1 56C1.03402 56.1538 1.07251 56.3076 1.1128 56.4594V56.1025H1.81377V57.5382H1.43956C1.45031 57.572 1.46194 57.6069 1.47448 57.6407H10.5164V56H1ZM2.66425 57.5382H1.96328V56.1025H2.66425V57.5382ZM3.51473 57.5382H2.81375V56.1025H3.51473V57.5382ZM4.3652 57.5382H3.66423V56.1025H4.3652V57.5382ZM5.21568 57.5382H4.51471V56.1025H5.21568V57.5382ZM6.06616 57.5382H5.36518V56.1025H6.06616V57.5382ZM6.91663 57.5382H6.21566V56.1025H6.91663V57.5382ZM7.76711 57.5382H7.06614V56.1025H7.76711V57.5382ZM8.61758 57.5382H7.91661V56.1025H8.61758V57.5382ZM9.46806 57.5382H8.76709V56.1025H9.46806V57.5382ZM10.3633 57.5382H9.61757V56.1025H10.3633V57.5382Z" fill="#306B34"/>
<path opacity="0.1" d="M3 62C3.02149 62.0338 3.04297 62.0687 3.06535 62.1025H3.52998V62.7906C3.57922 62.8593 3.62935 62.927 3.67949 62.9957V62.1036H4.38046V63.5392H4.09667C4.12442 63.5731 4.15217 63.6079 4.18171 63.6418H10.5281V62.001L3 62ZM5.23093 63.5382H4.52996V62.1025H5.23093V63.5382ZM6.08141 63.5382H5.38044V62.1025H6.08141V63.5382ZM6.93189 63.5382H6.23092V62.1025H6.93189V63.5382ZM7.78236 63.5382H7.08139V62.1025H7.78236V63.5382ZM8.63284 63.5382H7.93187V62.1025H8.63284V63.5382ZM9.48332 63.5382H8.78234V62.1025H9.48332V63.5382ZM10.3786 63.5382H9.63282V62.1025H10.3786V63.5382Z" fill="#306B34"/>
<path opacity="0.1" d="M8 66C8.08057 66.0523 8.16204 66.1025 8.2444 66.1528V66.1025H8.94537V66.5558L9.09488 66.6337V66.1025H9.79585V66.9732L9.94536 67.0388V66.1025H10.6911V67.3331L10.8406 67.3864V66H8Z" fill="#306B34"/>
<path opacity="0.1" d="M36.901 23.0032C36.901 23.0032 34.7668 22.8555 35.021 24.568C35.008 24.6551 35.0193 24.7446 35.0534 24.8238C35.0875 24.903 35.1426 24.9678 35.2108 25.009C35.2108 25.009 35.2108 24.8818 35.4293 24.9249C35.5059 24.9393 35.5837 24.9434 35.6611 24.9372C35.7659 24.9293 35.8655 24.8825 35.9449 24.8039V24.8039C35.9449 24.8039 36.5447 24.5198 36.7784 23.397C36.7784 23.397 36.9503 23.1519 36.944 23.0893L36.5859 23.2657C36.5859 23.2657 36.7095 23.5631 36.6128 23.8102C36.6128 23.8102 36.6011 23.277 36.5313 23.2893C36.5179 23.2893 36.3442 23.3918 36.3442 23.3918C36.3442 23.3918 36.5564 23.9107 36.3961 24.2871C36.3961 24.2871 36.457 23.6492 36.2789 23.4298L36.0192 23.601C36.0192 23.601 36.2672 24.1363 36.0989 24.5732C36.0989 24.5732 36.1428 23.9035 35.9664 23.6431L35.7363 23.8482C35.7363 23.8482 35.9691 24.3753 35.8259 24.7383C35.8259 24.7383 35.8071 23.9579 35.6853 23.8984C35.5979 23.9828 35.5201 24.0792 35.4534 24.1855C35.4534 24.1855 35.6128 24.568 35.5143 24.7701C35.5143 24.7701 35.4534 24.2512 35.4033 24.2481C35.4033 24.2481 35.2037 24.5926 35.1831 24.8285C35.1923 24.6097 35.2516 24.3975 35.355 24.2132C35.2396 24.2382 35.1332 24.3013 35.0488 24.3947C35.0488 24.3947 35.0801 24.1517 35.4069 24.1302C35.4069 24.1302 35.5725 23.8697 35.6173 23.8533C35.6173 23.8533 35.2941 23.8225 35.098 23.922C35.098 23.922 35.2708 23.6923 35.6764 23.7969L35.9029 23.5846C35.9029 23.5846 35.4776 23.518 35.2977 23.5918C35.2977 23.5918 35.5045 23.3867 35.9637 23.5364L36.2108 23.3672C36.021 23.3196 35.8266 23.3003 35.6325 23.3098C35.6325 23.3098 35.8599 23.1693 36.2833 23.3221L36.4624 23.2308C36.4624 23.2308 36.1938 23.1714 36.1195 23.1621C36.0452 23.1529 36.0371 23.1283 36.0371 23.1283C36.2053 23.0962 36.3779 23.1182 36.5358 23.1919C36.5358 23.1919 36.9073 23.0299 36.901 23.0032Z" fill="#306B34"/>
<path opacity="0.1" d="M31.1767 32.0205C31.1767 32.0205 30.4471 34.3216 31.9529 34.5318C32.0218 34.5707 32.0998 34.5836 32.1755 34.5687C32.2512 34.5537 32.3209 34.5118 32.3746 34.4488C32.3746 34.4488 32.2698 34.4088 32.3665 34.1842C32.4004 34.1044 32.4262 34.0205 32.4435 33.934C32.4661 33.8165 32.4548 33.6938 32.4113 33.5843V33.5843C32.4113 33.5843 32.3441 32.845 31.4704 32.2697C31.4704 32.2697 31.3146 32.0103 31.26 32L31.3047 32.4461C31.3047 32.4461 31.5885 32.3948 31.7685 32.5712C31.7685 32.5712 31.3209 32.4327 31.3092 32.5127C31.3092 32.5281 31.3423 32.7476 31.3423 32.7476C31.3423 32.7476 31.8365 32.6614 32.106 32.9444C32.106 32.9444 31.5885 32.6963 31.3549 32.8306L31.4247 33.1567C31.4247 33.1567 31.943 33.0378 32.2609 33.3454C32.2609 33.3454 31.713 33.1085 31.4444 33.2275L31.5509 33.5351C31.5509 33.5351 32.0585 33.4326 32.3217 33.6879C32.3217 33.6879 31.6628 33.4828 31.5796 33.6038C31.6254 33.7232 31.6837 33.8358 31.7533 33.9391C31.7533 33.9391 32.1194 33.8735 32.26 34.0417C32.26 34.0417 31.8079 33.9607 31.7918 34.014C31.7918 34.014 32.0236 34.3319 32.2152 34.4242C32.0353 34.3512 31.8751 34.2258 31.7506 34.0601C31.7387 34.1942 31.7614 34.3293 31.8159 34.4488C31.8159 34.4488 31.6208 34.3462 31.6951 33.9822C31.6951 33.9822 31.5232 33.7269 31.5232 33.6746C31.5232 33.6746 31.405 34.0201 31.4337 34.2642C31.4337 34.2642 31.2904 34.0089 31.4927 33.5936L31.3799 33.2859C31.3799 33.2859 31.2009 33.734 31.2134 33.9535C31.2134 33.9535 31.1024 33.6674 31.3567 33.2049L31.2859 32.886C31.1923 33.0797 31.1209 33.2865 31.0738 33.5013C31.0738 33.5013 31.0201 33.2111 31.268 32.7896L31.2421 32.5702C31.2421 32.5702 31.1167 32.845 31.0872 32.928C31.0577 33.0111 31.0353 33.008 31.0353 33.008C31.0559 32.8141 31.1231 32.6305 31.2295 32.4779C31.2295 32.4779 31.2009 32.0205 31.1767 32.0205Z" fill="#306B34"/>
<path opacity="0.1" d="M45.1764 30.0215C45.1764 30.0215 44.4477 32.3268 45.9525 32.5319C46.0217 32.5707 46.0998 32.5834 46.1757 32.5683C46.2516 32.5532 46.3214 32.511 46.3751 32.4478C46.3751 32.4478 46.2694 32.4078 46.367 32.1842C46.4012 32.1043 46.4267 32.02 46.4431 31.933C46.466 31.8156 46.455 31.6929 46.4118 31.5833C46.4118 31.5833 46.3446 30.844 45.4709 30.2687C45.4709 30.2687 45.3142 30.0103 45.2596 30L45.3053 30.445C45.3053 30.445 45.5891 30.3948 45.769 30.5712C45.769 30.5712 45.3214 30.4327 45.3089 30.5117C45.3089 30.5281 45.342 30.7465 45.342 30.7465C45.342 30.7465 45.8362 30.6614 46.1065 30.9434C46.1065 30.9434 45.5891 30.6963 45.3545 30.8296L45.4253 31.1567C45.4253 31.1567 45.9436 31.0367 46.2614 31.3454C46.2614 31.3454 45.7126 31.1075 45.4441 31.2264L45.5506 31.5341C45.5506 31.5341 46.0582 31.4315 46.3214 31.6869C46.3214 31.6869 45.6634 31.4818 45.5792 31.6038C45.6265 31.7237 45.6867 31.8363 45.7583 31.9391C45.7583 31.9391 46.1235 31.8725 46.265 32.0417C46.265 32.0417 45.8129 31.9607 45.7968 32.015C45.7968 32.015 46.0277 32.3319 46.2193 32.4252C46.0395 32.3526 45.8796 32.227 45.7556 32.0612C45.7437 32.1951 45.7661 32.3302 45.82 32.4498C45.82 32.4498 45.6258 32.3473 45.7001 31.9843C45.7001 31.9843 45.5282 31.7279 45.5273 31.6766C45.5273 31.6766 45.41 32.0232 45.4378 32.2663C45.4378 32.2663 45.2946 32.0119 45.4969 31.5956L45.3841 31.288C45.3841 31.288 45.205 31.7361 45.2176 31.9545C45.2176 31.9545 45.1066 31.6694 45.3608 31.207L45.2892 30.887C45.1955 31.0807 45.1242 31.2875 45.077 31.5023C45.077 31.5023 45.0242 31.2121 45.2722 30.7906L45.2462 30.5712C45.2462 30.5712 45.1209 30.846 45.0904 30.9291C45.06 31.0121 45.0385 31.0091 45.0385 31.0091C45.0597 30.8151 45.1273 30.6317 45.2337 30.4789C45.2337 30.4789 45.2015 30.0226 45.1764 30.0215Z" fill="#306B34"/>
<path opacity="0.1" d="M25.1767 48.0195C25.1767 48.0195 24.4471 50.3217 25.9529 50.5319C26.0219 50.5708 26.0999 50.5836 26.1757 50.5685C26.2514 50.5534 26.3211 50.5111 26.3745 50.4478C26.3745 50.4478 26.2698 50.4078 26.3665 50.1842C26.4009 50.1044 26.4267 50.02 26.4435 49.933C26.4666 49.8156 26.4552 49.6927 26.4112 49.5833V49.5833C26.4112 49.5833 26.3441 48.844 25.4704 48.2697C25.4704 48.2697 25.3146 48.0103 25.26 48L25.3047 48.4451C25.3047 48.4451 25.5894 48.3948 25.7685 48.5712C25.7685 48.5712 25.3209 48.4327 25.3092 48.5117C25.3092 48.5281 25.3423 48.7465 25.3423 48.7465C25.3423 48.7465 25.8365 48.6614 26.106 48.9434C26.106 48.9434 25.5885 48.6963 25.3549 48.8296L25.4247 49.1567C25.4247 49.1567 25.943 49.0367 26.2608 49.3454C26.2608 49.3454 25.713 49.1075 25.4444 49.2265L25.5509 49.5341C25.5509 49.5341 26.0585 49.4316 26.3217 49.6869C26.3217 49.6869 25.6637 49.4818 25.5796 49.6038C25.6254 49.7232 25.6837 49.8358 25.7532 49.9392C25.7532 49.9392 26.1194 49.8725 26.2608 50.0417C26.2608 50.0417 25.8079 49.9607 25.7917 50.015C25.7917 50.015 26.0236 50.3319 26.2152 50.4252C26.0352 50.3529 25.875 50.2277 25.7506 50.0622C25.7387 50.196 25.7614 50.3308 25.8159 50.4498C25.8159 50.4498 25.6208 50.3473 25.6951 49.9843C25.6951 49.9843 25.5241 49.7279 25.5232 49.6766C25.5232 49.6766 25.405 50.0232 25.4336 50.2663C25.4336 50.2663 25.2904 50.012 25.4927 49.5956L25.3799 49.288C25.3799 49.288 25.2009 49.7361 25.2143 49.9545C25.2143 49.9545 25.1033 49.6695 25.3576 49.207L25.2859 48.8881C25.1921 49.0817 25.1207 49.2885 25.0738 49.5033C25.0738 49.5033 25.0201 49.2121 25.268 48.7917L25.2421 48.5712C25.2421 48.5712 25.1167 48.846 25.0872 48.9291C25.0577 49.0121 25.0353 49.0091 25.0353 49.0091C25.056 48.815 25.1236 48.6314 25.2304 48.4789C25.2304 48.4789 25.2009 48.0195 25.1767 48.0195Z" fill="#306B34"/>
<path opacity="0.1" d="M22.1764 26.0205C22.1764 26.0205 21.4477 28.3216 22.9526 28.5319C23.0217 28.5706 23.0997 28.5835 23.1756 28.5686C23.2514 28.5537 23.3212 28.5117 23.3751 28.4488C23.3751 28.4488 23.2695 28.4088 23.3671 28.1842C23.4008 28.1041 23.4264 28.0198 23.4432 27.933C23.4661 27.816 23.4551 27.6936 23.4118 27.5843C23.4118 27.5843 23.3447 26.845 22.47 26.2697C22.47 26.2697 22.3143 26.0103 22.2596 26L22.3053 26.4461C22.3053 26.4461 22.5891 26.3948 22.7681 26.5712C22.7681 26.5712 22.3205 26.4327 22.3089 26.5127C22.3089 26.5281 22.342 26.7476 22.342 26.7476C22.342 26.7476 22.8362 26.6614 23.1066 26.9444C23.1066 26.9444 22.5891 26.6963 22.3545 26.8306L22.4244 27.1567C22.4244 27.1567 22.9427 27.0367 23.2614 27.3454C23.2614 27.3454 22.7126 27.1075 22.4441 27.2275L22.5506 27.5351C22.5506 27.5351 23.0582 27.4326 23.3214 27.6889C23.3214 27.6889 22.6634 27.4838 22.5793 27.6048C22.6251 27.7242 22.6834 27.8368 22.7529 27.9402C22.7529 27.9402 23.1191 27.8745 23.2605 28.0427C23.2605 28.0427 22.8084 27.9617 22.7923 28.015C22.7923 28.015 23.0233 28.3329 23.2149 28.4252C23.0351 28.352 22.875 28.2266 22.7502 28.0612C22.7384 28.1953 22.7611 28.3304 22.8156 28.4498C22.8156 28.4498 22.6204 28.3473 22.6956 27.9832C22.6956 27.9832 22.5237 27.7279 22.5229 27.6756C22.5229 27.6756 22.4056 28.0212 22.4333 28.2652C22.4333 28.2652 22.2892 28.0099 22.4924 27.5946L22.3787 27.287C22.3787 27.287 22.1997 27.7351 22.2131 27.9545C22.2131 27.9545 22.1021 27.6684 22.3563 27.2059L22.2847 26.887C22.191 27.0807 22.1197 27.2875 22.0725 27.5023C22.0725 27.5023 22.0197 27.2121 22.2668 26.7906L22.2417 26.5712C22.2417 26.5712 22.1155 26.846 22.086 26.928C22.0564 27.0101 22.034 27.009 22.034 27.009C22.0547 26.815 22.1223 26.6314 22.2292 26.4789C22.2292 26.4789 22.2015 26.0205 22.1764 26.0205Z" fill="#306B34"/>
<path opacity="0.1" d="M28 40.0763C28 40.0763 28.5631 42.4349 29.8988 41.6145C29.9747 41.6007 30.0448 41.5597 30.0992 41.4975C30.1535 41.4352 30.1893 41.3549 30.2014 41.2679C30.2014 41.2679 30.0958 41.3049 30.0626 41.0577C30.05 40.97 30.0284 40.8843 29.9982 40.8024C29.9585 40.691 29.8876 40.598 29.7967 40.5378C29.7967 40.5378 29.3697 39.9779 28.3644 40.0845C28.3644 40.0845 28.1065 39.9769 28.0564 40.0046L28.3178 40.3378C28.3178 40.3378 28.5246 40.1092 28.7601 40.1327C28.7601 40.1327 28.3223 40.3173 28.3545 40.3881C28.3617 40.4024 28.4995 40.5583 28.4995 40.5583C28.4995 40.5583 28.8576 40.1615 29.2229 40.2138C29.2229 40.2138 28.6759 40.3532 28.5524 40.6178L28.7735 40.8383C28.7735 40.8383 29.137 40.3983 29.5523 40.4394C29.5523 40.4394 28.9839 40.6075 28.8245 40.8824L29.068 41.0659C29.068 41.0659 29.4261 40.6444 29.7753 40.6824C29.7753 40.6824 29.1361 40.9521 29.1262 41.1039C29.224 41.1712 29.3286 41.2246 29.4378 41.2628C29.4378 41.2628 29.7063 40.9675 29.9024 41.0095C29.9024 41.0095 29.4915 41.2423 29.5058 41.2967C29.5058 41.2967 29.8549 41.3992 30.0564 41.35C29.873 41.4095 29.6791 41.4131 29.4942 41.3602C29.5517 41.4776 29.6383 41.5729 29.743 41.634C29.743 41.634 29.5318 41.6781 29.41 41.3325C29.41 41.3325 29.1414 41.2372 29.1128 41.1941C29.1128 41.1941 29.1916 41.5551 29.3366 41.7356C29.3366 41.7356 29.0913 41.6217 29.0474 41.148L28.7994 40.9705C28.7994 40.9705 28.8809 41.4535 28.9991 41.6248C28.9991 41.6248 28.7645 41.4648 28.7395 40.9193L28.521 40.706C28.5423 40.9273 28.5886 41.1444 28.6589 41.352C28.6589 41.352 28.47 41.1469 28.4602 40.6424L28.3286 40.4793C28.3286 40.4793 28.3644 40.787 28.3814 40.8742C28.3984 40.9613 28.3814 40.9767 28.3814 40.9767C28.3007 40.8044 28.2635 40.6099 28.2739 40.4147C28.2739 40.4147 28.0206 40.061 28 40.0763Z" fill="#306B34"/>
<path opacity="0.1" d="M43 42.0712C43 42.0712 43.5631 44.4297 44.8979 43.6093C44.974 43.5958 45.0444 43.555 45.099 43.4927C45.1535 43.4304 45.1894 43.3499 45.2014 43.2627C45.2014 43.2627 45.0949 43.2996 45.0617 43.0576C45.0498 42.9699 45.0285 42.8841 44.9982 42.8023C44.9579 42.6911 44.8868 42.5982 44.7959 42.5377V42.5377C44.7959 42.5377 44.3688 41.9779 43.3635 42.0855C43.3635 42.0855 43.1056 41.9768 43.0564 42.0045L43.3169 42.3378C43.3169 42.3378 43.5237 42.1091 43.7592 42.1327C43.7592 42.1327 43.3214 42.3173 43.3545 42.388C43.3608 42.4024 43.4995 42.5583 43.4995 42.5583C43.4995 42.5583 43.8576 42.1614 44.2229 42.2137C44.2229 42.2137 43.675 42.3532 43.5515 42.6177L43.7735 42.8382C43.7735 42.8382 44.1316 42.3983 44.5514 42.4393C44.5514 42.4393 43.9839 42.6075 43.8245 42.8823L44.068 43.0658C44.068 43.0658 44.4261 42.6444 44.7744 42.6823C44.7744 42.6823 44.1352 42.952 44.1262 43.1038C44.2237 43.1712 44.328 43.2246 44.4369 43.2627C44.4369 43.2627 44.7054 42.9674 44.9015 43.0094C44.9015 43.0094 44.4915 43.2422 44.5049 43.2966C44.5049 43.2966 44.854 43.3991 45.0564 43.3499C44.8726 43.4094 44.6785 43.4129 44.4933 43.3602C44.5511 43.4773 44.6376 43.5724 44.7421 43.6339C44.7421 43.6339 44.5309 43.678 44.4091 43.3325C44.4091 43.3325 44.1405 43.2371 44.1128 43.194C44.1128 43.194 44.1907 43.555 44.3357 43.7355C44.3357 43.7355 44.0904 43.6216 44.0465 43.1479L43.7986 42.9684C43.7986 42.9684 43.88 43.4514 43.9991 43.6227C43.9991 43.6227 43.7645 43.4627 43.7395 42.9172L43.5201 42.7039C43.5414 42.9253 43.588 43.1425 43.6589 43.3499C43.6589 43.3499 43.4691 43.1448 43.4593 42.6403L43.3277 42.4772C43.3277 42.4772 43.3635 42.7849 43.3805 42.872C43.3975 42.9592 43.3805 42.9746 43.3805 42.9746C43.2998 42.8023 43.2626 42.6077 43.273 42.4126C43.273 42.4126 43.0206 42.0558 43 42.0712Z" fill="#306B34"/>
<path d="M37.5863 64.8936C37.5863 64.8936 42.2308 63.1021 41.2693 56.7546L35.3697 55L34 60.2083L37.5863 64.8936Z" fill="#CED7E7"/>
<path opacity="0.1" d="M34 60.4537L37.5854 65.139C37.5854 65.139 42.2299 63.3476 41.2684 57L34 60.4537Z" fill="black"/>
<path d="M14.0065 13.623C14.0065 13.623 14.6332 14.791 15.49 14.2075C16.3467 13.624 15.5249 12.012 15.5249 12.012C15.5249 12.012 13.8839 11.7546 14.0065 13.623Z" fill="#FED253"/>
<path opacity="0.1" d="M15.49 14.2069C15.3889 14.2818 15.2756 14.3323 15.1569 14.3552C15.0382 14.3781 14.9167 14.373 14.7998 14.3402C14.4855 14.249 14.2438 13.9721 14.114 13.7906C14.0753 13.7374 14.0394 13.6816 14.0066 13.6234C13.9627 12.9569 14.1435 12.56 14.3942 12.3262C14.7389 12.0053 15.216 11.9919 15.4219 12.0022C15.4855 12.0022 15.5222 12.0124 15.5222 12.0124L15.5392 12.0453C15.5634 12.0976 15.6162 12.2134 15.6726 12.3683C15.8642 12.8759 16.0925 13.7957 15.49 14.2069Z" fill="black"/>
<path d="M37.6589 56L40.8817 56.2984L46.8798 56.3548L42.1538 63.0203C42.1538 63.0203 40.6543 63.1136 40.3455 63.3556C40.0366 63.5976 35.7001 63.4684 35.7001 63.4684L35 60.0516L37.6589 56Z" fill="#FFA2A2"/>
<path opacity="0.05" d="M37.6589 56L40.8817 56.2984L46.8798 56.3548L42.1538 63.0203C42.1538 63.0203 40.6543 63.1136 40.3455 63.3556C40.0366 63.5976 35.7001 63.4684 35.7001 63.4684L35 60.0516L37.6589 56Z" fill="black"/>
<path d="M34.2596 38.1446L35.0089 39.6007L35.1718 42.1398C35.1718 42.1398 35.6937 44.3045 36.085 44.9393C36.4762 45.574 36.6391 47.2548 36.6391 47.2548C36.6391 47.2548 36.802 48.8227 36.9972 49.158C37.1924 49.4933 37.4538 51.9267 37.4538 51.9267C37.4538 51.9267 39.1816 55.884 40.7456 56.369C40.7456 56.369 32.9883 59.2813 37.0626 64.5081C37.0626 64.5081 34.162 65.3284 33.4771 64.3963C32.7923 63.4642 31 49.6492 31 49.6492L31.5542 38L34.2596 38.1446Z" fill="#CED7E7"/>
<path opacity="0.05" d="M34.2596 38.1446L35.0089 39.6007L35.1718 42.1398C35.1718 42.1398 35.6937 44.3045 36.085 44.9393C36.4762 45.574 36.6391 47.2548 36.6391 47.2548C36.6391 47.2548 36.802 48.8227 36.9972 49.158C37.1924 49.4933 37.4538 51.9267 37.4538 51.9267C37.4538 51.9267 39.1816 55.884 40.7456 56.369C40.7456 56.369 32.9883 59.2813 37.0626 64.5081C37.0626 64.5081 34.162 65.3284 33.4771 64.3963C32.7923 63.4642 31 49.6492 31 49.6492L31.5542 38L34.2596 38.1446Z" fill="black"/>
<path d="M24.475 24.3814C24.2573 25.6749 24.3219 27.0099 24.663 28.2679L23.4562 32.2251C23.4562 32.2251 14.2648 26.3636 15.0473 24.9444C15.4904 24.1394 15.5468 22.0095 15.511 20.3175C15.485 19.0316 15.4054 18 15.4054 18C15.4054 18 26.6854 19.2705 25.1841 22.2198C24.8443 22.8901 24.6047 23.6207 24.475 24.3814V24.3814Z" fill="#FFA2A2"/>
<path opacity="0.1" d="M24.7787 22.2198C24.4389 22.8901 24.1993 23.6207 24.0697 24.3814C22.3957 24.9948 20.5879 24.9252 18.9537 24.1843C17.3194 23.4434 15.9597 22.0771 15.1056 20.3175C15.0797 19.0316 15 18 15 18C15 18 26.2773 19.2705 24.7787 22.2198Z" fill="black"/>
<path d="M30.1904 16.6968C30.1912 18.0657 29.91 19.4154 29.3696 20.6364C28.8293 21.8573 28.045 22.9149 27.0806 23.7233C26.1163 24.5317 24.999 25.068 23.8196 25.2887C22.6402 25.5093 21.4319 25.4081 20.2931 24.9932C19.1543 24.5783 18.117 23.8615 17.2656 22.901C16.4142 21.9404 15.7727 20.7633 15.3932 19.4653C15.0137 18.1673 14.9069 16.7851 15.0816 15.4309C15.2562 14.0768 15.7074 12.7889 16.3984 11.6721C16.5058 11.4991 16.6189 11.3303 16.7377 11.1655C17.4144 10.2234 18.2565 9.45472 19.2094 8.90951V8.90951C19.7264 8.61325 20.2717 8.38682 20.8343 8.23476C21.8501 7.95909 22.9047 7.92581 23.9322 8.13699C24.9598 8.34817 25.9385 8.7993 26.8073 9.4623C27.6762 10.1253 28.4166 10.986 28.9826 11.9909C29.5486 12.9957 29.928 14.1232 30.0973 15.3032C30.1605 15.7642 30.1917 16.2302 30.1904 16.6968Z" fill="#FFA2A2"/>
<path d="M33.4372 51.314C33.3235 52.0092 33.4659 53.2798 33.6816 54.5729C33.6906 54.6293 33.7004 54.6857 33.7103 54.7421C33.7201 54.7985 33.7345 54.8856 33.747 54.9564C33.8464 55.5122 33.9547 56.0629 34.0603 56.5633C34.166 57.0637 34.2609 57.4923 34.3414 57.8451C34.4632 58.3732 34.5464 58.7055 34.5464 58.7055C34.5464 58.7055 34.5572 59.0316 34.5715 59.5504C34.5796 59.8499 34.5885 60.2149 34.5975 60.6179C34.5975 60.7348 34.6037 60.8538 34.6064 60.9768C34.6109 61.1912 34.6154 61.4137 34.6198 61.6413C34.6198 61.7152 34.6198 61.789 34.6243 61.8639C34.6243 62.1089 34.6324 62.3592 34.636 62.6083C34.6404 62.9508 34.644 63.2934 34.6458 63.6256C34.6458 63.7528 34.6458 63.8779 34.6458 64.0009C34.6458 64.3188 34.6458 64.6234 34.6458 64.9033C34.636 65.698 34.6082 66.2979 34.5491 66.4712C34.5285 66.5307 34.5097 66.5953 34.4918 66.663C34.4142 66.9813 34.3579 67.306 34.3235 67.6341L34.1713 67.4916C33.8804 67.2167 33.5921 66.9358 33.2994 66.663C32.8128 66.1961 32.2963 65.7718 31.7542 65.3935C31.7175 65.3689 31.6808 65.3443 31.6432 65.3207C31.5429 65.254 31.4409 65.1915 31.337 65.132C31.1231 65.0085 30.9037 64.8976 30.6799 64.7997C29.6459 64.3485 28.5385 64.1845 27.4159 64.2122C26.9682 64.408 26.6773 64.5485 26.6773 64.5485L26.1079 64.7454L26.013 64.7782C25.3962 64.9936 24.5287 65.2991 24.2163 65.4263C23.7114 65.6314 19.3274 66.6763 19.3274 66.6763C18.9269 66.8016 18.5178 66.8873 18.1045 66.9327C17.352 67.1752 16.586 67.3588 15.8118 67.4823C14.0524 67.74 12.2655 67.5751 10.5648 66.9983C10.514 67.0018 10.4631 67.0001 10.4126 66.9932C10.4439 66.9932 10.4744 66.985 10.5021 66.9788L10.3929 66.9419L10.2434 66.8886C9.99273 66.7984 9.74415 66.6996 9.49766 66.5922L9.34816 66.5266C9.10943 66.4213 8.87577 66.3082 8.64718 66.1872L8.49768 66.1093C8.25895 65.9821 8.02529 65.8478 7.79671 65.7063C7.71435 65.657 7.63288 65.6037 7.55231 65.5535C7.3088 65.3976 7.07007 65.2342 6.83612 65.0633C6.79673 64.6767 6.77614 64.4183 6.77614 64.4183L6.42699 62.4268L6.40909 62.3243L6.15842 60.8887L6.14052 60.7861L5.59532 57.6626L5.57741 57.56L5.32674 56.1244L5.30884 56.0218L4.75648 52.9003L4.73857 52.7978L4.48791 51.3622L4.47 51.2596L3.92211 48.132L3.90421 48.0294L3.65354 46.5989L3.63564 46.4964L3.53627 45.9324L3.38676 45.0782C3.38676 45.0782 2.9096 44.2968 2.37246 43.3728L2.31248 43.2703C2.15939 43.0108 2.00183 42.7411 1.84874 42.4766C1.79771 42.3894 1.74848 42.3033 1.69924 42.2182C1.62463 42.089 1.55242 41.9628 1.48259 41.8398L1.43425 41.7547L1.4244 41.7372C0.652704 40.3693 1.16926 39.7745 1.16926 39.7745C1.16926 39.7745 1.49333 39.272 1.91141 38.6075C1.932 38.5737 1.95349 38.5398 1.97587 38.505C2.15491 38.2179 2.35187 37.9041 2.54524 37.5903L2.69474 37.3462C2.75114 37.2549 2.80665 37.1637 2.86036 37.0734C2.88185 37.0396 2.90244 37.0047 2.92213 36.9709C3.33484 36.2879 3.67503 35.6922 3.74486 35.4809C3.85408 35.1476 4.55057 34.1622 5.24438 33.2977C5.79137 32.6148 6.33568 32.0077 6.58008 31.8621C7.13423 31.5267 7.36252 30.4428 7.36252 30.4428C7.36252 30.4428 8.5684 29.9588 8.73134 29.5856C8.89427 29.2123 11.1762 27.5346 11.1762 27.5346C11.1762 27.5346 12.0992 26.8537 12.4725 26.4436C12.5254 26.3899 12.5715 26.3281 12.6095 26.26C12.7393 25.9934 13.5871 25.7739 13.9318 25.695C14.0213 25.6745 14.0768 25.6632 14.0768 25.6632C14.216 25.3736 14.3918 25.1092 14.5987 24.8787C14.7393 24.7362 14.9147 24.245 15.0625 23.7692C15.2227 23.2503 15.3471 22.7509 15.3471 22.7509C15.6086 21.7429 16.1296 22.0413 16.1296 22.0413C16.1289 22.179 16.1403 22.3164 16.1636 22.4515C16.3812 23.682 17.5629 24.1947 18.1833 24.77C18.8681 25.4037 19.9433 27.0476 20.7911 27.3829C21.493 27.6608 22.3067 28.7088 22.5646 29.0585L22.5843 29.0851C22.6272 29.1426 22.6487 29.1754 22.6487 29.1754C22.6487 29.1754 23.1295 29.1467 23.4222 29.1405H23.5287C23.5883 29.1337 23.6448 29.1073 23.6917 29.0646C23.9826 28.838 24.4159 28.1735 24.6048 28.0207C24.8322 27.8331 25.0614 24.809 25.0614 24.809L25.073 24.8028C25.885 24.367 26.7561 28.7293 26.7561 28.7293C26.7561 28.7293 28.2878 29.2523 28.4185 29.6255C28.4436 29.6994 28.5591 29.8306 28.7328 29.9896C29.5236 30.6818 30.3652 31.2943 31.2484 31.82C31.2681 31.8313 31.2869 31.8426 31.3066 31.8518C31.3243 31.8628 31.3425 31.8727 31.3612 31.8816C31.3943 31.9 31.4265 31.9164 31.457 31.9318C31.5053 31.9564 31.5501 31.9769 31.5913 31.9933L31.645 32.0149C31.7733 32.0638 31.8941 32.1354 32.0031 32.2271C32.0353 32.2538 32.0675 32.2815 32.0989 32.3112C32.2208 32.4274 32.3329 32.5565 32.4337 32.6968C32.4489 32.7173 32.4632 32.7388 32.4775 32.7593C32.5456 32.8568 32.6065 32.9532 32.6566 33.0424C32.7389 33.18 32.8139 33.3231 32.8813 33.471C32.8813 33.471 34.217 36.0849 34.6413 36.3823C35.0657 36.6797 35.3262 39.7058 35.3262 39.7058L33.8938 45.7878C33.8938 45.7878 33.8267 47.326 33.7013 48.8949C33.6315 49.7748 33.5429 50.67 33.4372 51.314Z" fill="#CED7E7"/>
<path d="M21.9435 28.9422C21.9435 28.9422 20.9829 29.539 20.2327 29.5954C20.1345 29.6007 20.0361 29.5941 19.9391 29.5759C19.1531 29.4396 18 28.6992 18 28.6992L19.3527 27L20.9982 27.9342L21.6033 28.5792L21.9435 28.9422Z" fill="#63667E"/>
<path opacity="0.1" d="M30.0928 15.3012C30.0588 15.3563 30.0201 15.4075 29.9773 15.454C29.5065 15.9667 28.6703 15.7544 28.0284 15.6355C27.4706 15.531 26.9258 15.3506 26.4053 15.0981C25.9524 14.8766 25.4089 14.6059 25.0016 14.9238C24.8449 15.0448 24.7375 15.2386 24.5746 15.3453C24.4116 15.4519 24.204 15.4591 24.0115 15.4622C23.3848 15.4622 22.7581 15.4704 22.1467 15.3084C21.2344 15.0643 20.2909 14.4501 19.4234 14.8551C18.7448 15.171 18.3768 16.017 18.1933 16.8301C18.1038 17.229 18.0376 17.6505 17.8352 17.9889C17.6329 18.3273 17.2417 18.5673 16.9087 18.4083C16.4172 18.1735 16.3447 17.2178 15.752 17.1696C15.1012 17.1173 15.1092 17.8874 15.299 18.4442C15.5801 19.2646 15.9481 20.0849 15.9642 20.9402C15.2647 19.5051 14.9342 17.8726 15.0109 16.2313C15.0875 14.5901 15.5683 13.0073 16.3975 11.6659C16.5418 11.5636 16.6547 11.4123 16.7207 11.2332C16.7273 11.209 16.7327 11.1843 16.7368 11.1594C16.786 10.8733 16.6472 10.5728 16.6392 10.2734C16.6079 9.54222 17.299 9.03257 17.9328 8.94028C18.3545 8.87875 18.786 8.92592 19.2085 8.91054C19.4214 8.90517 19.633 8.87284 19.8397 8.81414C20.1961 8.69179 20.53 8.4954 20.8244 8.23476C21.8403 7.95909 22.8948 7.92581 23.9224 8.13699C24.95 8.34817 25.9286 8.79929 26.7975 9.4623C27.6663 10.1253 28.4068 10.986 28.9728 11.9908C29.5388 12.9957 29.9182 14.1232 30.0875 15.3032L30.0928 15.3012Z" fill="black"/>
<path d="M29.9433 13.1909C29.8987 13.3938 29.8057 13.5784 29.6747 13.7242C29.2038 14.2369 28.3677 14.0236 27.7258 13.9046C27.168 13.8025 26.623 13.6234 26.1027 13.3714C25.6497 13.1509 25.1063 12.8802 24.699 13.1981C24.5423 13.3191 24.4349 13.5129 24.272 13.6196C24.109 13.7262 23.9013 13.7334 23.7089 13.7354C23.0822 13.7406 22.4555 13.7447 21.8441 13.5826C20.9318 13.3376 19.9882 12.7243 19.1208 13.1284C18.4422 13.4442 18.0742 14.2912 17.8907 15.1044C17.8012 15.5033 17.7349 15.9248 17.5326 16.2622C17.3303 16.5995 16.9391 16.8415 16.606 16.6826C16.1146 16.4478 16.042 15.492 15.4494 15.4438C14.7986 15.3916 14.8066 16.1617 14.9964 16.7185C15.3294 17.6896 15.7824 18.6556 15.6338 19.6851C15.4861 19.6851 15.2417 19.679 15.0967 19.6749C15.2095 19.4544 14.9946 19.1919 14.7806 19.117C14.5667 19.0422 14.3169 19.0432 14.154 18.8648C13.991 18.6863 13.9902 18.4105 14.0072 18.1634C14.0443 17.6351 14.1571 17.1175 14.3411 16.6313C14.4584 16.3237 14.6097 15.9904 14.5201 15.6684C14.4664 15.5225 14.4017 15.3821 14.3268 15.249C14.1406 14.8388 14.1844 14.3261 14.3438 13.9026C14.4118 13.7221 14.461 13.5519 14.5174 13.3899C14.5887 13.1595 14.6917 12.9438 14.8227 12.751C15.0277 12.4587 15.2283 12.0188 15.0018 11.7471C14.9445 11.6784 15.0591 11.6312 15.0224 11.542C15.0159 11.5267 15.0114 11.5105 15.0089 11.4938C14.9984 11.3858 15.0212 11.2769 15.0734 11.1862C15.084 11.1626 15.0956 11.1396 15.1083 11.1174C15.1186 11.094 15.1303 11.0714 15.1432 11.0498C15.3415 10.6706 15.6049 10.3416 15.9176 10.0828C16.1119 9.92176 16.3393 9.76692 16.4162 9.50645C16.5058 9.19881 16.3482 8.87169 16.3348 8.54662C16.3034 7.81547 16.9946 7.30582 17.6284 7.21353C18.2622 7.12124 18.9193 7.27403 19.537 7.08637C20.4135 6.8218 21.0294 5.93581 21.8253 5.43846C22.2607 5.1718 22.7435 5.02264 23.2369 5.00238C23.7303 4.98212 24.2212 5.09129 24.6721 5.32156C25.6014 5.80763 26.3024 6.79001 27.2728 7.15918C27.6166 7.29044 27.989 7.34274 28.2987 7.56013C28.6568 7.8124 28.8744 8.25334 29.0606 8.68814C29.3444 9.34751 29.4017 10.01 29.5977 10.7083C29.7535 11.262 29.9693 11.986 29.9872 12.6238C29.9972 12.8143 29.9824 13.0054 29.9433 13.1909V13.1909Z" fill="#896363"/>
<g opacity="0.1">
<path opacity="0.1" d="M15.1064 12.3835C15.1207 12.3179 15.1221 12.2494 15.1105 12.1831C15.0989 12.1168 15.0746 12.0542 15.0393 12C15.0625 12.08 14.9614 12.1261 15.0169 12.1928C15.0611 12.246 15.092 12.3119 15.1064 12.3835Z" fill="black"/>
<path opacity="0.1" d="M15.0188 12C15.0082 12.0358 15.0019 12.073 15 12.1107C15.017 12.0779 15.0403 12.0441 15.0188 12Z" fill="black"/>
<path opacity="0.1" d="M29.7911 13.9045C29.3193 14.4172 28.4841 14.2049 27.8404 14.0849C27.283 13.9821 26.7385 13.802 26.2191 13.5486C25.7652 13.3271 25.2227 13.0564 24.8145 13.3743C24.6587 13.4953 24.5513 13.6891 24.3874 13.7958C24.2236 13.9024 24.0168 13.9096 23.8243 13.9116C23.1977 13.9116 22.571 13.9209 21.9587 13.7578C21.0473 13.5138 20.1037 12.9016 19.2362 13.3046C18.5576 13.6214 18.1897 14.4674 18.0062 15.2806C17.9167 15.6795 17.8513 16.101 17.6481 16.4394C17.4449 16.7778 17.0536 17.0177 16.7215 16.8598C16.23 16.624 16.1575 15.6693 15.5649 15.6211C15.102 15.5831 14.9731 15.9625 15.0044 16.384C15.0313 16.062 15.1835 15.8139 15.5649 15.8446C16.1575 15.8928 16.23 16.8485 16.7215 17.0834C17.0536 17.2423 17.4458 17.0034 17.6481 16.6629C17.8504 16.3225 17.9167 15.9031 18.0062 15.5052C18.1897 14.692 18.5576 13.845 19.2362 13.5291C20.1037 13.1251 21.0473 13.7342 21.9587 13.9824C22.5674 14.1454 23.1995 14.1403 23.8243 14.1352C24.0168 14.1352 24.22 14.129 24.3874 14.0203C24.5548 13.9116 24.656 13.7199 24.8145 13.5978C25.2227 13.281 25.7652 13.5517 26.2191 13.7722C26.7386 14.0255 27.283 14.2059 27.8404 14.3095C28.4841 14.4285 29.3193 14.6428 29.7911 14.128C30.0471 13.8481 30.1241 13.443 30.1071 13C30.0928 13.3517 30.0033 13.6707 29.7911 13.9045Z" fill="black"/>
<path opacity="0.1" d="M16.0058 9C16.0009 9.05106 15.9991 9.10246 16.0004 9.15382C16.0094 9.36711 16.0801 9.58041 16.1025 9.78858C16.1356 9.53324 16.0327 9.26662 16.0058 9Z" fill="black"/>
<path opacity="0.1" d="M14.3149 17.1311C14.3223 17.1617 14.3279 17.1929 14.3319 17.2244C14.3464 17.1186 14.3406 17.0105 14.3149 16.9075C14.2615 16.7611 14.1968 16.6203 14.1215 16.4871C14.0543 16.3354 14.0144 16.1697 14.0042 16C13.986 16.245 14.0266 16.4911 14.1215 16.7117C14.197 16.8444 14.2617 16.9848 14.3149 17.1311Z" fill="black"/>
<path opacity="0.1" d="M15.5398 20.3066L15.0161 20.2974C15.0283 20.3336 15.0332 20.3725 15.0304 20.4113C15.0276 20.45 15.0172 20.4875 15 20.5209C15.1477 20.5209 15.393 20.5271 15.5372 20.5312C15.5622 20.3557 15.5709 20.1776 15.5631 20C15.5611 20.1027 15.5533 20.2051 15.5398 20.3066Z" fill="black"/>
<path opacity="0.1" d="M14.7748 19.684C14.5609 19.6101 14.312 19.6091 14.1526 19.4297C14.0588 19.3121 14.0059 19.1592 14.004 19C13.9906 19.2359 14.004 19.4902 14.1526 19.6542C14.312 19.8337 14.5609 19.8347 14.7748 19.9085C14.8444 19.9317 14.9092 19.971 14.9651 20.0239C15.0209 20.0768 15.0668 20.1422 15.0998 20.2162C15.1902 20.0039 14.9825 19.7547 14.7748 19.684Z" fill="black"/>
</g>
<path opacity="0.1" d="M30.8797 65.6186C30.7794 65.552 30.6774 65.4894 30.5735 65.4299C30.3596 65.3064 30.1403 65.1955 29.9164 65.0977C28.8824 64.6465 27.775 64.4824 26.6524 64.5101C26.2048 64.706 25.9138 64.8464 25.9138 64.8464L25.3445 65.0433L25.2496 65.0761C25.2433 65.0044 25.2361 64.9326 25.2299 64.8598C25.2236 64.787 25.2164 64.7172 25.2093 64.6455C25.0087 62.4705 24.8512 60.236 24.8512 60.236V58.3061V58.0815L24.8404 52.3953L24.7509 50.5208L24.7088 49.6912L24.7008 49.5333L24.6847 49.2092L24.6757 49.0164C24.6559 48.9554 24.6392 48.8931 24.6256 48.8298C24.6193 48.8042 24.613 48.7755 24.6077 48.7457C24.5853 48.6432 24.5611 48.5109 24.536 48.3673C24.3722 47.4239 24.1672 45.8334 24.1547 45.5104C24.1386 45.0797 23.8127 42.5038 23.8127 42.5038C23.7796 41.0856 22.7384 38.4153 22.4761 37.9118C22.2138 37.4083 21.9211 34.3832 22.0195 34.2201C22.0706 34.133 22.1037 33.6171 22.1243 33.1413C22.1243 33.087 22.1288 33.0337 22.1305 32.9814C22.144 32.6091 22.1502 32.2984 22.1502 32.2984L23.1744 32.0667L23.4492 32.0051L23.4707 32L23.4797 32.0205C23.5092 32.0831 23.6014 32.283 23.7097 32.5455C23.7223 32.5732 23.7339 32.603 23.7464 32.6327C23.7518 32.6471 23.7581 32.6614 23.7644 32.6758C23.9649 33.1783 24.1968 33.8397 24.1869 34.2201C24.1708 34.8928 24.8395 36.5171 24.8395 36.5171C24.904 36.8904 26.3221 40.6046 26.3221 40.6046C26.3221 40.6046 27.4796 44.245 27.4142 44.8428C27.3489 45.4407 27.9684 49.3979 27.9684 49.3979L28.604 53.468C28.9129 54.2699 29.3202 56.1177 29.3202 56.1177L29.4751 57.1658L29.5046 57.3657L29.9173 60.1621L30.1197 61.5322C30.1197 61.5322 30.2047 62.2602 30.3336 63.0704C30.3444 63.1432 30.3569 63.217 30.3694 63.2908C30.4488 63.8241 30.5616 64.3502 30.7069 64.8649C30.779 65.1115 30.8367 65.3633 30.8797 65.6186V65.6186Z" fill="black"/>
<path d="M31.892 65.6934C31.8553 65.6688 31.8186 65.6442 31.781 65.6206C31.6807 65.554 31.5786 65.4914 31.4748 65.4319C31.2608 65.3084 31.0415 65.1975 30.8177 65.0997C29.7837 64.6485 28.6763 64.4844 27.5536 64.5121C27.106 64.708 26.8151 64.8485 26.8151 64.8485L26.2457 65.0453C26.2385 64.9736 26.2323 64.9018 26.2251 64.829C26.2179 64.7562 26.2126 64.6977 26.2072 64.6321C26.0067 62.4622 25.8491 60.238 25.8491 60.238V58.2896V58.0651L25.8384 52.3933L25.7488 50.6028L25.7309 50.2316L25.7184 49.9804L25.7023 49.6481L25.6862 49.3107L25.6745 49.0677V49.0144C25.6745 49.0092 25.6745 49.0031 25.6683 48.9969C25.6513 48.9416 25.6307 48.8575 25.6083 48.7508L25.5975 48.6996C25.5931 48.676 25.5877 48.6503 25.5832 48.6247C25.4149 47.75 25.1678 45.8642 25.1544 45.5104C25.1383 45.0797 24.8124 42.5038 24.8124 42.5038C24.7793 41.0855 23.7381 38.4153 23.4758 37.9118C23.2135 37.4083 22.9217 34.3832 23.0193 34.2201C23.0757 34.1176 23.1088 33.4951 23.1303 32.9814C23.1303 32.9403 23.1303 32.9004 23.1303 32.8624C23.1419 32.5455 23.1464 32.2984 23.1464 32.2984L24.0989 32.0831L24.3406 32.0287L24.3782 32.0205L24.4678 32C24.4678 32 24.585 32.2482 24.7256 32.5896L24.7435 32.6327C24.9485 33.1393 25.1911 33.8284 25.1839 34.2201C25.1678 34.8928 25.8366 36.5171 25.8366 36.5171C25.901 36.8904 27.3191 40.6046 27.3191 40.6046C27.3191 40.6046 28.4766 44.245 28.4113 44.8428C28.3459 45.4407 28.9654 49.3979 28.9654 49.3979L29.601 53.4679C29.9099 54.2698 30.3172 56.1177 30.3172 56.1177L30.4614 57.0939L30.4909 57.2919L30.8159 59.4986L31.1158 61.5321C31.1158 61.5321 31.2053 62.2571 31.3289 63.0703C31.3405 63.1441 31.3521 63.218 31.3647 63.2928C31.444 63.8285 31.5568 64.3569 31.7022 64.8741C31.7815 65.142 31.8449 65.4157 31.892 65.6934V65.6934Z" fill="#63667E"/>
<path d="M30.51 12.6923C30.51 12.6923 30.168 13.1969 29.8592 13.1969C29.5503 13.1969 28.348 13.1405 27.7213 12.9169C27.0947 12.6934 24.0222 12.5242 24.0222 12.5242C24.0222 12.5242 19.6713 12.5426 19.5245 12.3745C19.3777 12.2063 16.8191 11.31 16.5586 11.3664C16.504 11.3787 16.3706 11.4054 16.1924 11.4392L15.9883 11.4772C15.6795 11.5336 15.2936 11.5992 14.9409 11.6474C14.5049 11.7059 14.1218 11.7356 14 11.6843V11.2547C14 11.2547 14.5049 10.4138 14.5371 10.1728C14.5694 9.93182 14.9937 6.43809 16.102 5.18806C16.5599 4.18548 17.3009 3.39023 18.204 2.93205C19.7036 2.18449 21.2031 1.55076 21.2031 1.55076L21.4654 1.50769L22.3114 1.36413C22.3371 1.33481 22.365 1.30805 22.3947 1.28414C22.6292 1.07905 23.34 0.63298 24.2666 1.59178L24.4304 1.89122C24.4304 1.89122 27.2818 2.65621 28.6013 5.32547C29.9209 7.99473 29.9872 10.6086 30.0848 11.8033C30.0848 11.8033 30.0194 12.1396 30.1501 12.2699C30.1974 12.3177 30.2426 12.3684 30.2853 12.4216C30.2969 12.435 30.3086 12.4483 30.3193 12.4626C30.3569 12.5057 30.3918 12.5508 30.4205 12.5877C30.4239 12.5906 30.4269 12.5941 30.4294 12.598C30.4364 12.6077 30.4439 12.617 30.4518 12.6257L30.51 12.6923Z" fill="#FED253"/>
<path opacity="0.05" d="M30.3757 13.4239C30.3757 13.4239 30.0338 13.9284 29.7249 13.9284C29.416 13.9284 28.2137 13.872 27.5871 13.6485C26.9604 13.4249 23.8879 13.2557 23.8879 13.2557C23.8879 13.2557 19.5371 13.2742 19.3903 13.106C19.2434 12.9378 16.6849 12.0416 16.4243 12.098C16.3697 12.1103 16.2363 12.137 16.0582 12.1708L16.0116 11.8427L16 11.7616C16 11.7616 20.9381 10.5485 24.2299 11.1843C27.5217 11.8201 29.9505 12.5277 29.9505 12.5277C29.9505 12.5277 29.8851 12.864 30.0159 12.9942C30.0632 13.0421 30.1083 13.0928 30.151 13.146C30.1627 13.1593 30.1743 13.1727 30.1851 13.187C30.2227 13.2301 30.2576 13.2752 30.2862 13.3121C30.2896 13.315 30.2927 13.3185 30.2952 13.3224C30.3022 13.3321 30.3096 13.3413 30.3175 13.3501L30.3757 13.4239Z" fill="black"/>
<path opacity="0.1" d="M30.2194 14.1817C29.6097 14.236 28.4862 14.0658 27.9947 13.9827C27.855 13.9591 27.7181 13.9304 27.5802 13.8956C27.0529 13.7643 25.4316 13.3962 24.4469 13.5664C23.2571 13.7715 19.8999 13.3982 19.8999 13.3982C19.8999 13.3982 17.8301 12.9132 16.9985 12.5215C16.6932 12.3769 16.1829 12.3317 15.6753 12.4035C15.5459 12.422 15.4174 12.4484 15.2903 12.4825C14.5974 12.6701 14.0128 13.0978 14.114 13.8269C14.0753 13.7737 14.0394 13.7179 14.0066 13.6597C13.9627 12.9932 14.1435 12.5963 14.3942 12.3625L14.4533 12.3348C14.7595 12.2352 15.0711 12.1588 15.3861 12.1061C15.4354 12.0969 15.4864 12.0887 15.5383 12.0815C16.4291 11.9441 17.7173 11.9134 18.8042 12.5399C18.8042 12.5399 19.814 13.0824 20.4989 13.0824C21.1837 13.0824 26.7566 13.1388 28.0609 13.5674C28.3206 13.6534 28.5854 13.7174 28.8532 13.7592C29.3288 13.8294 29.812 13.7772 30.2677 13.6064C30.277 13.7998 30.2607 13.9938 30.2194 14.1817V14.1817Z" fill="black"/>
<path opacity="0.1" d="M30.51 13.5909C30.51 13.5909 30.168 14.0954 29.8592 14.0954C29.5503 14.0954 28.348 14.039 27.7213 13.8155C27.0947 13.5919 24.0222 13.4227 24.0222 13.4227C24.0222 13.4227 19.6713 13.4412 19.5245 13.273C19.3777 13.1048 16.8191 12.2086 16.5586 12.265C16.504 12.2773 16.3706 12.304 16.1924 12.3378L15.9883 12.3757C15.6338 12.3737 15.2809 12.431 14.9409 12.546C14.5049 12.6044 14.1218 12.6342 14 12.5829V12.4978C14.0939 12.4354 14.1917 12.3812 14.2927 12.3357C14.8969 12.142 15.5189 12.0311 16.1459 12.0055C16.9274 11.9727 17.8415 12.0773 18.6445 12.5408C18.6445 12.5408 19.6543 13.0833 20.3392 13.0833C21.024 13.0833 26.5969 13.1387 27.9013 13.5683C28.1611 13.6535 28.4258 13.7172 28.6936 13.7591C29.281 13.8439 29.8776 13.7457 30.4205 13.475C30.4239 13.4779 30.4269 13.4814 30.4294 13.4853C30.4364 13.495 30.4439 13.5042 30.4518 13.513L30.51 13.5909Z" fill="black"/>
<path d="M13.4016 13.9228C13.4016 13.9228 12.3094 12.9701 13.7274 12.3353C13.7274 12.3353 16.2046 11.4586 18.0792 12.5404C18.0792 12.5404 19.089 13.0809 19.7739 13.0809C20.4587 13.0809 26.0316 13.1373 27.336 13.5669C27.5957 13.6522 27.8605 13.7159 28.1283 13.7577C28.8222 13.854 29.5251 13.701 30.1399 13.3198C30.2294 13.2634 30.31 13.2347 30.3341 13.2675C30.4156 13.3803 30.3511 14.0335 29.634 14.1637C29.0745 14.2663 27.8033 14.0725 27.2688 13.9833C27.1301 13.9597 26.9922 13.9299 26.8552 13.8961C26.3279 13.7648 24.7066 13.3967 23.7174 13.5669C22.5285 13.772 19.1705 13.3987 19.1705 13.3987C19.1705 13.3987 17.1016 12.9137 16.2699 12.521C15.4382 12.1282 13.0918 12.4666 13.4016 13.9228Z" fill="#FED253"/>
<path opacity="0.1" d="M23.709 3.853C23.6195 3.70533 22.4691 2.65014 22 2.22355L22.846 2.07999C22.8717 2.05066 22.8996 2.0239 22.9292 2C23.5443 2.73935 23.709 3.853 23.709 3.853Z" fill="black"/>
<path opacity="0.1" d="M19.3751 9.13023L19 9.76499L20.4342 9.70962L20.4664 9L19.3751 9.13023Z" fill="black"/>
<path opacity="0.1" d="M29 10L29.1629 10.5784L30.0761 10.7465L29.6849 10.0554L29 10Z" fill="black"/>
<path opacity="0.1" d="M12 30C12.0976 30.1866 15.3079 35.0247 16.1557 34.8904C17.0035 34.7561 12 30 12 30Z" fill="black"/>
<path opacity="0.1" d="M23 34C23 34 23.7824 34.8593 23.6679 35.1947C23.5533 35.53 23 34 23 34Z" fill="black"/>
<path opacity="0.1" d="M14.43 40C14.43 40 13.7451 43.6773 14.1041 43.7942C14.4631 43.9111 14.43 40 14.43 40Z" fill="black"/>
<path opacity="0.1" d="M24 54C24.1137 54.3733 25.0591 56.8006 25.2712 56.9308C25.4834 57.061 24 54 24 54Z" fill="black"/>
<path opacity="0.1" d="M34.6944 44C34.6613 44.1302 33.8466 44.8963 34.0257 45.1762C34.2047 45.4562 34.6944 44 34.6944 44Z" fill="black"/>
<path opacity="0.1" d="M28.0571 51C28.041 51.0943 27.8781 53.0509 28.1878 53.4273C28.4976 53.8036 28.0571 51 28.0571 51Z" fill="black"/>
<path opacity="0.1" d="M37.3585 60.8983C37.1222 61.049 36.8778 61.1946 36.6289 61.3341C36.3603 61.4838 36.0917 61.6264 35.8178 61.7607C35.7086 61.815 35.5994 61.8684 35.491 61.9196C35.3263 61.9976 35.1634 62.0724 35.0022 62.1442C34.5125 62.3637 34.0407 62.5544 33.6209 62.7154C33.4579 62.778 33.3022 62.8354 33.1571 62.8887C32.4266 63.1543 31.9414 63.2989 31.9414 63.2989C31.8306 63.2717 31.7171 63.261 31.6039 63.2671C31.5726 63.2671 31.5403 63.2671 31.5072 63.2671C31.3556 63.2797 31.2047 63.3016 31.0551 63.3327C30.0552 63.5378 28.6425 64.1131 27.7911 64.4894C27.3435 64.6853 27.0525 64.8258 27.0525 64.8258L26.4831 65.0227L26.3883 65.0555C25.7714 65.2708 24.9039 65.5764 24.5915 65.7036C24.0866 65.9087 19.7026 66.9536 19.7026 66.9536C19.3021 67.0788 18.893 67.1646 18.4797 67.21C17.4614 67.317 16.4378 67.3437 15.4162 67.29C14.3903 67.3659 12.7305 67.1074 11.7645 66.9331L11.6106 66.9054C11.2372 66.8357 11 66.7854 11 66.7854L11.1253 66.5875L13.6956 62.5257L13.7108 62.5011L16.1055 58.7182L16.1951 58.5807L16.4126 58.2372C16.4126 58.2372 16.5433 58.0321 17.0464 58.0188C17.1055 58.0188 17.17 58.0188 17.2407 58.0188C17.6633 58.0577 18.0803 58.1552 18.4824 58.309L18.5988 58.349C20.3329 58.9181 23.0132 58.7756 23.0132 58.7756C23.0132 58.7756 24.681 58.468 25.9917 58.2834L26.0892 58.269C26.5175 58.1997 26.9488 58.1569 27.3811 58.1408C28.1796 58.1593 29.9074 57.6742 29.9074 57.6742C30.279 57.583 30.4356 57.5061 30.6451 57.3348C30.6729 57.3123 30.7024 57.2876 30.7346 57.261C30.8242 57.1841 30.9271 57.0897 31.0596 56.9728C31.3013 56.7606 31.6406 56.4724 32.1742 56.0684C32.2207 56.0335 32.27 55.9986 32.3228 55.9658C32.3756 55.933 32.4428 55.8889 32.5072 55.852C33.0239 55.5717 33.5687 55.3651 34.1294 55.2367C34.5945 55.1222 35.0664 55.0478 35.5412 55.0142H35.6119C36.9548 54.9322 38.3263 55.1957 39.1284 56.0602C39.2686 56.2121 39.3909 56.3845 39.4919 56.5729C39.5409 56.6624 39.5845 56.7556 39.6226 56.8518C39.6957 57.0354 39.7501 57.2281 39.7846 57.4261C39.7912 57.463 39.7965 57.4999 39.8007 57.5368C39.8007 57.5481 39.8007 57.5584 39.8007 57.5696C39.8007 57.5994 39.8061 57.6291 39.8079 57.6589C39.8795 58.8863 38.7676 59.9959 37.3585 60.8983Z" fill="black"/>
<path d="M11 66.7935C11 66.7935 13.9006 67.4087 15.4162 67.297C15.4162 67.297 18.2031 67.4651 19.7026 66.9616C19.7026 66.9616 24.0893 65.9157 24.5915 65.7106C25.0937 65.5055 27.0525 64.8328 27.0525 64.8328C27.0525 64.8328 30.8662 63.0034 31.9414 63.3018C31.9414 63.3018 40.3835 60.8007 39.7801 57.4218C39.1767 54.0429 33.8483 54.8089 32.1706 56.0774C30.4929 57.3459 30.7382 57.4782 29.9056 57.6833C29.9056 57.6833 28.1778 58.1683 27.3793 58.1499C26.5807 58.1314 23.0114 58.7846 23.0114 58.7846C23.0114 58.7846 20.2084 58.9344 18.4815 58.3181C16.7546 57.7018 16.4117 58.2432 16.4117 58.2432L11 66.7935Z" fill="#FFA2A2"/>
<path opacity="0.1" d="M17.159 57.9455C17.1595 57.9496 17.1595 57.9538 17.159 57.9578C17.1528 58.0341 17.1355 58.1086 17.108 58.1783C16.7642 59.1443 14.8126 61.75 14.8126 61.75C14.7236 62.0595 14.6162 62.3617 14.4912 62.6544C14.2223 63.2802 13.9126 63.8818 13.5646 64.4541C13.0489 65.3104 12.4859 66.128 11.8789 66.9019H11.8744C11.7972 66.9675 11.7168 67.0281 11.6336 67.0834C11.4232 67.227 11.1072 67.4044 10.8091 67.4259C10.7583 67.4294 10.7074 67.4276 10.6569 67.4208C10.6882 67.4208 10.7187 67.4126 10.7464 67.4064L10.6372 67.3695L10.4877 67.3162C10.237 67.2259 9.98846 67.1271 9.74197 67.0198L9.59247 66.9542C9.35374 66.8489 9.12008 66.7358 8.89149 66.6148L8.74199 66.5368C8.50326 66.4097 8.2696 66.2753 8.04102 66.1338C7.95866 66.0846 7.87719 66.0313 7.79662 65.981C7.55311 65.8252 7.31438 65.6618 7.08043 65.4909C6.83215 65.3097 6.58924 65.1207 6.3517 64.9238C6.17266 64.5433 6.02494 64.206 5.94437 64.0245C5.79755 63.6871 5.78502 63.2041 5.80292 62.8544C5.80292 62.8185 5.80292 62.7847 5.80829 62.7519C5.82351 62.5324 5.84679 62.3817 5.84679 62.3817C5.71414 62.1785 5.59446 61.9647 5.48869 61.7418C5.42793 61.6311 5.39337 61.5042 5.38843 61.3736C5.39248 61.3212 5.38823 61.2684 5.37589 61.2178C5.30696 60.8937 5.01064 60.3369 4.73669 59.9872C4.53258 59.7298 4.52005 58.768 4.53974 58.086C4.55138 57.6758 4.57376 57.3744 4.57376 57.3744C4.53364 57.3447 4.50362 57.3002 4.48871 57.2482C4.41673 57.0238 4.36805 56.7904 4.34368 56.553C4.34368 56.5191 4.33563 56.4853 4.33115 56.4504C4.27386 55.9797 4.24789 55.507 4.24789 55.507C3.58542 54.9543 3.27029 54.0919 3.12347 53.3228L3.10467 53.2202C3.02404 52.7475 2.98981 52.266 3.00262 51.7846C3.00262 51.7384 3.00262 51.7036 3.00262 51.682C3.00262 51.6605 3.00262 51.6564 3.00262 51.6564C3.00262 51.6564 3.09035 49.4342 3.33565 48.5667C3.34549 48.5298 3.35624 48.496 3.36698 48.4642C3.38505 48.4097 3.40848 48.3577 3.43681 48.3093C3.52633 48.1729 3.58989 47.9155 3.64271 47.611C3.67942 47.3997 3.70986 47.1649 3.73224 46.9311C3.75283 46.7363 3.76894 46.5425 3.78147 46.363C3.81639 45.8831 3.82713 45.5088 3.82713 45.5088L3.66151 44.5736C3.61585 44.3182 3.58094 44.0609 3.55677 43.8035C3.55677 43.7696 3.54961 43.7358 3.54603 43.7009C3.50416 43.2256 3.49667 42.7471 3.52365 42.2704C3.52365 42.2355 3.52365 42.2017 3.52902 42.1679C3.59892 41.082 3.84674 40.021 4.25953 39.0402L4.30429 38.9377C4.36398 38.8009 4.42664 38.6666 4.49229 38.5347C4.53974 38.4372 4.58987 38.3409 4.6418 38.2455C4.77945 37.9901 4.92886 37.7433 5.08942 37.5061C5.11269 37.4713 5.13687 37.4374 5.16104 37.4036C5.44038 37.0069 5.75083 36.6403 6.0885 36.3084C6.99269 35.4183 7.82258 35.0317 8.57637 35.002C11.8726 34.8687 13.7213 41.5464 14.0203 42.7165C14.049 42.8293 14.0633 42.8908 14.0633 42.8908C14.0633 42.8908 15.399 44.4218 15.0078 45.0935C14.9319 45.2413 14.8857 45.4067 14.8726 45.5775C14.7652 46.4809 15.0731 47.9689 15.0731 47.9689C15.0731 47.9689 15.1823 48.3791 15.501 49.3614L15.595 49.6486C15.7947 50.2638 15.8412 51.2965 15.7266 52.2214C15.6165 53.1074 15.3578 53.8909 14.9433 54.0919C14.0955 54.5021 14.3238 54.9122 14.519 55.2496C14.6349 55.4915 14.7317 55.7447 14.8081 56.0064C14.9308 56.3848 15.0445 56.7827 15.0874 56.9375C15.1 56.9806 15.1062 57.0042 15.1062 57.0042C15.225 56.9515 15.3483 56.9137 15.4742 56.8914C15.6344 56.8657 15.7929 56.8842 15.8233 57.0411C15.8394 57.1252 15.9316 57.2246 16.0615 57.3241C16.4464 57.6276 17.159 57.9455 17.159 57.9455Z" fill="black"/>
<path d="M16.1581 57.9457C16.1526 58.0237 16.1353 58.1 16.107 58.1713C15.7651 59.1383 13.8117 61.7501 13.8117 61.7501C13.7223 62.0595 13.6149 62.3616 13.4903 62.6546C13.2742 63.1599 13.0299 63.6487 12.7589 64.1179C12.1977 65.0876 11.5759 66.0095 10.8985 66.8764L10.878 66.902C10.878 66.902 10.7992 66.9707 10.6738 67.0589C10.4499 67.2226 10.2031 67.3413 9.94422 67.4096L9.83501 67.3727L9.6855 67.3194C9.43483 67.2291 9.18626 67.1303 8.93977 67.023L8.79026 66.9574C8.55153 66.8521 8.31787 66.739 8.08929 66.618L7.93978 66.54C7.70105 66.4129 7.4674 66.2785 7.23881 66.137C7.15645 66.0878 7.07498 66.0345 6.99441 65.9842C6.75091 65.8284 6.51218 65.665 6.27822 65.4941C6.02994 65.3129 5.78704 65.1239 5.5495 64.927C5.43968 64.8367 5.33106 64.7441 5.22363 64.6491C5.10277 64.3866 5.00609 64.1651 4.94611 64.0277C4.79929 63.6903 4.78676 63.2073 4.80466 62.8576C4.80466 62.8217 4.80466 62.7879 4.81003 62.7551C4.82525 62.5356 4.84853 62.3849 4.84853 62.3849C4.84853 62.3849 4.77601 62.2731 4.68828 62.1213C4.63904 62.0372 4.58622 61.9398 4.53878 61.8434C4.44925 61.6629 4.37942 61.4804 4.39285 61.3768C4.39467 61.3591 4.39467 61.3412 4.39285 61.3235C4.39151 61.2889 4.38701 61.2545 4.37942 61.221C4.31049 60.8969 4.01327 60.3401 3.73933 59.9904C3.53521 59.733 3.52268 58.7712 3.54148 58.0892C3.54148 58.0544 3.54148 58.0205 3.54148 57.9867C3.55401 57.6329 3.57281 57.3776 3.57281 57.3776C3.47165 57.3273 3.39376 56.9551 3.34363 56.5572L3.3302 56.4547C3.27291 55.984 3.24695 55.5112 3.24695 55.5112C2.58447 54.9585 2.26935 54.0961 2.12342 53.327C2.02176 52.7884 1.98263 52.2367 2.00704 51.6863C2.00704 51.6699 2.00704 51.6606 2.00704 51.6606C2.00704 51.6606 2.08403 49.4272 2.32933 48.5586C2.33917 48.5217 2.34992 48.4879 2.36066 48.4561C2.38214 48.4029 2.40887 48.3526 2.44034 48.3064C2.57641 48.089 2.66683 47.566 2.72592 47.0307L2.73666 46.9282C2.81096 46.2103 2.83156 45.5059 2.83156 45.5059L2.66504 44.5706C2.61968 44.3143 2.58477 44.0576 2.5603 43.8005C2.55582 43.7667 2.55314 43.7318 2.54956 43.698C2.50769 43.2227 2.50021 42.7442 2.52717 42.2675C2.52717 42.2326 2.52717 42.1988 2.53344 42.1649C2.60292 41.079 2.85076 40.0179 3.26395 39.0373C3.27828 39.0024 3.2926 38.9686 3.30872 38.9347C3.42382 38.6684 3.55174 38.4096 3.69188 38.1595C3.74022 38.0723 3.78946 37.9862 3.84138 37.9011C3.92285 37.7657 4.0079 37.6324 4.09653 37.5032L4.16815 37.4006C4.44511 37.0055 4.75284 36.6399 5.08756 36.3085C6.07232 35.3415 6.96756 34.9683 7.77327 35.0021C10.9469 35.1323 12.7284 41.5701 13.0212 42.7166C13.0498 42.8294 13.0641 42.8909 13.0641 42.8909C13.0641 42.8909 14.4007 44.4219 14.0095 45.0936C13.9336 45.2415 13.8875 45.4068 13.8743 45.5776C13.766 46.4811 14.0749 47.969 14.0749 47.969C14.0749 47.969 14.1841 48.3792 14.5028 49.3616C14.5314 49.4528 14.5628 49.5482 14.5923 49.6487C14.7919 50.264 14.8385 51.2966 14.7239 52.2216C14.6138 53.1086 14.356 53.891 13.9406 54.092C13.0937 54.5022 13.3211 54.9124 13.5171 55.2497C13.6331 55.4916 13.7299 55.7449 13.8063 56.0065C13.9612 56.4895 14.1035 57.0043 14.1035 57.0043C14.1621 56.9784 14.2219 56.9561 14.2825 56.9376C14.4071 56.8907 14.539 56.875 14.6693 56.8915C14.7054 56.8947 14.7396 56.9109 14.7671 56.9378C14.7946 56.9647 14.814 57.0009 14.8224 57.0412C14.8465 57.1643 15.0319 57.3171 15.2566 57.4617C15.5483 57.6435 15.8494 57.8052 16.1581 57.9457V57.9457Z" fill="#CED7E7"/>
<path opacity="0.1" d="M5 48.3048C5.30975 48.2864 8.63467 46.8117 9.31953 47.3152C10.0044 47.8187 14.2433 51.0859 14.2433 51.0859C14.2433 51.0859 11.5872 47.1101 9.27297 46.177C6.95878 45.2438 5 48.3048 5 48.3048Z" fill="black"/>
<path opacity="0.1" d="M10 54C10 54 13.3249 54.765 13.8298 55.288L10 54Z" fill="black"/>
<path opacity="0.1" d="M9.16217 59C9.11382 59.0564 7.90883 62.1543 8.00552 62.1543C8.1022 62.1543 9.12994 60.3085 9.12994 60.3085L9.16217 59Z" fill="black"/>
<path opacity="0.1" d="M11.8731 56C11.8731 56 10.8955 56.3928 11.0092 56.4297C11.1229 56.4666 11.84 56.1682 11.8731 56Z" fill="black"/>
<path opacity="0.1" d="M10 60C10.1629 60.3917 10.684 61.5679 10.7986 61.3813C10.9131 61.1946 10 60 10 60Z" fill="black"/>
<path opacity="0.1" d="M21.6306 30.0544L21.4909 30.282C21.4909 30.282 20.3817 29.3868 19.9261 28.9387C19.4704 28.4906 18.3943 30.5435 17.5465 31.1034C16.6987 31.6633 15.2655 31.813 15.2655 31.813C15.2655 31.813 14.1572 30.5435 14.1912 30.1723C14.2252 29.8011 13.6701 29.6873 13.637 29.4258C13.6039 29.1643 13.4087 28.4177 13.1482 28.0445C13.0104 27.8476 12.9907 27.2313 13.0032 26.695C13.0927 26.6745 13.1482 26.6632 13.1482 26.6632C13.2874 26.3736 13.4633 26.1092 13.6701 25.8787C13.9638 25.5803 14.4195 23.7509 14.4195 23.7509C14.68 22.7429 15.201 23.0413 15.201 23.0413C15.201 24.5723 16.5707 25.1322 17.2547 25.7669C17.9386 26.4017 19.0147 28.0445 19.8625 28.3808C20.5581 28.6526 21.3719 29.7037 21.6306 30.0544Z" fill="black"/>
<path d="M21.6351 29.054L21.4954 29.2827C21.4954 29.2827 20.3817 28.3895 19.9261 27.9383C19.4704 27.4871 18.3943 29.5432 17.5465 30.1031C16.6987 30.663 15.2655 30.8137 15.2655 30.8137C15.2655 30.8137 14.1572 29.5432 14.1912 29.173C14.2252 28.8028 13.6701 28.688 13.637 28.4254C13.6039 28.1629 13.4087 27.4174 13.1482 27.0441C13.0104 26.8473 12.9907 26.231 13.0032 25.6946L13.1482 25.6639C13.2874 25.3743 13.4633 25.1099 13.6701 24.8794C13.9638 24.58 14.4195 22.7516 14.4195 22.7516C14.68 21.7436 15.201 22.041 15.201 22.041C15.201 23.572 16.5707 24.1329 17.2547 24.7676C17.9386 25.4024 19.0147 27.0441 19.8625 27.3805C20.5626 27.6563 21.3763 28.7033 21.6351 29.054Z" fill="#CED7E7"/>
<path opacity="0.1" d="M22.0044 30.2194C22.0044 30.2194 21.0438 30.8163 20.2936 30.8727C20.1954 30.8779 20.097 30.8714 20 30.8532C20 30.8532 20.8281 30.1446 21.5971 30L22.0044 30.2194Z" fill="black"/>
<path opacity="0.1" d="M24.6114 32.7096C24.6114 32.7096 23.4002 32.1692 23 32.9824C23.0134 32.6091 23.0188 32.2994 23.0188 32.2994L24.3393 32C24.3393 32 24.4664 32.2697 24.615 32.6327C24.6114 32.6809 24.6114 32.7096 24.6114 32.7096Z" fill="black"/>
<path d="M20 30.9187C20 30.9187 21.4512 29.9209 22.1486 30.005C22.88 30.0922 24.2971 30.1537 24.2971 30.1537C24.2971 30.1537 23.8083 31.4232 23.8737 31.6847C23.939 31.9462 23.9552 33.2157 23.9552 33.2157C23.9552 33.2157 22.4888 32.5625 22.2444 33.7756C22.2444 33.7756 21.4458 32.4128 20.9078 32.0016C20.5508 31.7061 20.2432 31.3393 20 30.9187Z" fill="#63667E"/>
<path opacity="0.1" d="M28.3616 31.1613C27.9381 31.1613 26.4386 30.0774 26.1127 29.3688C25.7869 28.6602 25.3303 29.4427 24.9069 29.7052C24.6383 29.8734 23.5738 29.5216 23 29.2663C23.291 29.0397 23.9355 28.4018 24.1244 28.249C24.3518 28.0614 24.581 25.0373 24.581 25.0373C25.3957 24.5523 26.2757 28.9576 26.2757 28.9576C26.2757 28.9576 27.8083 29.4806 27.9381 29.8539C27.9632 29.9277 28.0787 30.059 28.2524 30.2179C28.4314 30.7348 28.5299 31.1613 28.3616 31.1613Z" fill="black"/>
<path d="M28.1503 31.1583C27.7268 31.1583 26.2273 30.0754 25.9015 29.3668C25.5756 28.6582 25.119 29.4406 24.6956 29.7021C24.427 29.8703 23.5738 29.5452 23 29.2919C23.291 29.0663 23.7242 28.4018 23.9131 28.248C24.1405 28.0614 24.3697 25.0373 24.3697 25.0373C25.1844 24.5523 26.0644 28.9576 26.0644 28.9576C26.0644 28.9576 27.597 29.4806 27.7268 29.8539C27.7519 29.9277 27.8674 30.059 28.0411 30.2179C28.2201 30.7317 28.3186 31.1583 28.1503 31.1583Z" fill="#CED7E7"/>
<path d="M35.0716 64.7414L49.2442 51.2053C49.3856 51.0685 49.5658 50.9955 49.7509 51.0002L55.0382 51.1592C55.0382 51.1592 55.4043 51.4668 54.8672 52.1395L41.4977 64.7065C41.3532 64.8418 41.1739 64.9189 40.9874 64.9259L35.2059 65.1454C35.1644 65.1469 35.1235 65.1335 35.0889 65.1071C35.0544 65.0807 35.0278 65.0427 35.0131 64.9982C34.9983 64.9537 34.996 64.9051 35.0065 64.859C35.017 64.813 35.0397 64.7719 35.0716 64.7414Z" fill="#306B34"/>
<path d="M41 61.9838C41 61.9838 44.0957 67.0619 47.5352 62.3386C50.9747 57.6153 49.9801 55.1337 48.9372 55.0025C47.8942 54.8712 42.0259 60.0426 41 61.9838Z" fill="#FFA2A2"/>
<path opacity="0.1" d="M62 5.60619C62 5.60619 65.9901 -3.26401 70.7062 1.31055C70.7062 1.31055 71.7357 1.74022 71.6578 2.98718C71.6578 2.98718 71.2612 2.73799 70.9461 3.69064C70.8304 4.02867 70.6801 4.34982 70.4985 4.64739C70.2571 5.04939 69.9084 5.3509 69.5048 5.50672V5.50672C69.5048 5.50672 67.3884 7.32281 63.4682 5.92203C63.4682 5.92203 62.3599 6.10456 62.1808 5.94664L63.4691 4.86786C63.4691 4.86786 64.1235 5.98048 65.0805 6.10764C65.0805 6.10764 63.4691 4.94887 63.6535 4.69764C63.6911 4.64637 64.359 4.16132 64.359 4.16132C64.359 4.16132 65.504 6.09021 66.9883 6.23275C66.9883 6.23275 64.9086 5.14679 64.6105 3.97674L65.6553 3.30917C65.6553 3.30917 66.7779 5.41648 68.4636 5.65234C68.4636 5.65234 66.324 4.43102 65.8925 3.18099L66.9981 2.68672C66.9981 2.68672 68.1288 4.71712 69.5316 4.90273C69.5316 4.90273 67.1843 3.2056 67.2577 2.59238C67.2577 2.59238 68.2971 2.20885 68.6158 2.2591C68.6158 2.2591 69.4564 3.69474 70.2801 3.72038C70.2801 3.72038 68.8163 2.39549 68.913 2.19142C68.913 2.19142 70.383 2.10426 71.1511 2.51136C71.1511 2.51136 70.0589 1.81508 68.913 1.92788C68.913 1.92788 69.4314 1.22954 70.1073 1.07572C70.1073 1.07572 69.2971 0.694255 68.5567 1.95352C68.5567 1.95352 67.4135 2.07349 67.2721 2.21911C67.2721 2.21911 67.8504 0.857302 68.5621 0.277919C68.5621 0.277919 67.5012 0.49224 66.9757 2.33806L65.8549 2.8067C65.8549 2.8067 66.5362 0.960873 67.1369 0.390719C67.1369 0.390719 66.0841 0.800902 65.5809 2.95436L64.5496 3.5963C64.5496 3.5963 65.0304 1.95557 65.5792 1.15468C65.5792 1.15468 64.6741 1.77611 64.2596 3.79216L63.615 4.31207C63.615 4.31207 63.9847 3.12049 64.1181 2.78926C64.2515 2.45804 64.1844 2.38934 64.1844 2.38934C63.7363 2.99612 63.4441 3.73344 63.3402 4.51921C63.3402 4.51921 62.0743 5.68823 62 5.60619Z" fill="#306B34"/>
<path opacity="0.1" d="M79 10.5335C79 10.5335 80.803 6.52495 82.9337 8.59227C82.9337 8.59227 83.3992 8.78608 83.3634 9.34906C83.3634 9.34906 83.1844 9.23728 83.042 9.66797C82.9905 9.82053 82.9231 9.96546 82.8415 10.0997C82.7325 10.2809 82.5756 10.4171 82.3939 10.4883V10.4883C82.3939 10.4883 81.4369 11.3087 79.6652 10.676C79.6652 10.676 79.1647 10.758 79.0842 10.6873L79.6661 10.1992C79.6661 10.1992 79.9615 10.7027 80.3948 10.7591C80.3948 10.7591 79.6679 10.2361 79.7502 10.1223C79.7663 10.0997 80.068 9.88024 80.068 9.88024C80.068 9.88024 80.5855 10.7519 81.2569 10.8165C81.2569 10.8165 80.3169 10.3253 80.1826 9.79103L80.6553 9.49057C80.6553 9.49057 81.162 10.4432 81.9239 10.5499C81.9239 10.5499 80.957 9.99817 80.76 9.43315L81.2596 9.2096C81.2596 9.2096 81.7699 10.1274 82.4037 10.2115C82.4037 10.2115 81.3429 9.44442 81.3769 9.16755C81.3769 9.16755 81.846 8.99425 81.9901 9.01681C81.9901 9.01681 82.3697 9.66592 82.7421 9.67618C82.7421 9.67618 82.0805 9.07834 82.1244 8.98605C82.1244 8.98605 82.7887 8.94708 83.1342 9.13063C83.1342 9.13063 82.641 8.81582 82.1244 8.86709C82.2669 8.68145 82.4536 8.54746 82.6616 8.48152C82.6616 8.48152 82.2954 8.30924 81.9606 8.87837C81.9606 8.87837 81.444 8.93272 81.3805 8.99835C81.3805 8.99835 81.6419 8.38308 81.9633 8.12159C81.9633 8.12159 81.4834 8.21798 81.2471 9.0527L80.7457 9.26805C80.7457 9.26805 81.0528 8.43435 81.3249 8.17593C81.3249 8.17593 80.8487 8.36154 80.6213 9.33368L80.1558 9.62285C80.1558 9.62285 80.3724 8.88042 80.6204 8.51946C80.6204 8.51946 80.2113 8.80044 80.0251 9.71104L79.7332 9.94587C79.7332 9.94587 79.9006 9.40751 79.9606 9.25779C80.0206 9.10808 79.9901 9.07731 79.9901 9.07731C79.7877 9.35245 79.6557 9.68645 79.6088 10.0423C79.6088 10.0423 79.0313 10.5704 79 10.5335Z" fill="#306B34"/>
<path opacity="0.1" d="M59 14.5335C59 14.5335 60.803 10.5249 62.939 12.5923C62.939 12.5923 63.4037 12.7861 63.3688 13.3501C63.3688 13.3501 63.1897 13.2373 63.0474 13.668C62.9955 13.8204 62.9282 13.9653 62.8468 14.0997C62.7367 14.2818 62.5781 14.4181 62.3947 14.4883V14.4883C62.3947 14.4883 61.4386 15.3087 59.6669 14.676C59.6669 14.676 59.1665 14.7591 59.0859 14.6873L59.6678 14.1992C59.6678 14.1992 59.9633 14.7027 60.3957 14.7601C60.3957 14.7601 59.6687 14.2361 59.7511 14.1223C59.7681 14.0997 60.0698 13.8802 60.0698 13.8802C60.0698 13.8802 60.5873 14.7519 61.2578 14.8165C61.2578 14.8165 60.3187 14.3253 60.1835 13.791L60.6562 13.4916C60.6562 13.4916 61.1638 14.4432 61.9256 14.5499C61.9256 14.5499 60.9588 13.9982 60.7618 13.4331L61.2614 13.2096C61.2614 13.2096 61.7725 14.1274 62.4064 14.2115C62.4064 14.2115 61.3455 13.4444 61.3786 13.1676C61.3786 13.1676 61.8486 12.9942 61.9928 13.0168C61.9928 13.0168 62.3724 13.6659 62.7448 13.6772C62.7448 13.6772 62.0832 13.0783 62.1271 12.986C62.1271 12.986 62.7904 12.9471 63.1369 13.1306C63.1369 13.1306 62.6427 12.8158 62.1262 12.8671C62.2687 12.6815 62.4553 12.5475 62.6633 12.4815C62.6633 12.4815 62.2981 12.3092 61.9632 12.8784C61.9632 12.8784 61.4467 12.9327 61.3831 12.9984C61.3831 12.9984 61.6436 12.3831 61.9659 12.1216C61.9659 12.1216 61.4861 12.218 61.2497 13.0527L60.7421 13.268C60.7421 13.268 61.0501 12.4343 61.3214 12.177C61.3214 12.177 60.846 12.3615 60.6186 13.3337L60.1522 13.6229C60.1522 13.6229 60.3697 12.8804 60.6177 12.5195C60.6177 12.5195 60.2086 12.8004 60.0215 13.711L59.7296 13.9459C59.7296 13.9459 59.897 13.4075 59.957 13.2578C60.017 13.1081 59.9874 13.0773 59.9874 13.0773C59.7846 13.3522 59.6525 13.6863 59.6061 14.0423C59.6061 14.0423 59.0313 14.5704 59 14.5335Z" fill="#306B34"/>
</g>
<defs>
<clipPath id="clip0">
<rect width="96" height="80" fill="white"/>
</clipPath>
</defs>
</svg>
