<svg width="96" height="80" viewBox="0 0 96 80" fill="none" xmlns="http://www.w3.org/2000/svg">
<path d="M39.3649 76.6508H0V76.8646H39.3649V76.6508Z" fill="#243444"/>
<path d="M24.4123 11.8458C27.4583 11.8458 29.9277 9.41684 29.9277 6.42061C29.9277 3.42438 27.4583 0.995453 24.4123 0.995453C21.3662 0.995453 18.8969 3.42438 18.8969 6.42061C18.8969 9.41684 21.3662 11.8458 24.4123 11.8458Z" fill="#243444"/>
<path d="M22.8498 9.95465C22.8498 9.95465 23.6069 14.9543 22.201 16.1244C20.7951 17.2946 24.472 22.1878 24.472 22.1878L29.4467 14.316C29.4467 14.316 25.6616 13.3587 27.6082 10.4865L22.8498 9.95465Z" fill="#A0616A"/>
<path d="M21.0172 24.8709L20.2613 27.7898L19.5032 30.7215L16.9077 30.5088L18.0973 25.6155C18.0973 25.6155 17.881 21.0414 17.7729 19.9776C17.747 19.7824 17.7621 19.584 17.8172 19.3947C17.8543 19.2624 17.9325 19.1449 18.0409 19.0587C18.1494 18.9725 18.2825 18.9218 18.4218 18.9138L21.0172 24.8709Z" fill="#243444"/>
<path d="M23.8715 66.0869L20.6272 66.7251L20.3114 64.0115L19.1748 54.2238L18.8969 51.8325L22.6819 50.7687L22.6571 51.6197L22.5738 54.4919C22.737 55.0526 22.8581 55.6243 22.9361 56.2024C23.0958 57.2913 23.1556 58.3921 23.1145 59.4916C23.0064 62.4701 23.8715 66.0869 23.8715 66.0869Z" fill="#A0616A"/>
<path d="M19.8914 66.6581L23.2439 65.7007L25.0823 70.1685L27.6778 76.1255C27.6778 76.1255 31.0303 80.4869 27.4615 79.955C23.8927 79.4232 23.352 78.5721 23.352 78.1466V77.402L22.9194 77.5084L22.595 77.1893L22.1624 73.998C22.1624 73.998 21.1891 73.147 21.6217 71.9769L19.8914 66.6581Z" fill="#243444"/>
<path opacity="0.2" d="M22.6581 56.3469L22.6203 56.4447C22.6203 56.4447 22.0569 61.6146 20.2292 63.8166L20.0335 64.1559L18.8969 54.3683L19.6106 51.7642H22.3791L22.2959 54.6363C22.459 55.197 22.5801 55.7687 22.6581 56.3469V56.3469Z" fill="#243444"/>
<path d="M24.1228 51.7642L22.2843 56.4447C22.2843 56.4447 21.7209 61.615 19.8938 63.8167L17.5259 67.9333C17.5259 67.9333 14.7142 66.9759 14.9304 66.9759C15.1467 66.9759 16.7689 61.5507 16.7689 61.5507L18.283 55.381L19.2746 51.7642H24.1228Z" fill="#A0616A"/>
<path d="M19.1601 66.6581L15.8076 65.7007L13.9691 70.1685L11.3736 76.1255C11.3736 76.1255 8.0211 80.4869 11.5899 79.955C15.1587 79.4232 15.6994 78.5721 15.6994 78.1466V77.402L16.132 77.5084L16.4564 77.1893L16.889 73.998C16.889 73.998 17.8623 73.147 17.4297 71.9769L19.1601 66.6581Z" fill="#243444"/>
<path d="M25.6657 12.4236C27.7562 12.4236 29.4508 10.7567 29.4508 8.70047C29.4508 6.64423 27.7562 4.97733 25.6657 4.97733C23.5753 4.97733 21.8806 6.64423 21.8806 8.70047C21.8806 10.7567 23.5753 12.4236 25.6657 12.4236Z" fill="#A0616A"/>
<path opacity="0.2" d="M20.4977 24.8709L19.7418 27.7898L19.0918 27.743C19.0743 27.4825 19.0006 27.2287 18.8755 26.9984C18.6592 26.5729 18.8755 26.892 19.3081 26.4665C19.7407 26.041 19.4163 26.2538 19.0918 25.7219C18.7674 25.19 19.3081 24.0199 19.3081 24.0199C18.7025 23.5944 17.9022 18.9138 17.9022 18.9138L20.4977 24.8709Z" fill="#243444"/>
<path d="M24.4991 20.5318L22.228 15.6385L17.9022 18.6171C17.9022 18.6171 19.3081 23.1912 20.0651 23.7231C20.0651 23.7231 19.5244 24.8932 19.8488 25.4251C20.1733 25.957 20.4977 25.7442 20.0651 26.1697C19.6325 26.5952 19.4163 26.2761 19.6325 26.7016C19.7576 26.9319 19.8313 27.1857 19.8488 27.4462L30.1227 28.1909L30.7715 26.3825C30.7715 26.3825 32.0693 23.9358 31.6367 20.5318L33.2589 14.6812L28.7168 13.9365L24.4991 20.5318Z" fill="#243444"/>
<path d="M29.8635 27.3575C29.8635 27.3575 31.6811 31.2712 29.8426 37.6537C28.0042 44.0362 26.382 50.7379 26.382 50.7379L18.0548 51.6953L17.8385 47.9721L14.9186 47.5466C14.9186 47.5466 15.3512 35.5262 16.6489 32.5477C17.9466 29.5692 19.1835 26.8776 19.1835 26.8776L29.8635 27.3575Z" fill="#243444"/>
<path opacity="0.2" d="M19.9528 35.693L17.9022 48.7778L18.116 48.8102L20.1666 35.7254L19.9528 35.693Z" fill="#243444"/>
<path d="M28.4363 5.69387C28.2038 5.069 27.7329 4.55783 27.1235 4.26884C26.3691 3.91545 25.4897 3.9438 24.6627 4.06156C23.7088 4.19739 22.7061 4.48129 22.0902 5.2106C21.6951 5.67844 21.5052 6.2769 21.3244 6.85852C21.1153 7.5309 20.9045 8.21344 20.886 8.91633C20.8887 9.40312 20.9378 9.8886 21.0326 10.3664C21.0596 10.629 21.1355 10.8845 21.2564 11.1202C21.3916 11.3475 21.6386 11.5301 21.9058 11.5136C21.6423 11.0481 21.5193 10.5182 21.5512 9.98629C21.5832 9.45437 21.7688 8.94246 22.0862 8.51067C22.2416 8.31556 22.4102 8.13106 22.5911 7.95845L23.9658 6.58533C24.3875 6.1641 24.8282 5.73054 25.3912 5.52365C25.7149 5.40827 26.0624 5.37264 26.4034 5.41985C26.7444 5.46707 27.0684 5.59571 27.3471 5.79453C27.5797 5.96569 27.7729 6.18323 27.9141 6.4329C28.0148 6.60941 28.2486 7.17797 28.2486 7.17797C28.2486 7.17797 28.5194 5.92072 28.4363 5.69387Z" fill="#243444"/>
<path d="M21.2645 9.45297C21.4735 9.45297 21.643 9.11959 21.643 8.70834C21.643 8.2971 21.4735 7.96371 21.2645 7.96371C21.0555 7.96371 20.886 8.2971 20.886 8.70834C20.886 9.11959 21.0555 9.45297 21.2645 9.45297Z" fill="#A0616A"/>
<path d="M21.6217 3.40402C22.5773 3.40402 23.352 2.642 23.352 1.70201C23.352 0.762016 22.5773 0 21.6217 0C20.6661 0 19.8914 0.762016 19.8914 1.70201C19.8914 2.642 20.6661 3.40402 21.6217 3.40402Z" fill="#243444"/>
<path d="M26.2341 34.3805H19.7921C19.6299 34.3805 19.4744 34.3171 19.3598 34.2044C19.2451 34.0916 19.1807 33.9386 19.1807 33.7792L18.8969 25.488C18.8969 25.409 18.9127 25.3308 18.9434 25.2578C18.9741 25.1849 19.0191 25.1186 19.0759 25.0628C19.1327 25.0069 19.2001 24.9626 19.2742 24.9324C19.3484 24.9022 19.4279 24.8866 19.5082 24.8866H26.5179C26.6801 24.8866 26.8356 24.95 26.9502 25.0628C27.0649 25.1755 27.1293 25.3285 27.1293 25.488L26.8454 33.7792C26.8454 33.9386 26.781 34.0916 26.6664 34.2044C26.5517 34.3171 26.3962 34.3805 26.2341 34.3805V34.3805Z" fill="#306B34"/>
<path d="M22.4484 27.9945C22.7619 27.9945 23.0161 27.7445 23.0161 27.436C23.0161 27.1276 22.7619 26.8776 22.4484 26.8776C22.1348 26.8776 21.8806 27.1276 21.8806 27.436C21.8806 27.7445 22.1348 27.9945 22.4484 27.9945Z" fill="#CED0CE"/>
<path d="M30.446 27.873L26.8045 28.2866C26.8045 28.2866 20.6047 27.9794 22.1188 29.7878C23.6328 31.5962 27.0935 30.1069 27.0935 30.1069L31.6356 29.8942L30.446 27.873Z" fill="#A0616A"/>
<path d="M16.6892 28.874C16.6892 28.874 15.4865 29.3985 16.0754 30.3612C16.6643 31.3238 19.45 32.2976 19.8119 30.8658C20.1739 29.434 18.0885 28.9824 17.5707 28.9142C17.2789 28.8732 16.9837 28.8597 16.6892 28.874V28.874Z" fill="#A0616A"/>
<path d="M31.8919 15.3575L33.1897 14.932C33.6248 15.3307 33.9265 15.8501 34.0548 16.4212C34.2711 17.3786 37.7318 28.2289 36.0015 29.0799C34.2711 29.9309 31.243 31.3138 31.243 31.3138L29.8372 27.697L32.1082 26.5269L31.243 21.8464C31.243 21.8464 30.3779 15.3575 31.8919 15.3575Z" fill="#243444"/>
<path d="M81.3321 39.8186L81.946 40.2667L74.9688 50.8768L73.5983 51.5797L81.3321 39.8186Z" fill="#243444" stroke="#306B34" stroke-width="1.12412" stroke-miterlimit="10"/>
<path d="M50.7231 37.1965L74.8894 7.96371L77.3468 9.62881L53.4467 39.2317L50.7231 37.1965Z" fill="#243444"/>
<path d="M67.1345 20.9048L69.745 22.4914L65.0347 28.0112L62.658 26.4494L67.1345 20.9048Z" fill="#306B34"/>
<path d="M68.4797 24.8866L76.6774 38.0836L73.4688 38.2766L66.6362 26.7589L68.4797 24.8866Z" fill="#306B34"/>
<path d="M82.6752 37.8277H58.6797V38.9378H82.6752V37.8277Z" fill="#306B34"/>
<path d="M62.6779 40.8141H59.6742V79.213H62.6779V40.8141Z" fill="#306B34"/>
<path d="M87.3375 40.8141H84.5386V79.213H87.3375V40.8141Z" fill="#306B34"/>
<path d="M96 38.8232H52.7123V41.105H96V38.8232Z" fill="#306B34"/>
<path d="M59.8028 8.14811C60.9724 8.14811 61.9206 7.21547 61.9206 6.06499C61.9206 4.91452 60.9724 3.98187 59.8028 3.98187C58.6332 3.98187 57.6851 4.91452 57.6851 6.06499C57.6851 7.21547 58.6332 8.14811 59.8028 8.14811Z" fill="#CED0CE"/>
<path d="M59.8028 7.15263C60.9724 7.15263 61.9206 6.21999 61.9206 5.06951C61.9206 3.91903 60.9724 2.98639 59.8028 2.98639C58.6332 2.98639 57.6851 3.91903 57.6851 5.06951C57.6851 6.21999 58.6332 7.15263 59.8028 7.15263Z" stroke="#243444" stroke-width="2" stroke-miterlimit="10"/>
<path d="M47.5507 5.97278H42.7666V10.6786H47.5507V5.97278Z" fill="#306B34"/>
<path d="M48.5453 4.97733H43.7611V9.68317H48.5453V4.97733Z" stroke="#243444" stroke-width="2" stroke-miterlimit="10"/>
</svg>
