<svg fill="none" width="96" height="80" xmlns="http://www.w3.org/2000/svg" viewBox="0 0 96 80">
  <g clip-path="url(#clip0)">
    <path opacity=".1" d="M94.37 64.52c-2.378 5.62-7.209 9.378-12.213 11.857a40.623 40.623 0 01-12.574 3.843 42.296 42.296 0 01-8.904.254 42.562 42.562 0 01-3.836-.468 43.847 43.847 0 01-16.289-6.269 44.235 44.235 0 01-6.537-5.073l-.152-.142c-.29-.275-.58-.556-.872-.829a12.865 12.865 0 00-1.545-1.27c-.037-.024-.073-.049-.111-.072a6.633 6.633 0 00-.963-.521c-1.034-.451-2.142-.615-3.264-.588-.187 0-.373.015-.56.03-.261.02-.524.05-.785.09l-.097.015c-.833.135-1.656.337-2.464.606-1.248.41-2.474.923-3.707 1.385-.524.198-1.049.387-1.578.556l-.116.037c-.753.242-1.519.426-2.293.55-1.76.257-3.546.092-5.247-.484l-.06-.02-.108-.037-.15-.053c-.25-.09-.499-.19-.746-.297l-.149-.065a10.904 10.904 0 01-.701-.34l-.15-.078a12.491 12.491 0 01-.7-.403c-.083-.049-.164-.102-.245-.152a14.135 14.135 0 01-1.445-1.058 15.35 15.35 0 01-2.06-2.07c-.03-.033-.057-.068-.085-.102a15.303 15.303 0 01-1.031-1.432l-.065-.103a15.575 15.575 0 01-2.017-4.9C.056 54.69 0 52.374 0 50.07v-.805c.014-3.726.064-7.515.544-11.19 0-.025.007-.05.01-.075.16-1.237.38-2.463.655-3.673.288-1.27.656-2.514 1.102-3.722 1.103-2.974 2.709-5.68 4.491-8.189 2.149-3.018 4.61-5.803 7.353-8.1.394-.331.793-.652 1.197-.963l.188-.14c.065-.05.13-.103.196-.147.134-.103.268-.199.404-.296l.152-.109.29-.205.09-.058.155-.103.153-.103a27.39 27.39 0 013.676-2.079 23.494 23.494 0 013.415-1.282 21.006 21.006 0 012.845-.61c.826-.12 1.656-.19 2.487-.212 5.848-.164 11.755 2.017 16.337 6.195 1.827 1.666 3.468 3.638 5.519 4.914 1.79 1.112 3.886 1.572 5.804.698 1.584-.723 2.615-1.082 4.395-.973a32.847 32.847 0 0110.77 2.58c.14.059.28.12.419.18 9.016 3.953 16.768 11.803 20.794 21.89.107.267.21.536.311.806 2.402 6.425 3.269 13.957.618 20.22z" fill="#306B34"/>
    <path opacity=".1" d="M17.92 28.244v38.882l-.117.036c-.753.243-1.519.427-2.293.55-1.76.258-3.546.093-5.247-.484l-.06-.02-.108-.036-.15-.054c-.25-.09-.499-.189-.746-.296l-.149-.066a10.848 10.848 0 01-.701-.339l-.15-.078a12.487 12.487 0 01-.7-.403c-.083-.05-.164-.103-.245-.153a14.126 14.126 0 01-1.445-1.057 15.341 15.341 0 01-2.06-2.07c-.03-.033-.057-.068-.085-.102a15.396 15.396 0 01-.417-.54l-.15-.204c-.16-.225-.315-.454-.464-.688l-.065-.103a15.576 15.576 0 01-2.017-4.9C.056 53.891 0 51.575 0 49.271v-.805c.014-3.725.064-7.514.544-11.188 0-.026.007-.052.01-.076.16-1.237.38-2.463.655-3.673h9.142v-5.285h1.822V24h3.923v4.244h1.823zM94.996 64.096c-2.378 5.62-7.208 9.379-12.213 11.857a40.624 40.624 0 01-12.573 3.844 42.283 42.283 0 01-8.904.254 42.49 42.49 0 01-3.837-.469 43.847 43.847 0 01-16.288-6.268 44.229 44.229 0 01-6.537-5.073l-.153-.143c-.29-.275-.579-.556-.871-.828A12.885 12.885 0 0032.074 66a5.437 5.437 0 00-.417-.261 6.6 6.6 0 00-.657-.333V49.5h16.615v3.541h7.291v-25.9h8.583v10.357h4.245v-6.133h3.508v-6.55h1.611V21c.14.058.28.119.418.18v3.635h1.569v6.554h3.505v6.133h5.168v23.363h8.215V43.874h2.647c2.405 6.426 3.272 13.958.621 20.222z" fill="#306B34"/>
    <path opacity=".1" d="M60.836 31H57v4.394h3.836V31zM60.836 40H57v4.394h3.836V40zM60.836 49H57v4.394h3.836V49zM60.836 58H57v4.394h3.836V58zM60.836 67H57v4.394h3.836V67zM60.836 76v3.47A42.492 42.492 0 0157 79.001V76h3.836zM45.428 55H32v1.99h13.428V55zM45.428 62H32v1.99h13.428V62zM45.071 67v1.99H35.15a45.01 45.01 0 01-1.125-1.019l-.152-.142c-.291-.275-.58-.556-.872-.829h12.071zM44.51 74v1.99h-1.047A44.155 44.155 0 0140 74h4.51zM69.497 43H67v2.86h2.497V43zM15.497 30H13v2.86h2.497V30zM15.497 36H13v2.86h2.497V36zM15.497 43H13v2.86h2.497V43zM15.497 49H13v2.86h2.497V49zM15.497 56H13v2.86h2.497V56zM15.497 63H13v2.86h2.497V63zM79.497 43H77v2.86h2.497V43zM69.497 49H67v2.86h2.497V49zM79.497 49H77v2.86h2.497V49zM69.497 57H67v2.86h2.497V57zM79.497 57H77v2.86h2.497V57zM69.497 64H67v2.86h2.497V64zM79.497 64H77v2.86h2.497V64zM69.497 71H67v2.86h2.497V71zM79.497 71H77v2.86h2.497V71zM67 79.845V78h2.497v1.582L67 79.845zM1 37v1.64h9.55V37H1zm.85 1.538h-.7v-1.435h.7v1.435zm.851 0H2v-1.435h.701v1.435zm.85 0h-.7v-1.435h.7v1.435zm.85 0h-.7v-1.435h.7v1.435zm.851 0h-.7v-1.435h.7v1.435zm.85 0h-.7v-1.435h.7v1.435zm.851 0h-.7v-1.435h.7v1.435zm.85 0h-.7v-1.435h.7v1.435zm.851 0h-.7v-1.435h.7v1.435zm.85 0h-.7v-1.435h.7v1.435zm.896 0h-.746v-1.435h.746v1.435zM1 42v1.636h9.55V42H1zm.85 1.533h-.7v-1.43h.7v1.43zm.851 0H2v-1.43h.701v1.43zm.85 0h-.7v-1.43h.7v1.43zm.85 0h-.7v-1.43h.7v1.43zm.851 0h-.7v-1.43h.7v1.43zm.85 0h-.7v-1.43h.7v1.43zm.851 0h-.7v-1.43h.7v1.43zm.85 0h-.7v-1.43h.7v1.43zm.851 0h-.7v-1.43h.7v1.43zm.85 0h-.7v-1.43h.7v1.43zm.896 0h-.746v-1.43h.746v1.43zM1 47v1.636h9.55V47H1zm.85 1.533h-.7v-1.43h.7v1.43zm.851 0H2v-1.43h.701v1.43zm.85 0h-.7v-1.43h.7v1.43zm.85 0h-.7v-1.43h.7v1.43zm.851 0h-.7v-1.43h.7v1.43zm.85 0h-.7v-1.43h.7v1.43zm.851 0h-.7v-1.43h.7v1.43zm.85 0h-.7v-1.43h.7v1.43zm.851 0h-.7v-1.43h.7v1.43zm.85 0h-.7v-1.43h.7v1.43zm.896 0h-.746v-1.43h.746v1.43zM1 52v1.64h9.55V52H1zm.85 1.538h-.7v-1.435h.7v1.435zm.851 0H2v-1.435h.701v1.435zm.85 0h-.7v-1.435h.7v1.435zm.85 0h-.7v-1.435h.7v1.435zm.851 0h-.7v-1.435h.7v1.435zm.85 0h-.7v-1.435h.7v1.435zm.851 0h-.7v-1.435h.7v1.435zm.85 0h-.7v-1.435h.7v1.435zm.851 0h-.7v-1.435h.7v1.435zm.85 0h-.7v-1.435h.7v1.435zm.896 0h-.746v-1.435h.746v1.435zM1 56c.034.154.073.308.113.46v-.358h.7v1.436H1.44c.01.034.022.069.034.103h9.042V56H1zm1.664 1.538h-.7v-1.435h.7v1.435zm.85 0h-.7v-1.435h.7v1.435zm.851 0h-.7v-1.435h.7v1.435zm.85 0h-.7v-1.435h.7v1.435zm.851 0h-.7v-1.435h.7v1.435zm.85 0h-.7v-1.435h.7v1.435zm.851 0h-.7v-1.435h.7v1.435zm.85 0h-.7v-1.435h.7v1.435zm.851 0h-.7v-1.435h.7v1.435zm.895 0h-.745v-1.435h.745v1.435zM3 62l.065.102h.465v.689l.15.205v-.892h.7v1.435h-.283c.027.034.055.069.085.103h6.346V62L3 62zm2.23 1.538h-.7v-1.435h.7v1.435zm.851 0h-.7v-1.435h.7v1.435zm.85 0h-.7v-1.435h.7v1.435zm.851 0h-.7v-1.435h.7v1.435zm.85 0h-.7v-1.435h.7v1.435zm.851 0h-.7v-1.435h.7v1.435zm.896 0h-.746v-1.435h.746v1.435zM8 66c.08.052.162.103.244.153v-.05h.701v.453l.15.078v-.531h.7v.87l.15.066v-.936h.746v1.23l.15.053V66H8zM36.901 23.003s-2.134-.148-1.88 1.565a.473.473 0 00.032.256c.035.079.09.144.158.185 0 0 0-.127.218-.084a.875.875 0 00.232.012.452.452 0 00.284-.133s.6-.284.833-1.407c0 0 .172-.245.166-.308l-.358.177s.123.297.027.544c0 0-.012-.533-.082-.52-.013 0-.187.102-.187.102s.212.519.052.895c0 0 .061-.638-.117-.857l-.26.171s.248.535.08.972c0 0 .044-.67-.133-.93l-.23.205s.233.527.09.89c0 0-.019-.78-.14-.84-.088.085-.166.181-.233.288 0 0 .16.382.061.584 0 0-.06-.519-.11-.522 0 0-.2.345-.22.58.008-.218.068-.43.171-.615a.58.58 0 00-.306.182s.031-.243.358-.265c0 0 .166-.26.21-.277 0 0-.323-.03-.519.069 0 0 .173-.23.578-.125l.227-.212s-.425-.067-.605.007c0 0 .206-.205.666-.056l.247-.169a1.977 1.977 0 00-.578-.057s.227-.14.65.012l.18-.091s-.27-.06-.343-.069c-.075-.01-.083-.034-.083-.034a.813.813 0 01.499.064s.371-.162.365-.189zM31.177 32.02s-.73 2.302.776 2.512a.323.323 0 00.223.037.353.353 0 00.199-.12s-.105-.04-.008-.265c.033-.08.06-.163.077-.25a.63.63 0 00-.033-.35s-.067-.739-.94-1.314c0 0-.156-.26-.211-.27l.045.446s.284-.051.463.125c0 0-.447-.138-.459-.058 0 .015.033.235.033.235s.495-.087.764.196c0 0-.518-.248-.751-.113l.07.326s.518-.12.836.188c0 0-.548-.236-.817-.117l.107.307s.508-.102.77.153c0 0-.658-.205-.741-.084.045.12.104.232.173.335 0 0 .366-.066.507.103 0 0-.452-.081-.468-.028 0 0 .232.318.423.41a1.104 1.104 0 01-.464-.364c-.012.134.01.27.065.389 0 0-.195-.103-.12-.467 0 0-.173-.255-.173-.307 0 0-.118.345-.09.59 0 0-.143-.256.06-.671l-.113-.308s-.18.448-.167.667c0 0-.11-.286.144-.748l-.071-.319c-.094.194-.165.4-.212.615 0 0-.054-.29.194-.711l-.026-.22s-.125.275-.155.358c-.03.083-.052.08-.052.08.02-.194.088-.378.195-.53 0 0-.03-.458-.053-.458zM45.176 30.021s-.728 2.306.776 2.51c.07.04.148.052.224.037a.353.353 0 00.2-.12s-.107-.04-.009-.264c.034-.08.06-.164.076-.251a.63.63 0 00-.031-.35s-.067-.739-.941-1.314c0 0-.157-.259-.211-.269l.045.445s.284-.05.464.126c0 0-.448-.138-.46-.06 0 .017.033.236.033.236s.494-.086.764.196c0 0-.517-.247-.752-.113l.071.327s.519-.12.836.188c0 0-.548-.237-.817-.119l.107.308s.507-.102.77.153c0 0-.658-.205-.742-.083.047.12.108.232.18.335 0 0 .364-.067.506.103 0 0-.452-.081-.468-.027 0 0 .23.317.422.41a1.095 1.095 0 01-.463-.364.782.782 0 00.064.389s-.194-.103-.12-.466c0 0-.172-.256-.173-.307 0 0-.117.346-.09.59 0 0-.142-.255.06-.671l-.113-.308s-.179.448-.166.666c0 0-.111-.285.143-.747l-.072-.32c-.093.194-.165.4-.212.615 0 0-.053-.29.195-.711l-.026-.22s-.125.275-.156.358c-.03.083-.052.08-.052.08.022-.194.09-.377.196-.53 0 0-.032-.456-.058-.457zM25.177 48.02s-.73 2.302.776 2.512a.323.323 0 00.223.037.351.351 0 00.199-.121s-.105-.04-.009-.264c.035-.08.06-.164.078-.251a.621.621 0 00-.033-.35s-.067-.739-.94-1.313c0 0-.156-.26-.211-.27l.045.445s.284-.05.463.126c0 0-.447-.138-.459-.06 0 .017.033.235.033.235s.495-.085.764.197c0 0-.518-.247-.751-.113l.07.327s.518-.12.836.188c0 0-.548-.237-.817-.118l.107.307s.508-.102.77.153c0 0-.657-.205-.741-.083.045.12.104.232.173.335 0 0 .366-.066.508.103 0 0-.453-.081-.47-.027 0 0 .233.317.424.41a1.096 1.096 0 01-.464-.363.77.77 0 00.065.388s-.195-.103-.12-.466c0 0-.172-.256-.173-.307 0 0-.118.346-.09.59 0 0-.143-.255.06-.671l-.113-.308s-.18.448-.166.667c0 0-.11-.285.144-.748l-.072-.319c-.094.194-.165.4-.212.615 0 0-.054-.29.194-.711l-.026-.22s-.125.274-.155.357c-.03.083-.052.08-.052.08.021-.194.089-.378.195-.53 0 0-.03-.46-.053-.46zM22.176 26.02s-.728 2.302.777 2.512c.069.039.147.052.223.037a.354.354 0 00.2-.12s-.107-.04-.009-.265c.034-.08.06-.164.076-.251a.626.626 0 00-.031-.349s-.067-.739-.942-1.314c0 0-.156-.26-.21-.27l.045.446s.284-.051.463.125c0 0-.448-.138-.46-.058 0 .015.034.235.034.235s.494-.087.765.196c0 0-.518-.248-.752-.113l.07.326s.518-.12.836.188c0 0-.548-.237-.817-.117l.107.307s.507-.102.77.154c0 0-.658-.205-.742-.084.046.12.104.232.174.335 0 0 .366-.066.508.103 0 0-.453-.081-.469-.028 0 0 .231.318.423.41a1.11 1.11 0 01-.465-.364c-.012.134.011.27.066.389 0 0-.196-.103-.12-.467 0 0-.172-.255-.173-.307 0 0-.117.345-.09.59 0 0-.144-.256.06-.671l-.114-.308s-.18.448-.166.668c0 0-.11-.287.143-.75l-.071-.318c-.094.194-.165.4-.212.615 0 0-.053-.29.194-.711l-.025-.22s-.127.275-.156.357c-.03.082-.052.081-.052.081.02-.194.088-.378.195-.53 0 0-.027-.459-.053-.459zM28 40.076s.563 2.359 1.899 1.538a.35.35 0 00.2-.116.442.442 0 00.102-.23s-.105.037-.138-.21a1.254 1.254 0 00-.065-.256.527.527 0 00-.201-.264s-.427-.56-1.433-.453c0 0-.258-.108-.308-.08l.262.333s.207-.229.442-.205c0 0-.438.184-.405.255.007.014.145.17.145.17s.358-.397.723-.344c0 0-.547.14-.67.404l.22.22s.364-.44.78-.399c0 0-.57.169-.729.443l.244.184s.358-.422.707-.384c0 0-.639.27-.649.422.098.067.203.12.312.159 0 0 .268-.295.464-.253 0 0-.41.232-.396.287 0 0 .349.102.55.053a.959.959 0 01-.562.01.64.64 0 00.249.274s-.211.044-.333-.301c0 0-.269-.096-.297-.139 0 0 .079.361.224.542 0 0-.246-.114-.29-.588l-.248-.178s.082.483.2.655c0 0-.234-.16-.26-.706l-.218-.213c.021.221.068.438.138.646 0 0-.189-.205-.199-.71l-.131-.163s.035.308.052.395c.017.087 0 .103 0 .103a1.181 1.181 0 01-.107-.562s-.253-.354-.274-.339zM43 42.071s.563 2.359 1.898 1.538a.35.35 0 00.201-.116.44.44 0 00.102-.23s-.106.037-.14-.205a1.2 1.2 0 00-.063-.256.534.534 0 00-.202-.264s-.427-.56-1.432-.452c0 0-.258-.11-.308-.081l.26.333s.208-.229.443-.205c0 0-.438.184-.404.255.006.014.145.17.145.17s.358-.397.723-.344c0 0-.548.14-.672.404l.222.22s.359-.44.778-.399c0 0-.567.169-.727.443l.244.184s.358-.422.706-.384c0 0-.639.27-.648.422.098.067.202.12.31.159 0 0 .27-.296.465-.254 0 0-.41.233-.396.288 0 0 .349.102.551.053a.963.963 0 01-.563.01.647.647 0 00.25.274s-.212.044-.334-.301c0 0-.268-.096-.296-.139 0 0 .078.361.223.541 0 0-.246-.113-.29-.587l-.247-.18s.081.483.2.655c0 0-.235-.16-.26-.706l-.219-.213c.021.221.068.438.139.646 0 0-.19-.205-.2-.71l-.131-.163s.035.308.052.395c.017.087 0 .103 0 .103a1.181 1.181 0 01-.107-.562s-.252-.357-.273-.342z" fill="#306B34"/>
    <path d="M37.586 64.894s4.645-1.792 3.683-8.14L35.37 55 34 60.208l3.586 4.686z" fill="#CED7E7"/>
    <path opacity=".1" d="M34 60.454l3.585 4.685S42.23 63.348 41.268 57L34 60.454z" fill="#000"/>
    <path d="M14.007 13.623s.626 1.168 1.483.585c.857-.584.035-2.196.035-2.196s-1.641-.257-1.518 1.611z" fill="#FED253"/>
    <path opacity=".1" d="M15.49 14.207a.82.82 0 01-.333.148.775.775 0 01-.357-.015c-.315-.091-.556-.368-.686-.55a1.718 1.718 0 01-.107-.167c-.044-.666.136-1.063.387-1.297.345-.32.822-.334 1.028-.324.063 0 .1.01.1.01l.017.033c.024.053.077.168.134.323.191.508.42 1.428-.183 1.839z" fill="#000"/>
    <path d="M37.659 56l3.223.298 5.998.057-4.726 6.665s-1.5.094-1.809.336c-.308.242-4.645.112-4.645.112l-.7-3.416L37.659 56z" fill="#FFA2A2"/>
    <path opacity=".05" d="M37.659 56l3.223.298 5.998.057-4.726 6.665s-1.5.094-1.809.336c-.308.242-4.645.112-4.645.112l-.7-3.416L37.659 56z" fill="#000"/>
    <path d="M34.26 38.145l.749 1.456.163 2.539s.522 2.164.913 2.8c.391.634.554 2.315.554 2.315s.163 1.568.358 1.903c.195.335.457 2.769.457 2.769s1.728 3.957 3.292 4.442c0 0-7.758 2.912-3.683 8.14 0 0-2.901.82-3.586-.113C32.792 63.464 31 49.65 31 49.65L31.554 38l2.706.145z" fill="#CED7E7"/>
    <path opacity=".05" d="M34.26 38.145l.749 1.456.163 2.539s.522 2.164.913 2.8c.391.634.554 2.315.554 2.315s.163 1.568.358 1.903c.195.335.457 2.769.457 2.769s1.728 3.957 3.292 4.442c0 0-7.758 2.912-3.683 8.14 0 0-2.901.82-3.586-.113C32.792 63.464 31 49.65 31 49.65L31.554 38l2.706.145z" fill="#000"/>
    <path d="M24.475 24.381a9.12 9.12 0 00.188 3.887l-1.207 3.957s-9.191-5.861-8.409-7.28c.443-.806.5-2.936.464-4.628A45.587 45.587 0 0015.405 18s11.28 1.27 9.78 4.22c-.34.67-.58 1.4-.71 2.161z" fill="#FFA2A2"/>
    <path opacity=".1" d="M24.779 22.22c-.34.67-.58 1.4-.71 2.161a6.703 6.703 0 01-5.115-.197c-1.635-.74-2.994-2.107-3.848-3.867C15.08 19.032 15 18 15 18s11.277 1.27 9.779 4.22z" fill="#000"/>
    <path d="M30.19 16.697c.001 1.369-.28 2.718-.82 3.94-.54 1.22-1.325 2.278-2.29 3.086a7.118 7.118 0 01-3.26 1.566c-1.18.22-2.388.12-3.527-.296-1.139-.415-2.176-1.131-3.027-2.092a8.97 8.97 0 01-1.873-3.436 9.905 9.905 0 01-.311-4.034 9.45 9.45 0 011.316-3.759c.108-.173.22-.342.34-.507a7.876 7.876 0 012.471-2.255 6.877 6.877 0 011.625-.675 6.667 6.667 0 013.098-.098 7.095 7.095 0 012.875 1.325 8.277 8.277 0 012.176 2.529 9.508 9.508 0 011.207 4.706z" fill="#FFA2A2"/>
    <path d="M33.437 51.314c-.113.695.029 1.966.245 3.259l.028.17.037.213c.1.556.208 1.107.313 1.607.106.5.2.93.281 1.282.122.528.205.86.205.86a168.781 168.781 0 00.051 1.913c0 .117.007.236.01.359a402.102 402.102 0 01.017.887c0 .245.008.495.012.744.004.343.008.685.01 1.018V64.903c-.01.795-.038 1.395-.097 1.568-.02.06-.04.124-.057.192a7.327 7.327 0 00-.168.971l-.153-.142c-.29-.275-.579-.556-.872-.829a12.876 12.876 0 00-1.545-1.27 5.38 5.38 0 00-.417-.261 6.622 6.622 0 00-.657-.332c-1.034-.451-2.142-.615-3.264-.588-.448.196-.739.337-.739.337l-.57.196-.094.033c-.617.216-1.484.521-1.797.648-.505.205-4.889 1.25-4.889 1.25-.4.126-.81.211-1.223.257-.752.242-1.518.426-2.292.55-1.76.257-3.546.092-5.247-.485a.745.745 0 01-.152-.005c.03 0 .061-.008.09-.014l-.11-.037-.15-.053c-.25-.09-.499-.19-.745-.297l-.15-.065a10.903 10.903 0 01-.7-.34l-.15-.078a12.487 12.487 0 01-.701-.403c-.083-.049-.164-.102-.245-.153-.243-.155-.482-.319-.716-.49-.04-.386-.06-.645-.06-.645l-.349-1.991-.018-.103-.25-1.435-.018-.103-.546-3.123-.018-.103-.25-1.436-.018-.102-.553-3.122-.017-.102-.251-1.436-.018-.102-.548-3.128-.018-.103-.25-1.43-.018-.103-.1-.564-.15-.854s-.476-.781-1.014-1.705l-.06-.103c-.153-.26-.31-.529-.463-.793l-.15-.259a59.35 59.35 0 01-.216-.378l-.049-.085-.01-.018c-.771-1.368-.255-1.962-.255-1.962s.324-.503.742-1.167l.065-.103c.179-.287.376-.6.57-.915l.149-.244a19.068 19.068 0 00.227-.375c.413-.683.753-1.279.823-1.49.11-.333.806-1.319 1.5-2.183.546-.683 1.09-1.29 1.335-1.436.554-.335.783-1.42.783-1.42s1.205-.483 1.368-.856c.163-.374 2.445-2.051 2.445-2.051s.923-.681 1.296-1.091a.855.855 0 00.138-.184c.13-.267.977-.486 1.322-.565l.145-.032c.139-.29.315-.554.522-.784.14-.143.316-.634.463-1.11.16-.519.285-1.018.285-1.018.262-1.008.783-.71.783-.71-.001.138.01.275.034.41.217 1.231 1.399 1.744 2.02 2.319.684.634 1.76 2.278 2.607 2.613.702.278 1.516 1.326 1.774 1.675l.02.027.064.09s.48-.028.773-.035h.107a.291.291 0 00.163-.075c.29-.227.724-.892.913-1.044.227-.188.456-3.212.456-3.212l.012-.006c.812-.436 1.683 3.926 1.683 3.926s1.532.523 1.663.896c.025.074.14.206.314.365.79.692 1.632 1.304 2.515 1.83.02.011.039.023.059.032l.054.03a2.687 2.687 0 00.23.111l.054.022c.128.049.25.12.358.212.032.027.065.055.096.084.122.116.234.245.335.386l.044.062c.068.098.128.194.179.283.082.138.157.281.224.429 0 0 1.336 2.614 1.76 2.911.425.298.685 3.324.685 3.324l-1.432 6.082s-.067 1.538-.193 3.107c-.07.88-.158 1.775-.264 2.419z" fill="#CED7E7"/>
    <path d="M21.944 28.942s-.961.597-1.711.653a1.231 1.231 0 01-.294-.02C19.153 29.44 18 28.7 18 28.7L19.353 27l1.645.934.605.645.34.363z" fill="#63667E"/>
    <path opacity=".1" d="M30.093 15.301a1.004 1.004 0 01-.116.153c-.47.513-1.307.3-1.949.181a6.43 6.43 0 01-1.623-.537c-.453-.221-.996-.492-1.403-.174-.157.12-.264.315-.427.421-.163.107-.371.114-.563.117-.627 0-1.254.008-1.865-.154-.913-.244-1.856-.858-2.724-.453-.678.316-1.046 1.162-1.23 1.975-.09.399-.155.82-.358 1.159-.202.338-.593.578-.926.42-.492-.235-.564-1.191-1.157-1.24-.65-.052-.643.718-.453 1.275.281.82.65 1.64.665 2.496a9.747 9.747 0 01-.953-4.709c.077-1.64.557-3.224 1.387-4.565a.915.915 0 00.323-.433.734.734 0 00.016-.074c.049-.286-.09-.586-.098-.886-.031-.73.66-1.24 1.294-1.333.422-.061.853-.014 1.276-.03.212-.005.424-.037.63-.096.357-.122.691-.319.985-.58a6.667 6.667 0 013.098-.097 7.096 7.096 0 012.875 1.325 8.28 8.28 0 012.176 2.529 9.509 9.509 0 011.114 3.312l.006-.002z" fill="#000"/>
    <path d="M29.943 13.19a1.175 1.175 0 01-.268.534c-.471.513-1.307.3-1.95.18a6.342 6.342 0 01-1.622-.533c-.453-.22-.997-.49-1.404-.173-.157.121-.264.315-.427.422-.163.106-.37.113-.563.115-.627.006-1.253.01-1.865-.152-.912-.245-1.856-.859-2.723-.455-.679.316-1.047 1.163-1.23 1.976-.09.4-.156.82-.358 1.158-.203.337-.594.58-.927.42-.491-.234-.564-1.19-1.157-1.238-.65-.052-.642.718-.453 1.274.333.972.786 1.938.638 2.967-.148 0-.392-.006-.537-.01.113-.22-.102-.483-.316-.558-.214-.075-.464-.074-.627-.252-.163-.179-.164-.454-.147-.702.037-.528.15-1.046.334-1.532.117-.307.269-.64.18-.963a2.893 2.893 0 00-.194-.419c-.186-.41-.143-.923.017-1.346.068-.18.117-.351.173-.513.072-.23.175-.446.306-.639.205-.292.405-.732.179-1.004-.058-.069.057-.116.02-.205a.198.198 0 01-.013-.048.52.52 0 01.064-.308.792.792 0 01.035-.069 3.14 3.14 0 01.81-1.035c.194-.16.421-.315.498-.576.09-.307-.068-.634-.081-.96-.032-.73.66-1.24 1.293-1.332.634-.093 1.291.06 1.909-.128.877-.264 1.492-1.15 2.288-1.648a2.928 2.928 0 011.412-.436c.493-.02.984.09 1.435.32.93.486 1.63 1.468 2.6 1.837.345.131.717.184 1.027.401.358.252.575.693.762 1.128.283.66.34 1.322.537 2.02.155.554.371 1.278.39 1.916.01.19-.006.381-.045.567z" fill="#896363"/>
    <g opacity=".1" fill="#000">
      <path opacity=".1" d="M15.106 12.383A.522.522 0 0015.04 12c.024.08-.078.126-.022.193.044.053.075.119.09.19z"/>
      <path opacity=".1" d="M15.019 12a.474.474 0 00-.019.11c.017-.032.04-.066.019-.11zM29.791 13.905c-.472.512-1.307.3-1.95.18a6.304 6.304 0 01-1.622-.536c-.454-.222-.996-.493-1.405-.175-.155.121-.263.315-.427.422-.163.106-.37.114-.563.116-.626 0-1.253.009-1.865-.154-.912-.244-1.855-.856-2.723-.453-.678.316-1.046 1.162-1.23 1.976-.09.399-.155.82-.358 1.158-.203.339-.594.579-.927.42-.491-.235-.564-1.19-1.156-1.238-.463-.038-.592.341-.56.763.026-.322.178-.57.56-.54.592.049.665 1.005 1.156 1.24.333.158.725-.08.927-.421.202-.34.269-.76.358-1.158.184-.813.552-1.66 1.23-1.976.868-.404 1.811.205 2.723.453.608.163 1.24.158 1.865.153.193 0 .396-.006.563-.115.168-.108.269-.3.427-.422.409-.317.951-.046 1.405.174.52.253 1.064.434 1.621.537.644.12 1.48.334 1.951-.181.256-.28.333-.685.316-1.128-.014.352-.104.67-.316.905zM16.006 9a1.273 1.273 0 00-.006.154c.01.213.08.426.102.635.034-.256-.07-.522-.096-.789zM14.315 17.131c.007.03.013.062.017.093a.84.84 0 00-.017-.317 2.814 2.814 0 00-.194-.42 1.414 1.414 0 01-.117-.487c-.018.245.023.491.117.712.076.132.14.273.194.42zM15.54 20.307l-.524-.01a.292.292 0 01-.016.224c.148 0 .393.006.537.01.025-.175.034-.353.026-.531-.002.103-.01.205-.023.307zM14.775 19.684c-.214-.074-.463-.075-.622-.254a.705.705 0 01-.149-.43c-.013.236 0 .49.149.654.159.18.408.18.622.255.07.023.134.062.19.115a.603.603 0 01.135.192c.09-.212-.117-.461-.325-.532z"/>
    </g>
    <path opacity=".1" d="M30.88 65.619a6.59 6.59 0 00-.963-.52c-1.035-.453-2.142-.617-3.265-.589-.447.196-.738.336-.738.336l-.57.197-.094.033-.02-.216-.02-.215c-.201-2.174-.359-4.409-.359-4.409v-2.154l-.01-5.687-.09-1.874-.042-.83-.008-.158-.016-.324-.01-.193a1.891 1.891 0 01-.067-.27 9.83 9.83 0 01-.072-.379c-.164-.943-.369-2.534-.381-2.857-.016-.43-.342-3.006-.342-3.006-.033-1.418-1.075-4.089-1.337-4.592-.262-.504-.555-3.529-.456-3.692.05-.087.084-.603.104-1.079 0-.054.005-.107.007-.16.013-.372.02-.683.02-.683l1.023-.231.275-.062.022-.005.009.02c.03.063.121.263.23.525l.036.088.018.043c.2.502.433 1.164.423 1.544-.016.673.652 2.297.652 2.297.065.373 1.483 4.088 1.483 4.088s1.158 3.64 1.092 4.238c-.065.598.554 4.555.554 4.555l.636 4.07c.309.802.716 2.65.716 2.65l.155 1.048.03.2.412 2.796.203 1.37s.085.728.214 1.538c.01.073.023.147.035.22.08.534.193 1.06.338 1.575.072.247.13.498.173.754z" fill="#000"/>
    <path d="M31.892 65.693c-.037-.024-.073-.049-.111-.072a6.61 6.61 0 00-.963-.52c-1.034-.453-2.142-.617-3.264-.589-.448.196-.739.337-.739.337l-.57.196-.02-.216a11.414 11.414 0 01-.018-.197c-.2-2.17-.358-4.394-.358-4.394v-2.173l-.01-5.672-.09-1.79-.018-.371-.013-.252-.016-.332-.016-.337-.012-.243v-.054c0-.005 0-.01-.006-.017a3.017 3.017 0 01-.06-.246l-.01-.051-.015-.075c-.168-.875-.415-2.76-.429-3.115-.016-.43-.342-3.006-.342-3.006-.033-1.418-1.074-4.089-1.336-4.592-.262-.504-.554-3.529-.457-3.692.057-.102.09-.725.111-1.239v-.119c.012-.317.016-.564.016-.564l.953-.215.242-.054.037-.009.09-.02s.117.248.258.59l.018.043c.204.506.447 1.195.44 1.587-.016.673.653 2.297.653 2.297.064.373 1.482 4.088 1.482 4.088s1.158 3.64 1.092 4.238c-.065.598.554 4.555.554 4.555l.636 4.07c.309.802.716 2.65.716 2.65l.144.976.03.198.325 2.207.3 2.033s.09.725.213 1.538l.036.223c.079.535.192 1.064.337 1.581.08.268.143.542.19.82z" fill="#63667E"/>
    <path d="M30.51 12.692s-.342.505-.65.505c-.31 0-1.512-.056-2.139-.28-.626-.224-3.699-.393-3.699-.393s-4.35.019-4.497-.15c-.147-.168-2.706-1.064-2.966-1.008-.055.013-.188.04-.367.073l-.204.038a24.78 24.78 0 01-1.047.17c-.436.059-.82.089-.941.037v-.43s.505-.84.537-1.081c.032-.241.457-3.735 1.565-4.985.458-1.003 1.199-1.798 2.102-2.256 1.5-.748 3-1.381 3-1.381l.261-.043.846-.144a.667.667 0 01.084-.08c.234-.205.945-.651 1.872.308l.163.3s2.852.764 4.171 3.433c1.32 2.67 1.386 5.284 1.484 6.478 0 0-.066.337.065.467.047.048.093.098.135.152.012.013.024.026.034.04.038.044.073.089.102.126a.319.319 0 00.031.038l.058.066z" fill="#FED253"/>
    <path opacity=".05" d="M30.376 13.424s-.342.504-.651.504-1.511-.056-2.138-.28c-.627-.223-3.7-.392-3.7-.392s-4.35.018-4.497-.15c-.147-.168-2.705-1.064-2.966-1.008-.054.012-.188.039-.366.073l-.046-.328-.012-.081s4.938-1.213 8.23-.578a70.44 70.44 0 015.72 1.344s-.065.336.066.466a1.98 1.98 0 01.17.193c.037.043.072.088.1.125a.333.333 0 00.031.038l.059.074z" fill="#000"/>
    <path opacity=".1" d="M30.22 14.182c-.61.054-1.734-.116-2.225-.2a5.28 5.28 0 01-.415-.086c-.527-.132-2.148-.5-3.133-.33-1.19.205-4.547-.168-4.547-.168s-2.07-.485-2.901-.877c-.306-.144-.816-.19-1.324-.118-.13.019-.258.045-.385.08-.693.187-1.277.615-1.176 1.344a1.718 1.718 0 01-.107-.167c-.044-.667.136-1.064.387-1.297l.06-.028a6.462 6.462 0 011.084-.254c.891-.137 2.18-.168 3.266.459 0 0 1.01.542 1.695.542s6.258.057 7.562.485c.26.086.524.15.792.192.476.07.959.018 1.415-.153.009.194-.007.388-.049.576z" fill="#000"/>
    <path opacity=".1" d="M30.51 13.59s-.342.505-.65.505c-.31 0-1.512-.056-2.139-.28-.626-.223-3.699-.392-3.699-.392s-4.35.018-4.497-.15c-.147-.168-2.706-1.064-2.966-1.008-.055.012-.188.039-.367.073l-.204.038a3.208 3.208 0 00-1.047.17c-.436.058-.82.088-.941.037v-.085c.094-.063.192-.117.293-.162a7 7 0 011.853-.33c.781-.033 1.695.071 2.498.535 0 0 1.01.542 1.695.542s6.258.056 7.562.485c.26.085.525.15.793.191a2.919 2.919 0 001.727-.284.334.334 0 00.031.038l.058.078z" fill="#000"/>
    <path d="M13.402 13.923s-1.093-.953.325-1.588c0 0 2.478-.876 4.352.205 0 0 1.01.54 1.695.54s6.258.057 7.562.487c.26.085.524.149.792.19a3.013 3.013 0 002.012-.437c.09-.057.17-.085.194-.053.082.113.017.767-.7.897-.56.102-1.83-.091-2.365-.18a5.767 5.767 0 01-.414-.088c-.527-.131-2.148-.5-3.138-.33-1.188.206-4.546-.167-4.546-.167s-2.07-.485-2.901-.878c-.832-.393-3.178-.054-2.868 1.402z" fill="#FED253"/>
    <path opacity=".1" d="M23.709 3.853c-.09-.148-1.24-1.203-1.709-1.63l.846-.143a.672.672 0 01.083-.08c.615.74.78 1.853.78 1.853zM19.375 9.13L19 9.765l1.434-.055.032-.71-1.09.13zM29 10l.163.578.913.168-.391-.69L29 10zM12 30c.098.187 3.308 5.025 4.156 4.89C17.004 34.756 12 30 12 30zM23 34s.782.86.668 1.195C23.553 35.53 23 34 23 34zM14.43 40s-.685 3.677-.326 3.794c.36.117.326-3.794.326-3.794zM24 54c.114.373 1.06 2.8 1.271 2.93C25.483 57.062 24 54 24 54zM34.694 44c-.033.13-.847.896-.668 1.176.179.28.668-1.176.668-1.176zM28.057 51c-.016.094-.179 2.05.13 2.427.31.377-.13-2.427-.13-2.427z" fill="#000"/>
    <path opacity=".1" d="M37.358 60.898c-.236.151-.48.297-.73.436a17.395 17.395 0 01-1.137.586 27.185 27.185 0 01-2.334.97c-.73.264-1.216.409-1.216.409a1.154 1.154 0 00-.337-.032h-.097a3.744 3.744 0 00-.452.066c-1 .205-2.413.78-3.264 1.156-.448.196-.739.337-.739.337l-.569.197-.095.032c-.617.216-1.484.521-1.797.649-.504.205-4.888 1.25-4.888 1.25-.4.125-.81.21-1.223.256a19.507 19.507 0 01-3.064.08c-1.026.076-2.686-.183-3.652-.357l-.153-.028c-.374-.07-.611-.12-.611-.12l.125-.197 2.57-4.062.016-.025 2.394-3.783.09-.137.218-.344s.13-.205.633-.218h.195c.422.039.84.136 1.241.29l.117.04c1.734.57 4.414.427 4.414.427s1.668-.308 2.979-.493l.097-.014c.428-.07.86-.112 1.292-.128.799.018 2.526-.467 2.526-.467.372-.091.529-.168.738-.34l.09-.073c.09-.077.192-.171.325-.288.241-.212.58-.5 1.114-.905.047-.035.096-.07.149-.102.053-.033.12-.077.184-.114a6.395 6.395 0 011.622-.615 8.378 8.378 0 011.412-.223h.07c1.344-.082 2.715.182 3.517 1.046.14.152.263.325.364.513a2.898 2.898 0 01.309.964v.033c0 .03.005.06.007.089.072 1.227-1.04 2.337-2.45 3.24z" fill="#000"/>
    <path d="M11 66.793s2.9.616 4.416.504c0 0 2.787.168 4.287-.335 0 0 4.386-1.046 4.889-1.251.502-.206 2.46-.878 2.46-.878s3.814-1.83 4.89-1.531c0 0 8.441-2.501 7.838-5.88-.603-3.38-5.932-2.613-7.61-1.345-1.677 1.269-1.432 1.401-2.264 1.606 0 0-1.728.485-2.527.467-.798-.019-4.368.635-4.368.635s-2.803.15-4.53-.467c-1.726-.616-2.07-.075-2.07-.075L11 66.793z" fill="#FFA2A2"/>
    <path opacity=".1" d="M17.159 57.946a.772.772 0 01-.051.233c-.344.965-2.295 3.571-2.295 3.571-.09.31-.197.612-.322.904a14.423 14.423 0 01-.926 1.8 24.171 24.171 0 01-1.686 2.448h-.005a2.563 2.563 0 01-.24.181c-.21.144-.527.321-.825.343a.752.752 0 01-.152-.005c.031 0 .062-.008.09-.015l-.11-.037-.15-.053c-.25-.09-.499-.189-.745-.296l-.15-.066a10.903 10.903 0 01-.7-.34l-.15-.077a12.426 12.426 0 01-.701-.403c-.082-.05-.164-.103-.244-.153a14.06 14.06 0 01-1.445-1.057c-.18-.38-.327-.718-.408-.9-.146-.337-.159-.82-.141-1.17 0-.035 0-.07.005-.102.016-.22.039-.37.039-.37a5.425 5.425 0 01-.358-.64.833.833 0 01-.1-.368.497.497 0 00-.013-.156c-.069-.324-.365-.881-.64-1.23-.203-.258-.216-1.22-.196-1.902.011-.41.034-.712.034-.712a.238.238 0 01-.085-.126 3.422 3.422 0 01-.145-.695c0-.034-.008-.068-.013-.103-.057-.47-.083-.943-.083-.943-.663-.553-.978-1.415-1.125-2.184l-.018-.103a7.377 7.377 0 01-.102-1.435v-.103-.026s.087-2.222.333-3.09c.01-.036.02-.07.031-.102a.814.814 0 01.07-.155c.09-.136.153-.393.206-.698.036-.211.067-.446.09-.68a21.67 21.67 0 00.095-1.422l-.166-.935a9.341 9.341 0 01-.105-.77c0-.034-.007-.068-.011-.103a9.92 9.92 0 01-.022-1.43c0-.035 0-.07.005-.103a9.677 9.677 0 01.73-3.128l.045-.102a8.822 8.822 0 01.338-.693 8.585 8.585 0 01.519-.841c.28-.397.59-.764.928-1.096.904-.89 1.734-1.276 2.487-1.306 3.297-.133 5.145 6.544 5.444 7.715.029.112.043.174.043.174s1.336 1.53.945 2.203a1.275 1.275 0 00-.135.483c-.108.904.2 2.392.2 2.392s.11.41.428 1.392l.094.288c.2.615.246 1.648.132 2.572-.11.886-.37 1.67-.784 1.87-.848.411-.62.821-.424 1.159.116.242.213.495.29.756a24.976 24.976 0 01.297.998c.119-.052.242-.09.368-.113.16-.025.319-.007.35.15.015.084.108.184.237.283.385.304 1.098.622 1.098.622z" fill="#000"/>
    <path d="M16.158 57.946a.756.756 0 01-.051.225c-.342.967-2.295 3.58-2.295 3.58-.09.309-.197.61-.322.904-.216.505-.46.994-.731 1.463a24.019 24.019 0 01-1.86 2.758l-.021.026s-.079.069-.204.157c-.224.164-.47.282-.73.35l-.109-.036-.15-.054c-.25-.09-.499-.189-.745-.296l-.15-.066a10.9 10.9 0 01-.7-.339l-.15-.078a12.43 12.43 0 01-.701-.403c-.083-.05-.164-.103-.245-.153a14.068 14.068 0 01-1.444-1.057c-.11-.09-.219-.183-.326-.278-.121-.262-.218-.484-.278-.621-.147-.338-.16-.82-.141-1.17 0-.036 0-.07.005-.103.015-.22.039-.37.039-.37s-.073-.112-.16-.264a4.477 4.477 0 01-.15-.278c-.09-.18-.16-.363-.146-.466a.563.563 0 00-.013-.156c-.07-.324-.367-.88-.64-1.23-.205-.258-.217-1.22-.199-1.902v-.102c.013-.354.032-.61.032-.61-.101-.05-.18-.422-.23-.82l-.013-.102c-.057-.471-.083-.944-.083-.944-.663-.553-.978-1.415-1.124-2.184a7.148 7.148 0 01-.116-1.64v-.026s.077-2.234.322-3.102a.794.794 0 01.111-.252c.136-.218.227-.741.286-1.276l.01-.103c.075-.718.096-1.422.096-1.422l-.167-.935a9.68 9.68 0 01-.105-.77l-.01-.103a9.923 9.923 0 01-.023-1.43c0-.035 0-.07.006-.103a9.654 9.654 0 01.776-3.23A8.419 8.419 0 013.84 37.9c.082-.135.167-.269.256-.398l.071-.102c.277-.396.585-.761.92-1.093.984-.966 1.88-1.34 2.685-1.306 3.174.13 4.955 6.568 5.248 7.715.029.112.043.174.043.174s1.337 1.53.945 2.203a1.277 1.277 0 00-.135.484c-.108.903.2 2.391.2 2.391s.11.41.429 1.393c.028.09.06.186.09.287.199.615.245 1.648.13 2.573-.11.887-.367 1.669-.782 1.87-.847.41-.62.82-.424 1.158.116.242.213.495.29.757.154.483.296.997.296.997.06-.026.119-.048.18-.066a.807.807 0 01.386-.047.16.16 0 01.098.047.202.202 0 01.055.103c.025.123.21.276.435.42.291.183.592.344.901.485z" fill="#CED7E7"/>
    <path opacity=".1" d="M5 48.305c.31-.019 3.635-1.493 4.32-.99.684.504 4.923 3.77 4.923 3.77s-2.656-3.975-4.97-4.908C6.959 45.244 5 48.305 5 48.305zM10 54s3.325.765 3.83 1.288L10 54zM9.162 59c-.048.056-1.253 3.154-1.156 3.154.096 0 1.124-1.846 1.124-1.846L9.162 59zM11.873 56s-.977.393-.864.43c.114.037.831-.262.864-.43zM10 60c.163.392.684 1.568.799 1.381C10.913 61.195 10 60 10 60zM21.63 30.054l-.14.228s-1.108-.895-1.564-1.343c-.456-.448-1.532 1.605-2.38 2.164-.847.56-2.28.71-2.28.71s-1.109-1.27-1.075-1.64c.034-.372-.52-.486-.554-.747-.033-.262-.228-1.008-.489-1.381-.138-.197-.157-.814-.145-1.35l.145-.032c.14-.29.315-.554.522-.784.294-.299.75-2.128.75-2.128.26-1.008.781-.71.781-.71 0 1.531 1.37 2.091 2.054 2.726.684.635 1.76 2.277 2.608 2.614.695.272 1.509 1.323 1.768 1.673z" fill="#000"/>
    <path d="M21.635 29.054l-.14.229s-1.113-.893-1.569-1.345c-.456-.45-1.532 1.605-2.38 2.165-.847.56-2.28.71-2.28.71s-1.109-1.27-1.075-1.64c.034-.37-.52-.485-.554-.748-.033-.262-.228-1.008-.489-1.38-.138-.198-.157-.814-.145-1.35l.145-.031c.14-.29.315-.554.522-.785.294-.299.75-2.127.75-2.127.26-1.008.781-.711.781-.711 0 1.531 1.37 2.092 2.054 2.727.684.634 1.76 2.276 2.608 2.613.7.275 1.513 1.322 1.772 1.673z" fill="#CED7E7"/>
    <path opacity=".1" d="M22.004 30.22s-.96.596-1.71.653a1.236 1.236 0 01-.294-.02s.828-.708 1.597-.853l.407.22zM24.611 32.71s-1.21-.54-1.611.272c.013-.373.019-.683.019-.683l1.32-.299s.127.27.276.633c-.004.048-.004.077-.004.077z" fill="#000"/>
    <path d="M20 30.919s1.451-.998 2.149-.914c.731.087 2.148.149 2.148.149s-.489 1.27-.423 1.53c.065.262.081 1.532.081 1.532s-1.466-.654-1.71.56c0 0-.8-1.363-1.337-1.774A4.003 4.003 0 0120 30.919z" fill="#63667E"/>
    <path opacity=".1" d="M28.362 31.161c-.424 0-1.923-1.084-2.25-1.792-.325-.709-.782.074-1.205.336-.269.168-1.333-.183-1.907-.439.291-.226.936-.864 1.124-1.017.228-.188.457-3.212.457-3.212.815-.485 1.695 3.92 1.695 3.92s1.532.524 1.662.897c.025.074.14.205.314.364.18.517.278.943.11.943z" fill="#000"/>
    <path d="M28.15 31.158c-.423 0-1.923-1.083-2.248-1.791-.326-.709-.783.074-1.206.335-.269.168-1.122-.157-1.696-.41.291-.226.724-.89.913-1.044.227-.187.457-3.21.457-3.21.814-.486 1.694 3.92 1.694 3.92s1.533.523 1.663.896c.025.074.14.205.314.364.18.514.278.94.11.94z" fill="#CED7E7"/>
    <path d="M35.072 64.741l14.172-13.536a.702.702 0 01.507-.205l5.287.16s.366.307-.17.98l-13.37 12.567a.79.79 0 01-.51.219l-5.782.22a.182.182 0 01-.117-.039.226.226 0 01-.076-.109.26.26 0 01-.006-.139.234.234 0 01.065-.118z" fill="#306B34"/>
    <path d="M41 61.984s3.096 5.078 6.535.355c3.44-4.724 2.445-7.205 1.402-7.337-1.043-.13-6.911 5.04-7.937 6.982z" fill="#FFA2A2"/>
    <path opacity=".1" d="M62 5.606s3.99-8.87 8.706-4.295c0 0 1.03.43.952 1.676 0 0-.397-.249-.712.704-.116.338-.266.659-.447.956-.242.402-.59.704-.994.86 0 0-2.117 1.816-6.037.415 0 0-1.108.183-1.287.025l1.288-1.08s.655 1.113 1.611 1.24c0 0-1.61-1.158-1.426-1.41.037-.05.705-.536.705-.536s1.145 1.93 2.63 2.072c0 0-2.08-1.086-2.379-2.256l1.045-.668s1.123 2.107 2.809 2.343c0 0-2.14-1.221-2.572-2.471l1.106-.494s1.13 2.03 2.534 2.216c0 0-2.348-1.697-2.274-2.31 0 0 1.04-.384 1.358-.334 0 0 .84 1.436 1.664 1.461 0 0-1.464-1.325-1.367-1.529 0 0 1.47-.087 2.238.32 0 0-1.092-.696-2.238-.583 0 0 .518-.698 1.194-.852 0 0-.81-.382-1.55.878 0 0-1.144.12-1.285.265 0 0 .578-1.362 1.29-1.941 0 0-1.06.214-1.586 2.06l-1.121.469S66.536.96 67.137.39c0 0-1.053.41-1.556 2.563l-1.031.642s.48-1.64 1.03-2.441c0 0-.906.621-1.32 2.637l-.645.52s.37-1.192.503-1.523c.133-.331.066-.4.066-.4a4.605 4.605 0 00-.844 2.13S62.074 5.69 62 5.606zM79 10.534s1.803-4.01 3.934-1.942c0 0 .465.194.43.757 0 0-.18-.112-.322.319a2.163 2.163 0 01-.2.432.92.92 0 01-.448.388s-.957.82-2.729.188c0 0-.5.082-.58.011l.581-.488s.296.504.729.56c0 0-.727-.523-.645-.637.016-.022.318-.242.318-.242s.517.872 1.189.936c0 0-.94-.49-1.074-1.025l.472-.3s.507.952 1.269 1.059c0 0-.967-.552-1.164-1.117l.5-.223s.51.917 1.144 1.001c0 0-1.061-.767-1.027-1.043 0 0 .469-.174.613-.151 0 0 .38.649.752.66 0 0-.662-.599-.618-.69 0 0 .665-.04 1.01.144 0 0-.493-.315-1.01-.264.143-.186.33-.32.538-.385 0 0-.367-.173-.701.396 0 0-.517.055-.58.12 0 0 .26-.615.582-.876 0 0-.48.096-.716.93l-.501.216s.307-.834.579-1.092c0 0-.476.186-.704 1.158l-.465.289s.216-.743.464-1.104c0 0-.409.281-.595 1.192l-.292.235s.168-.538.228-.688c.06-.15.03-.18.03-.18-.203.274-.335.608-.382.964 0 0-.578.528-.609.492zM59 14.534s1.803-4.01 3.939-1.942c0 0 .465.194.43.758 0 0-.18-.113-.322.318-.051.152-.119.297-.2.432a.918.918 0 01-.452.388s-.956.82-2.728.188c0 0-.5.083-.581.011l.582-.488s.295.504.728.561c0 0-.727-.524-.645-.638.017-.022.319-.242.319-.242s.517.872 1.188.936c0 0-.94-.49-1.075-1.025l.473-.3s.508.952 1.27 1.059c0 0-.967-.552-1.164-1.117l.5-.223s.51.917 1.144 1.001c0 0-1.06-.767-1.027-1.043 0 0 .47-.174.614-.151 0 0 .38.649.752.66 0 0-.662-.599-.618-.691 0 0 .663-.039 1.01.145 0 0-.494-.315-1.01-.264.142-.186.328-.32.536-.386 0 0-.365-.172-.7.397 0 0-.516.055-.58.12 0 0 .26-.615.583-.876 0 0-.48.096-.716.93l-.508.216s.308-.834.58-1.091c0 0-.476.184-.703 1.157l-.467.289s.218-.743.466-1.103c0 0-.41.28-.596 1.191l-.292.235s.167-.538.227-.688c.06-.15.03-.18.03-.18a2.08 2.08 0 00-.38.964s-.576.528-.607.492z" fill="#306B34"/>
  </g>
  <defs>
    <clipPath id="clip0">
      <path fill="#fff" d="M0 0h96v80H0z"/>
    </clipPath>
  </defs>
</svg>
