<svg width="97" height="81" viewBox="0 0 97 81" fill="none" xmlns="http://www.w3.org/2000/svg">
<g clip-path="url(#clip0)">
<path opacity="0.1" d="M96.3737 51.9709C96.3754 54.1384 96.1819 56.2981 95.7975 58.4021C95.6681 59.111 95.5179 59.8052 95.3467 60.4847C95.1373 61.3234 94.8946 62.1462 94.6197 62.9494C94.4811 63.3558 94.3347 63.7541 94.1804 64.1442C94.1829 66.3669 93.8451 68.5662 93.1884 70.603C92.0013 74.2575 89.8845 77.2124 87.2238 78.9291C85.5602 80.0045 83.7422 80.57 81.899 80.5855H18.5977C15.7813 80.5936 13.0136 79.5912 10.5759 77.6802L10.5384 77.6515C10.1912 77.3762 9.85264 77.0846 9.52281 76.7769C8.7807 76.0823 8.08349 75.3036 7.43869 74.4491C6.56595 73.2937 5.79691 72.0027 5.14754 70.603C3.62238 67.3221 2.81443 63.5229 2.81727 59.6455C1.27272 55.9738 0.37207 51.5756 0.37207 46.8494C0.37207 40.8864 1.80332 35.4468 4.15479 31.3291C4.64502 30.4688 5.18202 29.6593 5.76128 28.9074C6.33283 28.1634 6.94716 27.4821 7.59844 26.8701C8.11951 26.3799 8.66409 25.9372 9.22857 25.545C9.46412 25.3826 9.70049 25.2291 9.94094 25.0867C10.152 24.9597 10.3656 24.8416 10.5816 24.73C10.8408 24.5968 11.1032 24.4742 11.3689 24.3623C11.6346 24.2504 11.8968 24.1525 12.1555 24.0686C12.5358 23.9427 12.9227 23.8404 13.3161 23.7616C13.6421 23.6964 13.9682 23.6512 14.2942 23.6169C14.5534 23.5904 14.815 23.5761 15.0783 23.5717H15.2209C15.5111 23.5717 15.7996 23.5871 16.0857 23.6136C16.1159 23.5319 16.1485 23.4491 16.1786 23.3685C16.2927 23.0736 16.4109 22.7799 16.5299 22.4928C16.5297 22.4902 16.5297 22.4876 16.5299 22.4851C16.5503 22.4343 16.5707 22.3846 16.5919 22.336C16.688 22.1008 16.7883 21.8678 16.891 21.637C16.9383 21.5266 16.9847 21.4228 17.0328 21.319C17.043 21.2932 17.0541 21.2681 17.0662 21.2439C17.1151 21.1335 17.1649 21.023 17.2154 20.9126C17.467 20.3678 17.7286 19.8327 18.0003 19.307L18.0696 19.1723C18.112 19.0906 18.1511 19.0111 18.1984 18.9294C18.3108 18.7163 18.4266 18.502 18.5431 18.2922C18.6246 18.142 18.7061 17.993 18.7942 17.8505C19.0061 17.4824 19.2234 17.1143 19.4462 16.7463C19.669 16.3782 19.9005 16.0149 20.1407 15.6564C20.1733 15.6067 20.2059 15.5581 20.2401 15.5095L20.5881 14.9949C20.6052 14.9706 20.6199 14.9485 20.6362 14.9264C20.6778 14.8657 20.7177 14.805 20.7626 14.7465C20.9492 14.4781 21.1407 14.2153 21.3331 13.9536C22.312 12.6326 23.3549 11.4016 24.4548 10.2687C24.498 10.2223 24.542 10.1781 24.5852 10.134C24.7922 9.92306 25.0025 9.71436 25.2128 9.50897C26.3695 8.38478 27.5786 7.36305 28.8325 6.45018C28.9189 6.38282 29.0069 6.31988 29.0958 6.25804C30.22 5.45228 31.3761 4.7312 32.559 4.09811C33.2037 3.75248 33.8631 3.42783 34.5266 3.13079C34.9683 2.93423 35.4117 2.74761 35.8608 2.57203C36.5629 2.29818 37.2698 2.05267 37.9816 1.83549C40.0787 1.19799 42.2122 0.804183 44.3587 0.658358C45.0107 0.613452 45.6701 0.590262 46.3369 0.58879C49.5539 0.58302 52.7584 1.1322 55.8731 2.22309C55.9053 2.28902 55.9494 2.34277 56.0011 2.37928C56.0529 2.41579 56.1107 2.43386 56.169 2.43179H56.4429C56.5618 2.47596 56.68 2.52013 56.799 2.56651C57.4636 2.82564 58.1186 3.1087 58.7642 3.41568L58.9272 3.49519C60.5204 4.26275 62.0707 5.18537 63.5657 6.25583C64.9134 7.21847 66.211 8.30464 67.4495 9.50676C67.6402 9.69227 67.8282 9.87926 68.0135 10.0677C68.2385 9.87264 68.4672 9.68565 68.6998 9.50676C69.5979 8.81377 70.5518 8.26281 71.5427 7.86473C73.6145 7.03413 75.8065 6.91798 77.9198 7.52683C80.6299 8.30533 83.0833 10.2378 85.0647 12.9863C85.8715 14.1108 86.5896 15.3462 87.2075 16.6723C87.2523 16.7672 87.2971 16.8633 87.3403 16.9605C87.8714 18.1342 88.3278 19.3669 88.7048 20.6454C88.7186 20.6929 88.7325 20.737 88.7447 20.7834C89.0927 21.9806 89.3733 23.2116 89.5842 24.4661C89.594 24.5302 89.6054 24.5931 89.6152 24.6571C89.8125 25.8712 89.9465 27.1025 90.0162 28.342C90.0162 28.3862 90.0162 28.4315 90.0227 28.4779C90.057 29.1191 90.0743 29.7669 90.0749 30.4214C90.0749 31.0066 90.0602 31.5875 90.0333 32.1639C90.0333 32.2268 90.0268 32.292 90.0227 32.3571C90.0154 32.5239 90.0048 32.6884 89.9942 32.8562C90.6167 33.5365 91.1993 34.2812 91.7368 35.0835C91.9743 35.4347 92.2041 35.7991 92.4264 36.1767C93.1033 37.3262 93.6982 38.56 94.2032 39.8616C95.5815 43.3864 96.3737 47.5329 96.3737 51.9709Z" fill="#306B34"/>
<path opacity="0.1" d="M87.1636 78.5205C87.1636 79.2747 85.2457 79.9814 81.899 80.5888H18.5978C15.7814 80.5969 13.0137 79.5945 10.5759 77.6835L10.5385 77.6547C11.5002 77.1799 13.2363 76.7371 15.5992 76.3374L15.7052 76.3197C16.7647 76.1441 17.949 75.9774 19.2433 75.8195C19.276 75.8195 19.3094 75.8128 19.342 75.8073C20.369 75.6836 21.4614 75.5677 22.6193 75.4595C22.656 75.4595 22.6919 75.4506 22.7286 75.4484C23.1752 75.405 23.6311 75.3638 24.0962 75.3248L24.2756 75.3093C27.6622 75.0244 31.5117 74.7969 35.6865 74.6467H35.6914C36.276 74.6247 36.867 74.6052 37.4641 74.5882C38.1281 74.5669 38.8003 74.5481 39.4806 74.5319C39.9998 74.5164 40.5255 74.5054 41.0529 74.4944H41.0651C43.4443 74.4458 45.9025 74.4215 48.4162 74.4215C54.6319 74.4215 60.5068 74.575 65.7127 74.851H65.7273C66.5277 74.893 67.3135 74.9394 68.0796 74.9869L68.7317 75.0288C69.5962 75.0848 70.4384 75.1448 71.2584 75.2088C80.9006 75.952 87.1636 77.1589 87.1636 78.5205Z" fill="#306B34"/>
<g opacity="0.2">
<path opacity="0.2" d="M55.821 73.9147C55.8184 74.0338 55.8083 74.1524 55.7909 74.2691C55.2236 74.1469 54.653 74.0365 54.0792 73.9378C54.0792 73.9069 54.0792 73.8749 54.0792 73.8429C54.0845 73.5118 54.1549 73.1885 54.283 72.9064C54.4509 72.5464 54.706 72.3212 54.9872 72.3333C55.2684 72.3455 55.5121 72.5917 55.6629 72.9639C55.7769 73.2562 55.8315 73.5843 55.821 73.9147V73.9147Z" fill="#243444"/>
<path opacity="0.2" d="M55.8678 72.0277C55.8877 71.1737 55.5136 70.4647 55.0322 70.444C54.5508 70.4234 54.1444 71.099 54.1244 71.953C54.1045 72.807 54.4786 73.516 54.9601 73.5366C55.4415 73.5573 55.8479 72.8817 55.8678 72.0277Z" fill="#243444"/>
<path opacity="0.2" d="M55.9123 70.1371C55.9322 69.2831 55.5581 68.5741 55.0766 68.5535C54.5952 68.5329 54.1888 69.2085 54.1689 70.0625C54.149 70.9164 54.5231 71.6254 55.0045 71.646C55.4859 71.6666 55.8923 70.9911 55.9123 70.1371Z" fill="#243444"/>
<path opacity="0.2" d="M55.956 68.2466C55.9759 67.3926 55.6018 66.6836 55.1203 66.663C54.6389 66.6424 54.2325 67.318 54.2126 68.172C54.1927 69.026 54.5668 69.735 55.0482 69.7556C55.5296 69.7762 55.936 69.1006 55.956 68.2466Z" fill="#243444"/>
<path opacity="0.2" d="M55.9997 66.3561C56.0196 65.5021 55.6455 64.7931 55.164 64.7724C54.6826 64.7518 54.2762 65.4274 54.2563 66.2814C54.2364 67.1354 54.6105 67.8444 55.0919 67.865C55.5733 67.8856 55.9797 67.2101 55.9997 66.3561Z" fill="#243444"/>
<path opacity="0.2" d="M52.1613 53.2385C52.0465 53.028 51.943 52.8065 51.8516 52.576L54.155 52.1641L51.6755 52.0835C51.4543 51.3724 51.3424 50.6077 51.3467 49.8361C51.3511 49.0645 51.4716 48.3021 51.7008 47.5958L54.9709 50.0748L51.9755 46.8901C52.2776 46.228 52.6773 45.6574 53.1496 45.214C53.6219 44.7705 54.1565 44.4637 54.7202 44.3128C55.2839 44.1619 55.8645 44.1701 56.4258 44.3368C56.9871 44.5036 57.5169 44.8253 57.9823 45.282C58.4476 45.7386 58.8385 46.3203 59.1305 46.9908C59.4224 47.6613 59.6092 48.4061 59.6791 49.1788C59.7491 49.9515 59.7007 50.7354 59.5369 51.4816C59.3732 52.2278 59.0977 52.9202 58.7275 53.5157C58.906 53.8432 59.0577 54.196 59.1799 54.568L56.1568 56.5336L59.3625 55.2273C59.5643 56.1297 59.5969 57.0861 59.4571 58.0099C59.3173 58.9337 59.0097 59.7957 58.5621 60.5178C59.0275 61.3733 59.3058 62.3889 59.3652 63.4487C59.4246 64.5084 59.2627 65.5693 58.8979 66.5103C58.5332 67.4512 57.9804 68.234 57.3027 68.7693C56.625 69.3046 55.8498 69.5707 55.0658 69.5372C54.2817 69.5037 53.5205 69.172 52.869 68.5799C52.2176 67.9879 51.7023 67.1594 51.382 66.1892C51.0618 65.219 50.9495 64.1464 51.058 63.0938C51.1666 62.0413 51.4916 61.0514 51.9959 60.2373C51.4398 59.2149 51.1536 57.969 51.1832 56.6997C51.2127 55.4304 51.5564 54.2114 52.1589 53.2385H52.1613Z" fill="#306B34"/>
<path opacity="0.1" d="M59.5401 57.0571C59.5116 58.3271 59.1669 59.5467 58.5621 60.5178C59.0275 61.3733 59.3058 62.389 59.3652 63.4487C59.4246 64.5084 59.2626 65.5694 58.8979 66.5103C58.5332 67.4512 57.9804 68.2341 57.3027 68.7693C56.625 69.3046 55.8498 69.5708 55.0658 69.5373C54.2817 69.5038 53.5205 69.172 52.869 68.58C52.2176 67.9879 51.7023 67.1594 51.382 66.1892C51.0618 65.2191 50.9495 64.1464 51.058 63.0939C51.1666 62.0413 51.4916 61.0514 51.9958 60.2373C51.4603 59.2512 59.5548 56.4221 59.5401 57.0571Z" fill="#243444"/>
</g>
<g opacity="0.2">
<path opacity="0.2" d="M43.432 73.9147C43.4294 74.0338 43.4193 74.1524 43.4018 74.2691C42.8345 74.1469 42.264 74.0365 41.6902 73.9378C41.6902 73.9069 41.6902 73.8749 41.6902 73.8429C41.6955 73.5118 41.7658 73.1885 41.894 72.9064C42.0619 72.5464 42.317 72.3212 42.5982 72.3333C42.8794 72.3455 43.1231 72.5917 43.2739 72.9639C43.3879 73.2562 43.4425 73.5843 43.432 73.9147V73.9147Z" fill="#243444"/>
<path opacity="0.2" d="M43.4779 72.0281C43.4979 71.1741 43.1237 70.4651 42.6423 70.4445C42.1609 70.4239 41.7545 71.0995 41.7346 71.9535C41.7146 72.8075 42.0888 73.5165 42.5702 73.5371C43.0516 73.5577 43.458 72.8821 43.4779 72.0281Z" fill="#243444"/>
<path opacity="0.2" d="M43.5225 70.1376C43.5424 69.2836 43.1683 68.5746 42.6869 68.554C42.2054 68.5334 41.799 69.2089 41.7791 70.0629C41.7592 70.9169 42.1333 71.6259 42.6147 71.6465C43.0961 71.6671 43.5025 70.9915 43.5225 70.1376Z" fill="#243444"/>
<path opacity="0.2" d="M43.5661 68.2471C43.586 67.3931 43.2119 66.6841 42.7304 66.6634C42.249 66.6428 41.8426 67.3184 41.8227 68.1724C41.8028 69.0264 42.1769 69.7354 42.6583 69.756C43.1397 69.7767 43.5461 69.1011 43.5661 68.2471Z" fill="#243444"/>
<path opacity="0.2" d="M43.6098 66.3565C43.6297 65.5025 43.2556 64.7935 42.7741 64.7729C42.2927 64.7523 41.8863 65.4279 41.8664 66.2819C41.8465 67.1359 42.2206 67.8449 42.702 67.8655C43.1834 67.8861 43.5898 67.2105 43.6098 66.3565Z" fill="#243444"/>
<path opacity="0.2" d="M39.7724 53.2385C39.6576 53.028 39.5541 52.8065 39.4627 52.576L41.766 52.1641L39.2866 52.0835C39.0653 51.3724 38.9535 50.6077 38.9578 49.8361C38.9622 49.0645 39.0826 48.3021 39.3119 47.5958L42.5819 50.0748L39.5866 46.8901C39.8887 46.228 40.2884 45.6574 40.7607 45.214C41.2329 44.7705 41.7676 44.4637 42.3313 44.3128C42.895 44.1619 43.4756 44.1701 44.0368 44.3368C44.5981 44.5036 45.1279 44.8253 45.5933 45.282C46.0587 45.7386 46.4495 46.3203 46.7415 46.9908C47.0334 47.6613 47.2202 48.4061 47.2901 49.1788C47.3601 49.9515 47.3117 50.7354 47.1479 51.4816C46.9842 52.2278 46.7087 52.9202 46.3385 53.5157C46.5171 53.8432 46.6687 54.196 46.7909 54.568L43.7678 56.5336L46.9735 55.2273C47.1753 56.1297 47.2079 57.0861 47.0681 58.0099C46.9284 58.9337 46.6207 59.7957 46.1731 60.5178C46.6385 61.3733 46.9168 62.3889 46.9762 63.4487C47.0356 64.5084 46.8737 65.5693 46.5089 66.5103C46.1442 67.4512 45.5914 68.234 44.9137 68.7693C44.2361 69.3046 43.4609 69.5707 42.6768 69.5372C41.8928 69.5037 41.1315 69.172 40.4801 68.5799C39.8286 67.9879 39.3133 67.1594 38.9931 66.1892C38.6728 65.219 38.5606 64.1464 38.6691 63.0938C38.7777 62.0413 39.1027 61.0514 39.6069 60.2373C39.0509 59.2149 38.7647 57.969 38.7942 56.6997C38.8238 55.4304 39.1674 54.2114 39.7699 53.2385H39.7724Z" fill="#306B34"/>
<path opacity="0.1" d="M47.1512 57.0571C47.1227 58.3271 46.778 59.5467 46.1731 60.5178C46.6385 61.3733 46.9168 62.389 46.9762 63.4487C47.0356 64.5084 46.8737 65.5694 46.509 66.5103C46.1442 67.4512 45.5914 68.2341 44.9138 68.7693C44.2361 69.3046 43.4609 69.5708 42.6769 69.5373C41.8928 69.5038 41.1315 69.172 40.4801 68.58C39.8287 67.9879 39.3133 67.1594 38.9931 66.1892C38.6728 65.2191 38.5606 64.1464 38.6691 63.0939C38.7777 62.0413 39.1027 61.0514 39.6069 60.2373C39.0714 59.2512 47.1659 56.4221 47.1512 57.0571Z" fill="#243444"/>
</g>
<g opacity="0.2">
<path opacity="0.2" d="M77.2736 75.1227C77.2674 75.3483 77.2475 75.5729 77.2141 75.7941C76.1219 75.5578 75.0219 75.3465 73.9139 75.1602C73.9139 75.1006 73.9139 75.0399 73.9139 74.978C73.9243 74.3403 74.0599 73.7179 74.3068 73.1748C74.6328 72.4824 75.1219 72.0484 75.6622 72.0705C76.2026 72.0926 76.6729 72.5685 76.9663 73.2852C77.1876 73.8498 77.2937 74.4841 77.2736 75.1227V75.1227Z" fill="#243444"/>
<path opacity="0.2" d="M77.3623 71.4871C77.4007 69.8425 76.6801 68.4771 75.7528 68.4374C74.8255 68.3977 74.0426 69.6987 74.0043 71.3433C73.9659 72.9879 74.6865 74.3533 75.6138 74.393C76.5411 74.4327 77.324 73.1317 77.3623 71.4871Z" fill="#243444"/>
<path opacity="0.2" d="M77.447 67.8474C77.4854 66.2028 76.7647 64.8374 75.8375 64.7977C74.9102 64.758 74.1273 66.059 74.089 67.7036C74.0506 69.3482 74.7713 70.7136 75.6985 70.7533C76.6258 70.793 77.4086 69.492 77.447 67.8474Z" fill="#243444"/>
<path opacity="0.2" d="M77.5325 64.2078C77.5709 62.5632 76.8502 61.1978 75.9229 61.1581C74.9956 61.1184 74.2128 62.4194 74.1744 64.064C74.1361 65.7086 74.8567 67.074 75.784 67.1137C76.7113 67.1534 77.4941 65.8523 77.5325 64.2078Z" fill="#243444"/>
<path opacity="0.2" d="M77.5216 60.4025C77.5581 58.757 76.8355 57.3926 75.9078 57.3549C74.98 57.3172 74.1984 58.6205 74.1619 60.2659C74.1255 61.9113 74.848 63.2758 75.7758 63.3135C76.7036 63.3512 77.4852 62.0479 77.5216 60.4025Z" fill="#243444"/>
<path opacity="0.2" d="M70.2274 35.3187C70.0074 34.9133 69.8083 34.4879 69.6315 34.0455L74.0655 33.2526L69.2933 33.0969C68.867 31.7282 68.6514 30.256 68.6595 28.7705C68.6676 27.2849 68.8994 25.8172 69.3406 24.4572L75.6369 29.2287L69.8712 23.0979C70.4542 21.8262 71.2242 20.7309 72.1333 19.8801C73.0425 19.0293 74.0712 18.4413 75.1554 18.1528C76.2397 17.8642 77.3561 17.8813 78.4353 18.203C79.5144 18.5246 80.533 19.1439 81.4278 20.0223C82.3225 20.9007 83.0741 22.0194 83.6357 23.3086C84.1973 24.5978 84.557 26.0298 84.6922 27.5156C84.8274 29.0013 84.7353 30.5088 84.4216 31.9442C84.1079 33.3796 83.5794 34.7121 82.869 35.8587C83.2123 36.4897 83.5045 37.169 83.7403 37.885L77.9199 41.6715L84.0907 39.1537C84.4796 40.889 84.543 42.7283 84.275 44.5051C84.007 46.2818 83.4162 47.94 82.556 49.3295C83.4518 50.9765 83.9874 52.9317 84.1016 54.9717C84.2159 57.0117 83.9041 59.0541 83.2019 60.8653C82.4997 62.6765 81.4355 64.1835 80.131 65.2139C78.8264 66.2443 77.3342 66.7566 75.8248 66.6921C74.3155 66.6276 72.8501 65.989 71.596 64.8493C70.342 63.7096 69.3499 62.1148 68.7334 60.2473C68.1168 58.3797 67.9006 56.3148 68.1094 54.2886C68.3183 52.2624 68.9438 50.3568 69.9144 48.7895C68.8445 46.8213 68.2938 44.4232 68.3505 41.9802C68.4073 39.5371 69.0683 37.1907 70.2274 35.3176V35.3187Z" fill="#306B34"/>
<path opacity="0.1" d="M84.4341 42.6686C84.3806 45.1122 83.7201 47.4598 82.5594 49.3317C83.4552 50.9786 83.9908 52.9339 84.1051 54.9739C84.2193 57.0139 83.9075 59.0563 83.2053 60.8675C82.5031 62.6787 81.4389 64.1857 80.1343 65.2161C78.8298 66.2465 77.3375 66.7588 75.8282 66.6943C74.3189 66.6298 72.8534 65.9912 71.5993 64.8515C70.3453 63.7118 69.3532 62.117 68.7367 60.2495C68.1201 58.3819 67.9039 56.317 68.1127 54.2908C68.3216 52.2646 68.9471 50.3589 69.9177 48.7917C68.8793 46.8913 84.4626 41.4462 84.4341 42.6686Z" fill="#243444"/>
</g>
<path d="M13.2371 75.317L14.0921 75.3137H15.2976L16.8218 41.7687L31.916 7.64384L31.2598 6.68976V4.27365L14.9357 40.978L13.2371 75.317Z" fill="#CED0CE"/>
<path opacity="0.1" d="M14.1834 75.3137H15.2976L16.8218 41.7686L31.916 7.64384L31.2598 6.68976L15.6905 41.2574L14.1834 75.3137Z" fill="#243444"/>
<path d="M10.7178 75.5964L49.8287 79.6512L49.8621 79.6545L87.7129 76.5008L87.7414 76.4986V74.3331L46.0346 73.2962L11.2386 73.251H10.9843L10.9566 73.4939L10.7178 75.5964Z" fill="#CED0CE"/>
<path opacity="0.1" d="M10.7178 75.5964L49.8287 79.6512L49.8621 79.6545L87.7129 76.5008L87.7414 76.4588V74.3784H87.708L49.8287 76.0922L11.2386 73.251H11.2329L11.1644 73.3117L10.9566 73.4939L10.7178 75.5964Z" fill="#243444"/>
<path opacity="0.1" d="M10.7178 75.5964L49.8286 79.6512V76.0922L11.1644 73.3117L10.9566 73.4939L10.7178 75.5964Z" fill="#243444"/>
<path d="M31.2549 6.64448L48.4976 31.7177L47.9646 75.8217L49.4293 76.0613L49.4537 76.0658H50.9184L51.0936 33.6115L83.3808 48.223L83.9253 74.2393L85.1039 74.4182L85.5032 74.4789L84.5789 46.4187L50.8271 30.365L32.3202 4.29904H31.2549V6.64448Z" fill="#CED0CE"/>
<path opacity="0.1" d="M50.9608 32.7999L51.0937 33.6115L83.3808 48.223L83.9253 74.2393L85.1039 74.4182L84.1796 47.6819L50.9608 32.7999Z" fill="#243444"/>
<path opacity="0.1" d="M31.2549 6.64448L48.4976 31.7177L47.9646 75.8217L49.4293 76.0613L49.8287 30.2745L31.2549 4.29904V6.64448Z" fill="#243444"/>
<path d="M51.0236 50.5L62.8656 53.6592L62.8697 53.6604L83.6107 59.196L84.5602 58.6803L84.557 58.5898L84.495 56.7953L51.0358 47.6355L51.0236 50.5Z" fill="#CED0CE"/>
<path opacity="0.1" d="M62.8698 53.6603L83.6107 59.196L84.5603 58.6803L84.557 58.5898L62.8698 53.6603Z" fill="#243444"/>
<path d="M63.6627 39.2995L63.983 63.189L64.1485 75.4451L65.6066 75.3789L66.5244 75.3369L66.2391 39.6452L65.6066 39.3603L65.4681 39.2995H63.6627Z" fill="#CED0CE"/>
<path opacity="0.1" d="M63.6758 39.294V39.2995L63.9831 63.189L64.1485 75.4451L65.6067 75.3789V39.294H63.6758Z" fill="#243444"/>
<path d="M40.8222 45.4005C40.9077 45.4635 40.9895 45.5355 41.0667 45.6159C41.158 45.7242 41.24 45.846 41.3112 45.9792C41.6609 46.592 41.9836 47.3043 41.9494 48.0773C41.9501 48.1897 41.9345 48.3013 41.9033 48.4055C41.8721 48.5097 41.826 48.6046 41.7676 48.6846C41.6234 48.8513 41.4164 48.8591 41.2273 48.8591C41.0219 48.8591 40.8059 48.8591 40.6282 48.7155C40.4505 48.572 40.3022 48.2926 40.0919 48.2992C40.0622 48.3059 40.0319 48.3059 40.0022 48.2992C39.9297 48.2672 39.915 48.138 39.8677 48.0563C39.7862 47.9094 39.6143 47.9459 39.4863 48.0099C39.3583 48.0739 39.2165 48.17 39.0902 48.096C39.0168 48.0436 38.9569 47.9624 38.9182 47.863C38.6158 47.2005 38.5514 46.4043 38.4944 45.6346C38.4593 45.1664 38.192 43.5697 38.9296 43.933C39.2556 44.092 39.5605 44.41 39.8571 44.643L40.8222 45.4005Z" fill="#243444"/>
<path d="M40.0936 45.5584C40.1595 45.6226 40.2393 45.6551 40.3204 45.6507C40.4015 45.6463 40.4792 45.6053 40.5411 45.5341C40.6624 45.3856 40.7398 45.1823 40.7587 44.9621C40.8402 44.9279 40.8818 45.0726 40.9339 45.1609C41.0252 45.3111 41.2111 45.3089 41.2942 45.469C41.3521 45.5794 41.339 45.7329 41.3798 45.8577C41.4328 46.0189 41.564 46.1028 41.6536 46.2331C41.7383 46.3755 41.7995 46.5408 41.833 46.7179L41.9666 47.2612C42.0306 47.4871 42.0717 47.7237 42.0889 47.9646C42.0973 48.085 42.088 48.2065 42.0614 48.3219C42.0348 48.4374 41.9915 48.5445 41.934 48.6371C41.7547 48.8988 41.4605 48.9264 41.2005 48.9187C41.1136 48.9212 41.027 48.9074 40.9429 48.8778C40.7122 48.7806 40.5647 48.4659 40.5036 48.149C40.4425 47.8321 40.449 47.4997 40.4131 47.1751C40.3744 46.8562 40.3059 46.5452 40.2094 46.2497C40.1376 46.02 39.9404 45.6777 39.9436 45.4337C40.0023 45.4337 40.0447 45.5065 40.0936 45.5584Z" fill="#243444"/>
<path d="M40.3861 44.4398C40.348 44.283 40.3258 44.12 40.3201 43.9551C40.3201 43.6238 40.4318 43.3124 40.5442 43.0164L39.6126 43.1876C39.5001 43.2086 39.3746 43.2395 39.311 43.3665C39.2869 43.4294 39.2743 43.4993 39.2743 43.5702C39.2743 43.6412 39.2869 43.711 39.311 43.774C39.3577 43.9 39.3949 44.032 39.4219 44.1682C39.424 44.2873 39.4341 44.406 39.4521 44.5227C39.481 44.6084 39.5217 44.6859 39.5719 44.7512C39.8384 45.151 40.0381 45.6225 40.237 46.0896C40.2312 46.0763 40.7985 45.4811 40.7757 45.2868C40.7627 45.1764 40.5988 45.0439 40.5467 44.9379C40.4746 44.784 40.4205 44.616 40.3861 44.4398V44.4398Z" fill="#BE6F72"/>
<path d="M48.3738 40.1255V41.2132L34.6261 44.8462L33.9129 45.4315H31.4522V44.8186L44.9595 40.3972L48.3738 40.1255Z" fill="#CED0CE"/>
<path opacity="0.1" d="M48.3738 41.2132L34.6261 44.8462L33.9129 45.4314H31.4522L45.0597 41.4859L48.3738 41.2132Z" fill="#243444"/>
<path d="M37.3361 71.0027C37.183 70.7514 36.9715 70.5777 36.7362 70.5099C36.5009 70.4422 36.2556 70.4843 36.0402 70.6295C35.9941 70.6589 35.9534 70.7019 35.9212 70.7554C35.8397 70.9099 35.8918 71.1231 35.8992 71.3141C35.9179 71.7801 35.6441 72.1588 35.3979 72.4846C35.2659 72.6591 35.1314 72.8457 35.0719 73.0831C35.0124 73.3205 35.0564 73.622 35.2161 73.7456C35.2859 73.793 35.3617 73.8215 35.4395 73.8296C35.7 73.8984 35.9671 73.9085 36.2301 73.8594C36.4901 73.792 36.7452 73.5921 36.8577 73.2675C36.8794 73.1795 36.9153 73.0991 36.9628 73.0323C37.1063 72.8788 37.3263 73.0588 37.4894 72.9495C37.6238 72.8589 37.6296 72.7165 37.6312 72.5288C37.6361 72.0098 37.579 71.4223 37.3361 71.0027Z" fill="#306B34"/>
<path d="M39.2923 70.9828C39.3926 71.3406 39.4065 71.7304 39.4195 72.1125C39.4268 72.3333 39.4317 72.5697 39.3437 72.7563C39.2557 72.9429 39.0837 73.0412 38.919 73.0876C38.5792 73.1825 38.1855 73.0931 37.9662 72.7276C37.7983 72.4482 37.7633 72.065 37.7943 71.7028C37.8203 71.4058 37.8758 71.0579 37.7185 70.847C37.6777 70.7907 37.6247 70.7509 37.5872 70.6902C37.5057 70.5555 37.5188 70.3523 37.5628 70.1867C37.6201 70.0283 37.6631 69.861 37.6907 69.6886C37.6973 69.6069 38.7943 69.7461 38.8954 69.8134C39.0332 69.9051 39.012 70.0586 39.0535 70.2441C39.1114 70.5025 39.2222 70.7355 39.2923 70.9828Z" fill="#306B34"/>
<path d="M39.4936 55.1191C39.7088 55.3079 39.7919 55.679 39.8253 56.0235C39.9174 56.9676 39.756 57.9217 39.7438 58.8747C39.7324 60.2097 40.0177 61.5691 39.774 62.8622C39.6281 63.6351 39.752 64.5185 39.615 65.2993C39.5743 65.5312 39.4993 65.7498 39.4602 65.9817C39.3787 66.4841 39.4643 67.0098 39.5792 67.5012C39.6159 67.6336 39.6392 67.7721 39.6485 67.913C39.6429 68.1299 39.6023 68.3426 39.5295 68.5358L39.0404 70.1028C38.9858 70.2784 38.7706 70.3071 38.6329 70.3303C38.3737 70.3722 38.0843 70.402 37.8781 70.1845C37.6719 69.967 37.6222 69.6026 37.5904 69.2624C37.5294 68.6095 37.5022 67.9516 37.5089 67.2936C37.5179 67.1218 37.5066 66.9492 37.4755 66.7823C37.4307 66.5935 37.332 66.43 37.3051 66.2301C37.2709 65.9718 37.3679 65.7178 37.4038 65.4572C37.4284 65.2191 37.4256 64.9774 37.3956 64.7405C37.3638 64.3871 37.3271 64.0338 37.2856 63.6826C37.2269 63.1912 37.3108 62.7065 37.3671 62.214C37.4201 61.7513 37.3524 61.2798 37.2856 60.8204C37.2914 61.1932 37.257 61.5652 37.1837 61.9246C37.1405 62.1002 37.0786 62.2681 37.0411 62.447C36.874 63.2498 37.2302 64.0923 37.1796 64.9238C37.156 65.3125 37.0435 65.6968 37.0753 66.08C37.0973 66.3605 37.1935 66.6177 37.2595 66.885C37.3255 67.1522 37.3598 67.4581 37.2595 67.7076C36.9946 68.3857 37.1927 69.3077 37.4298 70.0034C37.478 70.1268 37.5199 70.2544 37.5554 70.3855C37.6255 70.6991 37.5668 71.0359 37.5855 71.3627C37.5173 71.3779 37.4474 71.3717 37.3811 71.3447C37.3149 71.3178 37.254 71.2707 37.2033 71.207C37.1674 71.1562 37.1381 71.0966 37.103 71.0436C37.0051 70.9172 36.8892 70.8191 36.7623 70.7554C36.6878 70.6989 36.603 70.6725 36.5178 70.6792C36.4282 70.7131 36.3476 70.7809 36.2855 70.8747C36.2049 70.9707 36.1194 71.0589 36.0296 71.1386C35.9913 71.1784 35.9466 71.2053 35.8992 71.217C35.8753 71.222 35.8509 71.2167 35.8294 71.2018C35.8079 71.1869 35.7904 71.1633 35.7793 71.1342C35.7742 71.1157 35.7712 71.0964 35.7704 71.0767C35.7401 70.7433 35.724 70.4078 35.7223 70.0719C35.7223 69.4943 35.2121 69.0968 35.1477 68.5259C35.0963 68.0654 35.1917 67.5961 35.1599 67.1323C35.1444 66.8938 35.0955 66.6597 35.0988 66.4212C35.0988 66.2666 35.1248 66.1153 35.1338 65.9618C35.1413 65.7914 35.1394 65.6205 35.1281 65.4505L35.1028 64.9172C35.0784 64.3905 35.0515 63.8527 34.8983 63.3712C34.7165 62.809 34.609 62.2081 34.5804 61.5956C34.5641 61.2091 34.5747 60.8226 34.5421 60.435C34.5127 60.0849 34.4475 59.7371 34.4663 59.3859C34.4817 59.1143 34.5478 58.8515 34.5633 58.5798C34.595 58.0575 34.4483 57.5496 34.3334 57.0493C34.2185 56.5491 34.1337 55.9948 34.2845 55.5122C34.3061 55.433 34.3419 55.3624 34.3888 55.3068C34.4466 55.255 34.5124 55.2218 34.5812 55.2096C35.9796 54.8116 37.413 54.6878 38.8375 54.8419C39.0697 54.8598 39.295 54.955 39.4936 55.1191Z" fill="#243444"/>
<path d="M34.8665 43.3908C35.5877 43.3908 36.1723 42.5988 36.1723 41.6218C36.1723 40.6448 35.5877 39.8528 34.8665 39.8528C34.1454 39.8528 33.5608 40.6448 33.5608 41.6218C33.5608 42.5988 34.1454 43.3908 34.8665 43.3908Z" fill="#BE6F72"/>
<path d="M34.6138 43.8314C34.6326 43.9325 34.6326 44.0384 34.6138 44.1395C34.5933 44.2101 34.5644 44.2758 34.5282 44.3338C34.4018 44.5547 34.262 44.7608 34.1101 44.95C34.1875 45.1841 34.3268 45.3705 34.5005 45.4723C34.673 45.5718 34.854 45.6419 35.0393 45.681C35.1317 45.714 35.228 45.723 35.3229 45.7075C35.4104 45.6777 35.4932 45.6269 35.5674 45.5573L36.2928 44.9688C36.4023 44.8885 36.5037 44.7894 36.5944 44.6739C36.7275 44.4887 36.8028 44.2411 36.8047 43.9827C36.8081 43.9364 36.7988 43.89 36.7786 43.8524C36.7508 43.8196 36.7159 43.7998 36.6792 43.7961C36.4241 43.7199 36.2227 43.4394 36.1086 43.1214C36.0055 42.7954 35.9387 42.4504 35.9106 42.0977L35.1371 42.6498C35.0222 42.7327 34.9081 42.8155 34.7891 42.8873C34.7133 42.9336 34.56 42.9723 34.5062 43.0661C34.4035 43.2395 34.5869 43.6227 34.6138 43.8314Z" fill="#BE6F72"/>
<path d="M34.115 44.6287C34.0049 44.751 33.9189 44.9085 33.8648 45.0869C33.8143 45.3078 33.8648 45.5408 33.9105 45.7594C34.1244 46.6913 34.2878 47.6432 34.3995 48.6073C34.468 49.2699 34.4932 49.9424 34.5266 50.6126C34.5951 51.9797 34.6945 54.1595 34.8274 55.5177C35.3164 55.5476 35.7933 55.3543 36.2782 55.2836C37.1846 55.1533 38.1178 55.4515 39.0054 55.1732C38.7903 54.0215 38.5751 52.0548 38.3599 50.9042C38.2647 50.4508 38.1987 49.9871 38.1627 49.5183C38.1439 49.1815 38.1553 48.8436 38.1586 48.5046C38.1659 47.8421 38.139 47.1795 38.1121 46.5169C38.0811 45.744 38.0502 44.971 37.9149 44.2146C37.9054 44.1182 37.8721 44.029 37.8203 43.9617C37.7388 43.8811 37.6329 43.9098 37.5359 43.9275C37.2389 43.9786 36.9383 43.8821 36.6898 43.6558C36.5822 43.5564 36.438 43.435 36.3377 43.5454C36.2949 43.612 36.2667 43.6935 36.2562 43.7806C36.2119 43.9368 36.1434 44.0784 36.0554 44.1959C35.9674 44.3134 35.8619 44.4041 35.746 44.4619C35.5137 44.5759 35.2705 44.6436 35.0238 44.6629C34.9484 44.6849 34.8697 44.6728 34.7997 44.6287C34.6839 44.5326 34.6758 44.187 34.5299 44.1638C34.4019 44.1439 34.2014 44.5171 34.115 44.6287Z" fill="#243444"/>
<path d="M36.0435 47.3253C35.7428 46.9354 35.6107 46.3701 35.3915 45.8897C35.2422 45.5667 35.0514 45.2825 34.8283 45.0505C34.7161 44.9501 34.6132 44.8318 34.5218 44.6982C34.4444 44.569 34.3857 44.3968 34.2683 44.3471C34.2198 44.3328 34.1695 44.3347 34.1216 44.3525C34.0738 44.3704 34.0299 44.4038 33.9936 44.4498C33.9218 44.5425 33.8538 44.6406 33.7899 44.7435C33.4443 45.2283 32.8371 45.2956 32.5632 45.8566C32.4893 45.9755 32.4391 46.1181 32.4173 46.2707C32.3385 47.0871 32.4943 47.9134 32.8525 48.5786C32.9219 48.7328 33.0284 48.8498 33.1541 48.9099C33.1371 49.1158 33.1572 49.3242 33.2128 49.5172C33.3637 50.2161 33.5492 50.9004 33.7679 51.5656C33.7156 51.8258 33.679 52.0913 33.6586 52.3596C33.6016 53.0342 33.6546 53.7189 33.6008 54.3947C33.5568 54.9468 33.4378 55.4846 33.4337 56.0378C33.4337 56.1262 33.4394 56.2311 33.4956 56.2763C33.5256 56.2972 33.5591 56.3067 33.5926 56.3039L34.5952 56.3448C35.1771 56.368 35.7648 56.3912 36.3378 56.2454C36.4141 56.2301 36.4881 56.1984 36.557 56.1516C36.751 56.0047 36.8154 55.6734 36.8464 55.3786C36.8868 54.9961 36.9029 54.6097 36.8945 54.2235C37.0159 54.7436 37.1602 55.2814 37.527 55.5067C37.7209 55.6259 37.9426 55.6171 38.1554 55.6094C38.6139 55.5817 39.0708 55.5179 39.5239 55.4183C39.5518 55.423 39.5801 55.4188 39.6066 55.406C39.6331 55.3932 39.657 55.3721 39.6764 55.3445C39.6959 55.317 39.7102 55.2836 39.7184 55.2471C39.7266 55.2107 39.7284 55.1721 39.7236 55.1345L39.7284 54.5316C39.7382 53.307 39.5141 52.1365 39.4269 50.9174C39.3992 50.5331 39.4016 50.1444 39.3323 49.7679C39.3038 49.61 39.2622 49.4554 39.237 49.2963C39.2152 49.1407 39.2016 48.9831 39.1962 48.8248L39.1326 47.6102C39.1025 47.0481 39.0593 46.5059 39.0275 45.9449C39.01 45.3987 38.9516 44.8563 38.8531 44.3261C38.7822 43.9948 38.6346 43.6194 38.3795 43.5785C38.2434 43.5575 38.1114 43.6381 37.9818 43.6945C37.6632 43.8303 37.3214 43.8284 37.0037 43.6889C36.9055 43.6364 36.8032 43.5994 36.6988 43.5785C36.6463 43.5688 36.5928 43.5782 36.5438 43.6058C36.4948 43.6333 36.4521 43.678 36.4201 43.7353C36.3885 43.8216 36.3736 43.9174 36.3769 44.0136C36.3386 45.1167 36.2677 46.253 36.0435 47.3253Z" fill="#306B34"/>
<path d="M34.732 47.3583C34.3563 46.8217 33.9707 46.2751 33.4866 45.9338C33.2959 45.7991 33.0791 45.6975 32.868 45.7483C32.6568 45.7991 32.4604 46.0476 32.4702 46.338C32.4767 46.518 32.5574 46.677 32.5827 46.8537C32.612 47.0525 32.5696 47.2645 32.6153 47.4566C32.6524 47.5832 32.7078 47.6985 32.7783 47.7956L33.3554 48.7221C33.5999 49.1086 33.8444 49.5006 34.159 49.7678C34.4736 50.0351 34.8812 50.1599 35.2267 49.9699C35.4726 49.8151 35.6771 49.5609 35.812 49.2422C35.9554 48.933 36.0565 48.5951 36.191 48.276C36.4003 47.7661 36.6765 47.3122 37.006 46.9365C36.8365 46.8769 36.6238 46.793 36.517 46.6052C36.4866 46.5456 36.4607 46.4819 36.4396 46.4153L36.3075 46.0288C36.2626 46.0256 36.2177 46.0351 36.1756 46.0566C36.1336 46.078 36.0952 46.1111 36.063 46.1536C36.0064 46.2423 35.9457 46.326 35.8812 46.4043C35.7663 46.5213 35.6106 46.5533 35.5063 46.687C35.4659 46.7443 35.4294 46.8064 35.3971 46.8725C35.3182 47.013 35.218 47.129 35.1033 47.2128C34.9886 47.2966 34.862 47.3462 34.732 47.3583V47.3583Z" fill="#243444"/>
<path d="M37.0362 45.0494C37.319 44.3504 37.306 43.5123 37.3867 42.7227C37.3954 42.5136 37.4496 42.3127 37.5424 42.1452C37.7054 41.8956 37.9931 41.8923 38.2393 41.9243C38.3118 41.9354 38.4023 41.9818 38.3982 42.08C38.3925 42.1153 38.3798 42.1477 38.3615 42.1739C38.1229 42.5911 37.9826 43.0959 37.9589 43.6227C38.0868 43.7431 38.2849 43.4957 38.408 43.6227C38.4895 43.7155 38.452 43.8988 38.4031 44.0313C38.2895 44.3383 38.1724 44.643 38.0518 44.9456C37.9555 45.2123 37.8299 45.4576 37.6793 45.6733C37.5758 45.808 37.4543 45.914 37.3492 46.0465C37.1047 46.3568 36.9572 46.7952 36.7045 47.0978C36.6831 47.1291 36.6542 47.1491 36.623 47.1541C36.5908 47.151 36.5605 47.1326 36.5374 47.1022C36.4112 46.9631 36.3065 46.7916 36.2293 46.5976C36.1331 46.3568 36.1478 46.2862 36.2994 46.1161C36.583 45.8124 36.8594 45.4867 37.0362 45.0494Z" fill="#BE6F72"/>
<path d="M34.2593 46.8836C34.3082 46.9244 34.3685 46.9708 34.4223 46.9366C34.4443 46.9186 34.463 46.894 34.4769 46.8648C34.5701 46.6963 34.6479 46.5132 34.7084 46.3193C34.7189 46.2919 34.7247 46.2617 34.7255 46.231C34.7255 46.1603 34.6791 46.1084 34.6359 46.0675C34.4044 45.8676 34.1556 45.7074 33.895 45.5905C33.6798 45.48 33.4549 45.384 33.2266 45.4116C33.1409 45.4194 33.0572 45.4506 32.9806 45.5034C32.9039 45.5561 32.836 45.6293 32.7808 45.7186C32.6178 46.0024 32.8908 46.0885 33.062 46.1912C33.4581 46.4352 33.8868 46.5766 34.2593 46.8836Z" fill="#306B34"/>
<path opacity="0.1" d="M34.0025 48.7608C33.9998 48.786 34.0014 48.8117 34.0074 48.8359C34.0133 48.8601 34.0234 48.882 34.0367 48.8999C34.0604 48.7431 34.0294 48.5775 34.0539 48.4196C34.0897 48.1822 34.2601 48.0033 34.2747 47.7647C33.9626 47.6819 34.005 48.5046 34.0025 48.7608Z" fill="#243444"/>
<path opacity="0.2" d="M48.3738 40.1255V41.2132L45.0597 41.486L44.9595 40.3972L48.3738 40.1255Z" fill="#243444"/>
<path d="M33.6912 41.8846C33.8982 41.656 33.7784 41.1768 33.9186 40.8698C34.0001 40.7019 34.1379 40.6136 34.2732 40.5385C34.4365 40.435 34.6114 40.3693 34.7907 40.3441C34.8805 40.3325 34.9711 40.3483 35.0558 40.3906C35.1405 40.4328 35.217 40.5004 35.2798 40.5882C35.3327 40.6699 35.3686 40.7693 35.4183 40.8543C35.4799 40.9535 35.5601 41.0283 35.6506 41.0707C35.741 41.113 35.8382 41.1215 35.9318 41.095C36.0402 41.0619 36.1527 40.9504 36.1454 40.8002C36.1331 40.7089 36.0987 40.6257 36.0476 40.5639L35.8144 40.2138C35.5496 39.8163 35.2553 39.3945 34.8665 39.2951C34.5959 39.2255 34.3188 39.3238 34.058 39.442C33.9528 39.4895 33.8347 39.5601 33.8053 39.7048C33.7858 39.8042 33.8151 39.9124 33.798 40.0129C33.7646 40.2127 33.5755 40.2801 33.4874 40.4479C33.3994 40.6158 33.4263 40.8146 33.4011 41.0001C33.3758 41.1856 33.3024 41.3667 33.2935 41.5588C33.2878 41.6748 33.331 41.8901 33.4271 41.9321C33.5233 41.974 33.6317 41.7466 33.6912 41.8846Z" fill="#243444"/>
<path d="M36.0663 40.6412C35.9976 40.1554 35.8495 39.6965 35.6327 39.2984C35.44 38.9265 35.1719 38.638 34.8609 38.468C34.7054 38.3857 34.5381 38.3522 34.3717 38.37C34.2052 38.3877 34.0439 38.4564 33.8999 38.5707C33.686 38.7775 33.5196 39.0619 33.4198 39.3912C33.2087 40.0074 33.1305 40.7605 33.3758 41.3523C33.4736 41.1911 33.6415 41.264 33.7899 41.2055C33.9757 41.1337 34.133 40.9659 34.3099 40.8609C34.8437 40.5418 35.4958 40.8002 36.0663 40.6412Z" fill="#306B34"/>
<path opacity="0.1" d="M33.5005 40.6069C33.4817 40.4082 33.4695 40.1774 33.5738 40.0361C33.579 40.0274 33.5856 40.0205 33.5931 40.0159C33.6006 40.0113 33.6088 40.0091 33.617 40.0096C33.6243 40.0128 33.631 40.018 33.6368 40.0248C33.6425 40.0316 33.6472 40.04 33.6505 40.0493C33.7107 40.1781 33.762 40.3141 33.8037 40.4557C33.7429 40.4367 33.6794 40.4429 33.6213 40.4734C33.5631 40.5039 33.5131 40.5573 33.4777 40.6268" fill="#243444"/>
<path opacity="0.1" d="M35.4053 40.046L35.3759 39.6518C35.3712 39.6193 35.3732 39.5857 35.3816 39.5546C35.3939 39.5286 35.4129 39.5097 35.4348 39.5015C35.4568 39.4934 35.4803 39.4966 35.5006 39.5104C35.5407 39.5405 35.5738 39.5853 35.596 39.6396C35.6638 39.7807 35.7201 39.9314 35.7639 40.0891C35.6326 40.0548 35.4976 40.0571 35.3669 40.0957" fill="#243444"/>
<path opacity="0.1" d="M36.1348 56.0456V56.9466L35.5732 56.9974H32.6194V56.0456H36.1348Z" fill="#243444"/>
<path d="M36.1347 56.0456V56.9974H32.6194L23.2803 41.1481V40.3994H25.2381L36.1347 56.0456Z" fill="#CED0CE"/>
<path opacity="0.1" d="M36.1347 56.0456V56.9974H32.6194L23.2803 41.1481V40.3994H25.2381L36.1347 56.0456Z" fill="#243444"/>
<path opacity="0.1" d="M36.1347 56.0456V56.9974H32.6194L23.2803 41.1481V40.3994L32.6699 56.0456H36.1347Z" fill="#243444"/>
<path d="M24.5046 71.9314C24.5108 71.9762 24.51 72.0222 24.5025 72.0666C24.4949 72.111 24.4806 72.1528 24.4606 72.1894C24.4405 72.226 24.4152 72.2565 24.386 72.2792C24.3568 72.3019 24.3245 72.3162 24.2911 72.3212C24.0645 72.425 23.8241 72.5277 23.6635 72.7629C23.5029 72.9981 23.4711 73.4343 23.6635 73.6253C23.7618 73.7057 23.8747 73.7474 23.9895 73.7457C24.3587 73.7799 24.7435 73.7733 25.0785 73.5613C25.3181 73.4111 25.5439 73.1549 25.8071 73.1781C25.9432 73.1892 26.0883 73.2753 26.2098 73.1914C26.3312 73.1074 26.3654 72.8733 26.3663 72.6779C26.3693 72.2699 26.3239 71.8638 26.2318 71.4753C26.2195 71.4223 25.7012 71.3815 25.6392 71.3649L25.0108 71.2545C24.8918 71.2335 24.6351 71.112 24.5413 71.2467C24.4476 71.3815 24.5046 71.7713 24.5046 71.9314Z" fill="#306B34"/>
<path d="M28.2548 69.1752C28.2814 69.374 28.3246 69.5681 28.3835 69.7538C28.4708 70.0541 28.5824 70.3733 28.796 70.519C28.9899 70.6504 29.2279 70.6029 29.4252 70.4782C29.5075 70.432 29.5797 70.3578 29.6347 70.2628C29.6983 70.1126 29.7267 69.9397 29.7162 69.767C29.7162 69.3397 29.6974 68.898 29.5532 68.5181C29.4293 68.1868 29.2133 67.902 29.21 67.5353L28.4675 67.7297C28.4277 67.7349 28.3899 67.7552 28.3583 67.7882C28.3347 67.8218 28.3184 67.8634 28.311 67.9086C28.2317 68.3218 28.2126 68.752 28.2548 69.1752V69.1752Z" fill="#306B34"/>
<path d="M19.3876 58.6847C19.3567 59.0403 19.3697 59.4212 19.5066 59.7282C19.6436 60.0352 19.9321 60.2384 20.1815 60.1158C20.1943 60.1114 20.2063 60.1035 20.2168 60.0927C20.2273 60.0819 20.2361 60.0683 20.2426 60.0528C20.2493 60.0155 20.2455 59.9762 20.232 59.9424C20.1219 59.5443 20.131 59.1037 20.2573 58.7145C20.2736 58.6637 20.3087 58.6041 20.347 58.624C20.363 58.635 20.3759 58.6528 20.3836 58.6748C20.4231 58.7673 20.4429 58.8728 20.4407 58.9795C20.4292 59.0763 20.427 59.1746 20.4342 59.2722C20.4497 59.3671 20.5247 59.4566 20.5899 59.4157C20.6087 59.4 20.625 59.3793 20.6378 59.3548C20.6505 59.3303 20.6595 59.3026 20.664 59.2733C20.8458 58.561 20.7635 57.7826 20.6803 57.0372C20.681 57.0201 20.6789 57.003 20.6742 56.9871C20.6695 56.9712 20.6623 56.9569 20.653 56.9452C20.6437 56.9335 20.6327 56.9247 20.6207 56.9194C20.6086 56.9141 20.5959 56.9125 20.5833 56.9146C20.1986 56.8627 19.9883 56.738 19.7683 57.2227C19.5792 57.6313 19.3876 58.1933 19.3876 58.6847Z" fill="#306B34"/>
<path d="M23.8852 56.8726C23.7711 57.5153 23.6561 58.1657 23.6488 58.8261C23.6508 59.2374 23.6737 59.648 23.7173 60.0551L23.8029 61.0114C23.8322 61.3338 23.8607 61.6552 23.9023 61.9743C23.9288 62.1387 23.9433 62.3063 23.9455 62.4745C23.9375 62.6404 23.9181 62.8049 23.8876 62.9659C23.8364 63.3041 23.8077 63.6478 23.802 63.9929C23.7931 64.545 23.8436 65.0972 23.8754 65.6493C23.9389 66.7495 23.9293 67.8553 23.8469 68.9532C23.814 69.2496 23.8614 69.5521 23.9805 69.8046C24.0289 69.8842 24.0687 69.9727 24.0987 70.0674C24.1599 70.3203 24.0172 70.5732 23.9805 70.8327C23.9571 71.035 23.9939 71.2417 24.0828 71.4074C24.1717 71.573 24.3056 71.684 24.4549 71.7161C25.107 71.821 25.7769 71.7735 26.3646 72.1777C26.4266 71.9325 26.2912 71.6542 26.3532 71.4047C26.3923 71.2501 26.4999 71.1496 26.5733 71.0193C26.6718 70.8208 26.7209 70.5847 26.7135 70.3457C26.7163 70.0337 26.6754 69.7238 26.5928 69.4325C26.5235 69.1895 26.4241 68.9499 26.4298 68.6893C26.4298 68.5612 26.4632 68.4265 26.4249 68.3083C26.3986 68.2405 26.3629 68.1801 26.3198 68.1306C26.0762 67.769 25.9265 67.3095 25.8935 66.822C25.8617 66.3382 25.8732 65.851 25.9277 65.371C25.9677 64.9139 26.0215 64.4313 26.2358 64.0746C26.1364 62.9931 26.1949 61.8957 26.4078 60.8447C26.429 60.7475 26.4624 60.6349 26.5358 60.6117C26.5649 60.6076 26.5943 60.6131 26.6216 60.6277C26.6488 60.6423 26.6731 60.6656 26.6923 60.6956C26.8202 60.8579 26.8814 61.0931 26.9368 61.3184C26.9979 61.5624 27.0599 61.823 27.0134 62.0726C26.9938 62.183 26.9547 62.2802 26.9319 62.3862C26.8823 62.5992 26.891 62.8293 26.9563 63.0344C26.9882 63.1093 27.0082 63.1925 27.015 63.2784C27.0075 63.3523 26.9909 63.4239 26.9661 63.4905C26.9359 63.6211 26.9263 63.759 26.9379 63.895C26.9496 64.031 26.9823 64.1622 27.0338 64.28C27.1377 64.5145 27.2658 64.7276 27.4144 64.9128C27.3434 65.3366 27.3618 65.7789 27.4674 66.1893C27.475 66.2078 27.4799 66.2281 27.4817 66.2491C27.4835 66.2702 27.4822 66.2915 27.478 66.3118C27.4633 66.3538 27.4258 66.3693 27.3965 66.3991C27.315 66.4896 27.3655 66.6608 27.4201 66.7789C27.5698 67.1033 27.7351 67.4139 27.9149 67.7087C28.0779 67.9727 28.0632 68.4817 28.3061 68.5767C28.4082 68.6065 28.5138 68.6065 28.6158 68.5767C28.8554 68.527 29.1228 68.4331 29.2402 68.146C29.2883 68.0279 29.3078 67.8843 29.3828 67.796C29.4578 67.7076 29.5548 67.6922 29.5963 67.5862C29.6379 67.4801 29.5915 67.341 29.6053 67.2184C29.6192 67.0959 29.6982 66.9976 29.7235 66.8684C29.7838 66.5702 29.5271 66.3251 29.492 66.0203C29.4415 65.5786 29.8523 65.2473 29.8352 64.8056C29.7993 63.846 29.7765 62.882 29.7398 61.9224C29.6938 61.0628 29.6872 60.2002 29.7202 59.3396C29.7488 58.804 29.8017 58.243 29.6567 57.745C29.448 57.0427 28.8726 56.6485 28.3159 56.5734C27.7592 56.4983 27.2041 56.6772 26.6523 56.7942C25.7365 56.9855 24.8061 57.0118 23.8852 56.8726V56.8726Z" fill="#243444"/>
<path d="M25.5397 46.3182C26.2609 46.3182 26.8455 45.5262 26.8455 44.5492C26.8455 43.5722 26.2609 42.7802 25.5397 42.7802C24.8186 42.7802 24.234 43.5722 24.234 44.5492C24.234 45.5262 24.8186 46.3182 25.5397 46.3182Z" fill="#FBBEBE"/>
<path d="M25.0083 46.6484C24.9639 46.7883 24.8893 46.9067 24.7943 46.9881C24.6993 47.0695 24.5884 47.1101 24.476 47.1044C24.4288 47.3694 24.5421 47.6367 24.6717 47.8454C24.9408 48.2696 25.2885 48.589 25.6791 48.7705C26.0696 48.9519 26.4889 48.989 26.8935 48.8778C27.051 48.8396 27.2004 48.7552 27.3312 48.6305C27.5076 48.431 27.626 48.1532 27.6654 47.8465C27.7029 47.5419 27.7136 47.2324 27.6972 46.9244C27.7018 46.8636 27.6889 46.8027 27.6613 46.7544C27.6287 46.7202 27.5884 46.7022 27.5472 46.7036C27.2717 46.6704 26.984 46.6561 26.7419 46.4728C26.4999 46.2895 26.3279 45.8754 26.4444 45.5353C26.4257 45.5883 25.9497 45.6137 25.8869 45.6247C25.6905 45.6623 25.4941 45.7042 25.2984 45.7528C25.2044 45.7598 25.1115 45.7836 25.0221 45.8235C24.904 45.9063 24.948 45.8654 24.9757 46.0156C25.0172 46.2453 25.0784 46.4098 25.0083 46.6484Z" fill="#FBBEBE"/>
<path d="M26.0019 47.7239C25.826 47.7266 25.6506 47.7003 25.4794 47.6455C25.3066 47.5908 25.1543 47.4531 25.0507 47.2579C24.9904 47.1342 24.9513 46.9785 24.8551 46.909C24.6978 46.7985 24.5185 46.9852 24.3929 47.1563C24.2786 47.3251 24.1462 47.4696 24.0001 47.5848C23.8256 47.7095 23.6219 47.7537 23.4572 47.9006C23.3286 48.0323 23.2182 48.1938 23.1312 48.3776L21.9763 50.5088C21.5125 51.3657 21.109 52.2856 20.6958 53.19C20.338 53.9729 20.1505 54.874 19.8807 55.7187C19.8594 55.7704 19.8505 55.8299 19.8555 55.8888C19.8652 55.9462 19.9166 55.9926 19.9525 55.9594C19.831 56.1229 19.9378 56.4011 19.9093 56.6308C19.8768 56.7915 19.8092 56.9352 19.7153 57.0427C19.8947 57.011 20.0768 57.0226 20.2532 57.0769C20.4355 57.147 20.6076 57.259 20.7618 57.4082C20.8604 57.3872 20.8515 57.1498 20.9248 57.0615C20.9688 57.0096 21.034 57.0162 21.0919 57.0008C21.3095 56.9433 21.3959 56.5889 21.563 56.389C21.7024 56.2223 21.8996 56.1681 22.0472 56.0113C22.2868 55.7563 22.3382 55.3024 22.4637 54.9259C22.5704 54.6067 22.7384 54.3285 22.8321 54.0016C22.8932 53.7896 22.9226 53.5599 23.0098 53.3644C23.1491 53.0486 23.4116 52.8808 23.6618 52.7295C23.8199 52.6334 23.9878 52.534 24.1582 52.5495C24.1492 53.063 24.1011 53.5687 24.1835 54.0701C24.212 54.2467 24.2519 54.419 24.2862 54.5946C24.4418 55.3852 24.4785 56.209 24.4859 57.0239C24.8603 56.9079 25.2428 56.8457 25.6269 56.8384C25.9293 56.8263 26.2309 56.8793 26.5333 56.8716C26.8919 56.8627 27.2465 56.7689 27.6051 56.7357C27.9637 56.7026 28.3387 56.7357 28.6557 56.9566C28.63 56.2568 28.6444 55.5553 28.6989 54.8585L28.7853 53.7609C28.8048 53.442 28.841 53.1253 28.8937 52.8134C28.941 52.5616 29.0095 52.3187 29.0616 52.068C29.245 51.1846 29.2116 50.2416 29.1766 49.3218C29.1586 48.8491 29.0241 48.3842 28.866 47.9635C28.8088 47.8073 28.7434 47.6567 28.6704 47.513C28.4793 47.1563 28.2247 46.871 27.9302 46.6837C27.6358 46.4964 27.3111 46.4132 26.9865 46.4419C26.945 46.4436 26.9041 46.4556 26.8658 46.4772C26.797 46.5369 26.7433 46.6235 26.7118 46.7257C26.5432 47.1363 26.2985 47.4803 26.0019 47.7239Z" fill="#243444"/>
<path d="M24.3913 45.1355C24.428 45.0251 24.5266 44.9842 24.5869 44.8959C24.7027 44.728 24.6505 44.4597 24.6684 44.2333C24.6978 43.9021 24.9007 43.6249 25.133 43.5067C25.3699 43.4037 25.622 43.3821 25.8666 43.4438C25.9843 43.4554 26.0981 43.5067 26.1975 43.5929C26.2399 43.6348 26.279 43.689 26.319 43.7276C26.3918 43.7872 26.4789 43.8059 26.5617 43.7797C26.6446 43.7535 26.7166 43.6845 26.7624 43.5874C26.4738 43.1169 26.1543 42.62 25.7158 42.4754C25.5654 42.4338 25.4121 42.4142 25.2586 42.4169C25.0556 42.4113 24.8461 42.4069 24.6587 42.5118C24.4036 42.6543 24.2242 42.9822 24.1321 43.3356C24.0516 43.6938 24.0085 44.0655 24.0042 44.4398C23.9875 44.6896 23.9875 44.9409 24.0042 45.1907C24.0357 45.5318 24.1292 45.857 24.2764 46.1371C24.2963 46.1806 24.3244 46.216 24.3579 46.2398C24.7296 46.4606 24.3612 45.2272 24.3913 45.1355Z" fill="#243444"/>
<path d="M26.7199 43.3146C26.6751 42.7945 26.4013 42.365 26.1103 42.0193C25.8758 41.7196 25.5964 41.4918 25.2911 41.3512C24.9839 41.2287 24.6301 41.2552 24.3669 41.5036C24.1549 41.7035 24.0205 42.0215 23.9169 42.3418C23.781 42.7197 23.7136 43.1361 23.7205 43.5565C23.7409 43.9739 23.8909 44.3968 24.1582 44.6077C24.2544 44.4156 24.4215 44.3162 24.582 44.2378C25.2819 43.8781 25.9955 43.5699 26.7199 43.3146V43.3146Z" fill="#306B34"/>
<path opacity="0.1" d="M24.2479 43.0982C24.274 43.0982 24.2911 43.1346 24.3041 43.1644C24.3705 43.3045 24.4275 43.4523 24.4745 43.6061C24.3791 43.6337 24.2153 43.6647 24.168 43.5509C24.1427 43.4935 24.1729 43.0926 24.2479 43.0982Z" fill="#243444"/>
<path opacity="0.1" d="M26.1054 42.8486C26.0858 42.874 26.063 42.8221 26.063 42.7845V42.3561C26.0625 42.3442 26.0645 42.3323 26.0687 42.3219C26.0721 42.3166 26.0762 42.3124 26.0808 42.3093C26.0855 42.3063 26.0905 42.3046 26.0956 42.3042C26.1616 42.2943 26.2162 42.3705 26.2586 42.4433C26.3229 42.5614 26.3789 42.6875 26.4257 42.8199L26.0809 42.8055" fill="#243444"/>
<path d="M30.4081 49.9434C30.4831 49.847 30.5632 49.758 30.6477 49.6773C30.8735 49.473 31.1466 49.3924 31.4 49.2621C31.6535 49.1318 31.9111 48.9209 32.0097 48.5786C32.0591 48.3645 32.0752 48.1389 32.057 47.916C32.0593 47.8227 32.0471 47.7298 32.0211 47.6433C31.9901 47.5669 31.9459 47.5017 31.8923 47.4533C31.5484 47.1088 31.0871 47.0812 30.66 47.1166C29.7184 47.1957 28.7954 47.5078 27.9368 48.0375C27.8914 48.0578 27.8516 48.0963 27.8227 48.1479C27.806 48.1958 27.7985 48.2486 27.8007 48.3014C27.7855 48.6271 27.8168 48.9536 27.8928 49.2632C28.0053 49.6563 28.2368 49.9733 28.3338 50.3741C28.3778 50.5541 28.3925 50.7451 28.4308 50.9262C28.4622 51.1133 28.5438 51.2778 28.6598 51.3878C28.9818 51.6484 29.2858 51.2984 29.5091 51.0267L30.4081 49.9434Z" fill="#243444"/>
<path d="M26.1918 51.4728L25.7786 50.2515C25.718 50.0823 25.6657 49.9078 25.6221 49.7292C25.5748 49.5161 25.552 49.2952 25.508 49.081C25.3629 48.3677 24.9969 47.7736 24.8184 47.0746C24.8071 47.0115 24.7841 46.9533 24.7516 46.9056C24.7255 46.8807 24.6958 46.8638 24.6643 46.8561C24.6329 46.8485 24.6007 46.8503 24.5698 46.8615C24.3204 46.92 24.1256 47.1773 23.8974 47.323C23.7915 47.3893 23.6773 47.4335 23.5714 47.5097C23.5184 47.5436 23.4715 47.5927 23.4338 47.6535C23.3961 47.7143 23.3685 47.7854 23.3529 47.8619C23.3277 48.0309 23.3896 48.1932 23.4418 48.3577C23.6635 49.0357 23.714 49.7933 23.7238 50.5353C23.7311 51.0344 23.7124 51.57 23.4948 51.9708C23.0766 52.7438 23.344 53.879 23.5005 54.8143C23.5192 54.9247 23.5412 55.044 23.5543 55.161C23.5681 55.3075 23.5743 55.4551 23.573 55.6027C23.573 56.0985 23.5526 56.6098 23.3994 57.0592C23.5507 57.1683 23.7174 57.2323 23.8884 57.247C24.3617 57.3287 24.8369 57.3861 25.314 57.4192C25.4635 57.4383 25.6142 57.4279 25.7615 57.3883C25.9364 57.3243 26.0905 57.1831 26.1996 56.9871C26.3087 56.7912 26.3665 56.5516 26.3638 56.3061C26.3899 56.612 26.438 56.9444 26.6018 57.1564C26.7656 57.3684 27.0044 57.4005 27.227 57.417C27.855 57.4621 28.4846 57.4381 29.1098 57.3452C29.1497 57.3428 29.1889 57.3304 29.2255 57.3088C29.3461 57.2271 29.3527 57.0018 29.3429 56.8207C29.3249 56.4817 29.3062 56.1427 29.276 55.8059C29.2505 55.5912 29.2374 55.3741 29.2369 55.1566C29.2493 54.9329 29.2766 54.7111 29.3184 54.4941C29.4276 53.805 29.514 53.1016 29.4774 52.396C29.4629 52.2241 29.4577 52.051 29.4619 51.8781C29.4831 51.4883 29.6347 51.1173 29.6061 50.7297C29.5246 49.5901 29.4586 48.4207 29.2239 47.3208C29.1815 47.1243 29.1277 46.9134 29.0014 46.8007C28.8383 46.6528 28.6093 46.7301 28.4227 46.6362C28.3351 46.581 28.2518 46.514 28.1741 46.4363C28.0052 46.2932 27.8116 46.2125 27.6125 46.2022C27.4625 46.1945 27.2954 46.2398 27.205 46.4032C27.1631 46.4952 27.1353 46.5978 27.1234 46.7047C27.0053 47.3783 26.8667 48.0441 26.7281 48.71L26.5953 49.3482L26.2391 51.062C26.204 51.2442 26.2277 51.3006 26.1918 51.4728Z" fill="#306B34"/>
<path d="M28.2759 44.7865L36.1601 56.0113V56.9632H32.6447L26.72 46.4871" fill="#CED0CE"/>
<path opacity="0.1" d="M28.2759 44.7865L36.1601 56.0113V56.9632H32.6447L26.72 46.4871" fill="#243444"/>
<path opacity="0.1" d="M26.8455 46.3392L26.8708 46.3513L32.6952 56.0113H36.1601V56.9632H32.6447L26.72 46.4871L26.8455 46.3392Z" fill="#243444"/>
<path d="M27.7527 46.5755C27.4674 46.7444 27.1504 46.9609 27.0648 47.3672C27.0479 47.4386 27.0442 47.5144 27.0542 47.5881C27.075 47.6747 27.1148 47.7508 27.1682 47.8062C27.2216 47.8616 27.2861 47.8937 27.3533 47.8984C27.4875 47.9028 27.621 47.8697 27.7454 47.8012L29.4285 47.0481C29.4741 47.0282 29.5263 46.9984 29.5377 46.9377C29.5406 46.8995 29.5349 46.861 29.5214 46.8273C29.4692 46.655 29.4179 46.3027 29.3087 46.1824C29.219 46.0852 29.0413 46.1194 28.9329 46.1216C28.5156 46.126 28.1235 46.3546 27.7527 46.5755Z" fill="#306B34"/>
<path d="M29.2531 47.1375C29.5367 47.1364 29.8186 47.1957 30.0886 47.3131C30.3597 47.4324 30.5999 47.6547 30.7805 47.9536C30.8331 48.0371 30.8706 48.1362 30.8898 48.2429C30.9061 48.3533 31.1718 48.4196 31.1131 48.4947C31.2916 48.456 31.2492 48.5698 31.4302 48.5676C31.6111 48.5654 31.8067 48.5024 31.9151 48.307C31.9904 48.1464 32.024 47.9563 32.0105 47.767C32.0129 47.6359 31.9945 47.5056 31.9567 47.3849C31.8752 47.153 31.6877 47.0282 31.5149 46.9211L30.0592 46.0189C29.9748 45.9581 29.8841 45.9145 29.7902 45.8897C29.7112 45.8796 29.6316 45.8822 29.5531 45.8975L28.8937 46.0001C29.0379 46.1266 29.1553 46.3017 29.2343 46.5083C29.3134 46.7149 29.3513 46.9459 29.3444 47.1784" fill="#243444"/>
</g>
<defs>
<clipPath id="clip0">
<rect width="96" height="80" fill="white" transform="translate(0.373779 0.588745)"/>
</clipPath>
</defs>
</svg>
