<svg fill="none" width="96" height="80" xmlns="http://www.w3.org/2000/svg" viewBox="0 0 96 80">
  <path d="M39.365 76.65H0v.215h39.365v-.214zM24.412 11.846c3.046 0 5.516-2.43 5.516-5.425 0-2.997-2.47-5.426-5.516-5.426s-5.515 2.43-5.515 5.426 2.47 5.425 5.515 5.425z" fill="#243444"/>
  <path d="M22.85 9.955s.757 5-.649 6.17c-1.406 1.17 2.271 6.063 2.271 6.063l4.975-7.872s-3.785-.957-1.839-3.83l-4.758-.531z" fill="#A0616A"/>
  <path d="M21.017 24.87l-.756 2.92-.758 2.931-2.595-.212 1.19-4.893s-.217-4.575-.325-5.638a1.418 1.418 0 01.044-.583.656.656 0 01.224-.336.674.674 0 01.38-.145l2.596 5.957z" fill="#243444"/>
  <path d="M23.872 66.087l-3.245.638-.316-2.713-1.136-9.788-.278-2.391 3.785-1.064-.025.85-.083 2.873c.163.56.284 1.132.362 1.71.16 1.09.22 2.19.178 3.29-.108 2.978.758 6.595.758 6.595z" fill="#A0616A"/>
  <path d="M19.891 66.658l3.353-.957 1.838 4.468 2.596 5.957s3.352 4.36-.216 3.829c-3.57-.532-4.11-1.383-4.11-1.808v-.745l-.433.106-.324-.319-.433-3.191s-.973-.851-.54-2.021l-1.73-5.319z" fill="#243444"/>
  <path opacity=".2" d="M22.658 56.347l-.038.098s-.563 5.17-2.39 7.372l-.197.339-1.136-9.788.714-2.604h2.768l-.083 2.872c.163.561.284 1.133.362 1.71z" fill="#243444"/>
  <path d="M24.123 51.764l-1.839 4.68s-.563 5.171-2.39 7.373l-2.368 4.116s-2.812-.957-2.596-.957c.217 0 1.839-5.425 1.839-5.425l1.514-6.17.992-3.617h4.848z" fill="#A0616A"/>
  <path d="M19.16 66.658l-3.352-.957-1.839 4.468-2.595 5.957s-3.353 4.36.216 3.829c3.569-.532 4.11-1.383 4.11-1.808v-.745l.432.106.324-.319.433-3.191s.973-.851.54-2.021l1.731-5.319z" fill="#243444"/>
  <path d="M25.666 12.424c2.09 0 3.785-1.667 3.785-3.724 0-2.056-1.695-3.723-3.785-3.723S21.88 6.644 21.88 8.7c0 2.057 1.694 3.724 3.785 3.724z" fill="#A0616A"/>
  <path opacity=".2" d="M20.498 24.87l-.756 2.92-.65-.047a1.814 1.814 0 00-.216-.745c-.217-.425 0-.106.432-.532.433-.425.108-.212-.216-.744-.325-.532.216-1.702.216-1.702-.605-.426-1.406-5.106-1.406-5.106l2.596 5.957z" fill="#243444"/>
  <path d="M24.5 20.532l-2.272-4.893-4.326 2.978s1.406 4.574 2.163 5.106c0 0-.54 1.17-.216 1.702.324.532.649.32.216.745-.433.425-.649.106-.433.532.126.23.2.484.217.744l10.274.745.648-1.808s1.298-2.447.866-5.851l1.622-5.85-4.542-.745-4.218 6.595z" fill="#243444"/>
  <path d="M29.863 27.358s1.818 3.913-.02 10.296c-1.839 6.382-3.461 13.084-3.461 13.084l-8.327.957-.216-3.723-2.92-.425s.432-12.02 1.73-15c1.298-2.978 2.534-5.67 2.534-5.67l10.68.48z" fill="#243444"/>
  <path opacity=".2" d="M19.953 35.693l-2.05 13.085.213.032 2.05-13.085-.213-.032z" fill="#243444"/>
  <path d="M28.436 5.694a2.574 2.574 0 00-1.313-1.425c-.754-.354-1.633-.325-2.46-.207-.954.135-1.957.42-2.573 1.149-.395.467-.585 1.066-.766 1.648-.209.672-.42 1.354-.438 2.057.003.487.052.973.147 1.45.027.263.102.518.223.754.136.228.383.41.65.394a2.763 2.763 0 01.18-3.003c.156-.195.324-.38.505-.553l1.375-1.373c.421-.42.862-.854 1.425-1.061a2.141 2.141 0 011.956.27c.233.172.426.39.567.639.1.176.335.745.335.745s.27-1.257.187-1.484z" fill="#243444"/>
  <path d="M21.265 9.453c.209 0 .378-.333.378-.745 0-.41-.17-.744-.378-.744-.21 0-.379.333-.379.744 0 .412.17.745.379.745z" fill="#A0616A"/>
  <path d="M21.622 3.404c.955 0 1.73-.762 1.73-1.702S22.577 0 21.622 0c-.956 0-1.73.762-1.73 1.702s.774 1.702 1.73 1.702z" fill="#243444"/>
  <path d="M26.234 34.38h-6.442a.617.617 0 01-.432-.176.596.596 0 01-.18-.425l-.283-8.291a.594.594 0 01.179-.425.612.612 0 01.432-.176h7.01c.162 0 .318.063.432.176.115.113.18.265.18.425l-.285 8.291c0 .16-.064.313-.179.425a.617.617 0 01-.432.176z" fill="#306B34"/>
  <path d="M22.448 27.994c.314 0 .568-.25.568-.558a.563.563 0 00-.568-.558.563.563 0 00-.567.558c0 .308.254.558.567.558z" fill="#CED0CE"/>
  <path d="M30.446 27.873l-3.642.414s-6.2-.308-4.685 1.5c1.514 1.81 4.974.32 4.974.32l4.543-.213-1.19-2.021zM16.69 28.874s-1.204.524-.615 1.487c.59.963 3.375 1.937 3.737.505.362-1.432-1.724-1.884-2.241-1.952a4.698 4.698 0 00-.882-.04z" fill="#A0616A"/>
  <path d="M31.892 15.357l1.298-.425c.435.399.736.918.865 1.49.216.957 3.677 11.807 1.947 12.658-1.73.85-4.759 2.234-4.759 2.234l-1.406-3.617 2.271-1.17-.865-4.68s-.865-6.49.649-6.49z" fill="#243444"/>
  <path d="M81.332 39.819l.614.448-6.977 10.61-1.37.703 7.733-11.761z" fill="#243444" stroke="#306B34" stroke-width="1.124" stroke-miterlimit="10"/>
  <path d="M50.723 37.197L74.89 7.963l2.458 1.665-23.9 29.603-2.724-2.035z" fill="#243444"/>
  <path d="M67.135 20.905l2.61 1.586-4.71 5.52-2.377-1.562 4.477-5.544zM68.48 24.887l8.197 13.197-3.208.193-6.833-11.518 1.844-1.872z" fill="#306B34"/>
  <path d="M82.675 37.828H58.68v1.11h23.995v-1.11zM62.678 40.814h-3.004v38.399h3.004V40.814zM87.338 40.814h-2.8v38.399h2.8V40.814z" fill="#306B34"/>
  <path d="M96 38.823H52.712v2.282H96v-2.282z" fill="#306B34"/>
  <path d="M59.803 8.148c1.17 0 2.118-.933 2.118-2.083 0-1.15-.949-2.083-2.118-2.083-1.17 0-2.118.933-2.118 2.083 0 1.15.948 2.083 2.118 2.083z" fill="#CED0CE"/>
  <path d="M59.803 7.153c1.17 0 2.118-.933 2.118-2.083 0-1.151-.949-2.084-2.118-2.084-1.17 0-2.118.933-2.118 2.084 0 1.15.948 2.083 2.118 2.083z" stroke="#243444" stroke-width="2" stroke-miterlimit="10"/>
  <path d="M47.55 5.973h-4.783v4.706h4.784V5.973z" fill="#306B34"/>
  <path d="M48.545 4.977h-4.784v4.706h4.784V4.977z" stroke="#243444" stroke-width="2" stroke-miterlimit="10"/>
</svg>
