<svg width="97" height="81" viewBox="0 0 97 81" fill="none" xmlns="http://www.w3.org/2000/svg">
<g clip-path="url(#clip0)">
<path d="M22.7782 41.6093C25.9462 41.6093 28.5143 38.9009 28.5143 35.56C28.5143 32.219 25.9462 29.5107 22.7782 29.5107C19.6102 29.5107 17.0421 32.219 17.0421 35.56C17.0421 38.9009 19.6102 41.6093 22.7782 41.6093Z" fill="#047ECF"/>
<path d="M58.3144 42.4095C58.3144 54.3193 51.6007 58.4777 43.3191 58.4777C35.0375 58.4777 28.3239 54.3193 28.3239 42.4095C28.3239 30.4997 43.3191 15.3486 43.3191 15.3486C43.3191 15.3486 58.3144 30.4997 58.3144 42.4095Z" fill="#306B34"/>
<path d="M42.7729 56.6559L42.9264 46.6884L49.3177 34.3573L42.9504 45.1249L43.0195 40.6431L47.4244 31.7217L43.0378 39.4571L43.162 31.3965L47.8788 24.2939L43.1815 30.129L43.259 15.3486L42.7715 34.9151L42.8116 34.108L38.0159 26.3666L42.7347 35.6574L42.2878 44.6598L42.2745 44.4209L36.746 36.2742L42.2578 45.265L42.2019 46.3908L42.1919 46.4077L42.1964 46.5002L41.0628 69.3399H42.5775L42.7592 57.5428L48.2575 48.574L42.7729 56.6559Z" fill="#243444"/>
<path d="M72.7827 53.6584C72.7827 65.5682 66.0691 69.7266 57.7875 69.7266C49.5058 69.7266 42.7922 65.5682 42.7922 53.6584C42.7922 41.7486 57.7875 26.5974 57.7875 26.5974C57.7875 26.5974 72.7827 41.7486 72.7827 53.6584Z" fill="#243444"/>
<path d="M57.2412 67.9047L57.3948 57.9373L63.7861 45.6062L57.4189 56.3737L57.4879 51.892L61.8928 42.9706L57.5061 50.7059V50.706L57.6303 42.6453L62.3472 35.5428L57.6498 41.3778L57.7274 26.5974L57.2398 46.164L57.28 45.3568L52.4842 37.6155L57.203 46.9063L56.7562 55.9086L56.7428 55.6697L51.2144 47.5231L56.7262 56.5138L56.6703 57.6397L56.6602 57.6566L56.6648 57.7491L55.5311 80.5887H57.0458L57.2275 68.7915L62.7258 59.8228L57.2412 67.9047Z" fill="#CED0CE"/>
<path d="M44.5853 53.6584C44.5853 65.5682 37.8717 69.7266 29.59 69.7266C21.3084 69.7266 14.5948 65.5682 14.5948 53.6584C14.5948 41.7486 29.5901 26.5974 29.5901 26.5974C29.5901 26.5974 44.5853 41.7486 44.5853 53.6584Z" fill="#243444"/>
<path d="M29.0438 67.9047L29.1974 57.9373L35.5888 45.6062L29.2215 56.3737L29.2905 51.892L33.6954 42.9706L29.3088 50.7059V50.706L29.4329 42.6453L34.1498 35.5428L29.4524 41.3778L29.5301 26.5974L29.0426 46.164L29.0826 45.3568L24.2869 37.6155L29.0057 46.9063L28.5588 55.9086L28.5456 55.6697L23.017 47.5231L28.5288 56.5138L28.4729 57.6397L28.4629 57.6566L28.4675 57.7491L27.3337 80.5887H28.8484L29.0301 68.7915L34.5285 59.8228L29.0438 67.9047Z" fill="#CED0CE"/>
<path d="M43.7009 80.4881C36.5289 80.4881 29.5788 77.8656 24.0348 73.0673C18.4908 68.2691 14.6959 61.592 13.2967 54.1737C11.8975 46.7555 12.9806 39.0551 16.3614 32.3847C19.7422 25.7142 25.2116 20.4863 31.8377 17.5919C38.4637 14.6974 45.8364 14.3154 52.6995 16.511C59.5627 18.7066 65.4916 23.3439 69.4762 29.6327C73.4607 35.9216 75.2543 43.4729 74.5513 51.0001C73.8483 58.5272 70.6923 65.5645 65.621 70.9127C62.7491 73.958 59.333 76.3723 55.5704 78.0159C51.8078 79.6596 47.7735 80.4998 43.7009 80.4881ZM43.7009 15.353C26.7381 15.353 12.9379 29.9067 12.9379 47.7957C12.9379 65.6848 26.7381 80.2385 43.7009 80.2385C60.6637 80.2385 74.4639 65.6848 74.4639 47.7957C74.4639 29.9067 60.6637 15.353 43.7009 15.353V15.353Z" fill="#243444"/>
<path d="M69.0491 66.4475V80.3693H18.3572V66.4475L43.7031 52.5256L43.7559 52.5545L69.0491 66.4475Z" fill="#CED0CE"/>
<path opacity="0.1" d="M69.0492 66.4475V80.3692H43.756V52.5545L69.0492 66.4475Z" fill="#243444"/>
<path d="M41.5381 61.0458L39.6373 61.8027V58.8183L41.5381 57.9396V61.0458Z" fill="#243444"/>
<path d="M20.5221 69.3989L19.8885 69.6515V67.8396L20.5221 67.5442V69.3989Z" fill="#243444"/>
<path d="M22.7399 68.6192L22.0006 68.9114V66.9486L22.7399 66.6064V68.6192Z" fill="#243444"/>
<path d="M25.1688 67.6169L24.324 67.952V65.8349L25.1688 65.4427V67.6169Z" fill="#243444"/>
<path d="M28.1259 66.3917L27.0698 66.8121V64.6098L28.1259 64.1211V66.3917Z" fill="#243444"/>
<path d="M31.7165 64.9439L30.4493 65.449V63.0505L31.7165 62.4643V64.9439Z" fill="#243444"/>
<path d="M36.0465 63.2732L34.5681 63.8607V61.1571L36.0465 60.4736V63.2732Z" fill="#243444"/>
<path d="M20.5221 73.0742L19.8885 73.2422V71.4036L20.5221 71.1923V73.0742Z" fill="#243444"/>
<path d="M22.7399 72.5174L22.0006 72.7126V70.7354L22.7399 70.4897V72.5174Z" fill="#243444"/>
<path d="M25.1688 71.8491L24.324 72.073V69.9557L25.1688 69.6747V71.8491Z" fill="#243444"/>
<path d="M28.1259 71.0695L27.0698 71.3492V69.0647L28.1259 68.7143V71.0695Z" fill="#243444"/>
<path d="M31.7165 70.0671L30.4493 70.4044V67.951L31.7165 67.5306V70.0671Z" fill="#243444"/>
<path d="M36.0466 68.9534L34.4624 69.3736V66.6145L36.0466 66.0889V68.9534Z" fill="#243444"/>
<path d="M41.5381 67.5055L39.6373 68.0094V64.9439L41.5381 64.315V67.5055Z" fill="#243444"/>
<path d="M41.5381 73.8539L39.6373 74.1091V71.0695L41.5381 70.6904V73.8539Z" fill="#243444"/>
<path d="M20.5221 76.6382L19.8885 76.7241V74.9676L20.5221 74.8403V76.6382Z" fill="#243444"/>
<path d="M22.7399 76.4155L22.0006 76.5138V74.6335L22.7399 74.4872V76.4155Z" fill="#243444"/>
<path d="M25.1688 76.0813L24.324 76.1941V74.0766L25.1688 73.9068V76.0813Z" fill="#243444"/>
<path d="M28.1259 75.6359L27.0698 75.7782V73.5197L28.1259 73.3073V75.6359Z" fill="#243444"/>
<path d="M31.7165 75.1903L30.4493 75.3599V72.8515L31.7165 72.597V75.1903Z" fill="#243444"/>
<path d="M36.0466 74.6335L34.4624 74.8446V72.0719L36.0466 71.7548V74.6335Z" fill="#243444"/>
<path d="M66.9897 69.3989L67.6235 69.6515V67.8396L66.9897 67.5442V69.3989Z" fill="#243444"/>
<path d="M64.772 68.6192L65.5113 68.9114V66.9486L64.772 66.6064V68.6192Z" fill="#243444"/>
<path d="M62.343 67.6169L63.1879 67.952V65.8349L62.343 65.4427V67.6169Z" fill="#243444"/>
<path d="M59.3859 66.3917L60.442 66.8121V64.6098L59.3859 64.1211V66.3917Z" fill="#243444"/>
<path d="M55.7953 64.9439L57.0626 65.449V63.0505L55.7953 62.4643V64.9439Z" fill="#243444"/>
<path d="M51.4653 63.2732L52.9439 63.8607V61.1571L51.4653 60.4736V63.2732Z" fill="#243444"/>
<path d="M66.9897 73.0742L67.6235 73.2422V71.4036L66.9897 71.1923V73.0742Z" fill="#243444"/>
<path d="M64.772 72.5174L65.5113 72.7126V70.7354L64.772 70.4897V72.5174Z" fill="#243444"/>
<path d="M62.343 71.8491L63.1879 72.073V69.9557L62.343 69.6747V71.8491Z" fill="#243444"/>
<path d="M59.3859 71.0695L60.442 71.3492V69.0647L59.3859 68.7143V71.0695Z" fill="#243444"/>
<path d="M55.7953 70.0671L57.0626 70.4044V67.951L55.7953 67.5306V70.0671Z" fill="#243444"/>
<path d="M51.4653 68.9534L53.0495 69.3736V66.6145L51.4653 66.0889V68.9534Z" fill="#243444"/>
<path d="M45.9738 67.5055L47.8747 68.0094V64.9439L45.9738 64.315V67.5055Z" fill="#243444"/>
<path d="M45.9738 73.8539L47.8747 74.1091V71.0695L45.9738 70.6904V73.8539Z" fill="#243444"/>
<path d="M66.9897 76.6382L67.6235 76.7241V74.9676L66.9897 74.8403V76.6382Z" fill="#243444"/>
<path d="M64.772 76.4155L65.5113 76.5138V74.6335L64.772 74.4872V76.4155Z" fill="#243444"/>
<path d="M62.343 76.0813L63.1879 76.1941V74.0766L62.343 73.9068V76.0813Z" fill="#243444"/>
<path d="M59.3859 75.6359L60.442 75.7782V73.5197L59.3859 73.3073V75.6359Z" fill="#243444"/>
<path d="M55.7953 75.1903L57.0626 75.3599V72.8515L55.7953 72.597V75.1903Z" fill="#243444"/>
<path d="M51.4653 74.6335L53.0495 74.8446V72.0719L51.4653 71.7548V74.6335Z" fill="#243444"/>
<path d="M47.769 61.8254L45.8682 61.0694V57.9273L47.769 58.8063V61.8254Z" fill="#243444"/>
<path d="M65.6186 77.8903H65.4636V80.5048H65.6186V77.8903Z" fill="#243444"/>
<path d="M67.4441 78.6019H67.3344V80.4546H67.4441V78.6019Z" fill="#243444"/>
<path d="M69.0664 78.8282H68.9699V80.4565H69.0664V78.8282Z" fill="#243444"/>
<path d="M61.0757 77.0614V80.4249L59.0164 80.4217L56.957 80.4182V76.6382L59.0164 76.8499L61.0757 77.0614Z" fill="#243444"/>
<path d="M26.4362 80.4249L30.5549 80.418V76.6382L26.4362 77.061V80.4249Z" fill="#243444"/>
<path d="M93.2138 80.3136H0.931763V80.5363H93.2138V80.3136Z" fill="#243444"/>
<path opacity="0.1" d="M61.0757 77.0614V80.4249L59.0164 80.4217V76.8499L61.0757 77.0614Z" fill="#243444"/>
<path d="M43.4919 77.3622H43.2807V80.4806H43.4919V77.3622Z" fill="#243444"/>
<path d="M44.6052 76.2519C44.6052 77.3447 44.0517 78.2566 43.3863 78.2879C42.7394 78.3184 42.2281 77.5007 42.2281 76.4623C42.2281 75.4238 43.492 72.573 43.492 72.573C43.492 72.573 44.6052 75.1592 44.6052 76.2519Z" fill="#306B34"/>
<path d="M18.6436 78.3616H18.5176V80.2217H18.6436V78.3616Z" fill="#243444"/>
<path d="M19.3076 77.6994C19.3076 78.3512 18.9775 78.8951 18.5806 78.9138C18.1947 78.932 17.8897 78.4442 17.8897 77.8248C17.8897 77.2054 18.6436 75.505 18.6436 75.505C18.6436 75.505 19.3076 77.0476 19.3076 77.6994Z" fill="#306B34"/>
<path d="M66.3933 77.9934C66.3933 78.6133 66.0228 79.0975 65.5411 79.0737C65.0295 79.0484 64.5909 78.4664 64.5909 77.7753C64.5909 77.0842 65.5411 75.3574 65.5411 75.3574C65.5411 75.3574 66.3933 77.3735 66.3933 77.9934Z" fill="#306B34"/>
<path d="M67.9931 78.675C67.9931 79.1143 67.7306 79.4574 67.3892 79.4405C67.0267 79.4226 66.7159 79.0102 66.7159 78.5205C66.7159 78.0307 67.3892 76.8072 67.3892 76.8072C67.3892 76.8072 67.9931 78.2358 67.9931 78.675Z" fill="#306B34"/>
<path d="M69.5489 78.8924C69.5489 79.2785 69.3182 79.58 69.0182 79.5652C68.6996 79.5494 68.4265 79.187 68.4265 78.7566C68.4265 78.3262 69.0182 77.2508 69.0182 77.2508C69.0182 77.2508 69.5489 78.5064 69.5489 78.8924Z" fill="#306B34"/>
<path d="M70.2989 18.5308C70.2989 18.5308 69.271 21.783 69.8421 22.5057C70.4131 23.2284 66.4156 20.3376 66.4156 20.3376L68.5857 17.6876L70.2989 18.5308Z" fill="#A0616A"/>
<path d="M67.9547 18.5255C70.7869 18.5255 73.0828 16.1042 73.0828 13.1174C73.0828 10.1307 70.7869 7.70938 67.9547 7.70938C65.1226 7.70938 62.8267 10.1307 62.8267 13.1174C62.8267 16.1042 65.1226 18.5255 67.9547 18.5255Z" fill="#243444"/>
<path d="M87.8881 55.1482L85.2612 57.3164L83.7764 54.7868L86.4033 52.8596L87.8881 55.1482Z" fill="#A0616A"/>
<path d="M84.1761 71.4694L84.8614 74.9625L86.8031 77.7329C86.8031 77.7329 92.057 79.4192 88.5163 80.2624C84.9756 81.1056 84.1761 79.6601 84.1761 79.6601L81.6634 77.3716V80.5033H80.0643L79.7217 76.0466C79.7217 76.0466 79.4933 74.7216 80.5212 73.2762L80.7496 71.1081L84.1761 71.4694Z" fill="#243444"/>
<path d="M70.9271 28.2272L71.8408 33.768C71.8408 33.768 81.5491 32.6839 82.2344 34.7316C82.9197 36.7793 83.1481 37.3815 83.1481 37.3815L81.2065 38.1042L80.2927 36.2975C80.0144 36.1935 79.7189 36.1506 79.4243 36.1713C79.1298 36.192 78.8423 36.2759 78.5795 36.4179C77.6658 36.8997 69.6707 38.1042 69.0996 36.5384C68.5285 34.9725 66.9295 29.1908 66.9295 29.1908L69.328 27.1431L70.9271 28.2272Z" fill="#A0616A"/>
<path opacity="0.1" d="M70.9271 28.2272L71.8408 33.768C71.8408 33.768 81.5491 32.6839 82.2344 34.7316C82.9197 36.7793 83.1481 37.3815 83.1481 37.3815L81.2065 38.1042L80.2927 36.2975C80.0144 36.1935 79.7189 36.1506 79.4243 36.1713C79.1298 36.192 78.8423 36.2759 78.5795 36.4179C77.6658 36.8997 69.6707 38.1042 69.0996 36.5384C68.5285 34.9725 66.9295 29.1908 66.9295 29.1908L69.328 27.1431L70.9271 28.2272Z" fill="#243444"/>
<path d="M76.2952 44.2473L77.0947 47.1381L79.1506 58.2197C79.1506 58.2197 79.3791 66.4105 79.7217 67.3741C80.0643 68.3377 80.0643 68.4581 79.7217 68.8195C79.3791 69.1809 78.6938 70.3854 79.7217 71.1081C80.7496 71.8308 84.4045 72.674 84.5188 71.8308C84.633 70.9876 84.633 69.6627 84.5188 69.0604C84.4045 68.4581 84.8614 59.0629 84.8614 59.0629L83.4908 44.7291L78.808 42.4405L76.2952 44.2473Z" fill="#243444"/>
<path opacity="0.1" d="M76.2952 44.2473L77.0947 47.1381L79.1506 58.2197C79.1506 58.2197 79.3791 66.4105 79.7217 67.3741C80.0643 68.3377 80.0643 68.4581 79.7217 68.8195C79.3791 69.1809 78.6938 70.3854 79.7217 71.1081C80.7496 71.8308 84.4045 72.674 84.5188 71.8308C84.633 70.9876 84.633 69.6627 84.5188 69.0604C84.4045 68.4581 84.8614 59.0629 84.8614 59.0629L83.4908 44.7291L78.808 42.4405L76.2952 44.2473Z" fill="#243444"/>
<path d="M81.2065 32.9248L83.7193 37.9838C83.7193 37.9838 98.1104 44.7291 96.854 47.4995C95.5977 50.2699 88.6305 55.4493 88.6305 55.4493C88.6305 55.4493 88.2879 57.497 87.2599 56.8948C86.232 56.2925 83.7193 53.1607 83.9477 52.7994C84.1761 52.438 84.9756 51.5949 85.3183 51.7153C85.6609 51.8358 89.6585 48.5836 89.6585 48.5836L82.8055 46.7768C82.8055 46.7768 74.582 46.5359 74.1252 42.4405C73.6683 38.3451 74.1252 37.6224 74.1252 37.6224L73.5541 36.2975L78.2369 33.2862L81.2065 32.9248Z" fill="#243444"/>
<path d="M84.7472 52.9198L82.3487 55.2084C82.3487 55.2084 80.2928 54.2448 79.0364 54.6062C77.78 54.9675 75.6099 55.2084 75.6099 55.2084L75.9526 57.2561L78.8667 56.6891L76.5236 60.147C76.5236 60.147 76.5236 65.5673 78.0085 65.5673C79.4933 65.5673 79.0364 62.3151 79.0364 62.3151L83.605 58.5811C83.605 58.5811 85.8893 57.6175 86.1178 57.6175C86.3462 57.6175 84.7472 52.9198 84.7472 52.9198Z" fill="#243444"/>
<path d="M69.842 19.4944C71.9867 19.4944 73.7253 17.6608 73.7253 15.399C73.7253 13.1372 71.9867 11.3036 69.842 11.3036C67.6973 11.3036 65.9587 13.1372 65.9587 15.399C65.9587 17.6608 67.6973 19.4944 69.842 19.4944Z" fill="#A0616A"/>
<path d="M66.0158 18.591C66.0158 18.591 67.8433 18.1092 68.4143 18.591C68.9854 19.0728 69.0996 20.1569 69.8991 20.2773C70.6987 20.3978 71.3839 20.3978 71.4982 20.5182C71.6124 20.6387 74.2393 24.0113 74.2393 24.0113C74.2393 24.0113 75.8384 24.975 76.181 26.2999C76.5237 27.6249 79.9501 32.0816 80.407 32.5634C80.8639 33.0452 77.4374 35.4543 76.2952 36.2974C75.1531 37.1406 71.8408 37.502 70.8129 35.5747C69.7849 33.6475 64.1883 21.1205 66.0158 18.591Z" fill="#306B34"/>
<path d="M70.356 26.4204L71.2697 31.9612C71.2697 31.9612 80.9781 30.8771 81.6633 32.9248C82.3486 34.9725 82.5771 35.5748 82.5771 35.5748L80.6354 36.2975L79.7217 34.4907C79.4434 34.3868 79.1479 34.3438 78.8533 34.3646C78.5587 34.3853 78.2712 34.4692 78.0084 34.6111C77.0947 35.093 69.0996 36.2975 68.5286 34.7316C67.9575 33.1657 66.3585 27.384 66.3585 27.384L68.757 25.3364L70.356 26.4204Z" fill="#A0616A"/>
<path d="M68.1734 19.0978C68.1734 19.0978 70.9271 25.2159 70.6987 26.9022C70.4702 28.5885 69.6707 27.384 69.6707 27.384C69.6707 27.384 68.6428 25.6977 68.1859 26.6613C67.729 27.6249 67.158 28.9499 66.7011 28.8294C66.2442 28.709 63.7315 19.7955 65.1021 18.9524C66.4727 18.1092 68.1734 19.0978 68.1734 19.0978Z" fill="#306B34"/>
<path d="M62.3993 11.4049C65.2315 11.4049 67.5274 8.98361 67.5274 5.99682C67.5274 3.01002 65.2315 0.588745 62.3993 0.588745C59.5672 0.588745 57.2712 3.01002 57.2712 5.99682C57.2712 8.98361 59.5672 11.4049 62.3993 11.4049Z" fill="#243444"/>
<path d="M57.9761 10.475C58.6398 10.9809 59.4088 11.3119 60.2186 11.4401C61.0285 11.5684 61.8557 11.4902 62.6311 11.2122C63.4064 10.9341 64.1073 10.4643 64.6752 9.84204C65.2431 9.21975 65.6614 8.46308 65.8952 7.63535C65.8067 8.37713 65.5734 9.09152 65.2099 9.73341C64.8465 10.3753 64.3608 10.9308 63.7835 11.3647C63.2062 11.7986 62.5499 12.1016 61.856 12.2546C61.162 12.4075 60.4456 12.4071 59.7518 12.2533C59.0581 12.0994 58.4021 11.7956 57.8253 11.361C57.2485 10.9263 56.7634 10.3702 56.4007 9.7279C56.038 9.08555 55.8055 8.37087 55.7178 7.62898C55.6302 6.88709 55.6894 6.13409 55.8917 5.41754C55.7768 6.38023 55.9097 7.35777 56.2765 8.24763C56.6432 9.13749 57.2303 9.90686 57.9761 10.475V10.475Z" fill="#243444"/>
<path d="M66.8999 17.9847C68.9768 17.9847 70.6605 16.2091 70.6605 14.0188C70.6605 11.8285 68.9768 10.0529 66.8999 10.0529C64.823 10.0529 63.1393 11.8285 63.1393 14.0188C63.1393 16.2091 64.823 17.9847 66.8999 17.9847Z" fill="#243444"/>
<path d="M69.7495 15.2806C71.5904 15.2806 73.0828 14.0498 73.0828 12.5315C73.0828 11.0133 71.5904 9.78244 69.7495 9.78244C67.9086 9.78244 66.4163 11.0133 66.4163 12.5315C66.4163 14.0498 67.9086 15.2806 69.7495 15.2806Z" fill="#243444"/>
<path d="M69.8991 17.2058C70.3092 17.2058 70.6415 16.5856 70.6415 15.8206C70.6415 15.0556 70.3092 14.4354 69.8991 14.4354C69.4891 14.4354 69.1567 15.0556 69.1567 15.8206C69.1567 16.5856 69.4891 17.2058 69.8991 17.2058Z" fill="#A0616A"/>
<path d="M80.0899 36.2448C80.0899 36.2448 82.1119 35.0214 82.4872 35.3282C82.8626 35.635 83.0294 36.5949 83.0294 36.5949L80.6925 37.5622L80.0072 36.2372L80.0899 36.2448Z" fill="#243444"/>
</g>
<defs>
<clipPath id="clip0">
<rect width="96" height="80" fill="white" transform="translate(0.931763 0.588745)"/>
</clipPath>
</defs>
</svg>
