<svg width="81" height="57" viewBox="0 0 81 57" fill="none" xmlns="http://www.w3.org/2000/svg">
<path d="M49.4701 18.768H47.5694C47.5084 18.7682 47.4496 18.7456 47.4044 18.7046C47.3592 18.6637 47.331 18.6073 47.3253 18.5466L46.9448 14.6469H50.0947L49.7143 18.5465C49.7086 18.6072 49.6803 18.6636 49.6352 18.7046C49.59 18.7456 49.5311 18.7682 49.4701 18.768V18.768Z" fill="#E6E6E6"/>
<path d="M50.0897 15.1375H46.9498C46.8848 15.1374 46.8224 15.1116 46.7765 15.0656C46.7305 15.0196 46.7046 14.9572 46.7045 14.8922V14.3035C46.7046 14.2384 46.7305 14.1761 46.7765 14.1301C46.8224 14.0841 46.8848 14.0582 46.9498 14.0582H50.0897C50.1547 14.0582 50.2171 14.0841 50.2631 14.1301C50.3091 14.1761 50.3349 14.2384 50.335 14.3035V14.8922C50.3349 14.9572 50.3091 15.0196 50.2631 15.0656C50.2171 15.1116 50.1547 15.1374 50.0897 15.1375V15.1375Z" fill="#CCCCCC"/>
<path d="M27.2321 14.5788H19.7022V12.2929C22.0816 10.637 24.1898 10.781 26.9631 12.4274L27.2321 14.5788Z" fill="#306B34"/>
<path d="M17.9585 55.1806L16.31 55.1804L16.0636 48.822L17.9588 48.8221L17.9585 55.1806Z" fill="#FFB8B8"/>
<path d="M18.3789 56.7785L13.0635 56.7783V56.711C13.0635 56.4394 13.117 56.1703 13.221 55.9193C13.325 55.6683 13.4774 55.4402 13.6695 55.2481C13.8616 55.056 14.0897 54.9036 14.3407 54.7996C14.5917 54.6957 14.8607 54.6422 15.1324 54.6422H15.1325L18.379 54.6423L18.3789 56.7785Z" fill="#2F2E41"/>
<path d="M27.2436 55.1806L28.8921 55.1804L29.1385 48.822L27.2433 48.8221L27.2436 55.1806Z" fill="#FFB8B8"/>
<path d="M26.8231 54.6423L30.0696 54.6422H30.0697C30.3414 54.6422 30.6104 54.6957 30.8614 54.7996C31.1124 54.9036 31.3405 55.056 31.5326 55.2481C31.7247 55.4402 31.8771 55.6683 31.9811 55.9193C32.0851 56.1703 32.1386 56.4394 32.1386 56.711V56.7783L26.8232 56.7785L26.8231 54.6423Z" fill="#2F2E41"/>
<path d="M27.2869 54.3656C27.1494 54.3652 27.016 54.3181 26.9087 54.2321C26.8014 54.146 26.7264 54.0261 26.6961 53.892L22.6103 36.0705C22.6013 36.0252 22.5766 35.9845 22.5406 35.9557C22.5046 35.9268 22.4595 35.9116 22.4134 35.9127H22.4124C22.366 35.9118 22.3209 35.9274 22.285 35.9566C22.249 35.9859 22.2246 36.0269 22.216 36.0725L18.4639 53.7738C18.4347 53.9092 18.36 54.0306 18.2524 54.1178C18.1447 54.205 18.0105 54.2528 17.872 54.2533H16.0846C16.0021 54.2533 15.9205 54.2365 15.8448 54.2038C15.7691 54.1711 15.7009 54.1233 15.6443 54.0633C15.5877 54.0033 15.544 53.9323 15.5159 53.8548C15.4877 53.7773 15.4757 53.6949 15.4806 53.6126L16.8119 31.1768L17.3476 31.0183L17.3576 31.0184L27.8804 31.1105L30.1215 53.5216C30.1293 53.6015 30.1212 53.6822 30.0975 53.7589C30.0738 53.8357 30.0351 53.9069 29.9835 53.9685C29.932 54.0301 29.8687 54.0808 29.7974 54.1177C29.726 54.1546 29.6481 54.1769 29.568 54.1834L27.3354 54.3636C27.3192 54.365 27.303 54.3656 27.2869 54.3656Z" fill="#2F2E41"/>
<path d="M22.9414 10.482C24.7654 10.482 26.244 9.00339 26.244 7.17945C26.244 5.35552 24.7654 3.87692 22.9414 3.87692C21.1175 3.87692 19.6389 5.35552 19.6389 7.17945C19.6389 9.00339 21.1175 10.482 22.9414 10.482Z" fill="#FFB8B8"/>
<path d="M20.9183 33.6366C20.3389 33.6438 19.7618 33.5626 19.2069 33.3958C18.7134 33.247 18.2556 32.9987 17.8616 32.6663C17.4676 32.3339 17.1458 31.9244 16.916 31.4629C16.8431 31.3241 16.827 31.1624 16.8709 31.0119C17.2351 29.7688 18.9952 23.3071 17.8722 18.1703C17.7137 17.4568 17.7005 16.7186 17.8335 15.9998C17.9664 15.281 18.2428 14.5963 18.6461 13.9867C19.04 13.3818 19.5516 12.8624 20.1506 12.4595C20.7496 12.0567 21.4235 11.7786 22.1323 11.6418L22.1323 11.6417C22.3186 11.6053 22.5059 11.5755 22.6889 11.5529C23.4723 11.4565 24.2674 11.5344 25.0173 11.7811C25.7671 12.0278 26.4532 12.4372 27.0263 12.98C27.6165 13.5335 28.077 14.2105 28.3749 14.9628C28.6729 15.715 28.8008 16.5238 28.7496 17.3313L27.8864 31.1814C27.8805 31.2852 27.8476 31.3857 27.7911 31.473C27.7346 31.5603 27.6563 31.6314 27.564 31.6793C26.57 32.2002 23.584 33.6366 20.9183 33.6366Z" fill="#3F3D56"/>
<path d="M26.6723 4.74848C26.3292 3.88632 25.7008 3.1679 24.892 2.71314C24.0832 2.25838 23.1428 2.09479 22.228 2.24967L23.2692 3.09111C21.9755 3.13468 20.6137 3.04204 19.6899 3.94889C19.984 3.94073 20.3694 4.56974 20.6635 4.56159C20.1137 4.57246 19.6152 4.95877 19.3723 5.45216C19.1474 5.95905 19.0948 6.52568 19.2225 7.06531C19.3311 7.6044 20.1595 8.86733 20.3824 9.37001C20.3441 8.05629 22.9304 4.92275 24.1933 5.24977C23.5517 5.48785 22.9949 5.91058 22.5932 6.46468C23.4524 6.03107 24.4241 5.87207 25.3767 6.00925C25.5941 6.05912 25.8185 6.07168 26.0402 6.04639C26.1761 6.01951 26.3028 5.95824 26.4083 5.86844C26.5137 5.77863 26.5944 5.66329 26.6426 5.53342C26.6908 5.40356 26.7048 5.26352 26.6835 5.12666C26.6621 4.98981 26.606 4.86072 26.5205 4.75172L26.6723 4.74848Z" fill="#2F2E41"/>
<path d="M20.6908 32.805C20.6074 32.8048 20.5249 32.7874 20.4485 32.7538L14.1825 30.0188C14.0494 29.9618 13.9414 29.8586 13.8783 29.7282C13.8152 29.5978 13.8013 29.4491 13.8392 29.3093L17.9873 13.6392C18.0644 13.3476 18.199 13.0744 18.383 12.8354C18.567 12.5964 18.7968 12.3966 19.059 12.2475C19.3212 12.0985 19.6105 12.0033 19.91 11.9674C20.2095 11.9315 20.5131 11.9557 20.8031 12.0386L22.4617 12.512L21.2941 32.235C21.2881 32.3323 21.2587 32.4268 21.2085 32.5103C21.1582 32.5939 21.0886 32.6641 21.0055 32.715C20.911 32.7736 20.802 32.8047 20.6908 32.805V32.805Z" fill="#306B34"/>
<path d="M32.2878 29.3091L32.0121 28.2697L31.6128 26.7584L31.4205 26.0336L31.0212 24.5263L28.1397 13.6389C28.0628 13.3472 27.9284 13.0738 27.7445 12.8347C27.5605 12.5956 27.3307 12.3957 27.0684 12.2467C26.8061 12.0976 26.5167 12.0024 26.2172 11.9668C25.9177 11.9311 25.614 11.9555 25.324 12.0388L23.6661 12.5121L24.4877 26.3845L24.5724 27.8327L24.6262 28.7457V28.747L24.7122 30.1871L24.8333 32.235C24.8431 32.3888 24.9109 32.5331 25.0229 32.6388C25.135 32.7446 25.2829 32.804 25.437 32.8051C25.5203 32.8046 25.6026 32.7872 25.679 32.754L31.9449 30.0191C32.0781 29.962 32.1862 29.8587 32.2492 29.7282C32.3122 29.5978 32.3259 29.4489 32.2878 29.3091V29.3091Z" fill="#306B34"/>
<path d="M31.4205 26.0336L24.5725 27.8327L24.4876 26.3846L31.0213 24.5263L31.4205 26.0336Z" fill="#CCCCCC"/>
<path d="M32.0121 28.2697L24.7122 30.1871L24.6263 28.7471V28.7457L31.6129 26.7584L32.0121 28.2697Z" fill="#CCCCCC"/>
<path d="M21.5551 26.6965L21.4703 28.1178L14.754 26.117L15.1479 24.6298L21.5551 26.6965Z" fill="#CCCCCC"/>
<path d="M21.4152 29.0536L14.5616 26.8417L14.1677 28.3329L21.3318 30.4668L21.4152 29.0536Z" fill="#CCCCCC"/>
<path d="M14.6812 30.54C14.8855 30.4867 15.0757 30.3892 15.2382 30.2544C15.4008 30.1196 15.5319 29.9509 15.6222 29.76C15.7125 29.5691 15.7598 29.3607 15.7609 29.1495C15.7619 28.9384 15.7167 28.7295 15.6283 28.5377L18.8502 18.4227L16.5656 17.9442L13.6116 27.8613C13.2992 28.0311 13.06 28.3096 12.9393 28.644C12.8186 28.9784 12.8247 29.3455 12.9566 29.6757C13.0884 30.0059 13.3368 30.2762 13.6547 30.4355C13.9725 30.5948 14.3378 30.632 14.6812 30.54V30.54Z" fill="#FFB8B8"/>
<path d="M18.9397 13.4501C19.5957 13.517 19.9647 14.2546 19.8016 15.1731L19.0189 19.5806C18.9602 19.911 18.6883 20.1726 18.4623 20.1161L15.8147 19.4542C15.611 19.4033 15.5359 19.1139 15.6514 18.8242L17.2408 14.837C17.586 13.9711 18.3036 13.3852 18.9397 13.4501Z" fill="#3F3D56"/>
<path d="M22.9293 0.998108C24.047 0.998228 25.1208 1.43337 25.9233 2.2114C26.7258 2.98943 27.1939 4.04925 27.2286 5.16643H28.0388C28.1102 5.16644 28.1786 5.19477 28.229 5.2452C28.2794 5.29564 28.3078 5.36404 28.3078 5.43536V6.51106C28.3078 6.58238 28.2794 6.65078 28.229 6.70121C28.1786 6.75164 28.1102 6.77998 28.0388 6.77998H18.8954C18.8241 6.77998 18.7557 6.75164 18.7053 6.70121C18.6548 6.65078 18.6265 6.58238 18.6265 6.51106V5.30089C18.6265 4.73584 18.7378 4.17632 18.954 3.65428C19.1702 3.13224 19.4872 2.65791 19.8867 2.25836C20.2863 1.85881 20.7606 1.54186 21.2827 1.32563C21.8047 1.1094 22.3642 0.998105 22.9293 0.998108Z" fill="#306B34"/>
<path d="M23.4434 27.5954H21.5427C21.4817 27.5956 21.4229 27.573 21.3777 27.532C21.3325 27.491 21.3043 27.4347 21.2986 27.3739L20.9181 23.4743H24.068L23.6876 27.3739C23.6818 27.4346 23.6536 27.491 23.6085 27.532C23.5633 27.573 23.5044 27.5956 23.4434 27.5954V27.5954Z" fill="#E6E6E6"/>
<path d="M24.063 23.9649H20.9231C20.8581 23.9648 20.7957 23.9389 20.7498 23.893C20.7038 23.847 20.6779 23.7846 20.6778 23.7196V23.1309C20.6779 23.0658 20.7038 23.0035 20.7498 22.9575C20.7957 22.9115 20.8581 22.8856 20.9231 22.8856H24.063C24.128 22.8856 24.1904 22.9115 24.2364 22.9575C24.2824 23.0035 24.3082 23.0658 24.3083 23.1309V23.7196C24.3082 23.7846 24.2824 23.847 24.2364 23.893C24.1904 23.9389 24.128 23.9648 24.063 23.9649V23.9649Z" fill="#CCCCCC"/>
<path d="M22.5339 25.5041C22.6078 25.5126 22.6809 25.5269 22.7526 25.547L27.8145 21.206L27.5186 19.6132L29.864 18.8525L30.6619 21.6213C30.7263 21.8449 30.7165 22.0835 30.6338 22.3011C30.5512 22.5187 30.4001 22.7036 30.2034 22.8281L23.7926 26.8849C23.7971 27.1715 23.7143 27.4526 23.5552 27.691C23.396 27.9294 23.1681 28.1137 22.9016 28.2193C22.6352 28.325 22.3429 28.347 22.0636 28.2825C21.7843 28.218 21.5313 28.07 21.3382 27.8581C21.1451 27.6463 21.0211 27.3807 20.9826 27.0967C20.9442 26.8127 20.9931 26.5237 21.1229 26.2681C21.2527 26.0125 21.4572 25.8026 21.7092 25.6661C21.9613 25.5296 22.2489 25.4731 22.5339 25.5041V25.5041Z" fill="#FFB8B8"/>
<path d="M27.8277 13.8141C28.5285 13.618 29.2287 14.1514 29.4633 15.0601L30.5892 19.4207C30.6736 19.7476 30.5097 20.0949 30.2536 20.1318L27.2542 20.5632C27.0234 20.5964 26.8201 20.3597 26.8116 20.048L26.6952 15.7569C26.6699 14.825 27.1483 14.0043 27.8277 13.8141Z" fill="#3F3D56"/>
<path d="M68.1438 41.6689C66.7629 39.832 65.6711 37.7945 64.9066 35.6273C64.8623 35.4976 64.8655 35.3565 64.9155 35.2289C64.9655 35.1014 65.0592 34.9958 65.1798 34.9308L69.9055 32.3987C69.982 32.3574 70.0668 32.3341 70.1536 32.3306C70.2404 32.3271 70.3269 32.3434 70.4065 32.3784C70.4875 32.4136 70.5594 32.4668 70.6168 32.534C70.6741 32.6012 70.7154 32.6806 70.7374 32.7661C71.2874 34.8546 72.3213 36.7842 73.7555 38.3989C73.8145 38.4646 73.8578 38.5429 73.882 38.6279C73.9062 38.7129 73.9107 38.8022 73.8951 38.8892C73.8801 38.9748 73.8458 39.0558 73.7948 39.1261C73.7438 39.1965 73.6774 39.2542 73.6007 39.295L68.875 41.8271C68.7541 41.8916 68.6143 41.9111 68.4804 41.8821C68.3465 41.8531 68.2272 41.7776 68.1438 41.6689V41.6689Z" fill="#CCCCCC"/>
<path d="M68.4664 41.4266C68.4918 41.4583 68.5275 41.4802 68.5673 41.4884C68.6071 41.4966 68.6486 41.4907 68.6845 41.4716L73.4102 38.9394C73.4332 38.9275 73.453 38.9104 73.4683 38.8894C73.4835 38.8685 73.4937 38.8443 73.498 38.8188C73.5029 38.7919 73.5015 38.7642 73.4939 38.7379C73.4864 38.7115 73.4728 38.6873 73.4543 38.6672C71.9779 37.0049 70.9135 35.0184 70.3473 32.8685C70.3407 32.8419 70.3281 32.8172 70.3104 32.7963C70.2927 32.7755 70.2705 32.759 70.2453 32.7481C70.2217 32.7375 70.1959 32.7326 70.17 32.7337C70.144 32.7347 70.1187 32.7418 70.096 32.7543L65.3704 35.2864C65.3346 35.3058 65.3067 35.337 65.2914 35.3748C65.2762 35.4125 65.2747 35.4544 65.287 35.4931C66.0379 37.6216 67.1101 39.6226 68.4664 41.4266V41.4266Z" fill="white"/>
<path d="M70.2158 36.0123L67.642 37.1485C67.5441 37.1916 67.4331 37.194 67.3334 37.1554C67.2336 37.1168 67.1533 37.0401 67.11 36.9423L67.0464 36.7981C67.0033 36.7002 67.0008 36.5893 67.0394 36.4895C67.0781 36.3898 67.1547 36.3095 67.2525 36.2662L69.8263 35.13C69.9242 35.087 70.0352 35.0845 70.1349 35.1231C70.2346 35.1618 70.3149 35.2384 70.3582 35.3362L70.4219 35.4804C70.465 35.5783 70.4675 35.6893 70.4288 35.789C70.3902 35.8887 70.3136 35.969 70.2158 36.0123V36.0123Z" fill="#CCCCCC"/>
<path d="M71.157 37.7603L68.5832 38.8965C68.4853 38.9395 68.3743 38.942 68.2746 38.9034C68.1749 38.8648 68.0946 38.7881 68.0513 38.6903L67.9876 38.5461C67.9445 38.4482 67.942 38.3373 67.9807 38.2375C68.0193 38.1378 68.0959 38.0575 68.1937 38.0142L70.7675 36.8781C70.8654 36.835 70.9764 36.8325 71.0761 36.8711C71.1758 36.9098 71.2562 36.9864 71.2995 37.0842L71.3631 37.2284C71.4062 37.3263 71.4087 37.4373 71.37 37.537C71.3314 37.6367 71.2548 37.717 71.157 37.7603V37.7603Z" fill="#CCCCCC"/>
<path d="M65.1206 36.3038C64.943 36.1895 64.7926 36.0378 64.68 35.8591C64.5674 35.6804 64.4953 35.4793 64.4689 35.2698C64.4424 35.0603 64.4623 34.8475 64.527 34.6465C64.5916 34.4454 64.6996 34.261 64.8433 34.1063L63.7578 18.7026L66.8845 19.0058L66.9704 34.0907C67.2144 34.3492 67.3551 34.6883 67.3658 35.0437C67.3765 35.3991 67.2565 35.7461 67.0285 36.0188C66.8005 36.2916 66.4803 36.4713 66.1287 36.5238C65.777 36.5764 65.4183 36.4981 65.1206 36.3038L65.1206 36.3038Z" fill="#A0616A"/>
<path d="M64.4656 23.8784C64.3924 23.8258 64.3319 23.7573 64.2887 23.6782C64.2454 23.5991 64.2205 23.5112 64.2157 23.4212L63.9866 19.2695C63.9639 18.8582 64.0943 18.453 64.3527 18.1322C64.611 17.8113 64.979 17.5975 65.3857 17.5319C65.7924 17.4663 66.209 17.5536 66.5551 17.7769C66.9013 18.0003 67.1524 18.3439 67.2602 18.7415L68.2666 22.4533C68.3084 22.6082 68.2871 22.7733 68.2073 22.9125C68.1275 23.0516 67.9958 23.1535 67.841 23.1956L64.9782 23.9718C64.8912 23.9956 64.8 23.9995 64.7113 23.9834C64.6226 23.9672 64.5386 23.9313 64.4656 23.8784V23.8784Z" fill="#3F3D56"/>
<path d="M59.1366 55.2412H57.4881L56.7039 48.8828H59.1369L59.1366 55.2412Z" fill="#A0616A"/>
<path d="M56.3107 54.7701H59.4899V56.7719H54.3089C54.3089 56.509 54.3607 56.2487 54.4613 56.0058C54.5619 55.763 54.7094 55.5423 54.8952 55.3564C55.0811 55.1706 55.3018 55.0231 55.5446 54.9225C55.7875 54.8219 56.0478 54.7701 56.3107 54.7701V54.7701Z" fill="#2F2E41"/>
<path d="M65.3219 55.2412H63.6734L62.8892 48.8828H65.3222L65.3219 55.2412Z" fill="#A0616A"/>
<path d="M62.4959 54.7701H65.6751V56.7719H60.4942C60.4942 56.509 60.546 56.2487 60.6466 56.0058C60.7472 55.763 60.8946 55.5423 61.0805 55.3564C61.2664 55.1706 61.487 55.0231 61.7299 54.9225C61.9728 54.8219 62.2331 54.7701 62.4959 54.7701Z" fill="#2F2E41"/>
<path d="M59.0588 52.038L57.244 51.9514C57.0894 51.9441 56.9435 51.8778 56.8363 51.7662C56.7291 51.6546 56.6688 51.5061 56.6677 51.3513C56.1893 43.9668 55.5267 36.0486 56.5411 32.9896C56.5405 32.9025 56.5587 32.8162 56.5945 32.7368C56.6304 32.6573 56.6829 32.5865 56.7486 32.5292C56.8144 32.472 56.8917 32.4296 56.9753 32.4049C57.0589 32.3803 57.1468 32.374 57.2331 32.3865L64.4932 33.4404C64.6366 33.4605 64.768 33.5317 64.8632 33.6409C64.9584 33.75 65.011 33.8899 65.0113 34.0347C65.9382 37.6567 65.9801 44.2245 65.9451 51.0488C65.9457 51.1286 65.9305 51.2078 65.9003 51.2818C65.8702 51.3557 65.8257 51.4229 65.7695 51.4796C65.7132 51.5363 65.6463 51.5813 65.5726 51.612C65.4989 51.6427 65.4198 51.6585 65.34 51.6585H63.3836C63.2392 51.6591 63.0995 51.6078 62.9898 51.514C62.8801 51.4202 62.8077 51.2901 62.7859 51.1474L61.5788 43.474C61.5611 43.3617 61.5035 43.2596 61.4164 43.1866C61.3294 43.1135 61.2188 43.0744 61.1052 43.0765C60.9916 43.0786 60.8825 43.1218 60.7982 43.198C60.7139 43.2742 60.6601 43.3784 60.6466 43.4912L59.6884 51.5055C59.6703 51.6523 59.5993 51.7875 59.4887 51.8857C59.3781 51.9838 59.2354 52.0383 59.0875 52.0388C59.078 52.0388 59.0684 52.0385 59.0588 52.038Z" fill="#2F2E41"/>
<path d="M60.3363 34.0355C58.7363 33.1465 57.4861 32.9129 56.8833 32.8528C56.8032 32.8451 56.7255 32.8211 56.6549 32.7825C56.5844 32.7438 56.5224 32.6912 56.4727 32.6279C56.422 32.5641 56.3848 32.4907 56.3632 32.412C56.3417 32.3334 56.3364 32.2513 56.3475 32.1705L58.0871 19.2553C58.1873 18.4998 58.4791 17.7824 58.9349 17.1715C59.3906 16.5605 59.9951 16.0764 60.6908 15.7651C61.3642 15.4555 62.1057 15.3234 62.8446 15.3813C63.5835 15.4392 64.2953 15.6853 64.9123 16.096C64.9719 16.1357 65.0304 16.1761 65.0878 16.2175C65.7983 16.7381 66.3388 17.4573 66.6412 18.2846C66.9436 19.1119 66.9943 20.0102 66.7869 20.8662C65.7202 25.2302 65.3537 32.3846 65.2911 33.7745C65.2862 33.8929 65.2463 34.0073 65.1765 34.1031C65.1067 34.199 65.01 34.272 64.8988 34.313C64.2424 34.5515 63.5498 34.6748 62.8515 34.6775C61.9719 34.6828 61.1057 34.4617 60.3363 34.0355Z" fill="#3F3D56"/>
<path d="M61.7914 14.0115C63.6153 14.0115 65.0939 12.5329 65.0939 10.7089C65.0939 8.885 63.6153 7.4064 61.7914 7.4064C59.9675 7.4064 58.4889 8.885 58.4889 10.7089C58.4889 12.5329 59.9675 14.0115 61.7914 14.0115Z" fill="#A0616A"/>
<path d="M64.1284 13.3218C63.5123 13.978 62.3682 13.6257 62.2879 12.7292C62.2816 12.6595 62.282 12.5895 62.2892 12.52C62.3307 12.1228 62.5601 11.7623 62.5052 11.3429C62.4927 11.2386 62.4538 11.1391 62.3922 11.054C61.9012 10.3966 60.7488 11.348 60.2854 10.7529C60.0013 10.388 60.3353 9.81339 60.1172 9.40552C59.8295 8.86719 58.9772 9.13274 58.4427 8.83793C57.848 8.50991 57.8836 7.59748 58.275 7.0425C58.7524 6.36567 59.5895 6.00452 60.4161 5.95247C61.2427 5.90042 62.0637 6.12387 62.8354 6.42462C63.7122 6.76634 64.5817 7.23859 65.1213 8.0096C65.7775 8.94723 65.8407 10.2078 65.5125 11.3042C65.3129 11.9711 64.6315 12.7858 64.1284 13.3218Z" fill="#2F2E41"/>
<path d="M66.7438 16.5325C66.6859 16.2609 66.1898 15.8898 65.4798 15.5872C64.3387 15.125 63.1044 14.9389 61.8777 15.0441C60.651 15.1492 59.4665 15.5426 58.4206 16.1923C58.3476 16.1962 58.278 16.224 58.2223 16.2714C58.1667 16.3188 58.1282 16.3831 58.1127 16.4545L55.7246 27.0165L55.414 28.3921L55.2083 29.3024L54.8977 30.6739L54.7323 31.4067C54.7217 31.4536 54.7213 31.5021 54.731 31.5492C54.7407 31.5962 54.7603 31.6406 54.7886 31.6795C54.8168 31.7183 54.8531 31.7506 54.8949 31.7743C54.9366 31.798 54.983 31.8125 55.0308 31.8168L65.3427 32.707C65.3521 32.707 65.3628 32.7083 65.3722 32.7083C65.4573 32.7078 65.539 32.6751 65.6009 32.6167C65.6628 32.5583 65.7002 32.4786 65.7057 32.3937L65.8038 30.8998L65.9088 29.3024L65.9545 28.6099L66.058 27.0165L66.7451 16.55V16.5406L66.7438 16.5325Z" fill="#306B34"/>
<path d="M49.8238 17.1974C49.8403 17.2699 49.851 17.3437 49.8559 17.4179L55.6321 20.7501L57.0361 19.9419L58.5328 21.9013L55.5293 24.042L48.9396 18.8434C48.6708 18.9428 48.3781 18.9581 48.1005 18.8871C47.8228 18.8162 47.5733 18.6624 47.3852 18.4462C47.1971 18.2301 47.0792 17.9617 47.0473 17.6769C47.0154 17.3922 47.0709 17.1044 47.2065 16.8519C47.3421 16.5995 47.5514 16.3943 47.8065 16.2636C48.0616 16.133 48.3503 16.0831 48.6345 16.1206C48.9186 16.1581 49.1845 16.2812 49.397 16.4736C49.6094 16.6659 49.7583 16.9184 49.8238 17.1974H49.8238Z" fill="#A0616A"/>
<path d="M55.8384 20.4668C55.8288 20.3771 55.8394 20.2864 55.8695 20.2014C55.8996 20.1164 55.9484 20.0392 56.0123 19.9755L58.9521 17.0351C59.2433 16.7437 59.6322 16.5706 60.0435 16.549C60.4549 16.5274 60.8597 16.6588 61.1799 16.918C61.5001 17.1772 61.713 17.5458 61.7775 17.9526C61.8421 18.3595 61.7537 18.7758 61.5294 19.1214L59.4359 22.3474C59.3484 22.4819 59.2112 22.5762 59.0542 22.6096C58.8973 22.643 58.7336 22.6128 58.5989 22.5256L56.1108 20.9109C56.0351 20.862 55.9713 20.7967 55.9241 20.7198C55.877 20.6429 55.8477 20.5565 55.8384 20.4668Z" fill="#3F3D56"/>
<path d="M66.058 27.0165L65.9544 28.6099L55.4139 28.3921L55.7245 27.0165H66.058Z" fill="#CCCCCC"/>
<path d="M65.9088 29.3024L65.8038 30.8998L54.8976 30.6739L55.2083 29.3024H65.9088Z" fill="#CCCCCC"/>
<path d="M61.8561 4.29242C60.7383 4.29254 59.6645 4.72769 58.8621 5.50571C58.0596 6.28374 57.5914 7.34356 57.5567 8.46075H56.7465C56.6752 8.46075 56.6068 8.48908 56.5563 8.53952C56.5059 8.58995 56.4776 8.65835 56.4776 8.72967V9.80537C56.4776 9.87669 56.5059 9.94509 56.5563 9.99552C56.6068 10.046 56.6752 10.0743 56.7465 10.0743H65.8899C65.9612 10.0743 66.0297 10.046 66.0801 9.99552C66.1305 9.94509 66.1588 9.87669 66.1589 9.80537V8.5952C66.1589 8.03015 66.0476 7.47063 65.8313 6.94859C65.6151 6.42655 65.2982 5.95222 64.8986 5.55267C64.4991 5.15312 64.0247 4.83617 63.5027 4.61994C62.9806 4.40371 62.4211 4.29242 61.8561 4.29242V4.29242Z" fill="#306B34"/>
<path d="M80.8222 56.7719H1.04628C1.01656 56.7719 0.988066 56.7577 0.967053 56.7325C0.946041 56.7073 0.934235 56.6731 0.934235 56.6374C0.934235 56.6017 0.946041 56.5675 0.967053 56.5423C0.988066 56.5171 1.01656 56.5029 1.04628 56.5029H80.8222C80.8519 56.5029 80.8804 56.5171 80.9014 56.5423C80.9224 56.5675 80.9342 56.6017 80.9342 56.6374C80.9342 56.6731 80.9224 56.7073 80.9014 56.7325C80.8804 56.7577 80.8519 56.7719 80.8222 56.7719Z" fill="#CCCCCC"/>
</svg>
