<svg width="125" height="100" viewBox="0 0 125 100" fill="none" xmlns="http://www.w3.org/2000/svg">
<g clip-path="url(#clip0)">
<path d="M62.3229 100.582C96.1906 100.582 123.646 98.4368 123.646 95.7909C123.646 93.1449 96.1906 91 62.3229 91C28.4552 91 1 93.1449 1 95.7909C1 98.4368 28.4552 100.582 62.3229 100.582Z" fill="#3F3D56"/>
<path d="M115.449 86.5748L116.023 90.7897L112 91.1728L112.575 86L115.449 86.5748Z" fill="#A0616A"/>
<path d="M96.002 29C96.002 29 96.3852 34.1728 96.3852 34.3644C96.3852 34.556 93.703 47.7753 93.703 47.7753C93.703 47.7753 89.8713 55.0556 93.703 54.864C97.5347 54.6724 96.3852 47.9669 96.3852 47.9669L100.408 36.855L98.6842 29L96.002 29Z" fill="#A0616A"/>
<path d="M102.575 86.5748L102 90.7897L106.023 91.1728L105.449 86L102.575 86.5748Z" fill="#A0616A"/>
<path d="M98.2134 46.9579L97.2554 48.299C97.2554 48.299 96.6807 54.0466 97.2554 55.9624C97.8302 57.8783 98.9797 66.6912 98.9797 67.266C98.9797 67.8407 99.1713 68.2239 98.9797 68.4155C98.7881 68.607 98.2134 68.6071 98.5965 68.9902C98.9797 69.3734 98.9797 70.5229 98.9797 70.5229V71.4808L101.47 85.6581C101.47 85.6581 99.9376 87.3824 101.087 87.3824C102.237 87.3824 106.452 87.3824 106.26 85.4665L105.877 85.275C105.877 85.275 105.302 72.6303 105.494 72.0556C105.685 71.4808 105.494 70.3313 105.494 70.3313C105.494 70.3313 105.11 69.7566 105.494 69.565C105.877 69.3734 105.877 67.8407 105.877 67.8407L107.601 56.154C107.601 56.154 109.134 64.009 110.092 64.7753C111.05 65.5417 110.858 67.4575 110.858 67.4575L111.624 84.317C111.624 84.317 110.858 86.2329 111.624 86.6161C112.391 86.9992 115.648 88.3403 115.839 86.4245C116.031 84.5086 116.989 67.8407 116.989 67.0744C116.989 66.308 116.797 65.9249 116.989 65.3501C117.18 64.7753 116.797 64.7753 116.989 64.7753C117.18 64.7753 116.606 64.2006 116.606 63.8174V54.4297C116.606 54.4297 116.797 52.5139 116.989 52.1307C117.18 51.7476 116.797 51.3644 116.989 50.7896C117.18 50.2149 116.606 48.299 116.606 48.299L107.984 46L98.2134 46.9579Z" fill="#2F2E41"/>
<path d="M104.444 89.9579C104.444 89.9579 105.401 89 104.06 89C103.199 89.0176 102.351 89.2133 101.57 89.5748L100.612 93.0233C100.612 93.0233 96.6844 96.1844 101.091 95.8013C105.497 95.4181 104.827 95.7055 104.827 95.7055C104.827 95.7055 106.168 95.3223 106.359 94.9391C106.551 94.556 105.976 89 105.976 89C105.976 89 105.401 90.5327 104.444 89.9579Z" fill="#2F2E41"/>
<path d="M112.512 89.9579C112.512 89.9579 111.554 89 112.895 89C113.756 89.0176 114.604 89.2133 115.386 89.5748L116.344 93.0233C116.344 93.0233 120.271 96.1844 115.865 95.8013C111.458 95.4181 111.554 95.7055 111.554 95.7055C111.554 95.7055 110.213 95.3223 110.022 94.9391C109.83 94.556 110.979 89 110.979 89C110.979 89 111.554 90.5327 112.512 89.9579Z" fill="#2F2E41"/>
<path d="M100.981 13.9624C103.732 13.9624 105.962 11.7323 105.962 8.98121C105.962 6.23016 103.732 4 100.981 4C98.2302 4 96 6.23016 96 8.98121C96 11.7323 98.2302 13.9624 100.981 13.9624Z" fill="#A0616A"/>
<path d="M98 11.9158C98 11.9158 98.7663 15.7475 98.7663 16.3223C98.7663 16.8971 102.023 18.6213 102.023 18.6213L105.663 14.0233C105.663 14.0233 103.364 10.7663 103.364 10L98 11.9158Z" fill="#A0616A"/>
<path d="M101.472 16.011C101.472 16.011 99.802 15.5666 99.2958 14.8309C99.2958 14.8309 94 20.0343 94 20.9922L98.2149 28.464C98.2149 28.464 98.2149 31.1462 98.598 31.3378C98.9812 31.5294 98.598 31.3378 98.598 32.1042C98.598 32.8705 97.4485 37.8517 97.8317 38.6181C98.2149 39.3844 98.598 38.8096 98.2149 39.9592C97.8317 41.1087 96.8738 47.2394 96.8738 47.2394C96.8738 47.2394 100.322 46.0899 105.304 48.0057C110.285 49.9216 116.224 47.2394 116.224 47.2394C116.224 47.2394 114.691 43.7909 115.074 42.6414C115.458 41.4918 114.116 39.3844 114.116 39.3844L113.159 21.7586C113.159 21.7586 114.5 13.9036 113.542 13.5204L111.626 12.7541L105.491 12C105.491 12 103.962 15.8194 101.472 16.011Z" fill="#D0CDE1"/>
<path d="M95.3416 21L93.4257 22.3411C93.4257 22.3411 92.4678 25.2149 93.4257 26.556C94.3837 27.8971 94.7668 29.8129 94.7668 29.8129L98.5986 29.4298L95.3416 21Z" fill="#D0CDE1"/>
<path d="M95.6747 3.06966L94.8106 2.72374C94.8106 2.72374 96.6173 0.734729 99.1309 0.90769L98.4239 0.129369C98.4239 0.129369 100.152 -0.562457 101.723 1.2536C102.549 2.20826 103.504 3.33041 104.1 4.5945H105.025L104.639 5.44488L105.991 6.29525L104.603 6.1425C104.735 6.87665 104.69 7.63153 104.472 8.34488L104.509 9.01702C104.509 9.01702 102.901 6.52881 102.901 6.1829V7.04769C102.901 7.04769 102.037 6.26938 102.037 5.75051L101.566 6.35586L101.33 5.40459L98.4239 6.35586L98.8952 5.57755L97.0886 5.837L97.7955 4.88572C97.7955 4.88572 95.7532 6.00995 95.6747 6.96123C95.5961 7.91249 94.575 9.1232 94.575 9.1232L94.1037 8.25841C94.1037 8.25841 93.3967 4.36684 95.6747 3.06966Z" fill="#2F2E41"/>
<path d="M97.1322 42H21V95.4804H97.1322V42Z" fill="#F2F2F2"/>
<path d="M48.1159 62H29V95.37H48.1159V62Z" fill="#3F3D56"/>
<path d="M36.1493 65H31V69.8002H36.1493V65Z" fill="#F2F2F2"/>
<path d="M43.1493 65H38V69.8002H43.1493V65Z" fill="#F2F2F2"/>
<path d="M36.1493 71H31V75.9747H36.1493V71Z" fill="#F2F2F2"/>
<path d="M43.1493 71H38V75.9747H43.1493V71Z" fill="#F2F2F2"/>
<path d="M44.2155 81.4309C44.8868 81.4309 45.4309 80.8868 45.4309 80.2155C45.4309 79.5442 44.8868 79 44.2155 79C43.5442 79 43 79.5442 43 80.2155C43 80.8868 43.5442 81.4309 44.2155 81.4309Z" fill="#306B34"/>
<path d="M90.7899 58H53V89.7126H90.7899V58Z" fill="#3F3D56"/>
<path d="M106.044 51.6618H14L20.137 38.8308L21.5104 35.9579L23.3072 32.201L24.6806 29.3281L26.2728 26H98.7918L99.7322 29.3281L100.544 32.201L101.606 35.9579L102.418 38.8308L106.044 51.6618Z" fill="#3F3D56"/>
<path d="M56.326 72H55V80.1768H56.326V72Z" fill="#306B34"/>
<path d="M56.326 73H55V73.9945H56.326V73Z" fill="#F2F2F2"/>
<path d="M56.326 78H55V78.9945H56.326V78Z" fill="#F2F2F2"/>
<path d="M60.2044 72H57V80.1768H60.2044V72Z" fill="#306B34"/>
<path d="M60.2044 73H57V73.9945H60.2044V73Z" fill="#F2F2F2"/>
<path d="M60.2044 78H57V78.9945H60.2044V78Z" fill="#F2F2F2"/>
<path d="M62.3259 72H61V80.1768H62.3259V72Z" fill="#306B34"/>
<path d="M62.3259 73H61V73.9945H62.3259V73Z" fill="#F2F2F2"/>
<path d="M62.3259 78H61V78.9945H62.3259V78Z" fill="#F2F2F2"/>
<path d="M64.326 72H63V80.1768H64.326V72Z" fill="#306B34"/>
<path d="M64.326 73H63V73.9945H64.326V73Z" fill="#F2F2F2"/>
<path d="M64.326 78H63V78.9945H64.326V78Z" fill="#F2F2F2"/>
<path d="M66.2407 71.5323L65 72L67.8842 79.6512L69.1249 79.1835L66.2407 71.5323Z" fill="#306B34"/>
<path d="M66.2407 72.5323L65 73L65.3508 73.9306L66.5915 73.4629L66.2407 72.5323Z" fill="#F2F2F2"/>
<path d="M67.2407 77.5323L66 78L66.3508 78.9305L67.5915 78.4628L67.2407 77.5323Z" fill="#F2F2F2"/>
<path d="M90.2044 72H87V80.1768H90.2044V72Z" fill="#306B34"/>
<path d="M90.2044 73H87V73.9945H90.2044V73Z" fill="#F2F2F2"/>
<path d="M90.2044 78H87V78.9945H90.2044V78Z" fill="#F2F2F2"/>
<path d="M85.326 72H84V80.1768H85.326V72Z" fill="#306B34"/>
<path d="M85.326 73H84V73.9945H85.326V73Z" fill="#F2F2F2"/>
<path d="M85.326 78H84V78.9945H85.326V78Z" fill="#F2F2F2"/>
<path d="M84.326 72H83V80.1768H84.326V72Z" fill="#306B34"/>
<path d="M84.326 73H83V73.9945H84.326V73Z" fill="#F2F2F2"/>
<path d="M84.326 78H83V78.9945H84.326V78Z" fill="#F2F2F2"/>
<path d="M80.8842 71.3488L78 79L79.2407 79.4677L82.1249 71.8165L80.8842 71.3488Z" fill="#306B34"/>
<path d="M81.3508 73.0695L81 74L82.2407 74.4677L82.5915 73.5372L81.3508 73.0695Z" fill="#F2F2F2"/>
<path d="M79.3508 77.0695L79 78L80.2407 78.4677L80.5915 77.5372L79.3508 77.0695Z" fill="#F2F2F2"/>
<path d="M90.7899 81H53V81.7735H90.7899V81Z" fill="#F2F2F2"/>
<path d="M76.9613 72H70V80.1768H76.9613V72Z" fill="#306B34"/>
<path d="M75.5359 73H72V74.547H75.5359V73Z" fill="#F2F2F2"/>
<path d="M72.663 58H72V65.0718H72.663V58Z" fill="#F2F2F2"/>
<path d="M72.1049 67.2099C72.7152 67.2099 73.2099 66.7152 73.2099 66.105C73.2099 65.4947 72.7152 65 72.1049 65C71.4947 65 71 65.4947 71 66.105C71 66.7152 71.4947 67.2099 72.1049 67.2099Z" fill="#F2F2F2"/>
<path d="M99.2371 32.8729H22L23.3734 30H98.425L99.2371 32.8729Z" fill="#306B34"/>
<path d="M102.281 38.8729H20L21.3734 36H101.469L102.281 38.8729Z" fill="#306B34"/>
<path d="M110.829 22C110.829 22 109.72 24.8528 109.952 27.6755C109.994 28.1808 110.164 28.6671 110.446 29.0887V29.0887L96.8543 35.5415C96.8543 35.5415 90.7129 36.1773 92.2456 38.8595C93.7783 41.5417 99.3343 37.5184 99.3343 37.5184C99.3343 37.5184 113.895 35.411 115.044 33.3035C116.194 31.1961 116.96 22.3832 116.96 22.3832L110.829 22Z" fill="#A0616A"/>
<path d="M110.341 15H113.215C113.215 15 115.322 15.3832 115.897 19.2149C116.472 23.0466 117.047 24.0045 116.472 24.0045C115.897 24.0045 109 23.8129 109 23.6213C109 23.4297 110.341 15 110.341 15Z" fill="#D0CDE1"/>
<path d="M14.7411 71.4822C22.8824 71.4822 29.4822 64.8824 29.4822 56.7411C29.4822 48.5998 22.8824 42 14.7411 42C6.59981 42 0 48.5998 0 56.7411C0 64.8824 6.59981 71.4822 14.7411 71.4822Z" fill="#306B34"/>
<path opacity="0.1" d="M14.6773 70.3547C21.6788 70.3547 27.3547 64.6789 27.3547 57.6773C27.3547 50.6758 21.6788 45 14.6773 45C7.67583 45 2 50.6758 2 57.6773C2 64.6789 7.67583 70.3547 14.6773 70.3547Z" fill="black"/>
<path d="M13.4604 64.9987V63.1536C12.5277 63.1354 11.5628 62.8064 11 62.3497L11.3859 61.1258C12.0548 61.627 12.8659 61.9021 13.7017 61.9112C14.8435 61.9112 15.6154 61.1622 15.6154 60.1209C15.6154 59.1161 14.9882 58.495 13.7982 57.9469C12.1578 57.2162 11.1447 56.3758 11.1447 54.7865C11.1447 53.2701 12.0935 52.1192 13.573 51.8451V50H14.5701V51.7721C15.3135 51.7822 16.0387 52.004 16.6607 52.4115L16.2586 53.6172C15.6621 53.2089 14.9552 52.9922 14.2324 52.9961C12.9941 52.9961 12.5277 53.8364 12.5277 54.5672C12.5277 55.5172 13.1227 55.9921 14.5219 56.6499C16.1782 57.4172 17.0145 58.3671 17.0145 59.993C17.0145 61.4363 16.13 62.7882 14.4736 63.0986V64.9987H13.4604Z" fill="#F2F2F2"/>
</g>
<defs>
<clipPath id="clip0">
<rect width="124.12" height="100" fill="white"/>
</clipPath>
</defs>
</svg>
