<svg width="100" height="73" viewBox="0 0 100 73" fill="none" xmlns="http://www.w3.org/2000/svg">
<g clip-path="url(#clip0)">
<path opacity="0.1" d="M98.3019 58.3982C95.8251 63.5094 90.7931 66.9272 85.5802 69.1811C81.4065 70.9738 76.9946 72.1511 72.4827 72.6763C71.6185 72.7789 70.7516 72.8584 69.8818 72.915C67.6594 73.0599 65.4297 73.0574 63.2076 72.9076C61.871 72.8187 60.539 72.6766 59.2117 72.4814C54.5997 71.8086 50.1034 70.4992 45.8512 68.5908C44.6239 68.0381 43.4216 67.4348 42.2441 66.7808C40.2774 65.6907 38.393 64.4583 36.606 63.0935C36.2106 62.7914 35.8201 62.4827 35.4347 62.1675L35.2762 62.0379C34.9731 61.788 34.6728 61.5324 34.3679 61.2844C33.861 60.8598 33.323 60.4739 32.7583 60.1299C32.7201 60.1075 32.6818 60.0851 32.6427 60.0637C32.5382 60.0031 32.4319 59.9462 32.3237 59.8921C32.1009 59.7798 31.8724 59.6789 31.6392 59.59C30.5622 59.1796 29.4086 59.0304 28.2392 59.0556C28.0452 59.0556 27.8513 59.0687 27.6564 59.0817C27.3841 59.1004 27.1108 59.1283 26.8385 59.1638L26.7378 59.1778C25.8701 59.3006 25.0122 59.4847 24.1705 59.7289C22.8706 60.1019 21.5939 60.5682 20.3089 60.9888C19.7633 61.1687 19.2169 61.3403 18.6657 61.4942L18.5445 61.5278C17.7607 61.7483 16.9627 61.9153 16.1563 62.0276C14.3236 62.2619 12.4622 62.112 10.6906 61.5875L10.6291 61.5697L10.5153 61.5362L10.3596 61.4877C10.0985 61.4056 9.83955 61.3158 9.58279 61.2182L9.42706 61.1585C9.17838 61.0627 8.93499 60.9599 8.69688 60.8498L8.54114 60.7789C8.29247 60.6633 8.04907 60.5411 7.81096 60.4125C7.72517 60.3677 7.64031 60.3192 7.55638 60.2735C7.30273 60.1318 7.05405 59.9832 6.81035 59.8278C6.55172 59.663 6.29869 59.4911 6.05126 59.3121C5.93687 59.23 5.82372 59.1458 5.71181 59.0593C5.06672 58.5659 4.46264 58.0211 3.90548 57.4302C3.87471 57.3994 3.8458 57.3677 3.81689 57.3369C3.66862 57.1765 3.52314 57.0133 3.38233 56.8464C3.3301 56.7849 3.27788 56.7233 3.22659 56.6599C3.05936 56.456 2.89803 56.2474 2.7426 56.0342C2.71929 56.0034 2.69691 55.9717 2.67453 55.9409C2.03736 55.0597 1.50912 54.1047 1.10133 53.0967C1.08828 53.0659 1.07615 53.0342 1.06496 53.0034C0.940623 52.6833 0.827164 52.3578 0.724584 52.0271C0.68262 51.889 0.642521 51.7473 0.607084 51.6093C0.594961 51.5682 0.58377 51.5263 0.573512 51.4853C0.0587499 49.4588 0 47.3522 0 45.2577C0 45.0134 0 44.7694 0 44.5257C0.0149207 41.1378 0.0671427 37.6921 0.566985 34.3508C0.566985 34.3274 0.573512 34.3041 0.577243 34.2818C0.744537 33.1569 0.972094 32.0418 1.25893 30.9414C1.55913 29.7867 1.94279 28.6554 2.40689 27.5563C3.55671 24.8519 5.22876 22.3909 7.08545 20.1099C9.32354 17.3655 11.888 14.8327 14.7444 12.7429C15.1547 12.4426 15.5706 12.151 15.9921 11.8682L16.187 11.7404C16.2551 11.6947 16.3232 11.6471 16.3913 11.607C16.5312 11.5138 16.671 11.4261 16.8128 11.3375L16.9713 11.2387L17.2735 11.0522L17.3667 10.999L17.528 10.9058L17.6875 10.8125C17.874 10.7025 18.0627 10.5949 18.2536 10.4899C19.0686 10.0354 19.9029 9.62011 20.7565 9.24398C21.0083 9.1327 21.2616 9.02546 21.5165 8.92226C22.6738 8.45094 23.8625 8.06112 25.0742 7.75565C25.5218 7.6425 25.9722 7.54303 26.4254 7.45724C26.9601 7.35404 27.4975 7.26855 28.0378 7.20079C28.8975 7.09262 29.7621 7.02819 30.6284 7.00775C36.7197 6.85948 42.8726 8.84206 47.6463 12.6422C49.5487 14.1566 51.258 15.9499 53.3945 17.1109C55.2596 18.1218 57.4427 18.5405 59.4402 17.745C61.0908 17.0876 62.165 16.7612 64.0189 16.861C67.8551 17.0771 71.6371 17.868 75.2383 19.2072C75.3838 19.2604 75.5293 19.3154 75.6738 19.3704C85.0654 22.9654 93.1403 30.104 97.3349 39.2774C97.4455 39.5198 97.5534 39.7642 97.6585 40.0103C100.16 45.8527 101.063 52.7022 98.3019 58.3982Z" fill="#306B34"/>
<path opacity="0.1" d="M18.6657 25.8598V61.218L18.5445 61.2516C17.7606 61.472 16.9627 61.639 16.1563 61.7514C14.3236 61.9857 12.4622 61.8358 10.6906 61.3112L10.6291 61.2935L10.5153 61.26L10.3596 61.2115C10.0985 61.1294 9.83954 61.0396 9.58278 60.942L9.42705 60.8823C9.17837 60.7865 8.93498 60.6836 8.69687 60.5736L8.54113 60.5027C8.29246 60.3871 8.04907 60.2649 7.81096 60.1362C7.72516 60.0915 7.6403 60.043 7.55637 59.9973C7.30272 59.8555 7.05404 59.707 6.81034 59.5515C6.55172 59.3868 6.29869 59.2149 6.05125 59.0358C5.93686 58.9538 5.82371 58.8695 5.71181 58.7831C5.06672 58.2897 4.46264 57.7449 3.90548 57.154C3.8747 57.1232 3.8458 57.0915 3.81689 57.0607C3.66861 56.9003 3.52314 56.7371 3.38232 56.5702C3.3301 56.5087 3.27788 56.4471 3.22659 56.3837C3.05935 56.1798 2.89802 55.9712 2.7426 55.758C2.71929 55.7272 2.69691 55.6955 2.67452 55.6647C2.03736 54.7835 1.50912 53.8285 1.10133 52.8205C1.08827 52.7897 1.07615 52.758 1.06496 52.7272C0.940622 52.407 0.827163 52.0816 0.724584 51.7508C0.682619 51.6128 0.64252 51.4711 0.607083 51.3331C0.59496 51.292 0.58377 51.2501 0.573512 51.209C0.0587498 49.1826 0 47.076 0 44.9815C0 44.7372 0 44.4932 0 44.2495C0.0149206 40.8616 0.0671427 37.4158 0.566984 34.0745C0.566984 34.0512 0.573512 34.0279 0.577242 34.0055C0.744536 32.8807 0.972092 31.7656 1.25893 30.6652H10.782V25.8598H12.6807V22H16.7671V25.8598H18.6657Z" fill="#306B34"/>
<path opacity="0.1" d="M98.6626 58.1909C96.1858 63.3022 91.1538 66.7199 85.9409 68.9739C81.7672 70.7666 77.3554 71.9439 72.8434 72.4691C71.9792 72.5716 71.1123 72.6512 70.2425 72.7078C68.0201 72.8526 65.7905 72.8501 63.5683 72.7003C62.2317 72.6114 60.8997 72.4694 59.5724 72.2742C54.9604 71.6013 50.4641 70.292 46.2119 68.3836C44.9847 67.8309 43.7823 67.2276 42.6048 66.5735C40.6381 65.4835 38.7537 64.2511 36.9667 62.8863C36.5713 62.5841 36.1809 62.2755 35.7954 61.9603L35.6369 61.8306C35.3338 61.5807 35.0336 61.3252 34.7286 61.0771C34.2218 60.6526 33.6837 60.2666 33.119 59.9227C33.0808 59.9003 33.0426 59.8779 33.0034 59.8564C32.899 59.7958 32.7927 59.7389 32.6845 59.6849C32.4616 59.5725 32.2332 59.4717 32 59.3827V44.9181H49.307V48.1381H56.9026V24.5841H65.8428V34.0027H70.2649V28.4261H73.9186V22.4691H75.5972V19C75.7427 19.0532 75.8881 19.1082 76.0327 19.1632V22.4691H77.6665V28.4298H81.3174V34.0064H86.7009V55.2525H95.2579V39.8012H98.0154C100.521 45.6455 101.424 52.495 98.6626 58.1909Z" fill="#306B34"/>
<path opacity="0.1" d="M62.9959 28H59V31.9959H62.9959V28Z" fill="#306B34"/>
<path opacity="0.1" d="M62.9959 36H59V39.996H62.9959V36Z" fill="#306B34"/>
<path opacity="0.1" d="M62.9959 45H59V48.9959H62.9959V45Z" fill="#306B34"/>
<path opacity="0.1" d="M62.9959 53H59V56.9959H62.9959V53Z" fill="#306B34"/>
<path opacity="0.1" d="M62.9959 61H59V64.9959H62.9959V61Z" fill="#306B34"/>
<path opacity="0.1" d="M62.9959 69V72.1557C61.6593 72.0668 60.3273 71.9248 59 71.7295V69H62.9959Z" fill="#306B34"/>
<path opacity="0.1" d="M46.9872 50H33V51.8101H46.9872V50Z" fill="#306B34"/>
<path opacity="0.1" d="M46.9872 56H33V57.8101H46.9872V56Z" fill="#306B34"/>
<path opacity="0.1" d="M46.5744 61V62.8091H36.2381C35.8427 62.507 35.4523 62.1983 35.0668 61.8831L34.9083 61.7535C34.6052 61.5036 34.3049 61.2481 34 61H46.5744Z" fill="#306B34"/>
<path opacity="0.1" d="M46.6981 67V68.8101H45.6071C44.3798 68.2574 43.1775 67.654 42 67H46.6981Z" fill="#306B34"/>
<path opacity="0.1" d="M72.6009 39H70V41.6009H72.6009V39Z" fill="#306B34"/>
<path opacity="0.1" d="M16.6009 27H14V29.6009H16.6009V27Z" fill="#306B34"/>
<path opacity="0.1" d="M16.6009 33H14V35.6009H16.6009V33Z" fill="#306B34"/>
<path opacity="0.1" d="M16.6009 39H14V41.6009H16.6009V39Z" fill="#306B34"/>
<path opacity="0.1" d="M16.6009 45H14V47.6009H16.6009V45Z" fill="#306B34"/>
<path opacity="0.1" d="M16.6009 51H14V53.6009H16.6009V51Z" fill="#306B34"/>
<path opacity="0.1" d="M16.6009 57H14V59.6009H16.6009V57Z" fill="#306B34"/>
<path opacity="0.1" d="M82.6009 39H80V41.6009H82.6009V39Z" fill="#306B34"/>
<path opacity="0.1" d="M72.6009 45H70V47.6009H72.6009V45Z" fill="#306B34"/>
<path opacity="0.1" d="M82.6009 45H80V47.6009H82.6009V45Z" fill="#306B34"/>
<path opacity="0.1" d="M72.6009 52H70V54.6009H72.6009V52Z" fill="#306B34"/>
<path opacity="0.1" d="M82.6009 52H80V54.6009H82.6009V52Z" fill="#306B34"/>
<path opacity="0.1" d="M72.6009 58H70V60.6009H72.6009V58Z" fill="#306B34"/>
<path opacity="0.1" d="M82.6009 58H80V60.6009H82.6009V58Z" fill="#306B34"/>
<path opacity="0.1" d="M72.6009 65H70V67.6008H72.6009V65Z" fill="#306B34"/>
<path opacity="0.1" d="M82.6009 65H80V67.6008H82.6009V65Z" fill="#306B34"/>
<path opacity="0.1" d="M70 72.6776V71H72.6009V72.4389L70 72.6776Z" fill="#306B34"/>
<path opacity="0.1" d="M1 34V35.4921H10.9474V34H1ZM1.88591 35.3988H1.15573V34.0933H1.88591V35.3988ZM2.77183 35.3988H2.04165V34.0933H2.77183V35.3988ZM3.65774 35.3988H2.92756V34.0933H3.65774V35.3988ZM4.54365 35.3988H3.81347V34.0933H4.54365V35.3988ZM5.42956 35.3988H4.69939V34.0933H5.42956V35.3988ZM6.31548 35.3988H5.5853V34.0933H6.31548V35.3988ZM7.20139 35.3988H6.47121V34.0933H7.20139V35.3988ZM8.0873 35.3988H7.35713V34.0933H8.0873V35.3988ZM8.97322 35.3988H8.24304V34.0933H8.97322V35.3988ZM9.85913 35.3988H9.12895V34.0933H9.85913V35.3988ZM10.7917 35.3988H10.0149V34.0933H10.7917V35.3988Z" fill="#306B34"/>
<path opacity="0.1" d="M1 38V39.4874H10.9474V38H1ZM1.88591 39.3941H1.15573V38.0933H1.88591V39.3941ZM2.77183 39.3941H2.04165V38.0933H2.77183V39.3941ZM3.65774 39.3941H2.92756V38.0933H3.65774V39.3941ZM4.54365 39.3941H3.81347V38.0933H4.54365V39.3941ZM5.42956 39.3941H4.69939V38.0933H5.42956V39.3941ZM6.31548 39.3941H5.5853V38.0933H6.31548V39.3941ZM7.20139 39.3941H6.47121V38.0933H7.20139V39.3941ZM8.0873 39.3941H7.35713V38.0933H8.0873V39.3941ZM8.97322 39.3941H8.24304V38.0933H8.97322V39.3941ZM9.85913 39.3941H9.12895V38.0933H9.85913V39.3941ZM10.7917 39.3941H10.0149V38.0933H10.7917V39.3941Z" fill="#306B34"/>
<path opacity="0.1" d="M1 43V44.4874H10.9474V43H1ZM1.88591 44.3941H1.15573V43.0933H1.88591V44.3941ZM2.77183 44.3941H2.04165V43.0933H2.77183V44.3941ZM3.65774 44.3941H2.92756V43.0933H3.65774V44.3941ZM4.54365 44.3941H3.81347V43.0933H4.54365V44.3941ZM5.42956 44.3941H4.69939V43.0933H5.42956V44.3941ZM6.31548 44.3941H5.5853V43.0933H6.31548V44.3941ZM7.20139 44.3941H6.47121V43.0933H7.20139V44.3941ZM8.0873 44.3941H7.35713V43.0933H8.0873V44.3941ZM8.97322 44.3941H8.24304V43.0933H8.97322V44.3941ZM9.85913 44.3941H9.12895V43.0933H9.85913V44.3941ZM10.7917 44.3941H10.0149V43.0933H10.7917V44.3941Z" fill="#306B34"/>
<path opacity="0.1" d="M1 47V48.4921H10.9474V47H1ZM1.88591 48.3988H1.15573V47.0933H1.88591V48.3988ZM2.77183 48.3988H2.04165V47.0933H2.77183V48.3988ZM3.65774 48.3988H2.92756V47.0933H3.65774V48.3988ZM4.54365 48.3988H3.81347V47.0933H4.54365V48.3988ZM5.42956 48.3988H4.69939V47.0933H5.42956V48.3988ZM6.31548 48.3988H5.5853V47.0933H6.31548V48.3988ZM7.20139 48.3988H6.47121V47.0933H7.20139V48.3988ZM8.0873 48.3988H7.35713V47.0933H8.0873V48.3988ZM8.97322 48.3988H8.24304V47.0933H8.97322V48.3988ZM9.85913 48.3988H9.12895V47.0933H9.85913V48.3988ZM10.7917 48.3988H10.0149V47.0933H10.7917V48.3988Z" fill="#306B34"/>
<path opacity="0.1" d="M1 51C1.03544 51.1399 1.07554 51.2798 1.1175 51.4178V51.0933H1.84768V52.3988H1.45788C1.46907 52.4296 1.48119 52.4613 1.49425 52.4921H10.9129V51H1ZM2.73359 52.3988H2.00341V51.0933H2.73359V52.3988ZM3.61951 52.3988H2.88933V51.0933H3.61951V52.3988ZM4.50542 52.3988H3.77524V51.0933H4.50542V52.3988ZM5.39133 52.3988H4.66115V51.0933H5.39133V52.3988ZM6.27725 52.3988H5.54707V51.0933H6.27725V52.3988ZM7.16316 52.3988H6.43298V51.0933H7.16316V52.3988ZM8.04907 52.3988H7.31889V51.0933H8.04907V52.3988ZM8.93498 52.3988H8.20481V51.0933H8.93498V52.3988ZM9.8209 52.3988H9.09072V51.0933H9.8209V52.3988ZM10.7534 52.3988H9.97663V51.0933H10.7534V52.3988Z" fill="#306B34"/>
<path opacity="0.1" d="M3 56C3.02238 56.0308 3.04476 56.0625 3.06808 56.0933H3.55206V56.719C3.60335 56.7815 3.65558 56.843 3.7078 56.9055V56.0942H4.43798V57.3997H4.14236C4.17127 57.4305 4.20018 57.4622 4.23095 57.493H10.8417V56.0009L3 56ZM5.32389 57.3988H4.59371V56.0933H5.32389V57.3988ZM6.2098 57.3988H5.47962V56.0933H6.2098V57.3988ZM7.09571 57.3988H6.36554V56.0933H7.09571V57.3988ZM7.98163 57.3988H7.25145V56.0933H7.98163V57.3988ZM8.86754 57.3988H8.13736V56.0933H8.86754V57.3988ZM9.75345 57.3988H9.02328V56.0933H9.75345V57.3988ZM10.686 57.3988H9.90919V56.0933H10.686V57.3988Z" fill="#306B34"/>
<path opacity="0.1" d="M8 60C8.08393 60.0476 8.16879 60.0933 8.25459 60.1389V60.0933H8.98476V60.5054L9.1405 60.5763V60.0933H9.87068V60.885L10.0264 60.9447V60.0933H10.8032V61.2123L10.959 61.2608V60H8Z" fill="#306B34"/>
<path opacity="0.1" d="M37.9803 21.0029C37.9803 21.0029 35.7571 20.8686 36.0219 22.426C36.0083 22.5051 36.0201 22.5865 36.0557 22.6586C36.0912 22.7306 36.1486 22.7895 36.2196 22.827C36.2196 22.827 36.2196 22.7113 36.4472 22.7505C36.527 22.7636 36.608 22.7673 36.6887 22.7617C36.7978 22.7545 36.9016 22.7119 36.9843 22.6404C36.9843 22.6404 37.6091 22.3821 37.8525 21.361C37.8525 21.361 38.0315 21.1381 38.025 21.0812L37.652 21.2416C37.652 21.2416 37.7807 21.5121 37.68 21.7368C37.68 21.7368 37.6679 21.2519 37.5951 21.2631C37.5811 21.2631 37.4002 21.3563 37.4002 21.3563C37.4002 21.3563 37.6212 21.8282 37.4543 22.1704C37.4543 22.1704 37.5177 21.5904 37.3321 21.3908L37.0617 21.5466C37.0617 21.5466 37.32 22.0334 37.1447 22.4306C37.1447 22.4306 37.1904 21.8217 37.0067 21.5848L36.767 21.7713C36.767 21.7713 37.0095 22.2506 36.8603 22.5808C36.8603 22.5808 36.8407 21.8711 36.7139 21.817C36.6229 21.8937 36.5417 21.9814 36.4723 22.0781C36.4723 22.0781 36.6383 22.426 36.5357 22.6097C36.5357 22.6097 36.4723 22.1378 36.4201 22.135C36.4201 22.135 36.2122 22.4483 36.1907 22.6628C36.2003 22.4638 36.262 22.2709 36.3698 22.1033C36.2496 22.126 36.1388 22.1834 36.0508 22.2684C36.0508 22.2684 36.0835 22.0473 36.4238 22.0278C36.4238 22.0278 36.5964 21.7909 36.643 21.776C36.643 21.776 36.3063 21.748 36.1021 21.8385C36.1021 21.8385 36.2821 21.6296 36.7045 21.7247L36.9405 21.5317C36.9405 21.5317 36.4975 21.471 36.3101 21.5382C36.3101 21.5382 36.5255 21.3517 37.0039 21.4878L37.2613 21.334C37.0635 21.2907 36.8611 21.2731 36.6588 21.2817C36.6588 21.2817 36.8957 21.154 37.3368 21.2929L37.5233 21.2099C37.5233 21.2099 37.2435 21.1558 37.1661 21.1474C37.0887 21.1391 37.0804 21.1167 37.0804 21.1167C37.2555 21.0875 37.4353 21.1075 37.5998 21.1745C37.5998 21.1745 37.9868 21.0272 37.9803 21.0029Z" fill="#306B34"/>
<path opacity="0.1" d="M32.1841 29.0187C32.1841 29.0187 31.4241 31.1113 32.9926 31.3024C33.0644 31.3378 33.1456 31.3495 33.2245 31.3359C33.3034 31.3224 33.3759 31.2842 33.4318 31.2269C33.4318 31.2269 33.3227 31.1905 33.4234 30.9863C33.4587 30.9137 33.4856 30.8374 33.5036 30.7588C33.5272 30.6519 33.5154 30.5403 33.4701 30.4408C33.4701 30.4408 33.4001 29.7684 32.49 29.2453C32.49 29.2453 32.3277 29.0093 32.2708 29L32.3174 29.4057C32.3174 29.4057 32.6131 29.359 32.8005 29.5194C32.8005 29.5194 32.3342 29.3935 32.3221 29.4663C32.3221 29.4803 32.3566 29.6798 32.3566 29.6798C32.3566 29.6798 32.8714 29.6015 33.1521 29.8589C33.1521 29.8589 32.6131 29.6332 32.3697 29.7554L32.4424 30.0519C32.4424 30.0519 32.9823 29.9437 33.3134 30.2235C33.3134 30.2235 32.7427 30.0081 32.4629 30.1162L32.5739 30.396C32.5739 30.396 33.1026 30.3028 33.3768 30.535C33.3768 30.535 32.6905 30.3484 32.6037 30.4585C32.6515 30.5671 32.7122 30.6695 32.7846 30.7634C32.7846 30.7634 33.1661 30.7037 33.3125 30.8567C33.3125 30.8567 32.8415 30.783 32.8247 30.8315C32.8247 30.8315 33.0663 31.1206 33.2658 31.2045C33.0784 31.1382 32.9116 31.0241 32.7818 30.8735C32.7695 30.9954 32.7932 31.1183 32.8499 31.2269C32.8499 31.2269 32.6466 31.1336 32.724 30.8026C32.724 30.8026 32.545 30.5704 32.545 30.5228C32.545 30.5228 32.4219 30.8371 32.4517 31.059C32.4517 31.059 32.3025 30.8268 32.5133 30.4492L32.3958 30.1694C32.3958 30.1694 32.2093 30.5769 32.2223 30.7765C32.2223 30.7765 32.1067 30.5163 32.3715 30.0957L32.2979 29.8057C32.2003 29.9819 32.126 30.1699 32.0768 30.3652C32.0768 30.3652 32.0209 30.1013 32.2792 29.7181L32.2522 29.5185C32.2522 29.5185 32.1216 29.7684 32.0908 29.8439C32.0601 29.9195 32.0367 29.9167 32.0367 29.9167C32.0582 29.7403 32.1283 29.5734 32.2391 29.4346C32.2391 29.4346 32.2093 29.0187 32.1841 29.0187Z" fill="#306B34"/>
<path opacity="0.1" d="M47.1837 27.0196C47.1837 27.0196 46.4247 29.1159 47.9922 29.3024C48.0643 29.3377 48.1456 29.3494 48.2247 29.3356C48.3037 29.3219 48.3764 29.2835 48.4324 29.226C48.4324 29.226 48.3223 29.1896 48.424 28.9863C48.4596 28.9137 48.4862 28.8369 48.5032 28.7578C48.5271 28.6511 48.5157 28.5395 48.4706 28.4398C48.4706 28.4398 48.4007 27.7675 47.4905 27.2443C47.4905 27.2443 47.3273 27.0093 47.2705 27L47.318 27.4047C47.318 27.4047 47.6136 27.359 47.8011 27.5194C47.8011 27.5194 47.3348 27.3935 47.3217 27.4653C47.3217 27.4803 47.3563 27.6789 47.3563 27.6789C47.3563 27.6789 47.871 27.6015 48.1526 27.8579C48.1526 27.8579 47.6136 27.6332 47.3693 27.7544L47.443 28.0519C47.443 28.0519 47.9829 27.9428 48.3139 28.2235C48.3139 28.2235 47.7423 28.0071 47.4626 28.1153L47.5735 28.3951C47.5735 28.3951 48.1023 28.3018 48.3764 28.534C48.3764 28.534 47.691 28.3475 47.6034 28.4585C47.6526 28.5675 47.7153 28.6699 47.7899 28.7634C47.7899 28.7634 48.1703 28.7028 48.3177 28.8567C48.3177 28.8567 47.8467 28.783 47.83 28.8324C47.83 28.8324 48.0705 29.1206 48.2701 29.2055C48.0828 29.1394 47.9162 29.0252 47.7871 28.8744C47.7747 28.9962 47.798 29.119 47.8542 29.2278C47.8542 29.2278 47.6519 29.1346 47.7293 28.8045C47.7293 28.8045 47.5502 28.5713 47.5493 28.5247C47.5493 28.5247 47.4271 28.8399 47.456 29.0609C47.456 29.0609 47.3068 28.8296 47.5176 28.451L47.4001 28.1713C47.4001 28.1713 47.2136 28.5788 47.2266 28.7774C47.2266 28.7774 47.111 28.5182 47.3758 28.0976L47.3012 27.8066C47.2036 27.9828 47.1294 28.1709 47.0802 28.3662C47.0802 28.3662 47.0252 28.1023 47.2835 27.719L47.2565 27.5194C47.2565 27.5194 47.1259 27.7693 47.0942 27.8449C47.0625 27.9204 47.0401 27.9176 47.0401 27.9176C47.0622 27.7413 47.1326 27.5744 47.2434 27.4355C47.2434 27.4355 47.2098 27.0205 47.1837 27.0196Z" fill="#306B34"/>
<path opacity="0.1" d="M26.1841 44.0177C26.1841 44.0177 25.4241 46.1113 26.9926 46.3025C27.0645 46.3378 27.1457 46.3495 27.2246 46.3357C27.3036 46.322 27.3761 46.2836 27.4318 46.226C27.4318 46.226 27.3227 46.1896 27.4234 45.9863C27.4593 45.9137 27.4862 45.837 27.5036 45.7579C27.5277 45.651 27.5159 45.5393 27.47 45.4399C27.47 45.4399 27.4001 44.7675 26.49 44.2453C26.49 44.2453 26.3277 44.0093 26.2708 44L26.3174 44.4047C26.3174 44.4047 26.614 44.359 26.8005 44.5194C26.8005 44.5194 26.3342 44.3935 26.3221 44.4653C26.3221 44.4803 26.3566 44.6789 26.3566 44.6789C26.3566 44.6789 26.8714 44.6015 27.152 44.8579C27.152 44.8579 26.613 44.6332 26.3697 44.7544L26.4424 45.0519C26.4424 45.0519 26.9823 44.9428 27.3134 45.2235C27.3134 45.2235 26.7427 45.0072 26.4629 45.1153L26.5739 45.3951C26.5739 45.3951 27.1026 45.3018 27.3768 45.534C27.3768 45.534 26.6914 45.3475 26.6037 45.4585C26.6515 45.5671 26.7122 45.6695 26.7846 45.7634C26.7846 45.7634 27.166 45.7028 27.3134 45.8567C27.3134 45.8567 26.8415 45.783 26.8247 45.8325C26.8247 45.8325 27.0663 46.1206 27.2658 46.2055C27.0784 46.1397 26.9115 46.0259 26.7818 45.8754C26.7695 45.997 26.7932 46.1196 26.8499 46.2279C26.8499 46.2279 26.6466 46.1346 26.724 45.8045C26.724 45.8045 26.5459 45.5713 26.545 45.5247C26.545 45.5247 26.4219 45.8399 26.4517 46.0609C26.4517 46.0609 26.3025 45.8297 26.5133 45.451L26.3958 45.1713C26.3958 45.1713 26.2093 45.5788 26.2232 45.7774C26.2232 45.7774 26.1076 45.5182 26.3725 45.0976L26.2979 44.8076C26.2001 44.9837 26.1258 45.1718 26.0768 45.3671C26.0768 45.3671 26.0209 45.1023 26.2792 44.7199L26.2522 44.5194C26.2522 44.5194 26.1216 44.7694 26.0908 44.8449C26.0601 44.9204 26.0367 44.9176 26.0367 44.9176C26.0583 44.7411 26.1287 44.5741 26.24 44.4355C26.24 44.4355 26.2093 44.0177 26.1841 44.0177Z" fill="#306B34"/>
<path opacity="0.1" d="M23.1837 24.0187C23.1837 24.0187 22.4247 26.1113 23.9923 26.3024C24.0643 26.3377 24.1455 26.3494 24.2246 26.3358C24.3036 26.3223 24.3763 26.2842 24.4324 26.2269C24.4324 26.2269 24.3224 26.1905 24.424 25.9863C24.4592 25.9135 24.4858 25.8368 24.5033 25.7578C24.5272 25.6514 24.5157 25.5401 24.4707 25.4408C24.4707 25.4408 24.4007 24.7684 23.4896 24.2453C23.4896 24.2453 23.3274 24.0093 23.2705 24L23.318 24.4057C23.318 24.4057 23.6136 24.359 23.8002 24.5194C23.8002 24.5194 23.3339 24.3935 23.3218 24.4663C23.3218 24.4803 23.3563 24.6798 23.3563 24.6798C23.3563 24.6798 23.871 24.6015 24.1527 24.8589C24.1527 24.8589 23.6136 24.6332 23.3693 24.7554L23.4421 25.0519C23.4421 25.0519 23.982 24.9428 24.314 25.2235C24.314 25.2235 23.7423 25.0071 23.4626 25.1163L23.5735 25.396C23.5735 25.396 24.1023 25.3028 24.3765 25.5359C24.3765 25.5359 23.691 25.3494 23.6034 25.4594C23.6511 25.568 23.7119 25.6704 23.7843 25.7644C23.7843 25.7644 24.1657 25.7047 24.3131 25.8576C24.3131 25.8576 23.8421 25.7839 23.8253 25.8324C23.8253 25.8324 24.0659 26.1215 24.2655 26.2055C24.0782 26.1389 23.9114 26.0248 23.7815 25.8744C23.7691 25.9963 23.7928 26.1192 23.8496 26.2278C23.8496 26.2278 23.6463 26.1346 23.7246 25.8035C23.7246 25.8035 23.5456 25.5713 23.5446 25.5238C23.5446 25.5238 23.4225 25.838 23.4514 26.06C23.4514 26.06 23.3012 25.8278 23.5129 25.4501L23.3945 25.1703C23.3945 25.1703 23.208 25.5779 23.222 25.7774C23.222 25.7774 23.1063 25.5172 23.3712 25.0967L23.2966 24.8066C23.199 24.9828 23.1247 25.1709 23.0756 25.3662C23.0756 25.3662 23.0205 25.1023 23.2779 24.719L23.2518 24.5194C23.2518 24.5194 23.1203 24.7693 23.0896 24.844C23.0588 24.9186 23.0355 24.9176 23.0355 24.9176C23.057 24.7411 23.1274 24.5741 23.2388 24.4355C23.2388 24.4355 23.2099 24.0187 23.1837 24.0187Z" fill="#306B34"/>
<path opacity="0.1" d="M29 36.0694C29 36.0694 29.5866 38.2143 30.9779 37.4683C31.057 37.4557 31.13 37.4184 31.1867 37.3618C31.2433 37.3052 31.2805 37.2321 31.2931 37.153C31.2931 37.153 31.1831 37.1866 31.1486 36.9619C31.1354 36.8821 31.1129 36.8042 31.0814 36.7297C31.0401 36.6284 30.9663 36.5438 30.8716 36.4891C30.8716 36.4891 30.4268 35.9799 29.3795 36.0769C29.3795 36.0769 29.111 35.979 29.0588 36.0041L29.3311 36.3072C29.3311 36.3072 29.5465 36.0993 29.7917 36.1207C29.7917 36.1207 29.3357 36.2886 29.3693 36.3529C29.3767 36.366 29.5204 36.5077 29.5204 36.5077C29.5204 36.5077 29.8934 36.1468 30.2739 36.1944C30.2739 36.1944 29.7041 36.3212 29.5754 36.5618L29.8057 36.7623C29.8057 36.7623 30.1843 36.3622 30.617 36.3995C30.617 36.3995 30.0249 36.5525 29.8589 36.8024L30.1125 36.9693C30.1125 36.9693 30.4855 36.5861 30.8492 36.6206C30.8492 36.6206 30.1834 36.8658 30.1731 37.0038C30.275 37.0651 30.384 37.1136 30.4977 37.1484C30.4977 37.1484 30.7774 36.8798 30.9816 36.918C30.9816 36.918 30.5536 37.1297 30.5685 37.1792C30.5685 37.1792 30.9322 37.2724 31.142 37.2277C30.951 37.2818 30.7491 37.285 30.5564 37.237C30.6164 37.3437 30.7066 37.4303 30.8157 37.486C30.8157 37.486 30.5956 37.5261 30.4688 37.2118C30.4688 37.2118 30.189 37.1251 30.1591 37.0859C30.1591 37.0859 30.2412 37.4142 30.3923 37.5783C30.3923 37.5783 30.1368 37.4748 30.0911 37.0439L29.8328 36.8826C29.8328 36.8826 29.9176 37.3218 30.0407 37.4776C30.0407 37.4776 29.7964 37.3321 29.7703 36.836L29.5427 36.642C29.5649 36.8432 29.6132 37.0407 29.6863 37.2295C29.6863 37.2295 29.4896 37.043 29.4793 36.5842L29.3422 36.4359C29.3422 36.4359 29.3795 36.7157 29.3973 36.7949C29.415 36.8742 29.3973 36.8882 29.3973 36.8882C29.3133 36.7315 29.2745 36.5546 29.2854 36.3772C29.2854 36.3772 29.0214 36.0554 29 36.0694Z" fill="#306B34"/>
<path opacity="0.1" d="M45 38.0647C45 38.0647 45.5866 40.2095 46.977 39.4635C47.0563 39.4512 47.1296 39.4141 47.1864 39.3575C47.2433 39.3008 47.2806 39.2276 47.2931 39.1483C47.2931 39.1483 47.1821 39.1819 47.1476 38.9618C47.1352 38.882 47.113 38.804 47.0814 38.7296C47.0394 38.6285 46.9654 38.544 46.8707 38.489C46.8707 38.489 46.4259 37.9799 45.3786 38.0778C45.3786 38.0778 45.11 37.9789 45.0588 38.0041L45.3301 38.3072C45.3301 38.3072 45.5455 38.0992 45.7908 38.1207C45.7908 38.1207 45.3348 38.2885 45.3693 38.3529C45.3758 38.3659 45.5204 38.5077 45.5204 38.5077C45.5204 38.5077 45.8934 38.1468 46.2738 38.1943C46.2738 38.1943 45.7031 38.3212 45.5744 38.5618L45.8057 38.7623C45.8057 38.7623 46.1787 38.3622 46.6161 38.3995C46.6161 38.3995 46.0249 38.5524 45.8589 38.8023L46.1125 38.9693C46.1125 38.9693 46.4855 38.586 46.8483 38.6205C46.8483 38.6205 46.1825 38.8658 46.1731 39.0038C46.2746 39.0651 46.3833 39.1136 46.4967 39.1483C46.4967 39.1483 46.7765 38.8797 46.9807 38.918C46.9807 38.918 46.5536 39.1297 46.5676 39.1791C46.5676 39.1791 46.9313 39.2723 47.142 39.2276C46.9507 39.2817 46.7485 39.2849 46.5555 39.2369C46.6158 39.3434 46.7059 39.4299 46.8147 39.4859C46.8147 39.4859 46.5946 39.526 46.4678 39.2117C46.4678 39.2117 46.1881 39.125 46.1591 39.0858C46.1591 39.0858 46.2403 39.4141 46.3913 39.5782C46.3913 39.5782 46.1358 39.4747 46.0901 39.0439L45.8318 38.8807C45.8318 38.8807 45.9167 39.3199 46.0407 39.4756C46.0407 39.4756 45.7964 39.3302 45.7703 38.8341L45.5418 38.6401C45.5639 38.8414 45.6125 39.039 45.6863 39.2276C45.6863 39.2276 45.4887 39.0411 45.4784 38.5823L45.3413 38.434C45.3413 38.434 45.3786 38.7138 45.3963 38.793C45.414 38.8723 45.3963 38.8863 45.3963 38.8863C45.3123 38.7296 45.2736 38.5527 45.2844 38.3753C45.2844 38.3753 45.0214 38.0507 45 38.0647Z" fill="#306B34"/>
<path d="M38.7358 58.9971C38.7358 58.9971 43.5738 57.368 42.5722 51.5956L36.4268 50L35 54.7364L38.7358 58.9971Z" fill="#CED7E7"/>
<path opacity="0.1" d="M35 55.1408L38.7348 59.4016C38.7348 59.4016 43.5728 57.7724 42.5713 52L35 55.1408Z" fill="black"/>
<path d="M15.0068 12.4759C15.0068 12.4759 15.6596 13.5381 16.552 13.0075C17.4445 12.4769 16.5884 11.0109 16.5884 11.0109C16.5884 11.0109 14.8791 10.7769 15.0068 12.4759Z" fill="#FED253"/>
<path opacity="0.1" d="M16.5521 13.0069C16.4468 13.0751 16.3287 13.1209 16.2051 13.1418C16.0815 13.1626 15.9549 13.158 15.8331 13.1282C15.5058 13.0452 15.254 12.7934 15.1188 12.6283C15.0784 12.58 15.041 12.5292 15.0068 12.4763C14.9612 11.8702 15.1495 11.5093 15.4106 11.2967C15.7697 11.0048 16.2667 10.9927 16.4812 11.002C16.5474 11.002 16.5856 11.0113 16.5856 11.0113L16.6034 11.0412C16.6285 11.0887 16.6836 11.1941 16.7423 11.3349C16.9419 11.7965 17.1797 12.633 16.5521 13.0069Z" fill="black"/>
<path d="M38.7696 51L42.1268 51.2714L48.3748 51.3227L43.4519 57.3842C43.4519 57.3842 41.8899 57.469 41.5682 57.6891C41.2465 57.9092 36.7292 57.7917 36.7292 57.7917L36 54.6845L38.7696 51Z" fill="#FFA2A2"/>
<path opacity="0.05" d="M38.7696 51L42.1268 51.2714L48.3748 51.3227L43.4519 57.3842C43.4519 57.3842 41.8899 57.469 41.5682 57.6891C41.2465 57.9092 36.7292 57.7917 36.7292 57.7917L36 54.6845L38.7696 51Z" fill="black"/>
<path d="M35.3954 35.1315L36.1759 36.4557L36.3456 38.7647C36.3456 38.7647 36.8893 40.7333 37.2968 41.3105C37.7043 41.8877 37.8741 43.4162 37.8741 43.4162C37.8741 43.4162 38.0438 44.842 38.2471 45.147C38.4504 45.4519 38.7227 47.6648 38.7227 47.6648C38.7227 47.6648 40.5225 51.2635 42.1516 51.7046C42.1516 51.7046 34.0712 54.353 38.3152 59.1062C38.3152 59.1062 35.2937 59.8522 34.5803 59.0045C33.8669 58.1568 32 45.5937 32 45.5937L32.5772 35L35.3954 35.1315Z" fill="#CED7E7"/>
<path opacity="0.05" d="M35.3954 35.1315L36.1759 36.4557L36.3456 38.7647C36.3456 38.7647 36.8893 40.7333 37.2968 41.3105C37.7043 41.8877 37.8741 43.4162 37.8741 43.4162C37.8741 43.4162 38.0438 44.842 38.2471 45.147C38.4504 45.4519 38.7227 47.6648 38.7227 47.6648C38.7227 47.6648 40.5225 51.2635 42.1516 51.7046C42.1516 51.7046 34.0712 54.353 38.3152 59.1062C38.3152 59.1062 35.2937 59.8522 34.5803 59.0045C33.8669 58.1568 32 45.5937 32 45.5937L32.5772 35L35.3954 35.1315Z" fill="black"/>
<path d="M25.8698 21.8032C25.6431 22.9795 25.7103 24.1935 26.0657 25.3375L24.8086 28.9362C24.8086 28.9362 15.2342 23.6058 16.0492 22.3152C16.5108 21.5831 16.5696 19.6462 16.5323 18.1075C16.5052 16.9381 16.4222 16 16.4222 16C16.4222 16 28.1723 17.1554 26.6084 19.8374C26.2545 20.447 26.0049 21.1114 25.8698 21.8032Z" fill="#FFA2A2"/>
<path opacity="0.1" d="M26.1861 19.8374C25.8322 20.447 25.5826 21.1114 25.4476 21.8032C23.7038 22.361 21.8207 22.2977 20.1184 21.6239C18.4161 20.9502 16.9997 19.7076 16.11 18.1075C16.083 16.9381 16 16 16 16C16 16 27.7472 17.1554 26.1861 19.8374Z" fill="black"/>
<path d="M31.8233 14.9088C31.8242 16.1536 31.5312 17.3811 30.9683 18.4914C30.4055 19.6017 29.5886 20.5635 28.584 21.2986C27.5794 22.0338 26.4156 22.5215 25.187 22.7222C23.9585 22.9228 22.6999 22.8308 21.5137 22.4535C20.3274 22.0762 19.2469 21.4243 18.36 20.5508C17.4731 19.6773 16.8049 18.6068 16.4095 17.4264C16.0142 16.2461 15.903 14.9891 16.085 13.7576C16.2669 12.5261 16.7369 11.355 17.4566 10.3394C17.5685 10.1821 17.6863 10.0285 17.8101 9.87869C18.515 9.02189 19.3922 8.32291 20.3848 7.8271C20.9233 7.55769 21.4913 7.35177 22.0774 7.21349C23.1356 6.9628 24.234 6.93253 25.3044 7.12458C26.3748 7.31662 27.3943 7.72687 28.2993 8.3298C29.2044 8.93273 29.9757 9.71544 30.5652 10.6292C31.1548 11.543 31.55 12.5684 31.7264 13.6415C31.7922 14.0607 31.8247 14.4845 31.8233 14.9088Z" fill="#FFA2A2"/>
<path d="M34.7888 46.6578C34.6704 47.2901 34.8186 48.4455 35.0434 49.6214C35.0527 49.6727 35.063 49.724 35.0732 49.7753C35.0835 49.8266 35.0984 49.9059 35.1114 49.9702C35.215 50.4756 35.3278 50.9764 35.4378 51.4315C35.5479 51.8866 35.6467 52.2764 35.7307 52.5972C35.8575 53.0774 35.9442 53.3796 35.9442 53.3796C35.9442 53.3796 35.9554 53.6761 35.9703 54.148C35.9787 54.4203 35.988 54.7523 35.9974 55.1188C35.9974 55.2251 36.0039 55.3332 36.0067 55.4451C36.0113 55.64 36.016 55.8424 36.0207 56.0494C36.0207 56.1166 36.0207 56.1837 36.0253 56.2518C36.0253 56.4747 36.0337 56.7022 36.0375 56.9288C36.0421 57.2403 36.0458 57.5518 36.0477 57.8539C36.0477 57.9695 36.0477 58.0833 36.0477 58.1952C36.0477 58.4843 36.0477 58.7613 36.0477 59.0158C36.0375 59.7386 36.0085 60.2841 35.947 60.4417C35.9256 60.4958 35.906 60.5545 35.8873 60.6161C35.8065 60.9056 35.7478 61.2008 35.712 61.4992L35.5535 61.3696C35.2504 61.1196 34.9501 60.8641 34.6452 60.6161C34.1383 60.1915 33.6003 59.8056 33.0356 59.4616C32.9974 59.4392 32.9591 59.4168 32.92 59.3954C32.8155 59.3348 32.7092 59.2779 32.601 59.2238C32.3782 59.1115 32.1497 59.0106 31.9166 58.9216C30.8395 58.5113 29.6859 58.3621 28.5165 58.3873C28.0502 58.5654 27.7472 58.6932 27.7472 58.6932L27.1541 58.8722L27.0552 58.9021C26.4127 59.0979 25.5091 59.3758 25.1836 59.4914C24.6577 59.6779 20.091 60.6282 20.091 60.6282C19.6738 60.7421 19.2477 60.8201 18.8172 60.8613C18.0333 61.0818 17.2354 61.2488 16.4289 61.3612C14.5963 61.5955 12.7349 61.4456 10.9633 60.921C10.9104 60.9242 10.8574 60.9226 10.8048 60.9164C10.8374 60.9164 10.8691 60.9089 10.898 60.9033L10.7843 60.8697L10.6285 60.8212C10.3674 60.7392 10.1085 60.6493 9.85173 60.5517L9.696 60.4921C9.44732 60.3963 9.20393 60.2934 8.96582 60.1834L8.81008 60.1125C8.5614 59.9969 8.31801 59.8747 8.0799 59.746C7.99411 59.7013 7.90925 59.6528 7.82532 59.6071C7.57167 59.4653 7.32299 59.3167 7.07929 59.1613C7.03826 58.8097 7.01681 58.5747 7.01681 58.5747L6.65312 56.7638L6.63447 56.6705L6.37335 55.3649L6.3547 55.2717L5.78679 52.4312L5.76814 52.3379L5.50703 51.0324L5.48837 50.9391L4.913 48.1005L4.89435 48.0072L4.63323 46.7016L4.61458 46.6084L4.04387 43.7641L4.02522 43.6709L3.76411 42.37L3.74546 42.2767L3.64194 41.7638L3.48621 40.987C3.48621 40.987 2.98917 40.2764 2.42964 39.4362L2.36716 39.343C2.2077 39.107 2.04357 38.8618 1.88411 38.6212C1.83095 38.5419 1.77966 38.4636 1.72837 38.3862C1.65066 38.2687 1.57544 38.154 1.5027 38.0421L1.45234 37.9647L1.44208 37.9488C0.638233 36.7048 1.17631 36.1639 1.17631 36.1639C1.17631 36.1639 1.51389 35.707 1.94938 35.1027C1.97083 35.0719 1.99321 35.0412 2.01653 35.0095C2.20304 34.7483 2.40819 34.463 2.60962 34.1776L2.76536 33.9557C2.82411 33.8727 2.88192 33.7897 2.93788 33.7076C2.96026 33.6769 2.98171 33.6452 3.00222 33.6144C3.43212 32.9933 3.78649 32.4515 3.85923 32.2594C3.973 31.9563 4.69851 31.0602 5.42123 30.274C5.99101 29.6529 6.558 29.1009 6.81258 28.9685C7.38982 28.6635 7.62762 27.6778 7.62762 27.6778C7.62762 27.6778 8.88375 27.2377 9.05348 26.8982C9.2232 26.5588 11.6002 25.0331 11.6002 25.0331C11.6002 25.0331 12.5617 24.4139 12.9506 24.0409C13.0056 23.9921 13.0536 23.936 13.0932 23.874C13.2285 23.6315 14.1116 23.432 14.4706 23.3602C14.5639 23.3415 14.6217 23.3313 14.6217 23.3313C14.7666 23.0679 14.9498 22.8275 15.1653 22.6179C15.3118 22.4882 15.4945 22.0416 15.6484 21.6089C15.8153 21.137 15.9449 20.6828 15.9449 20.6828C16.2172 19.7662 16.76 20.0375 16.76 20.0375C16.7592 20.1627 16.7711 20.2877 16.7954 20.4105C17.022 21.5296 18.253 21.9959 18.8992 22.519C19.6126 23.0953 20.7326 24.5902 21.6157 24.8951C22.3468 25.1478 23.1945 26.1009 23.4631 26.4189L23.4836 26.4431C23.5284 26.4954 23.5507 26.5252 23.5507 26.5252C23.5507 26.5252 24.0515 26.4991 24.3565 26.4935H24.4674C24.5295 26.4873 24.5884 26.4633 24.6372 26.4245C24.9402 26.2184 25.3916 25.6141 25.5883 25.4752C25.8252 25.3045 26.0639 22.5545 26.0639 22.5545L26.0761 22.5489C26.9219 22.1525 27.8292 26.1196 27.8292 26.1196C27.8292 26.1196 29.4248 26.5952 29.561 26.9346C29.5871 27.0017 29.7074 27.1211 29.8883 27.2656C30.712 27.8952 31.5888 28.4521 32.5087 28.9302C32.5292 28.9405 32.5488 28.9507 32.5693 28.9591C32.5878 28.9691 32.6068 28.9781 32.6262 28.9862C32.6607 29.003 32.6943 29.0179 32.726 29.0319C32.7764 29.0543 32.823 29.0729 32.8659 29.0878L32.9218 29.1074C33.0555 29.1519 33.1814 29.217 33.2949 29.3004C33.3284 29.3247 33.362 29.3499 33.3946 29.3769C33.5216 29.4826 33.6384 29.6 33.7434 29.7276C33.7593 29.7462 33.7742 29.7658 33.7891 29.7844C33.86 29.873 33.9234 29.9607 33.9756 30.0418C34.0613 30.167 34.1395 30.2971 34.2097 30.4316C34.2097 30.4316 35.601 32.8087 36.0431 33.0791C36.4851 33.3495 36.7564 36.1015 36.7564 36.1015L35.2644 41.6324C35.2644 41.6324 35.1944 43.0312 35.0639 44.458C34.9911 45.2581 34.8988 46.0722 34.7888 46.6578Z" fill="#CED7E7"/>
<path d="M23.1078 26.7662C23.1078 26.7662 22.1072 27.309 21.3258 27.3603C21.2235 27.365 21.1209 27.3591 21.0199 27.3425C20.2011 27.2185 19 26.5452 19 26.5452L20.4091 25L22.1231 25.8495L22.7535 26.4361L23.1078 26.7662Z" fill="#63667E"/>
<path opacity="0.1" d="M31.7217 13.6396C31.6862 13.6898 31.646 13.7363 31.6014 13.7786C31.1109 14.2448 30.2399 14.0518 29.5713 13.9436C28.9903 13.8486 28.4227 13.6846 27.8806 13.455C27.4087 13.2536 26.8426 13.0074 26.4183 13.2964C26.2551 13.4065 26.1432 13.5827 25.9735 13.6797C25.8038 13.7767 25.5875 13.7832 25.387 13.786C24.7342 13.786 24.0814 13.7935 23.4445 13.6462C22.4942 13.4242 21.5113 12.8656 20.6077 13.234C19.9008 13.5212 19.5175 14.2905 19.3264 15.03C19.2331 15.3928 19.1641 15.7761 18.9534 16.0838C18.7426 16.3915 18.3351 16.6098 17.9882 16.4652C17.4762 16.2517 17.4007 15.3825 16.7833 15.3387C16.1054 15.2912 16.1138 15.9915 16.3115 16.4979C16.6043 17.2439 16.9876 17.9899 17.0044 18.7677C16.2757 17.4626 15.9314 15.978 16.0113 14.4855C16.0912 12.993 16.592 11.5536 17.4557 10.3338C17.606 10.2407 17.7237 10.1032 17.7923 9.94024C17.7993 9.91821 17.8049 9.89579 17.8091 9.87309C17.8604 9.61292 17.7159 9.33968 17.7075 9.06738C17.6748 8.40248 18.3948 7.93901 19.055 7.85508C19.4942 7.79913 19.9437 7.84202 20.3839 7.82803C20.6056 7.82315 20.8261 7.79375 21.0413 7.74037C21.4127 7.6291 21.7604 7.45051 22.0671 7.21349C23.1253 6.9628 24.2238 6.93253 25.2942 7.12458C26.3646 7.31662 27.384 7.72687 28.2891 8.3298C29.1941 8.93273 29.9654 9.71544 30.555 10.6292C31.1446 11.543 31.5398 12.5684 31.7161 13.6415L31.7217 13.6396Z" fill="black"/>
<path d="M31.6076 12.4487C31.5611 12.6332 31.4642 12.8011 31.3278 12.9337C30.8373 13.3999 29.9663 13.206 29.2977 13.0978C28.7166 13.0049 28.149 12.842 27.607 12.6129C27.1351 12.4124 26.5691 12.1662 26.1448 12.4553C25.9816 12.5653 25.8697 12.7416 25.7 12.8385C25.5302 12.9355 25.3139 12.942 25.1134 12.9439C24.4606 12.9486 23.8078 12.9523 23.1709 12.805C22.2207 12.5821 21.2378 12.0244 20.3341 12.3919C19.6273 12.6791 19.244 13.4494 19.0528 14.1889C18.9596 14.5516 18.8906 14.9349 18.6798 15.2417C18.469 15.5485 18.0615 15.7686 17.7146 15.624C17.2027 15.4105 17.1271 14.5414 16.5098 14.4975C15.8318 14.45 15.8402 15.1503 16.0379 15.6567C16.3848 16.5398 16.8567 17.4182 16.7019 18.3545C16.548 18.3545 16.2934 18.3489 16.1424 18.3452C16.2599 18.1447 16.036 17.906 15.8132 17.8379C15.5903 17.7698 15.3301 17.7707 15.1604 17.6085C14.9907 17.4462 14.9897 17.1954 15.0075 16.9706C15.0461 16.4903 15.1637 16.0196 15.3553 15.5774C15.4775 15.2976 15.6351 14.9946 15.5418 14.7018C15.4858 14.569 15.4184 14.4414 15.3404 14.3203C15.1464 13.9473 15.1921 13.4811 15.3581 13.0959C15.429 12.9318 15.4803 12.777 15.539 12.6296C15.6132 12.4202 15.7206 12.224 15.857 12.0487C16.0706 11.7829 16.2794 11.3828 16.0435 11.1357C15.9838 11.0732 16.1032 11.0303 16.065 10.9492C16.0582 10.9354 16.0535 10.9206 16.051 10.9054C16.04 10.8071 16.0638 10.7082 16.1181 10.6256C16.1291 10.6042 16.1413 10.5833 16.1545 10.5631C16.1652 10.5418 16.1774 10.5213 16.1909 10.5016C16.3973 10.1568 16.6718 9.85763 16.9975 9.62221C17.1999 9.4758 17.4367 9.33498 17.5169 9.09812C17.6102 8.81836 17.446 8.52088 17.4321 8.22526C17.3994 7.56036 18.1193 7.09689 18.7796 7.01296C19.4398 6.92903 20.1243 7.06798 20.7678 6.89733C21.6807 6.65673 22.3223 5.85102 23.1513 5.39873C23.6048 5.15623 24.1078 5.02059 24.6218 5.00217C25.1357 4.98374 25.6471 5.08302 26.1168 5.29242C27.0848 5.73445 27.815 6.62782 28.8258 6.96354C29.1839 7.0829 29.5719 7.13046 29.8945 7.32816C30.2675 7.55756 30.4941 7.95856 30.6881 8.35395C30.9837 8.95358 31.0434 9.556 31.2476 10.1911C31.4099 10.6946 31.6346 11.353 31.6533 11.933C31.6638 12.1063 31.6484 12.2801 31.6076 12.4487Z" fill="#896363"/>
<g opacity="0.1">
<path opacity="0.1" d="M16.1108 11.3488C16.1258 11.2891 16.1272 11.2268 16.1151 11.1665C16.103 11.1062 16.0777 11.0493 16.0409 11C16.0651 11.0727 15.9598 11.1147 16.0176 11.1753C16.0636 11.2237 16.0958 11.2836 16.1108 11.3488Z" fill="black"/>
<path opacity="0.1" d="M16.0196 11C16.0086 11.0325 16.002 11.0664 16 11.1007C16.0177 11.0709 16.042 11.0401 16.0196 11Z" fill="black"/>
<path opacity="0.1" d="M31.4074 12.8225C30.9159 13.2888 30.0459 13.0957 29.3754 12.9866C28.7948 12.8931 28.2276 12.7294 27.6866 12.4989C27.2138 12.2975 26.6486 12.0513 26.2234 12.3404C26.0611 12.4504 25.9492 12.6267 25.7786 12.7237C25.6079 12.8206 25.3925 12.8272 25.192 12.829C24.5392 12.829 23.8865 12.8374 23.2486 12.6891C22.2993 12.4672 21.3164 11.9105 20.4127 12.277C19.7059 12.5651 19.3226 13.3345 19.1314 14.074C19.0382 14.4367 18.9701 14.82 18.7584 15.1277C18.5467 15.4355 18.1392 15.6537 17.7932 15.5101C17.2813 15.2956 17.2057 14.4274 16.5884 14.3836C16.1063 14.3491 15.972 14.6941 16.0046 15.0774C16.0326 14.7846 16.1911 14.5589 16.5884 14.5869C17.2057 14.6307 17.2813 15.4998 17.7932 15.7134C18.1392 15.8579 18.5477 15.6406 18.7584 15.331C18.9692 15.0214 19.0382 14.64 19.1314 14.2782C19.3226 13.5387 19.7059 12.7684 20.4127 12.4812C21.3164 12.1138 22.2993 12.6677 23.2486 12.8934C23.8827 13.0416 24.5411 13.037 25.192 13.0323C25.3925 13.0323 25.6042 13.0267 25.7786 12.9279C25.953 12.829 26.0583 12.6546 26.2234 12.5437C26.6486 12.2555 27.2138 12.5017 27.6866 12.7022C28.2278 12.9325 28.7948 13.0966 29.3754 13.1909C30.0459 13.299 30.9159 13.4939 31.4074 13.0258C31.6741 12.7712 31.7543 12.4029 31.7366 12C31.7217 12.3199 31.6284 12.6099 31.4074 12.8225Z" fill="black"/>
<path opacity="0.1" d="M17.0061 8C17.0009 8.04644 16.999 8.09318 17.0005 8.13988C17.0098 8.33385 17.0835 8.52782 17.1068 8.71712C17.1413 8.48492 17.034 8.24246 17.0061 8Z" fill="black"/>
<path opacity="0.1" d="M15.328 15.0286C15.3357 15.0565 15.3416 15.0848 15.3457 15.1135C15.3608 15.0173 15.3548 14.9189 15.328 14.8253C15.2724 14.6921 15.205 14.5641 15.1266 14.443C15.0565 14.305 15.015 14.1544 15.0044 14C14.9855 14.2228 15.0277 14.4466 15.1266 14.6472C15.2052 14.7679 15.2726 14.8956 15.328 15.0286Z" fill="black"/>
<path opacity="0.1" d="M16.5623 18.2788L16.0168 18.2704C16.0295 18.3034 16.0346 18.3388 16.0317 18.374C16.0288 18.4092 16.018 18.4433 16 18.4737C16.1539 18.4737 16.4094 18.4793 16.5595 18.483C16.5856 18.3234 16.5947 18.1615 16.5866 18C16.5845 18.0934 16.5764 18.1865 16.5623 18.2788Z" fill="black"/>
<path opacity="0.1" d="M15.8071 17.622C15.5842 17.5549 15.325 17.5539 15.159 17.3907C15.0613 17.2838 15.0062 17.1448 15.0042 17C14.9902 17.2145 15.0042 17.4457 15.159 17.595C15.325 17.7581 15.5842 17.7591 15.8071 17.8262C15.8796 17.8473 15.9471 17.883 16.0053 17.9311C16.0635 17.9792 16.1112 18.0387 16.1456 18.106C16.2398 17.9129 16.0234 17.6863 15.8071 17.622Z" fill="black"/>
</g>
<path opacity="0.1" d="M32.2497 59.5724C32.1453 59.5118 32.0389 59.4549 31.9308 59.4008C31.7079 59.2885 31.4795 59.1876 31.2463 59.0987C30.1692 58.6884 29.0157 58.5392 27.8462 58.5643C27.38 58.7425 27.0769 58.8702 27.0769 58.8702L26.4838 59.0493L26.385 59.0791C26.3784 59.0138 26.371 58.9486 26.3644 58.8823C26.3579 58.8161 26.3504 58.7527 26.343 58.6874C26.1341 56.7095 25.97 54.6775 25.97 54.6775V52.9225V52.7182L25.9588 47.5473L25.8655 45.8426L25.8217 45.0882L25.8133 44.9446L25.7965 44.6499L25.7872 44.4746C25.7666 44.419 25.7492 44.3624 25.735 44.3049C25.7284 44.2816 25.7219 44.2554 25.7163 44.2284C25.693 44.1351 25.6678 44.0148 25.6417 43.8843C25.4711 43.0264 25.2575 41.58 25.2445 41.2862C25.2277 40.8946 24.8882 38.552 24.8882 38.552C24.8537 37.2623 23.7692 34.834 23.4959 34.3761C23.2227 33.9182 22.9178 31.1672 23.0203 31.019C23.0735 30.9397 23.108 30.4706 23.1295 30.0379C23.1295 29.9885 23.1341 29.94 23.136 29.8924C23.15 29.5539 23.1565 29.2714 23.1565 29.2714L24.2233 29.0606L24.5096 29.0047L24.532 29L24.5413 29.0187C24.5721 29.0755 24.6681 29.2574 24.781 29.4961C24.794 29.5213 24.8062 29.5483 24.8192 29.5754C24.8248 29.5884 24.8313 29.6015 24.8379 29.6145C25.0468 30.0715 25.2883 30.673 25.278 31.019C25.2612 31.6307 25.9578 33.1078 25.9578 33.1078C26.025 33.4473 27.5021 36.825 27.5021 36.825C27.5021 36.825 28.7079 40.1355 28.6398 40.6791C28.5718 41.2228 29.2171 44.8215 29.2171 44.8215L29.8792 48.5227C30.2009 49.252 30.6252 50.9324 30.6252 50.9324L30.7865 51.8855L30.8173 52.0673L31.2472 54.6104L31.458 55.8562C31.458 55.8562 31.5466 56.5184 31.6809 57.2551C31.692 57.3213 31.7051 57.3884 31.7182 57.4556C31.8009 57.9405 31.9184 58.4189 32.0697 58.887C32.1448 59.1113 32.2049 59.3402 32.2497 59.5724Z" fill="black"/>
<path d="M33.2625 59.6405C33.2242 59.6181 33.186 59.5957 33.1468 59.5743C33.0424 59.5136 32.9361 59.4568 32.8279 59.4027C32.605 59.2903 32.3766 59.1895 32.1434 59.1005C31.0663 58.6902 29.9128 58.541 28.7434 58.5662C28.2771 58.7443 27.974 58.8721 27.974 58.8721L27.3809 59.0511C27.3735 58.9858 27.3669 58.9205 27.3595 58.8543C27.352 58.7881 27.3464 58.735 27.3408 58.6753C27.1319 56.702 26.9678 54.6794 26.9678 54.6794V52.9075V52.7033L26.9566 47.5454L26.8634 45.9172L26.8447 45.5796L26.8317 45.3512L26.8149 45.049L26.7981 44.7422L26.786 44.5212V44.4727C26.786 44.468 26.786 44.4624 26.7794 44.4569C26.7617 44.4065 26.7403 44.33 26.717 44.233L26.7058 44.1864C26.7011 44.165 26.6955 44.1417 26.6909 44.1183C26.5155 43.3229 26.2582 41.6079 26.2442 41.2862C26.2274 40.8945 25.8879 38.552 25.8879 38.552C25.8534 37.2623 24.7689 34.834 24.4957 34.3761C24.2224 33.9182 23.9184 31.1672 24.0201 31.0189C24.0788 30.9257 24.1133 30.3596 24.1357 29.8924C24.1357 29.8551 24.1357 29.8188 24.1357 29.7843C24.1478 29.4961 24.1525 29.2714 24.1525 29.2714L25.1447 29.0755L25.3965 29.0261L25.4357 29.0186L25.5289 29C25.5289 29 25.6511 29.2257 25.7975 29.5362L25.8161 29.5754C26.0297 30.0361 26.2824 30.6627 26.2749 31.0189C26.2582 31.6307 26.9548 33.1078 26.9548 33.1078C27.0219 33.4473 28.499 36.8249 28.499 36.8249C28.499 36.8249 29.7048 40.1355 29.6367 40.6791C29.5687 41.2228 30.214 44.8215 30.214 44.8215L30.8761 48.5227C31.1978 49.252 31.6221 50.9324 31.6221 50.9324L31.7723 51.8202L31.803 52.0002L32.1415 54.007L32.4539 55.8562C32.4539 55.8562 32.5472 56.5155 32.6759 57.255C32.688 57.3222 32.7001 57.3893 32.7132 57.4574C32.7958 57.9445 32.9133 58.4251 33.0648 58.8954C33.1474 59.139 33.2135 59.3879 33.2625 59.6405Z" fill="#63667E"/>
<path d="M32.1979 11.6329C32.1979 11.6329 31.8417 12.0917 31.52 12.0917C31.1982 12.0917 29.9458 12.0404 29.2931 11.8371C28.6403 11.6338 25.4398 11.48 25.4398 11.48C25.4398 11.48 20.9076 11.4967 20.7547 11.3438C20.6018 11.1909 17.9366 10.3758 17.6652 10.4271C17.6083 10.4383 17.4694 10.4626 17.2838 10.4933L17.0712 10.5278C16.7494 10.5791 16.3475 10.6388 15.9801 10.6826C15.526 10.7358 15.1268 10.7628 15 10.7162V10.3255C15 10.3255 15.526 9.5608 15.5595 9.34165C15.5931 9.1225 16.0351 5.94534 17.1896 4.80858C17.6666 3.89684 18.4384 3.17365 19.3792 2.75699C20.9412 2.07717 22.5032 1.50086 22.5032 1.50086L22.7765 1.46169L23.6577 1.33114C23.6845 1.30447 23.7135 1.28013 23.7444 1.2584C23.9888 1.07189 24.7292 0.666235 25.6944 1.53816L25.865 1.81046C25.865 1.81046 28.8352 2.50614 30.2097 4.93354C31.5843 7.36094 31.6533 9.73798 31.755 10.8244C31.755 10.8244 31.6869 11.1303 31.823 11.2487C31.8723 11.2922 31.9193 11.3383 31.9639 11.3867C31.976 11.3988 31.9881 11.411 31.9993 11.424C32.0385 11.4632 32.0748 11.5042 32.1047 11.5378C32.1082 11.5404 32.1114 11.5435 32.114 11.5471C32.1213 11.5559 32.1291 11.5643 32.1373 11.5723L32.1979 11.6329Z" fill="#FED253"/>
<path opacity="0.05" d="M31.9747 12.2043C31.9747 12.2043 31.6185 12.6631 31.2968 12.6631C30.975 12.6631 29.7226 12.6118 29.0699 12.4085C28.4171 12.2052 25.2166 12.0513 25.2166 12.0513C25.2166 12.0513 20.6845 12.0681 20.5315 11.9152C20.3786 11.7622 17.7134 10.9472 17.442 10.9985C17.3851 11.0097 17.2462 11.0339 17.0606 11.0647L17.0121 10.7663L17 10.6926C17 10.6926 22.1439 9.58944 25.5728 10.1676C29.0018 10.7458 31.5318 11.3892 31.5318 11.3892C31.5318 11.3892 31.4637 11.6951 31.5998 11.8135C31.6491 11.8571 31.6961 11.9031 31.7407 11.9516C31.7528 11.9637 31.7649 11.9758 31.7761 11.9889C31.8153 12.028 31.8516 12.0691 31.8815 12.1026C31.885 12.1052 31.8882 12.1084 31.8908 12.112C31.8981 12.1208 31.9059 12.1292 31.9141 12.1371L31.9747 12.2043Z" fill="black"/>
<path opacity="0.1" d="M31.8952 12.984C31.2601 13.0334 30.0898 12.8786 29.5778 12.8031C29.4323 12.7816 29.2896 12.7555 29.146 12.7238C28.5968 12.6044 26.9079 12.2697 25.8821 12.4245C24.6428 12.611 21.1458 12.2715 21.1458 12.2715C21.1458 12.2715 18.9897 11.8304 18.1234 11.4742C17.8054 11.3427 17.2739 11.3017 16.7451 11.367C16.6103 11.3838 16.4764 11.4078 16.3441 11.4388C15.6223 11.6094 15.0134 11.9983 15.1188 12.6613C15.0784 12.613 15.041 12.5622 15.0068 12.5093C14.9612 11.9032 15.1495 11.5423 15.4106 11.3297L15.4722 11.3045C15.7912 11.2138 16.1158 11.1444 16.4439 11.0965C16.4952 11.0881 16.5483 11.0807 16.6024 11.0741C17.5303 10.9492 18.8722 10.9212 20.0043 11.491C20.0043 11.491 21.0562 11.9843 21.7696 11.9843C22.483 11.9843 28.2881 12.0356 29.6468 12.4254C29.9173 12.5035 30.1931 12.5618 30.4721 12.5998C30.9675 12.6636 31.4708 12.6162 31.9455 12.4608C31.9552 12.6368 31.9383 12.8131 31.8952 12.984Z" fill="black"/>
<path opacity="0.1" d="M32.1979 12.4467C32.1979 12.4467 31.8417 12.9056 31.52 12.9056C31.1982 12.9056 29.9458 12.8543 29.2931 12.651C28.6403 12.4477 25.4398 12.2938 25.4398 12.2938C25.4398 12.2938 20.9076 12.3106 20.7547 12.1577C20.6018 12.0047 17.9366 11.1897 17.6652 11.241C17.6083 11.2522 17.4694 11.2764 17.2838 11.3072L17.0712 11.3417C16.7019 11.3398 16.3343 11.392 15.9801 11.4965C15.526 11.5496 15.1268 11.5767 15 11.5301V11.4527C15.0978 11.3959 15.1997 11.3467 15.3049 11.3053C15.9342 11.1291 16.5822 11.0283 17.2353 11.005C18.0494 10.9752 19.0015 11.0703 19.838 11.4918C19.838 11.4918 20.8899 11.9851 21.6033 11.9851C22.3167 11.9851 28.1218 12.0355 29.4805 12.4262C29.7511 12.5036 30.0269 12.5616 30.3058 12.5997C30.9177 12.6768 31.5391 12.5876 32.1047 12.3414C32.1082 12.344 32.1114 12.3471 32.114 12.3507C32.1213 12.3595 32.1291 12.3679 32.1373 12.3759L32.1979 12.4467Z" fill="black"/>
<path d="M14.4183 12.7485C14.4183 12.7485 13.2806 11.8822 14.7577 11.305C14.7577 11.305 17.3381 10.5076 19.2908 11.4915C19.2908 11.4915 20.3427 11.9829 21.0561 11.9829C21.7695 11.9829 27.5746 12.0342 28.9333 12.4249C29.2039 12.5025 29.4797 12.5604 29.7586 12.5984C30.4815 12.686 31.2137 12.5469 31.854 12.2002C31.9473 12.1489 32.0312 12.1228 32.0564 12.1526C32.1412 12.2552 32.0741 12.8493 31.3271 12.9677C30.7443 13.0609 29.4201 12.8847 28.8634 12.8036C28.7188 12.7821 28.5752 12.7551 28.4325 12.7243C27.8833 12.6049 26.1944 12.2701 25.164 12.4249C23.9256 12.6115 20.4276 12.272 20.4276 12.272C20.4276 12.272 18.2725 11.8309 17.4062 11.4737C16.5398 11.1166 14.0956 11.4243 14.4183 12.7485Z" fill="#FED253"/>
<path opacity="0.1" d="M24.7802 3.6851C24.6869 3.55081 23.4886 2.59123 23 2.20329L23.8812 2.07274C23.908 2.04607 23.937 2.02174 23.968 2C24.6086 2.67236 24.7802 3.6851 24.7802 3.6851Z" fill="black"/>
<path opacity="0.1" d="M20.3907 8.11843L20 8.69568L21.4939 8.64532L21.5275 8L20.3907 8.11843Z" fill="black"/>
<path opacity="0.1" d="M30 9L30.1697 9.52595L31.1209 9.67888L30.7134 9.05036L30 9Z" fill="black"/>
<path opacity="0.1" d="M13 27C13.1016 27.1697 16.4457 31.5694 17.3289 31.4473C18.212 31.3251 13 27 13 27Z" fill="black"/>
<path opacity="0.1" d="M24 31C24 31 24.815 31.7815 24.6957 32.0864C24.5763 32.3914 24 31 24 31Z" fill="black"/>
<path opacity="0.1" d="M15.4479 36C15.4479 36 14.7345 39.3441 15.1084 39.4504C15.4824 39.5567 15.4479 36 15.4479 36Z" fill="black"/>
<path opacity="0.1" d="M25 49C25.1184 49.3394 26.1032 51.5468 26.3242 51.6652C26.5452 51.7837 25 49 25 49Z" fill="black"/>
<path opacity="0.1" d="M35.7233 40C35.6888 40.1184 34.8402 40.8151 35.0268 41.0696C35.2133 41.3242 35.7233 40 35.7233 40Z" fill="black"/>
<path opacity="0.1" d="M29.0595 46C29.0427 46.0858 28.873 47.8651 29.1957 48.2073C29.5183 48.5496 29.0595 46 29.0595 46Z" fill="black"/>
<path opacity="0.1" d="M38.4568 55.3638C38.2106 55.5009 37.956 55.6333 37.6968 55.7602C37.417 55.8963 37.1372 56.0259 36.8519 56.1481C36.7381 56.1975 36.6243 56.246 36.5115 56.2926C36.3399 56.3635 36.1702 56.4316 36.0023 56.4969C35.4922 56.6964 35.0008 56.8699 34.5634 57.0163C34.3937 57.0732 34.2314 57.1254 34.0804 57.1739C33.3194 57.4154 32.814 57.5469 32.814 57.5469C32.6985 57.5222 32.5804 57.5125 32.4624 57.518C32.4298 57.518 32.3962 57.518 32.3617 57.518C32.2038 57.5295 32.0466 57.5494 31.8908 57.5777C30.8491 57.7642 29.3776 58.2874 28.4907 58.6296C28.0244 58.8077 27.7214 58.9355 27.7214 58.9355L27.1283 59.1145L27.0294 59.1444C26.3869 59.3402 25.4833 59.6181 25.1578 59.7337C24.6319 59.9202 20.0652 60.8705 20.0652 60.8705C19.648 60.9844 19.2219 61.0624 18.7914 61.1036C17.7306 61.201 16.6643 61.2253 15.6002 61.1764C14.5315 61.2454 12.8026 61.0104 11.7964 60.8518L11.636 60.8267C11.2471 60.7633 11 60.7176 11 60.7176L11.1306 60.5376L13.8079 56.8438L13.8237 56.8214L16.3183 53.3813L16.4115 53.2563L16.6381 52.9439C16.6381 52.9439 16.7743 52.7574 17.2984 52.7453C17.3599 52.7453 17.4271 52.7453 17.5007 52.7453C17.941 52.7807 18.3753 52.8693 18.7942 53.0092L18.9154 53.0455C20.7217 53.5631 23.5138 53.4335 23.5138 53.4335C23.5138 53.4335 25.2511 53.1537 26.6163 52.9859L26.718 52.9728C27.1641 52.9098 27.6133 52.8709 28.0636 52.8562C28.8954 52.873 30.6952 52.4319 30.6952 52.4319C31.0822 52.3489 31.2454 52.279 31.4637 52.1233C31.4926 52.1027 31.5233 52.0804 31.5569 52.0561C31.6502 51.9862 31.7574 51.9004 31.8954 51.7941C32.1472 51.601 32.5006 51.339 33.0564 50.9716C33.1049 50.9399 33.1562 50.9082 33.2112 50.8783C33.2663 50.8485 33.3362 50.8084 33.4033 50.7748C33.9416 50.5199 34.5091 50.332 35.0931 50.2153C35.5776 50.1111 36.0691 50.0435 36.5637 50.0129H36.6374C38.0362 49.9383 39.4648 50.178 40.3004 50.9641C40.4465 51.1023 40.5738 51.259 40.679 51.4304C40.7301 51.5118 40.7756 51.5965 40.8152 51.684C40.8914 51.851 40.948 52.0263 40.984 52.2063C40.9908 52.2398 40.9964 52.2734 41.0007 52.307C41.0007 52.3172 41.0007 52.3266 41.0007 52.3368C41.0007 52.3639 41.0063 52.3909 41.0082 52.4179C41.0828 53.5342 39.9246 54.5432 38.4568 55.3638Z" fill="black"/>
<path d="M11 60.7248C11 60.7248 14.0214 61.2844 15.6002 61.1827C15.6002 61.1827 18.5032 61.3357 20.0652 60.8778C20.0652 60.8778 24.6347 59.9266 25.1578 59.7401C25.681 59.5536 27.7214 58.9418 27.7214 58.9418C27.7214 58.9418 31.694 57.2782 32.814 57.5495C32.814 57.5495 41.6078 55.2751 40.9793 52.2024C40.3508 49.1297 34.8003 49.8263 33.0527 50.9798C31.3051 52.1334 31.5606 52.2537 30.6934 52.4402C30.6934 52.4402 28.8936 52.8813 28.0618 52.8645C27.2299 52.8477 23.5119 53.4417 23.5119 53.4417C23.5119 53.4417 20.5921 53.5779 18.7932 53.0174C16.9944 52.457 16.6372 52.9493 16.6372 52.9493L11 60.7248Z" fill="#FFA2A2"/>
<path opacity="0.1" d="M17.749 52.8664C17.7494 52.8702 17.7494 52.8739 17.749 52.8776C17.7425 52.9469 17.7245 53.0147 17.6958 53.0781C17.3377 53.9566 15.3048 56.3262 15.3048 56.3262C15.2121 56.6077 15.1003 56.8825 14.97 57.1487C14.6899 57.7177 14.3673 58.2648 14.0048 58.7853C13.4676 59.564 12.8811 60.3075 12.2489 61.0112H12.2442C12.1637 61.0709 12.08 61.126 11.9933 61.1763C11.7742 61.3069 11.445 61.4682 11.1345 61.4878C11.0816 61.4909 11.0285 61.4894 10.9759 61.4831C11.0086 61.4831 11.0403 61.4757 11.0692 61.4701L10.9554 61.4365L10.7997 61.388C10.5386 61.3059 10.2796 61.2161 10.0229 61.1185L9.86715 61.0588C9.61848 60.9631 9.37508 60.8602 9.13697 60.7501L8.98124 60.6793C8.73256 60.5636 8.48917 60.4415 8.25106 60.3128C8.16527 60.268 8.08041 60.2195 7.99648 60.1738C7.74283 60.0321 7.49415 59.8835 7.25045 59.7281C6.99182 59.5633 6.73879 59.3914 6.49136 59.2124C6.30485 58.8664 6.15098 58.5596 6.06705 58.3945C5.91412 58.0877 5.90106 57.6485 5.91971 57.3305C5.91971 57.2979 5.91971 57.2671 5.92531 57.2373C5.94116 57.0377 5.96541 56.9006 5.96541 56.9006C5.82723 56.7159 5.70256 56.5214 5.59239 56.3187C5.52909 56.2181 5.4931 56.1027 5.48795 55.9839C5.49216 55.9363 5.48774 55.8883 5.47489 55.8422C5.40308 55.5475 5.09441 55.0411 4.80906 54.7231C4.59644 54.4891 4.58338 53.6143 4.6039 52.9942C4.61602 52.6212 4.63933 52.347 4.63933 52.347C4.59755 52.32 4.56627 52.2796 4.55074 52.2323C4.47576 52.0282 4.42505 51.816 4.39967 51.6C4.39967 51.5693 4.39128 51.5385 4.38662 51.5068C4.32693 51.0788 4.29989 50.6489 4.29989 50.6489C3.60981 50.1462 3.28155 49.362 3.12862 48.6625L3.10904 48.5693C3.02504 48.1394 2.98939 47.7015 3.00273 47.2637C3.00273 47.2218 3.00273 47.1901 3.00273 47.1705C3.00273 47.1509 3.00273 47.1472 3.00273 47.1472C3.00273 47.1472 3.09411 45.1264 3.34963 44.3374C3.35989 44.3039 3.37108 44.2731 3.38227 44.2442C3.40109 44.1946 3.4255 44.1474 3.45501 44.1034C3.54826 43.9793 3.61447 43.7453 3.66949 43.4683C3.70773 43.2762 3.73943 43.0626 3.76275 42.85C3.78419 42.6728 3.80098 42.4966 3.81404 42.3334C3.8504 41.897 3.86159 41.5566 3.86159 41.5566L3.68908 40.7061C3.64152 40.4739 3.60515 40.2398 3.57997 40.0058C3.57997 39.975 3.57251 39.9442 3.56878 39.9125C3.52516 39.4803 3.51737 39.0452 3.54546 38.6116C3.54546 38.5799 3.54546 38.5492 3.55106 38.5184C3.62387 37.5309 3.88202 36.566 4.31201 35.6741L4.35864 35.5809C4.42081 35.4565 4.48609 35.3344 4.55447 35.2144C4.6039 35.1258 4.65612 35.0381 4.71021 34.9514C4.85359 34.7192 5.00923 34.4947 5.17648 34.2791C5.20072 34.2473 5.2259 34.2166 5.25108 34.1858C5.54207 33.825 5.86545 33.4917 6.21719 33.1898C7.15906 32.3804 8.02352 32.0288 8.80872 32.0018C12.2423 31.8806 14.168 37.9533 14.4795 39.0173C14.5093 39.1199 14.5243 39.1758 14.5243 39.1758C14.5243 39.1758 15.9156 40.5681 15.5081 41.1789C15.4291 41.3134 15.381 41.4637 15.3673 41.6191C15.2554 42.4406 15.5762 43.7938 15.5762 43.7938C15.5762 43.7938 15.6899 44.1668 16.0219 45.0601L16.1198 45.3213C16.3278 45.8808 16.3763 46.8198 16.2569 47.661C16.1422 48.4667 15.8727 49.1792 15.4409 49.362C14.5578 49.735 14.7956 50.108 14.9989 50.4148C15.1197 50.6347 15.2205 50.8651 15.3001 51.103C15.4279 51.4471 15.5463 51.8089 15.5911 51.9498C15.6041 51.9889 15.6107 52.0104 15.6107 52.0104C15.7344 51.9625 15.8629 51.9281 15.9939 51.9078C16.1609 51.8845 16.3259 51.9013 16.3576 52.0439C16.3744 52.1204 16.4705 52.2109 16.6057 52.3013C17.0067 52.5774 17.749 52.8664 17.749 52.8664Z" fill="black"/>
<path d="M16.748 52.8666C16.7423 52.9375 16.7243 53.0069 16.6948 53.0717C16.3386 53.9511 14.3038 56.3263 14.3038 56.3263C14.2107 56.6076 14.0989 56.8824 13.969 57.1488C13.744 57.6083 13.4895 58.0528 13.2071 58.4795C12.6226 59.3613 11.9749 60.1997 11.2693 60.9881L11.2479 61.0114C11.2479 61.0114 11.1658 61.0738 11.0353 61.154C10.802 61.3029 10.5449 61.4108 10.2752 61.473L10.1615 61.4394L10.0057 61.3909C9.74462 61.3088 9.48568 61.219 9.22892 61.1214L9.07319 61.0617C8.82451 60.966 8.58112 60.8631 8.34301 60.7531L8.18728 60.6822C7.9386 60.5665 7.69521 60.4444 7.4571 60.3157C7.3713 60.2709 7.28644 60.2224 7.20251 60.1767C6.94886 60.035 6.70019 59.8864 6.45648 59.731C6.19786 59.5662 5.94483 59.3943 5.69739 59.2153C5.583 59.1332 5.46985 59.049 5.35795 58.9626C5.23206 58.7238 5.13134 58.5224 5.06886 58.3975C4.91593 58.0906 4.90287 57.6514 4.92152 57.3334C4.92152 57.3008 4.92152 57.27 4.92712 57.2402C4.94297 57.0406 4.96722 56.9035 4.96722 56.9035C4.96722 56.9035 4.89168 56.8019 4.80029 56.6639C4.749 56.5874 4.69398 56.4988 4.64456 56.4111C4.5513 56.247 4.47856 56.081 4.49255 55.9868C4.49444 55.9707 4.49444 55.9545 4.49255 55.9383C4.49115 55.9069 4.48646 55.8756 4.47857 55.8451C4.40676 55.5504 4.09716 55.044 3.8118 54.726C3.59918 54.492 3.58612 53.6173 3.60571 52.9971C3.60571 52.9654 3.60571 52.9346 3.60571 52.9039C3.61876 52.5821 3.63835 52.3499 3.63835 52.3499C3.53297 52.3042 3.45184 51.9657 3.39962 51.6039L3.38563 51.5106C3.32595 51.0826 3.2989 50.6527 3.2989 50.6527C2.60882 50.1501 2.28057 49.3658 2.12856 48.6664C2.02267 48.1765 1.98191 47.6749 2.00733 47.1743C2.00733 47.1594 2.00733 47.151 2.00733 47.151C2.00733 47.151 2.08753 45.12 2.34305 44.3301C2.35331 44.2965 2.3645 44.2657 2.37569 44.2368C2.39806 44.1884 2.42591 44.1427 2.45868 44.1007C2.60043 43.903 2.69462 43.4274 2.75616 42.9406L2.76735 42.8473C2.84475 42.1946 2.8662 41.5539 2.8662 41.5539L2.69275 40.7034C2.6455 40.4703 2.60913 40.2369 2.58364 40.0031C2.57898 39.9723 2.57618 39.9406 2.57245 39.9098C2.52885 39.4776 2.52105 39.0425 2.54914 38.609C2.54914 38.5772 2.54914 38.5465 2.55567 38.5157C2.62804 37.5282 2.88621 36.5632 3.31662 35.6714C3.33154 35.6397 3.34646 35.609 3.36325 35.5782C3.48315 35.336 3.6164 35.1006 3.76237 34.8732C3.81273 34.7939 3.86402 34.7156 3.91811 34.6382C4.00297 34.5151 4.09156 34.3939 4.18388 34.2764L4.25849 34.1831C4.54698 33.8237 4.86754 33.4913 5.2162 33.19C6.242 32.3106 7.17454 31.9711 8.01382 32.0019C11.3197 32.1203 13.1754 37.9748 13.4804 39.0174C13.5102 39.12 13.5251 39.1759 13.5251 39.1759C13.5251 39.1759 14.9174 40.5682 14.5099 41.179C14.4309 41.3135 14.3828 41.4638 14.3691 41.6192C14.2562 42.4408 14.578 43.7939 14.578 43.7939C14.578 43.7939 14.6917 44.1669 15.0237 45.0603C15.0536 45.1433 15.0862 45.23 15.117 45.3214C15.3249 45.8809 15.3734 46.82 15.2541 47.6611C15.1394 48.4678 14.8708 49.1793 14.4381 49.3621C13.5559 49.7351 13.7928 50.1081 13.997 50.4149C14.1178 50.6348 14.2186 50.8652 14.2982 51.1031C14.4595 51.5424 14.6078 52.0105 14.6078 52.0105C14.6688 51.9869 14.7311 51.9667 14.7943 51.9499C14.9241 51.9072 15.0614 51.8929 15.1972 51.9079C15.2347 51.9108 15.2704 51.9256 15.2991 51.95C15.3277 51.9745 15.3479 52.0074 15.3566 52.0441C15.3818 52.156 15.5749 52.2949 15.8089 52.4264C16.1128 52.5918 16.4264 52.7388 16.748 52.8666Z" fill="#CED7E7"/>
<path opacity="0.1" d="M5 44.096C5.32266 44.0792 8.78611 42.7382 9.49951 43.1961C10.2129 43.6539 14.6285 46.625 14.6285 46.625C14.6285 46.625 11.8616 43.0096 9.45101 42.1609C7.0404 41.3123 5 44.096 5 44.096Z" fill="black"/>
<path opacity="0.1" d="M10 49C10 49 13.4635 49.6957 13.9894 50.1713L10 49Z" fill="black"/>
<path opacity="0.1" d="M9.21059 54C9.16023 54.0513 7.90504 56.8685 8.00575 56.8685C8.10646 56.8685 9.17702 55.1899 9.17702 55.1899L9.21059 54Z" fill="black"/>
<path opacity="0.1" d="M11.9095 51C11.9095 51 10.8912 51.3572 11.0096 51.3907C11.128 51.4243 11.875 51.1529 11.9095 51Z" fill="black"/>
<path opacity="0.1" d="M10 55C10.1697 55.3562 10.7125 56.4258 10.8318 56.2561C10.9512 56.0864 10 55 10 55Z" fill="black"/>
<path opacity="0.1" d="M22.9902 27.4152L22.8447 27.6222C22.8447 27.6222 21.6893 26.8081 21.2146 26.4006C20.74 25.9931 19.6191 27.86 18.736 28.3692C17.8528 28.8783 16.3598 29.0145 16.3598 29.0145C16.3598 29.0145 15.2054 27.86 15.2408 27.5224C15.2762 27.1848 14.6981 27.0813 14.6636 26.8435C14.6291 26.6057 14.4258 25.9268 14.1544 25.5874C14.0108 25.4083 13.9903 24.8479 14.0033 24.3602C14.0966 24.3415 14.1544 24.3313 14.1544 24.3313C14.2993 24.0679 14.4826 23.8275 14.6981 23.6179C15.0039 23.3465 15.4786 21.6828 15.4786 21.6828C15.75 20.7662 16.2927 21.0375 16.2927 21.0375C16.2927 22.4298 17.7195 22.939 18.432 23.5162C19.1444 24.0935 20.2653 25.5874 21.1484 25.8933C21.873 26.1404 22.7207 27.0963 22.9902 27.4152Z" fill="black"/>
<path d="M22.9949 26.4149L22.8494 26.6228C22.8494 26.6228 21.6893 25.8106 21.2146 25.4003C20.74 24.99 19.6191 26.8597 18.736 27.3689C17.8528 27.878 16.3598 28.0151 16.3598 28.0151C16.3598 28.0151 15.2054 26.8597 15.2408 26.523C15.2762 26.1864 14.6981 26.082 14.6636 25.8432C14.6291 25.6045 14.4258 24.9265 14.1544 24.5871C14.0108 24.408 13.9903 23.8476 14.0033 23.3599L14.1544 23.3319C14.2993 23.0685 14.4826 22.8281 14.6981 22.6185C15.0039 22.3462 15.4786 20.6835 15.4786 20.6835C15.75 19.7668 16.2927 20.0372 16.2927 20.0372C16.2927 21.4295 17.7195 21.9396 18.432 22.5169C19.1444 23.0941 20.2653 24.5871 21.1484 24.893C21.8777 25.1438 22.7254 26.0959 22.9949 26.4149Z" fill="#CED7E7"/>
<path opacity="0.1" d="M23.0879 27.1996C23.0879 27.1996 22.0873 27.7423 21.3059 27.7936C21.2036 27.7984 21.1011 27.7924 21 27.7759C21 27.7759 21.8626 27.1315 22.6636 27L23.0879 27.1996Z" fill="black"/>
<path opacity="0.1" d="M25.6786 29.6453C25.6786 29.6453 24.4168 29.1539 24 29.8934C24.014 29.5539 24.0196 29.2723 24.0196 29.2723L25.3951 29C25.3951 29 25.5275 29.2453 25.6823 29.5754C25.6786 29.6192 25.6786 29.6453 25.6786 29.6453Z" fill="black"/>
<path d="M21 27.8355C21 27.8355 22.5116 26.9281 23.2381 27.0046C24 27.0838 25.4762 27.1398 25.4762 27.1398C25.4762 27.1398 24.967 28.2943 25.0351 28.5321C25.1032 28.7699 25.12 29.9244 25.12 29.9244C25.12 29.9244 23.5925 29.3303 23.3379 30.4335C23.3379 30.4335 22.5061 29.1942 21.9456 28.8202C21.5737 28.5515 21.2534 28.2179 21 27.8355Z" fill="#63667E"/>
<path opacity="0.1" d="M29.585 28.6031C29.1439 28.6031 27.5819 27.6174 27.2424 26.973C26.903 26.3286 26.4274 27.0401 25.9863 27.2789C25.7065 27.4318 24.5978 27.1119 24 26.8797C24.3031 26.6736 24.9745 26.0936 25.1713 25.9546C25.4081 25.784 25.6469 23.0339 25.6469 23.0339C26.4955 22.5928 27.4122 26.599 27.4122 26.599C27.4122 26.599 29.0087 27.0746 29.1439 27.4141C29.17 27.4812 29.2903 27.6006 29.4712 27.7451C29.6577 28.2151 29.7603 28.6031 29.585 28.6031Z" fill="black"/>
<path d="M29.3649 28.6003C28.9238 28.6003 27.3618 27.6155 27.0224 26.9711C26.6829 26.3267 26.2073 27.0382 25.7662 27.276C25.4865 27.429 24.5978 27.1334 24 26.903C24.3031 26.6979 24.7544 26.0936 24.9512 25.9537C25.1881 25.784 25.4268 23.0339 25.4268 23.0339C26.2754 22.5928 27.1921 26.599 27.1921 26.599C27.1921 26.599 28.7886 27.0746 28.9238 27.4141C28.9499 27.4812 29.0702 27.6006 29.2511 27.7451C29.4376 28.2123 29.5402 28.6003 29.3649 28.6003Z" fill="#CED7E7"/>
<path d="M36.0746 58.4963L50.8377 46.1867C50.985 46.0623 51.1727 45.9959 51.3655 46.0002L56.8731 46.1447C56.8731 46.1447 57.2545 46.4245 56.695 47.0362L42.7684 58.4645C42.6179 58.5876 42.4311 58.6577 42.2368 58.6641L36.2145 58.8637C36.1712 58.865 36.1286 58.8529 36.0926 58.8289C36.0566 58.8049 36.029 58.7703 36.0136 58.7298C35.9982 58.6894 35.9958 58.6451 36.0067 58.6033C36.0177 58.5614 36.0414 58.524 36.0746 58.4963Z" fill="#306B34"/>
<path d="M43 56.351C43 56.351 46.2247 60.9689 49.8075 56.6736C53.3903 52.3783 52.3543 50.1216 51.2679 50.0022C50.1815 49.8829 44.0687 54.5857 43 56.351Z" fill="#FFA2A2"/>
<path opacity="0.1" d="M65 5.09821C65 5.09821 69.1563 -2.96826 74.0689 1.1918C74.0689 1.1918 75.1414 1.58254 75.0602 2.71651C75.0602 2.71651 74.6471 2.4899 74.3189 3.35623C74.1983 3.66363 74.0418 3.95568 73.8526 4.22629C73.6011 4.59186 73.2379 4.86606 72.8175 5.00776C72.8175 5.00776 70.613 6.65929 66.5294 5.38544C66.5294 5.38544 65.3749 5.55143 65.1884 5.40782L66.5303 4.42679C66.5303 4.42679 67.212 5.43859 68.2089 5.55423C68.2089 5.55423 66.5303 4.50046 66.7224 4.27198C66.7616 4.22536 67.4572 3.78427 67.4572 3.78427C67.4572 3.78427 68.65 5.53837 70.1961 5.668C70.1961 5.668 68.0298 4.68044 67.7193 3.61641L68.8076 3.00932C68.8076 3.00932 69.977 4.92569 71.7329 5.14018C71.7329 5.14018 69.5042 4.02952 69.0547 2.89276L70.2064 2.44327C70.2064 2.44327 71.3842 4.2897 72.8455 4.45849C72.8455 4.45849 70.4003 2.91514 70.4768 2.35748C70.4768 2.35748 71.5595 2.00871 71.8915 2.0544C71.8915 2.0544 72.7671 3.35996 73.6251 3.38327C73.6251 3.38327 72.1004 2.17843 72.2011 1.99286C72.2011 1.99286 73.7323 1.91359 74.5324 2.28381C74.5324 2.28381 73.3947 1.65061 72.2011 1.75319C72.2011 1.75319 72.741 1.11813 73.4451 0.978253C73.4451 0.978253 72.6011 0.631348 71.8299 1.77651C71.8299 1.77651 70.6391 1.88561 70.4917 2.01803C70.4917 2.01803 71.0941 0.779622 71.8355 0.252737C71.8355 0.252737 70.7305 0.447638 70.1831 2.12621L69.0155 2.55238C69.0155 2.55238 69.7252 0.873808 70.3509 0.355316C70.3509 0.355316 69.2542 0.728332 68.7302 2.68667L67.6559 3.27044C67.6559 3.27044 68.1566 1.77837 68.7283 1.05006C68.7283 1.05006 67.7855 1.61518 67.3537 3.44855L66.6823 3.92135C66.6823 3.92135 67.0674 2.83774 67.2064 2.53653C67.3453 2.23532 67.2754 2.17284 67.2754 2.17284C66.8087 2.72464 66.5042 3.39515 66.396 4.10972C66.396 4.10972 65.0774 5.17282 65 5.09821Z" fill="#306B34"/>
<path opacity="0.1" d="M82 9.3039C82 9.3039 83.8781 5.6586 86.0976 7.5386C86.0976 7.5386 86.5825 7.71485 86.5452 8.22682C86.5452 8.22682 86.3587 8.12517 86.2105 8.51684C86.1567 8.65557 86.0866 8.78737 86.0016 8.90944C85.8881 9.07422 85.7246 9.19813 85.5353 9.26287C85.5353 9.26287 84.5384 10.0089 82.6929 9.43353C82.6929 9.43353 82.1716 9.50813 82.0877 9.44378L82.6938 8.9999C82.6938 8.9999 83.0016 9.45777 83.4529 9.50906C83.4529 9.50906 82.6957 9.03347 82.7815 8.92995C82.7983 8.90944 83.1125 8.70988 83.1125 8.70988C83.1125 8.70988 83.6515 9.50253 84.351 9.56128C84.351 9.56128 83.3718 9.1146 83.2319 8.62874L83.7243 8.35551C83.7243 8.35551 84.2521 9.22184 85.0457 9.31882C85.0457 9.31882 84.0385 8.81712 83.8334 8.30329L84.3537 8.09999C84.3537 8.09999 84.8853 8.93462 85.5455 9.01109C85.5455 9.01109 84.4405 8.31354 84.4759 8.06176C84.4759 8.06176 84.9646 7.90416 85.1147 7.92468C85.1147 7.92468 85.5101 8.51497 85.898 8.5243C85.898 8.5243 85.2089 7.98063 85.2546 7.8967C85.2546 7.8967 85.9465 7.86126 86.3065 8.02819C86.3065 8.02819 85.7927 7.7419 85.2546 7.78853C85.403 7.61971 85.5975 7.49785 85.8141 7.43789C85.8141 7.43789 85.4327 7.28122 85.0839 7.79878C85.0839 7.79878 84.5459 7.84821 84.4796 7.90789C84.4796 7.90789 84.7519 7.34837 85.0867 7.11057C85.0867 7.11057 84.5869 7.19823 84.3407 7.95731L83.8185 8.15315C83.8185 8.15315 84.1383 7.39499 84.4218 7.15999C84.4218 7.15999 83.9257 7.32878 83.6888 8.21283L83.2039 8.47581C83.2039 8.47581 83.4296 7.80065 83.6879 7.47239C83.6879 7.47239 83.2617 7.72791 83.0678 8.55601L82.7638 8.76956C82.7638 8.76956 82.9381 8.27997 83.0006 8.14382C83.0631 8.00767 83.0314 7.9797 83.0314 7.9797C82.8205 8.2299 82.683 8.53364 82.6341 8.85722C82.6341 8.85722 82.0326 9.33747 82 9.3039Z" fill="#306B34"/>
<path opacity="0.1" d="M61 13.3039C61 13.3039 62.8781 9.6586 65.1032 11.5386C65.1032 11.5386 65.5872 11.7149 65.5508 12.2278C65.5508 12.2278 65.3643 12.1252 65.216 12.5168C65.1619 12.6554 65.0918 12.7872 65.0071 12.9094C64.8924 13.075 64.7272 13.199 64.5362 13.2629C64.5362 13.2629 63.5402 14.0089 61.6947 13.4335C61.6947 13.4335 61.1734 13.5091 61.0895 13.4438L61.6957 12.9999C61.6957 12.9999 62.0034 13.4578 62.4538 13.51C62.4538 13.51 61.6966 13.0335 61.7824 12.93C61.8001 12.9094 62.1144 12.7099 62.1144 12.7099C62.1144 12.7099 62.6534 13.5025 63.3519 13.5613C63.3519 13.5613 62.3736 13.1146 62.2328 12.6287L62.7252 12.3564C62.7252 12.3564 63.2539 13.2218 64.0475 13.3188C64.0475 13.3188 63.0404 12.8171 62.8352 12.3033L63.3556 12.1C63.3556 12.1 63.8881 12.9346 64.5483 13.0111C64.5483 13.0111 63.4433 12.3135 63.4778 12.0618C63.4778 12.0618 63.9673 11.9042 64.1175 11.9247C64.1175 11.9247 64.5129 12.515 64.9008 12.5252C64.9008 12.5252 64.2117 11.9806 64.2574 11.8967C64.2574 11.8967 64.9484 11.8613 65.3093 12.0282C65.3093 12.0282 64.7945 11.7419 64.2564 11.7885C64.4049 11.6197 64.5993 11.4979 64.8159 11.4379C64.8159 11.4379 64.4355 11.2812 64.0867 11.7988C64.0867 11.7988 63.5486 11.8482 63.4824 11.9079C63.4824 11.9079 63.7538 11.3484 64.0895 11.1106C64.0895 11.1106 63.5897 11.1982 63.3435 11.9573L62.8147 12.1531C62.8147 12.1531 63.1355 11.395 63.4181 11.1609C63.4181 11.1609 62.9229 11.3288 62.686 12.2128L62.2002 12.4758C62.2002 12.4758 62.4268 11.8006 62.6851 11.4724C62.6851 11.4724 62.2589 11.7279 62.064 12.556L61.76 12.7696C61.76 12.7696 61.9344 12.28 61.9969 12.1438C62.0594 12.0077 62.0286 11.9797 62.0286 11.9797C61.8173 12.2296 61.6797 12.5335 61.6313 12.8572C61.6313 12.8572 61.0326 13.3375 61 13.3039Z" fill="#306B34"/>
</g>
<defs>
<clipPath id="clip0">
<rect width="100" height="72.7512" fill="white"/>
</clipPath>
</defs>
</svg>
