<svg width="101" height="81" viewBox="0 0 101 81" fill="none" xmlns="http://www.w3.org/2000/svg">
<g clip-path="url(#clip0)">
<path d="M22.8731 41.5156C26.1731 41.5156 28.8482 38.8404 28.8482 35.5404C28.8482 32.2404 26.1731 29.5653 22.8731 29.5653C19.5731 29.5653 16.8979 32.2404 16.8979 35.5404C16.8979 38.8404 19.5731 41.5156 22.8731 41.5156Z" fill="#047ECF"/>
<path d="M59.8899 42.3059C59.8899 54.0696 52.8966 58.1771 44.2699 58.1771C35.6432 58.1771 28.6498 54.0696 28.6498 42.3059C28.6498 30.5422 44.2699 15.5769 44.2699 15.5769C44.2699 15.5769 59.8899 30.5422 59.8899 42.3059Z" fill="#306B34"/>
<path d="M43.7009 56.3776L43.8608 46.5324L50.5185 34.3525L43.8859 44.9881L43.9579 40.5612L48.5462 31.7492L43.9769 39.3898L44.1063 31.428L49.0196 24.4125L44.1266 30.176L44.2073 15.577L43.6995 34.9035L43.7413 34.1062L38.7457 26.4598L43.6612 35.6367L43.1957 44.5287L43.1818 44.2927L37.423 36.2459L43.1644 45.1264L43.1061 46.2384L43.0957 46.2551L43.1005 46.3464L41.9196 68.9061H43.4974L43.6867 57.2536L49.414 48.3948L43.7009 56.3776Z" fill="#243444"/>
<path d="M74.9612 53.4169C74.9612 65.1806 67.9678 69.288 59.3411 69.288C50.7144 69.288 43.7211 65.1806 43.7211 53.4169C43.7211 41.6531 59.3411 26.6878 59.3411 26.6878C59.3411 26.6878 74.9612 41.6531 74.9612 53.4169Z" fill="#243444"/>
<path d="M58.7721 67.4885L58.9321 57.6433L65.5897 45.4635L58.9572 56.0989L59.029 51.6721L63.6175 42.8601L59.048 50.5006V50.5007L59.1774 42.5388L64.0908 35.5234L59.1977 41.2869L59.2786 26.6878L58.7707 46.0144L58.8125 45.2171L53.8169 37.5707L58.7324 46.7476L58.2669 55.6395L58.253 55.4035L52.4941 47.3568L58.2356 56.2373L58.1774 57.3493L58.1669 57.3661L58.1717 57.4574L56.9908 80.0169H58.5686L58.7579 68.3644L64.4852 59.5057L58.7721 67.4885Z" fill="#CED0CE"/>
<path d="M45.5888 53.4169C45.5888 65.1806 38.5955 69.288 29.9688 69.288C21.342 69.288 14.3487 65.1806 14.3487 53.4169C14.3487 41.6531 29.9688 26.6878 29.9688 26.6878C29.9688 26.6878 45.5888 41.6531 45.5888 53.4169Z" fill="#243444"/>
<path d="M29.3997 67.4885L29.5597 57.6433L36.2174 45.4635L29.5848 56.0989L29.6567 51.6721L34.2451 42.8601L29.6758 50.5006V50.5007L29.8051 42.5388L34.7185 35.5234L29.8254 41.2869L29.9062 26.6878L29.3984 46.0144L29.4401 45.2171L24.4446 37.5707L29.36 46.7476L28.8945 55.6395L28.8807 55.4035L23.1218 47.3568L28.8632 56.2373L28.805 57.3493L28.7946 57.3661L28.7994 57.4574L27.6184 80.0169H29.1962L29.3855 68.3644L35.1129 59.5057L29.3997 67.4885Z" fill="#CED0CE"/>
<path d="M44.6676 79.9175C37.1968 79.9176 29.9571 77.3272 24.1821 72.5878C18.407 67.8484 14.454 61.2532 12.9965 53.9259C11.539 46.5987 12.6672 38.9927 16.1889 32.4041C19.7106 25.8154 25.4079 20.6517 32.31 17.7927C39.2121 14.9337 46.892 14.5564 54.0411 16.7251C61.1902 18.8937 67.3662 23.4741 71.5168 29.6859C75.6673 35.8976 77.5357 43.3564 76.8034 50.7912C76.0711 58.226 72.7836 65.1769 67.5009 70.4596C64.5094 73.4675 60.951 75.8522 57.0316 77.4757C53.1123 79.0991 48.9098 79.9291 44.6676 79.9175ZM44.6676 15.5813C26.998 15.5813 12.6227 29.9565 12.6227 47.6261C12.6227 65.2957 26.998 79.671 44.6676 79.671C62.3371 79.671 76.7124 65.2957 76.7124 47.6261C76.7124 29.9565 62.3371 15.5813 44.6676 15.5813Z" fill="#243444"/>
<path d="M71.072 66.0491V79.8001H18.2679V66.0491L44.6699 52.2979L44.7249 52.3265L71.072 66.0491Z" fill="#CED0CE"/>
<path opacity="0.1" d="M71.072 66.0491V79.8001H44.7249V52.3266L71.072 66.0491Z" fill="#243444"/>
<path d="M42.4147 60.7136L40.4346 61.4613V58.5135L42.4147 57.6456V60.7136Z" fill="#243444"/>
<path d="M20.523 68.9643L19.863 69.2139V67.4242L20.523 67.1324V68.9643Z" fill="#243444"/>
<path d="M22.8332 68.1942L22.0631 68.4828V66.5441L22.8332 66.2061V68.1942Z" fill="#243444"/>
<path d="M25.3633 67.2041L24.4833 67.5351V65.444L25.3633 65.0567V67.2041Z" fill="#243444"/>
<path d="M28.4437 65.9941L27.3436 66.4093V64.2339L28.4437 63.7513V65.9941Z" fill="#243444"/>
<path d="M32.1839 64.5639L30.8638 65.0629V62.6938L32.1839 62.1148V64.5639Z" fill="#243444"/>
<path d="M36.6943 62.9138L35.1542 63.494V60.8236L36.6943 60.1485V62.9138Z" fill="#243444"/>
<path d="M20.523 72.5945L19.863 72.7605V70.9445L20.523 70.7357V72.5945Z" fill="#243444"/>
<path d="M22.8332 72.0446L22.0631 72.2374V70.2845L22.8332 70.0417V72.0446Z" fill="#243444"/>
<path d="M25.3633 71.3844L24.4833 71.6056V69.5143L25.3633 69.2368V71.3844Z" fill="#243444"/>
<path d="M28.4437 70.6145L27.3436 70.8907V68.6343L28.4437 68.2881V70.6145Z" fill="#243444"/>
<path d="M32.1839 69.6243L30.8638 69.9575V67.5342L32.1839 67.1189V69.6243Z" fill="#243444"/>
<path d="M36.6943 68.5243L35.0441 68.9393V66.2141L36.6943 65.6949V68.5243Z" fill="#243444"/>
<path d="M42.4147 67.0942L40.4346 67.5919V64.5639L42.4147 63.9428V67.0942Z" fill="#243444"/>
<path d="M42.4147 73.3646L40.4346 73.6167V70.6145L42.4147 70.2399V73.3646Z" fill="#243444"/>
<path d="M20.523 76.1148L19.863 76.1997V74.4647L20.523 74.3389V76.1148Z" fill="#243444"/>
<path d="M22.8332 75.8949L22.0631 75.9919V74.1347L22.8332 73.9902V75.8949Z" fill="#243444"/>
<path d="M25.3633 75.5648L24.4833 75.6761V73.5847L25.3633 73.417V75.5648Z" fill="#243444"/>
<path d="M28.4437 75.1248L27.3436 75.2654V73.0346L28.4437 72.8248V75.1248Z" fill="#243444"/>
<path d="M32.1839 74.6847L30.8638 74.8522V72.3746L32.1839 72.1232V74.6847Z" fill="#243444"/>
<path d="M36.6943 74.1347L35.0441 74.3433V71.6045L36.6943 71.2913V74.1347Z" fill="#243444"/>
<path d="M68.9268 68.9643L69.587 69.2139V67.4242L68.9268 67.1324V68.9643Z" fill="#243444"/>
<path d="M66.6166 68.1942L67.3867 68.4828V66.5441L66.6166 66.2061V68.1942Z" fill="#243444"/>
<path d="M64.0865 67.2041L64.9666 67.5351V65.444L64.0865 65.0567V67.2041Z" fill="#243444"/>
<path d="M61.0062 65.9941L62.1063 66.4093V64.2339L61.0062 63.7513V65.9941Z" fill="#243444"/>
<path d="M57.266 64.5639L58.586 65.0629V62.6938L57.266 62.1148V64.5639Z" fill="#243444"/>
<path d="M52.7556 62.9138L54.2958 63.494V60.8236L52.7556 60.1485V62.9138Z" fill="#243444"/>
<path d="M68.9268 72.5945L69.587 72.7605V70.9445L68.9268 70.7357V72.5945Z" fill="#243444"/>
<path d="M66.6166 72.0446L67.3867 72.2374V70.2845L66.6166 70.0417V72.0446Z" fill="#243444"/>
<path d="M64.0865 71.3844L64.9666 71.6056V69.5143L64.0865 69.2368V71.3844Z" fill="#243444"/>
<path d="M61.0062 70.6145L62.1063 70.8907V68.6343L61.0062 68.2881V70.6145Z" fill="#243444"/>
<path d="M57.266 69.6243L58.586 69.9575V67.5342L57.266 67.1189V69.6243Z" fill="#243444"/>
<path d="M52.7556 68.5243L54.4057 68.9393V66.2141L52.7556 65.6949V68.5243Z" fill="#243444"/>
<path d="M47.0351 67.0942L49.0153 67.5919V64.5639L47.0351 63.9428V67.0942Z" fill="#243444"/>
<path d="M47.0351 73.3646L49.0153 73.6167V70.6145L47.0351 70.2399V73.3646Z" fill="#243444"/>
<path d="M68.9268 76.1148L69.587 76.1997V74.4647L68.9268 74.3389V76.1148Z" fill="#243444"/>
<path d="M66.6166 75.8949L67.3867 75.9919V74.1347L66.6166 73.9902V75.8949Z" fill="#243444"/>
<path d="M64.0865 75.5648L64.9666 75.6761V73.5847L64.0865 73.417V75.5648Z" fill="#243444"/>
<path d="M61.0062 75.1248L62.1063 75.2654V73.0346L61.0062 72.8248V75.1248Z" fill="#243444"/>
<path d="M57.266 74.6847L58.586 74.8522V72.3746L57.266 72.1232V74.6847Z" fill="#243444"/>
<path d="M52.7556 74.1347L54.4057 74.3433V71.6045L52.7556 71.2913V74.1347Z" fill="#243444"/>
<path d="M48.9053 61.4837L46.9252 60.737V57.6335L48.9053 58.5017V61.4837Z" fill="#243444"/>
<path d="M67.4984 77.3516H67.337V79.9341H67.4984V77.3516Z" fill="#243444"/>
<path d="M69.4001 78.0545H69.2857V79.8844H69.4001V78.0545Z" fill="#243444"/>
<path d="M71.09 78.278H70.9895V79.8863H71.09V78.278Z" fill="#243444"/>
<path d="M62.7663 76.5329V79.8551L60.6212 79.8519L58.476 79.8485V76.1148L60.6212 76.3239L62.7663 76.5329Z" fill="#243444"/>
<path d="M26.6835 79.8551L30.9738 79.8483V76.1148L26.6835 76.5324V79.8551Z" fill="#243444"/>
<path d="M96.2435 79.7451H0.116394V79.9652H96.2435V79.7451Z" fill="#243444"/>
<path opacity="0.1" d="M62.7663 76.5329V79.8552L60.6212 79.8519V76.3239L62.7663 76.5329Z" fill="#243444"/>
<path d="M44.4499 76.8299H44.2299V79.9102H44.4499V76.8299Z" fill="#243444"/>
<path d="M45.6096 75.7333C45.6096 76.8127 45.033 77.7134 44.3399 77.7444C43.6661 77.7744 43.1334 76.9668 43.1334 75.9411C43.1334 74.9154 44.4499 72.0995 44.4499 72.0995C44.4499 72.0995 45.6096 74.654 45.6096 75.7333Z" fill="#306B34"/>
<path d="M18.5662 77.8171H18.435V79.6544H18.5662V77.8171Z" fill="#243444"/>
<path d="M19.2579 77.163C19.2579 77.8068 18.914 78.3441 18.5006 78.3625C18.0987 78.3805 17.7809 77.8987 17.7809 77.2869C17.7809 76.6751 18.5662 74.9955 18.5662 74.9955C18.5662 74.9955 19.2579 76.5192 19.2579 77.163Z" fill="#306B34"/>
<path d="M68.3055 77.4534C68.3055 78.0657 67.9196 78.544 67.4178 78.5204C66.8848 78.4954 66.428 77.9206 66.428 77.238C66.428 76.5553 67.4178 74.8498 67.4178 74.8498C67.4178 74.8498 68.3055 76.8411 68.3055 77.4534Z" fill="#306B34"/>
<path d="M69.9719 78.1267C69.9719 78.5606 69.6985 78.8995 69.3429 78.8828C68.9653 78.8651 68.6416 78.4577 68.6416 77.974C68.6416 77.4903 69.3429 76.2817 69.3429 76.2817C69.3429 76.2817 69.9719 77.6928 69.9719 78.1267Z" fill="#306B34"/>
<path d="M71.5926 78.3414C71.5926 78.7228 71.3523 79.0206 71.0397 79.0059C70.7079 78.9904 70.4234 78.6324 70.4234 78.2072C70.4234 77.7821 71.0397 76.7199 71.0397 76.7199C71.0397 76.7199 71.5926 77.9601 71.5926 78.3414Z" fill="#306B34"/>
<path d="M72.3738 18.7201C72.3738 18.7201 71.303 21.9324 71.8979 22.6463C72.4928 23.3601 68.3287 20.5047 68.3287 20.5047L70.5892 17.8873L72.3738 18.7201Z" fill="#A0616A"/>
<path d="M69.932 18.7149C72.8821 18.7149 75.2737 16.3233 75.2737 13.3731C75.2737 10.423 72.8821 8.0314 69.932 8.0314C66.9818 8.0314 64.5902 10.423 64.5902 13.3731C64.5902 16.3233 66.9818 18.7149 69.932 18.7149Z" fill="#243444"/>
<path d="M90.6959 54.8883L87.9596 57.03L86.4128 54.5314L89.1492 52.6279L90.6959 54.8883Z" fill="#A0616A"/>
<path d="M86.8293 71.0095L87.5431 74.4597L89.5657 77.1961C89.5657 77.1961 95.0385 78.8617 91.3503 79.6946C87.6621 80.5274 86.8293 79.0997 86.8293 79.0997L84.2118 76.8392V79.9325H82.5462L82.1892 75.5305C82.1892 75.5305 81.9513 74.2218 83.0221 72.7941L83.26 70.6525L86.8293 71.0095Z" fill="#243444"/>
<path d="M73.0282 28.2975L73.98 33.7704C73.98 33.7704 84.0928 32.6996 84.8067 34.7222C85.5205 36.7448 85.7585 37.3396 85.7585 37.3396L83.7359 38.0535L82.7841 36.2689C82.4942 36.1662 82.1864 36.1238 81.8795 36.1443C81.5727 36.1647 81.2732 36.2476 80.9995 36.3878C80.0477 36.8637 71.7195 38.0535 71.1246 36.5068C70.5297 34.9601 68.8641 29.2493 68.8641 29.2493L71.3625 27.2268L73.0282 28.2975Z" fill="#A0616A"/>
<path opacity="0.1" d="M73.0282 28.2975L73.98 33.7704C73.98 33.7704 84.0928 32.6996 84.8067 34.7222C85.5205 36.7448 85.7585 37.3396 85.7585 37.3396L83.7359 38.0535L82.7841 36.2689C82.4942 36.1662 82.1864 36.1238 81.8795 36.1443C81.5727 36.1647 81.2732 36.2476 80.9995 36.3878C80.0477 36.8637 71.7195 38.0535 71.1246 36.5068C70.5297 34.9601 68.8641 29.2493 68.8641 29.2493L71.3625 27.2268L73.0282 28.2975Z" fill="#243444"/>
<path d="M78.62 44.1212L79.4528 46.9766L81.5944 57.9222C81.5944 57.9222 81.8323 66.0125 82.1892 66.9643C82.5462 67.9161 82.5462 68.0351 82.1892 68.392C81.8323 68.749 81.1185 69.9387 82.1892 70.6525C83.26 71.3664 87.0672 72.1992 87.1862 71.3664C87.3051 70.5336 87.3052 69.2248 87.1862 68.63C87.0672 68.0351 87.5431 58.7551 87.5431 58.7551L86.1154 44.5971L81.2374 42.3365L78.62 44.1212Z" fill="#243444"/>
<path opacity="0.1" d="M78.62 44.1212L79.4528 46.9766L81.5944 57.9222C81.5944 57.9222 81.8323 66.0125 82.1892 66.9643C82.5462 67.9161 82.5462 68.0351 82.1892 68.392C81.8323 68.749 81.1185 69.9387 82.1892 70.6525C83.26 71.3664 87.0672 72.1992 87.1862 71.3664C87.3051 70.5336 87.3052 69.2248 87.1862 68.63C87.0672 68.0351 87.5431 58.7551 87.5431 58.7551L86.1154 44.5971L81.2374 42.3365L78.62 44.1212Z" fill="#243444"/>
<path d="M83.7359 32.9376L86.3533 37.9345C86.3533 37.9345 101.344 44.5971 100.035 47.3335C98.7267 50.0699 91.4692 55.1858 91.4692 55.1858C91.4692 55.1858 91.1123 57.2084 90.0415 56.6135C88.9708 56.0187 86.3533 52.9253 86.5913 52.5684C86.8292 52.2115 87.662 51.3786 88.019 51.4976C88.3759 51.6166 92.54 48.4043 92.54 48.4043L85.4015 46.6197C85.4015 46.6197 76.8354 46.3817 76.3595 42.3366C75.8836 38.2914 76.3595 37.5776 76.3595 37.5776L75.7646 36.2689L80.6425 33.2945L83.7359 32.9376Z" fill="#243444"/>
<path d="M87.4242 52.6874L84.9257 54.9479C84.9257 54.9479 82.7841 53.9961 81.4754 54.353C80.1667 54.71 77.9062 54.9479 77.9062 54.9479L78.2631 56.9705L81.2986 56.4104L78.858 59.8259C78.858 59.8259 78.858 65.1797 80.4046 65.1797C81.9513 65.1797 81.4754 61.9674 81.4754 61.9674L86.2344 58.2792C86.2344 58.2792 88.6139 57.3274 88.8519 57.3274C89.0898 57.3274 87.4242 52.6874 87.4242 52.6874Z" fill="#243444"/>
<path d="M71.8979 19.6719C74.132 19.6719 75.9431 17.8608 75.9431 15.6267C75.9431 13.3927 74.132 11.5816 71.8979 11.5816C69.6639 11.5816 67.8528 13.3927 67.8528 15.6267C67.8528 17.8608 69.6639 19.6719 71.8979 19.6719Z" fill="#A0616A"/>
<path d="M67.9123 18.7796C67.9123 18.7796 69.8159 18.3037 70.4108 18.7796C71.0056 19.2555 71.1246 20.3262 71.9574 20.4452C72.7903 20.5642 73.5041 20.5642 73.6231 20.6832C73.742 20.8021 76.4785 24.1334 76.4785 24.1334C76.4785 24.1334 78.1441 25.0852 78.501 26.3939C78.858 27.7027 82.4272 32.1047 82.9031 32.5806C83.379 33.0565 79.8098 35.436 78.62 36.2688C77.4303 37.1017 73.98 37.4586 72.9092 35.555C71.8384 33.6514 66.0087 21.278 67.9123 18.7796Z" fill="#306B34"/>
<path d="M72.4333 26.513L73.3851 31.9858C73.3851 31.9858 83.498 30.915 84.2118 32.9376C84.9257 34.9602 85.1636 35.555 85.1636 35.555L83.1411 36.2689L82.1893 34.4843C81.8994 34.3816 81.5915 34.3392 81.2847 34.3597C80.9778 34.3801 80.6783 34.463 80.4046 34.6032C79.4528 35.0791 71.1246 36.2689 70.5297 34.7222C69.9349 33.1755 68.2692 27.4648 68.2692 27.4648L70.7677 25.4422L72.4333 26.513Z" fill="#A0616A"/>
<path d="M70.1597 19.2802C70.1597 19.2802 73.0282 25.3232 72.7902 26.9888C72.5523 28.6545 71.7195 27.4647 71.7195 27.4647C71.7195 27.4647 70.6487 25.7991 70.1728 26.7509C69.6969 27.7027 69.102 29.0114 68.6261 28.8924C68.1502 28.7735 65.5328 19.9693 66.9605 19.1365C68.3882 18.3037 70.1597 19.2802 70.1597 19.2802Z" fill="#306B34"/>
<path d="M64.1451 11.6816C67.0952 11.6816 69.4868 9.29002 69.4868 6.33985C69.4868 3.38969 67.0952 0.998108 64.1451 0.998108C61.1949 0.998108 58.8033 3.38969 58.8033 6.33985C58.8033 9.29002 61.1949 11.6816 64.1451 11.6816Z" fill="#243444"/>
<path d="M59.5376 10.7631C60.2289 11.2628 61.0299 11.5897 61.8736 11.7164C62.7172 11.843 63.5789 11.7658 64.3865 11.4912C65.1942 11.2166 65.9243 10.7526 66.5158 10.1379C67.1074 9.52325 67.5431 8.77586 67.7866 7.95828C67.6945 8.69096 67.4514 9.39659 67.0728 10.0306C66.6942 10.6646 66.1883 11.2133 65.587 11.6419C64.9856 12.0705 64.302 12.3698 63.5791 12.5208C62.8563 12.6719 62.11 12.6715 61.3873 12.5195C60.6647 12.3676 59.9813 12.0675 59.3805 11.6382C58.7797 11.2089 58.2744 10.6596 57.8966 10.0252C57.5187 9.39069 57.2765 8.68478 57.1852 7.95198C57.094 7.21919 57.1556 6.47543 57.3663 5.76767C57.2467 6.71855 57.3851 7.6841 57.7671 8.56305C58.1492 9.44199 58.7607 10.2019 59.5376 10.7631Z" fill="#243444"/>
<path d="M68.8332 18.1807C70.9966 18.1807 72.7505 16.4269 72.7505 14.2634C72.7505 12.1 70.9966 10.3462 68.8332 10.3462C66.6697 10.3462 64.9159 12.1 64.9159 14.2634C64.9159 16.4269 66.6697 18.1807 68.8332 18.1807Z" fill="#243444"/>
<path d="M71.8016 15.5098C73.7192 15.5098 75.2737 14.2941 75.2737 12.7945C75.2737 11.2948 73.7192 10.0791 71.8016 10.0791C69.884 10.0791 68.3294 11.2948 68.3294 12.7945C68.3294 14.2941 69.884 15.5098 71.8016 15.5098Z" fill="#243444"/>
<path d="M71.9574 17.4114C72.3845 17.4114 72.7308 16.7988 72.7308 16.0432C72.7308 15.2875 72.3845 14.675 71.9574 14.675C71.5303 14.675 71.1841 15.2875 71.1841 16.0432C71.1841 16.7988 71.5303 17.4114 71.9574 17.4114Z" fill="#A0616A"/>
<path d="M82.5729 36.2169C82.5729 36.2169 84.6791 35.0085 85.0701 35.3115C85.4611 35.6145 85.6348 36.5627 85.6348 36.5627L83.2005 37.5181L82.4867 36.2094L82.5729 36.2169Z" fill="#243444"/>
</g>
<defs>
<clipPath id="clip0">
<rect width="100" height="79.0188" fill="white" transform="translate(0.116394 0.998108)"/>
</clipPath>
</defs>
</svg>
