<svg width="101" height="86" viewBox="0 0 101 86" fill="none" xmlns="http://www.w3.org/2000/svg">
<path d="M41.4836 82H0V82.2279H41.4836V82Z" fill="#243444"/>
<path d="M25.8123 12.6245C29.0223 12.6245 31.6245 10.0223 31.6245 6.81226C31.6245 3.60224 29.0223 1 25.8123 1C22.6022 1 20 3.60224 20 6.81226C20 10.0223 22.6022 12.6245 25.8123 12.6245Z" fill="#243444"/>
<path d="M24.0214 11C24.0214 11 24.8191 16.3564 23.3376 17.61C21.856 18.8636 25.7309 24.1061 25.7309 24.1061L30.9733 15.6726C30.9733 15.6726 26.9845 14.6469 29.0359 11.5698L24.0214 11Z" fill="#A0616A"/>
<path d="M22.3307 26.3821L21.5341 29.5093L20.7352 32.6502L18 32.4223L19.2536 27.1798C19.2536 27.1798 19.0257 22.2793 18.9117 21.1397C18.8845 20.9305 18.9004 20.7179 18.9584 20.5151C18.9975 20.3735 19.0799 20.2476 19.1942 20.1552C19.3085 20.0628 19.4488 20.0085 19.5955 20L22.3307 26.3821Z" fill="#243444"/>
<path d="M25.2424 70.4111L21.8235 71.0949L21.4907 68.1876L20.2929 57.7016L20 55.1397L23.9888 54L23.9626 54.9117L23.8748 57.9888C24.0468 58.5895 24.1744 59.202 24.2566 59.8214C24.425 60.988 24.4879 62.1673 24.4447 63.3452C24.3307 66.5363 25.2424 70.4111 25.2424 70.4111Z" fill="#A0616A"/>
<path d="M21 71.0257L24.5329 70L26.4704 74.7866L29.2055 81.1686C29.2055 81.1686 32.7385 85.8412 28.9776 85.2714C25.2167 84.7016 24.6469 83.7898 24.6469 83.334V82.5362L24.191 82.6502L23.8491 82.3083L23.3933 78.8893C23.3933 78.8893 22.3676 77.9776 22.8235 76.724L21 71.0257Z" fill="#243444"/>
<path opacity="0.2" d="M23.9637 59.9097L23.9238 60.0145C23.9238 60.0145 23.3301 65.5533 21.4041 67.9124L21.1978 68.2759L20 57.7899L20.7522 55H23.6697L23.5819 58.0771C23.7539 58.6778 23.8815 59.2903 23.9637 59.9097V59.9097Z" fill="#243444"/>
<path d="M25.6996 55L23.7622 60.0145C23.7622 60.0145 23.1684 65.5537 21.243 67.9125L18.7477 72.3228C18.7477 72.3228 15.7846 71.2971 16.0125 71.2971C16.2404 71.2971 17.9499 65.4848 17.9499 65.4848L19.5454 58.8748L20.5904 55H25.6996Z" fill="#A0616A"/>
<path d="M19.7103 71.0257L16.1774 70L14.24 74.7866L11.5048 81.1686C11.5048 81.1686 7.97184 85.8412 11.7327 85.2714C15.4936 84.7016 16.0634 83.7898 16.0634 83.334V82.5362L16.5193 82.6502L16.8612 82.3083L17.317 78.8893C17.317 78.8893 18.3427 77.9776 17.8869 76.724L19.7103 71.0257Z" fill="#243444"/>
<path d="M26.9888 12.9776C29.1918 12.9776 30.9776 11.1918 30.9776 8.9888C30.9776 6.78585 29.1918 5 26.9888 5C24.7858 5 23 6.78585 23 8.9888C23 11.1918 24.7858 12.9776 26.9888 12.9776Z" fill="#A0616A"/>
<path opacity="0.2" d="M21.7352 26.3821L20.9386 29.5093L20.2536 29.4592C20.2352 29.1801 20.1575 28.9081 20.0257 28.6614C19.7978 28.2055 20.0257 28.5474 20.4816 28.0916C20.9374 27.6357 20.5955 27.8636 20.2536 27.2938C19.9117 26.724 20.4816 25.4704 20.4816 25.4704C19.8433 25.0145 19 20 19 20L21.7352 26.3821Z" fill="#243444"/>
<path d="M25.9519 22.0659L23.5586 16.8235L19 20.0145C19 20.0145 20.4816 24.915 21.2793 25.4849C21.2793 25.4849 20.7095 26.7385 21.0514 27.3083C21.3933 27.8781 21.7352 27.6502 21.2793 28.1061C20.8235 28.5619 20.5955 28.22 20.8235 28.6759C20.9552 28.9226 21.0329 29.1946 21.0514 29.4737L31.8781 30.2714L32.5619 28.334C32.5619 28.334 33.9295 25.7128 33.4737 22.0659L35.1831 15.7978L30.3966 15L25.9519 22.0659Z" fill="#243444"/>
<path d="M31.7492 29.5141C31.7492 29.5141 33.6647 33.7071 31.7273 40.545C29.7899 47.383 28.0804 54.5628 28.0804 54.5628L19.305 55.5885L19.0771 51.5997L16 51.1439C16 51.1439 16.4559 38.2657 17.8235 35.0747C19.191 31.8836 20.4945 29 20.4945 29L31.7492 29.5141Z" fill="#243444"/>
<path opacity="0.2" d="M21.161 37.9815L19 52L19.2253 52.0347L21.3862 38.0162L21.161 37.9815Z" fill="#243444"/>
<path d="M29.9566 5.83416C29.7116 5.1647 29.2154 4.61706 28.5733 4.30744C27.7782 3.92884 26.8515 3.95921 25.98 4.08537C24.9747 4.2309 23.9181 4.53505 23.269 5.31641C22.8527 5.81763 22.6526 6.45879 22.462 7.08191C22.2417 7.80226 22.0195 8.5335 22 9.28655C22.0029 9.80807 22.0546 10.3282 22.1545 10.8401C22.183 11.1214 22.2629 11.3952 22.3903 11.6477C22.5328 11.8912 22.7931 12.0868 23.0747 12.0691C22.797 11.5704 22.6674 11.0027 22.7011 10.4329C22.7347 9.86298 22.9303 9.31454 23.2648 8.85194C23.4285 8.64291 23.6063 8.44524 23.7968 8.26032L25.2456 6.78922C25.69 6.33794 26.1543 5.87344 26.7477 5.65179C27.0888 5.52818 27.4551 5.49 27.8144 5.54059C28.1737 5.59117 28.5151 5.72899 28.8089 5.94199C29.054 6.12537 29.2576 6.35843 29.4064 6.62592C29.5125 6.81502 29.7589 7.42415 29.7589 7.42415C29.7589 7.42415 30.0443 6.07719 29.9566 5.83416Z" fill="#243444"/>
<path d="M22.3989 9.59552C22.6192 9.59552 22.7978 9.23835 22.7978 8.79776C22.7978 8.35717 22.6192 8 22.3989 8C22.1786 8 22 8.35717 22 8.79776C22 9.23835 22.1786 9.59552 22.3989 9.59552Z" fill="#A0616A"/>
<path d="M22.8235 3.64691C23.8305 3.64691 24.6469 2.83052 24.6469 1.82345C24.6469 0.816388 23.8305 0 22.8235 0C21.8164 0 21 0.816388 21 1.82345C21 2.83052 21.8164 3.64691 22.8235 3.64691Z" fill="#243444"/>
<path d="M27.7321 37.1713H20.9434C20.7725 37.1713 20.6087 37.1034 20.4879 36.9826C20.367 36.8618 20.2992 36.6979 20.2992 36.527L20 27.6443C20 27.5596 20.0167 27.4759 20.049 27.3977C20.0814 27.3195 20.1289 27.2485 20.1887 27.1887C20.2485 27.1289 20.3195 27.0814 20.3977 27.049C20.4759 27.0167 20.5596 27 20.6443 27H28.0313C28.2021 27 28.366 27.0679 28.4868 27.1887C28.6076 27.3095 28.6755 27.4734 28.6755 27.6443L28.3764 36.527C28.3764 36.6979 28.3085 36.8618 28.1877 36.9826C28.0668 37.1034 27.903 37.1713 27.7321 37.1713V37.1713Z" fill="#306B34"/>
<path d="M23.5983 30.1967C23.9287 30.1967 24.1966 29.9288 24.1966 29.5983C24.1966 29.2679 23.9287 29 23.5983 29C23.2679 29 23 29.2679 23 29.5983C23 29.9288 23.2679 30.1967 23.5983 30.1967Z" fill="#CED0CE"/>
<path d="M32.0264 30L28.1889 30.443C28.1889 30.443 21.6555 30.114 23.251 32.0514C24.8465 33.9888 28.4934 32.3933 28.4934 32.3933L33.28 32.1654L32.0264 30Z" fill="#A0616A"/>
<path d="M17.8179 31.0059C17.8179 31.0059 16.5505 31.5678 17.1711 32.5992C17.7917 33.6305 20.7272 34.6738 21.1087 33.1398C21.4901 31.6059 19.2925 31.122 18.7469 31.049C18.4393 31.005 18.1282 30.9906 17.8179 31.0059V31.0059Z" fill="#A0616A"/>
<path d="M33.1654 16.4559L34.5329 16C34.9914 16.4272 35.3094 16.9836 35.4447 17.5955C35.6726 18.6212 39.3195 30.2457 37.4961 31.1575C35.6726 32.0692 32.4816 33.5507 32.4816 33.5507L31 29.6759L33.3933 28.4223L32.4816 23.4078C32.4816 23.4078 31.5698 16.4559 33.1654 16.4559Z" fill="#243444"/>
<path d="M85.1501 43L85.797 43.4801L78.4443 54.8473L77 55.6003L85.1501 43Z" fill="#243444" stroke="#306B34" stroke-width="1.12412" stroke-miterlimit="10"/>
<path d="M53 40.3186L78.4669 9L81.0566 10.7839L55.8702 42.4991L53 40.3186Z" fill="#243444"/>
<path d="M70.7175 23L73.4685 24.6999L68.5046 30.6135L66 28.9402L70.7175 23Z" fill="#306B34"/>
<path d="M71.9427 27L80.5815 41.1386L77.2003 41.3453L70 29.0059L71.9427 27Z" fill="#306B34"/>
<path d="M86.2869 41H61V42.1893H86.2869V41Z" fill="#306B34"/>
<path d="M65.1654 44H62V85.1388H65.1654V44Z" fill="#306B34"/>
<path d="M91.9495 44H89V85.1388H91.9495V44Z" fill="#306B34"/>
<path d="M100.618 42H55V44.4447H100.618V42Z" fill="#306B34"/>
<path d="M63.2318 8.46352C64.4643 8.46352 65.4635 7.46432 65.4635 6.23176C65.4635 4.99919 64.4643 4 63.2318 4C61.9992 4 61 4.99919 61 6.23176C61 7.46432 61.9992 8.46352 63.2318 8.46352Z" fill="#CED0CE"/>
<path d="M63.2318 7.46352C64.4643 7.46352 65.4635 6.46432 65.4635 5.23176C65.4635 3.99919 64.4643 3 63.2318 3C61.9992 3 61 3.99919 61 5.23176C61 6.46432 61.9992 7.46352 63.2318 7.46352Z" stroke="#243444" stroke-width="2" stroke-miterlimit="10"/>
<path d="M50.0416 6H45V11.0416H50.0416V6Z" fill="#306B34"/>
<path d="M51.0416 5H46V10.0416H51.0416V5Z" stroke="#243444" stroke-width="2" stroke-miterlimit="10"/>
</svg>
