<svg fill="none" width="96" height="80" xmlns="http://www.w3.org/2000/svg" viewBox="0 0 97 81">
  <g clip-path="url(#clip0)">
    <path d="M22.778 41.61c3.168 0 5.736-2.71 5.736-6.05 0-3.341-2.568-6.05-5.736-6.05-3.168 0-5.736 2.709-5.736 6.05 0 3.34 2.568 6.05 5.736 6.05z" fill="#047ECF"/>
    <path d="M58.314 42.41c0 11.91-6.713 16.068-14.995 16.068s-14.995-4.159-14.995-16.069 14.995-27.06 14.995-27.06 14.995 15.15 14.995 27.06z" fill="#306B34"/>
    <path d="M42.773 56.656l.153-9.968 6.392-12.33-6.368 10.767.07-4.482 4.404-8.921-4.386 7.735.124-8.06 4.717-7.103-4.697 5.835.077-14.78-.487 19.566.04-.807-4.796-7.741 4.719 9.29-.447 9.003-.013-.24-5.529-8.146 5.512 8.991-.056 1.126-.01.017.004.092-1.133 22.84h1.514l.182-11.797 5.498-8.969-5.484 8.082z" fill="#243444"/>
    <path d="M72.783 53.658c0 11.91-6.714 16.069-14.995 16.069-8.282 0-14.996-4.159-14.996-16.069s14.995-27.06 14.995-27.06 14.996 15.15 14.996 27.06z" fill="#243444"/>
    <path d="M57.241 67.905l.154-9.968 6.391-12.33-6.367 10.767.069-4.482 4.405-8.921-4.387 7.735.124-8.06 4.717-7.103-4.697 5.835.077-14.78-.487 19.566.04-.807-4.796-7.742 4.719 9.291-.447 9.003-.013-.24-5.529-8.146 5.512 8.99-.056 1.127-.01.017.005.092-1.134 22.84h1.515l.181-11.797 5.499-8.97-5.485 8.083z" fill="#CED0CE"/>
    <path d="M44.585 53.658c0 11.91-6.713 16.069-14.995 16.069s-14.995-4.159-14.995-16.069 14.995-27.06 14.995-27.06 14.995 15.15 14.995 27.06z" fill="#243444"/>
    <path d="M29.044 67.905l.153-9.968 6.392-12.33-6.367 10.767.069-4.482 4.404-8.921-4.386 7.735.124-8.06 4.717-7.103-4.698 5.835.078-14.78-.487 19.566.04-.807-4.796-7.742 4.719 9.291-.447 9.003-.013-.24-5.529-8.146 5.512 8.99-.056 1.127-.01.017.005.092-1.134 22.84h1.514l.182-11.797 5.498-8.97-5.484 8.083z" fill="#CED0CE"/>
    <path d="M43.7 80.488c-7.171 0-14.121-2.622-19.665-7.42-5.544-4.799-9.34-11.476-10.738-18.894-1.4-7.419-.316-15.119 3.064-21.79 3.381-6.67 8.85-11.898 15.477-14.792a29.502 29.502 0 0120.861-1.081c6.864 2.196 12.793 6.833 16.777 13.122 3.985 6.289 5.778 13.84 5.075 21.367-.703 7.527-3.859 14.564-8.93 19.913a30.749 30.749 0 01-10.05 7.103 29.415 29.415 0 01-11.87 2.472zm0-65.135c-16.962 0-30.762 14.554-30.762 32.443 0 17.889 13.8 32.443 30.763 32.443s30.763-14.554 30.763-32.443c0-17.89-13.8-32.443-30.763-32.443z" fill="#243444"/>
    <path d="M69.05 66.448v13.921H18.356V66.448l25.346-13.922.053.028 25.293 13.894z" fill="#CED0CE"/>
    <path opacity=".1" d="M69.05 66.448v13.921H43.755V52.554l25.293 13.894z" fill="#243444"/>
    <path d="M41.538 61.046l-1.9.757v-2.985l1.9-.878v3.106zM20.522 69.399l-.633.252V67.84l.633-.296V69.4zM22.74 68.62l-.74.291V66.95l.74-.343v2.013zM25.169 67.617l-.845.335v-2.117l.845-.392v2.174zM28.126 66.392l-1.056.42V64.61l1.056-.489v2.27zM31.716 64.944l-1.267.505v-2.398l1.267-.587v2.48zM36.047 63.273l-1.479.588v-2.704l1.479-.683v2.8zM20.522 73.074l-.633.168v-1.838l.633-.212v1.882zM22.74 72.517l-.74.196v-1.978l.74-.245v2.027zM25.169 71.85l-.845.223v-2.117l.845-.281v2.174zM28.126 71.07l-1.056.28v-2.285l1.056-.35v2.355zM31.716 70.067l-1.267.337v-2.453l1.267-.42v2.536zM36.047 68.953l-1.585.42v-2.758l1.585-.526v2.864zM41.538 67.505l-1.9.504v-3.065l1.9-.629v3.19zM41.538 73.854l-1.9.255v-3.04l1.9-.379v3.164zM20.522 76.638l-.633.086v-1.756l.633-.128v1.798zM22.74 76.415l-.74.099v-1.88l.74-.147v1.928zM25.169 76.081l-.845.113v-2.117l.845-.17v2.174zM28.126 75.636l-1.056.142V73.52l1.056-.213v2.329zM31.716 75.19l-1.267.17v-2.508l1.267-.255v2.593zM36.047 74.633l-1.585.212v-2.773l1.585-.317v2.879zM66.99 69.399l.634.252V67.84l-.634-.296V69.4zM64.772 68.62l.74.291V66.95l-.74-.343v2.013zM62.343 67.617l.845.335v-2.117l-.845-.392v2.174zM59.386 66.392l1.056.42V64.61l-1.056-.489v2.27zM55.795 64.944l1.268.505v-2.398l-1.268-.587v2.48zM51.465 63.273l1.479.588v-2.704l-1.479-.683v2.8zM66.99 73.074l.634.168v-1.838l-.634-.212v1.882zM64.772 72.517l.74.196v-1.978l-.74-.245v2.027zM62.343 71.85l.845.223v-2.117l-.845-.281v2.174zM59.386 71.07l1.056.28v-2.285l-1.056-.35v2.355zM55.795 70.067l1.268.337v-2.453l-1.268-.42v2.536zM51.465 68.953l1.584.42v-2.758l-1.584-.526v2.864zM45.974 67.505l1.9.504v-3.065l-1.9-.629v3.19zM45.974 73.854l1.9.255v-3.04l-1.9-.379v3.164zM66.99 76.638l.634.086v-1.756l-.634-.128v1.798zM64.772 76.415l.74.099v-1.88l-.74-.147v1.928zM62.343 76.081l.845.113v-2.117l-.845-.17v2.174zM59.386 75.636l1.056.142V73.52l-1.056-.213v2.329zM55.795 75.19l1.268.17v-2.508l-1.268-.255v2.593zM51.465 74.633l1.584.212v-2.773l-1.584-.317v2.879zM47.769 61.825l-1.9-.756v-3.142l1.9.88v3.018zM65.619 77.89h-.155v2.615h.155V77.89zM67.444 78.602h-.11v1.853h.11v-1.853zM69.066 78.828h-.096v1.629h.096v-1.629zM61.076 77.061v3.364l-2.06-.003-2.059-.004v-3.78l2.06.212 2.059.211zM26.436 80.425l4.119-.007v-3.78l-4.119.423v3.364z" fill="#243444"/>
    <path d="M93.214 80.314H.932v.222h92.282v-.222z" fill="#243444"/>
    <path opacity=".1" d="M61.076 77.061v3.364l-2.06-.003V76.85l2.06.211z" fill="#243444"/>
    <path d="M43.492 77.362h-.211v3.119h.21v-3.119z" fill="#243444"/>
    <path d="M44.605 76.252c0 1.093-.553 2.005-1.219 2.036-.647.03-1.158-.787-1.158-1.826 0-1.038 1.264-3.889 1.264-3.889s1.113 2.586 1.113 3.679z" fill="#306B34"/>
    <path d="M18.644 78.362h-.126v1.86h.126v-1.86z" fill="#243444"/>
    <path d="M19.308 77.7c0 .651-.33 1.195-.727 1.214-.386.018-.691-.47-.691-1.09 0-.619.754-2.319.754-2.319s.664 1.543.664 2.194zM66.393 77.993c0 .62-.37 1.105-.852 1.08-.511-.025-.95-.607-.95-1.298 0-.69.95-2.418.95-2.418s.852 2.017.852 2.636zM67.993 78.675c0 .44-.262.782-.604.766-.362-.018-.673-.43-.673-.92 0-.49.673-1.714.673-1.714s.604 1.429.604 1.868zM69.549 78.892c0 .386-.23.688-.53.673-.32-.016-.593-.378-.593-.808 0-.43.592-1.506.592-1.506s.53 1.255.53 1.641z" fill="#306B34"/>
    <path d="M70.299 18.53s-1.028 3.253-.457 3.976c.571.722-3.426-2.168-3.426-2.168l2.17-2.65 1.713.843z" fill="#A0616A"/>
    <path d="M67.955 18.526c2.832 0 5.128-2.422 5.128-5.409 0-2.986-2.296-5.408-5.128-5.408-2.832 0-5.128 2.422-5.128 5.408 0 2.987 2.296 5.409 5.128 5.409z" fill="#243444"/>
    <path d="M87.888 55.148l-2.627 2.168-1.485-2.53 2.627-1.926 1.485 2.288z" fill="#A0616A"/>
    <path d="M84.176 71.47l.685 3.493 1.942 2.77s5.254 1.686 1.713 2.53c-3.54.843-4.34-.603-4.34-.603l-2.513-2.288v3.131h-1.599l-.342-4.456s-.229-1.325.8-2.77l.228-2.169 3.426.361z" fill="#243444"/>
    <path d="M70.927 28.227l.914 5.541s9.708-1.084 10.393.964c.686 2.047.914 2.65.914 2.65l-1.941.722-.914-1.806a2.065 2.065 0 00-1.714.12c-.913.482-8.908 1.686-9.48.12-.57-1.566-2.17-7.347-2.17-7.347l2.399-2.048 1.6 1.084z" fill="#A0616A"/>
    <path opacity=".1" d="M70.927 28.227l.914 5.541s9.708-1.084 10.393.964c.686 2.047.914 2.65.914 2.65l-1.941.722-.914-1.806a2.065 2.065 0 00-1.714.12c-.913.482-8.908 1.686-9.48.12-.57-1.566-2.17-7.347-2.17-7.347l2.399-2.048 1.6 1.084z" fill="#243444"/>
    <path d="M76.295 44.247l.8 2.891L79.15 58.22s.228 8.19.57 9.154c.343.964.343 1.084 0 1.446-.342.36-1.027 1.565 0 2.288 1.029.723 4.683 1.566 4.798.723.114-.843.114-2.168 0-2.77-.115-.603.342-9.998.342-9.998l-1.37-14.334-4.683-2.288-2.513 1.806z" fill="#243444"/>
    <path opacity=".1" d="M76.295 44.247l.8 2.891L79.15 58.22s.228 8.19.57 9.154c.343.964.343 1.084 0 1.446-.342.36-1.027 1.565 0 2.288 1.029.723 4.683 1.566 4.798.723.114-.843.114-2.168 0-2.77-.115-.603.342-9.998.342-9.998l-1.37-14.334-4.683-2.288-2.513 1.806z" fill="#243444"/>
    <path d="M81.207 32.925l2.512 5.059s14.391 6.745 13.135 9.515c-1.256 2.77-8.224 7.95-8.224 7.95s-.342 2.048-1.37 1.446c-1.028-.603-3.54-3.734-3.312-4.096.228-.361 1.028-1.204 1.37-1.084.343.12 4.34-3.131 4.34-3.131l-6.853-1.807s-8.223-.241-8.68-4.337c-.457-4.095 0-4.818 0-4.818l-.57-1.325 4.682-3.01 2.97-.362z" fill="#243444"/>
    <path d="M84.747 52.92l-2.398 2.288s-2.056-.963-3.313-.602c-1.256.361-3.426.602-3.426.602l.343 2.048 2.914-.567-2.343 3.458s0 5.42 1.484 5.42c1.485 0 1.028-3.252 1.028-3.252l4.569-3.734s2.284-.964 2.513-.964c.228 0-1.37-4.697-1.37-4.697z" fill="#243444"/>
    <path d="M69.842 19.494c2.145 0 3.883-1.833 3.883-4.095 0-2.262-1.738-4.095-3.883-4.095s-3.883 1.833-3.883 4.095c0 2.262 1.738 4.095 3.883 4.095z" fill="#A0616A"/>
    <path d="M66.016 18.591s1.827-.482 2.398 0c.571.482.686 1.566 1.485 1.686.8.12 1.485.12 1.6.241.113.12 2.74 3.493 2.74 3.493s1.6.964 1.942 2.289c.343 1.325 3.77 5.782 4.226 6.263.457.482-2.97 2.891-4.112 3.734-1.142.844-4.454 1.205-5.482-.722-1.028-1.928-6.625-14.455-4.797-16.984z" fill="#306B34"/>
    <path d="M70.356 26.42l.914 5.541s9.708-1.084 10.393.964c.686 2.047.914 2.65.914 2.65l-1.942.722-.913-1.806a2.065 2.065 0 00-1.714.12c-.913.482-8.908 1.687-9.48.12-.57-1.565-2.17-7.347-2.17-7.347l2.399-2.048 1.599 1.084z" fill="#A0616A"/>
    <path d="M68.173 19.098s2.754 6.118 2.526 7.804c-.229 1.686-1.028.482-1.028.482s-1.028-1.686-1.485-.723c-.457.964-1.028 2.289-1.485 2.168-.457-.12-2.97-9.034-1.599-9.877 1.37-.843 3.071.146 3.071.146z" fill="#306B34"/>
    <path d="M62.4 11.405c2.831 0 5.127-2.421 5.127-5.408 0-2.987-2.296-5.408-5.128-5.408-2.832 0-5.128 2.421-5.128 5.408 0 2.987 2.296 5.408 5.128 5.408z" fill="#243444"/>
    <path d="M57.976 10.475a4.985 4.985 0 002.243.965c.81.128 1.637.05 2.412-.228a5.104 5.104 0 002.044-1.37 5.483 5.483 0 001.22-2.207 5.608 5.608 0 01-.685 2.098 5.31 5.31 0 01-1.426 1.632 5 5 0 01-1.928.89 4.87 4.87 0 01-2.104-.002 5.002 5.002 0 01-1.927-.892 5.312 5.312 0 01-1.424-1.633 5.61 5.61 0 01-.683-2.099 5.691 5.691 0 01.174-2.211c-.115.962.018 1.94.384 2.83.367.89.954 1.659 1.7 2.227z" fill="#243444"/>
    <path d="M66.9 17.985c2.077 0 3.76-1.776 3.76-3.966 0-2.19-1.683-3.966-3.76-3.966s-3.76 1.775-3.76 3.966c0 2.19 1.683 3.966 3.76 3.966z" fill="#243444"/>
    <path d="M69.75 15.28c1.84 0 3.333-1.23 3.333-2.748 0-1.519-1.493-2.75-3.334-2.75-1.84 0-3.333 1.231-3.333 2.75 0 1.518 1.493 2.749 3.334 2.749z" fill="#243444"/>
    <path d="M69.9 17.206c.41 0 .741-.62.741-1.385s-.332-1.386-.742-1.386-.742.62-.742 1.386c0 .765.332 1.385.742 1.385z" fill="#A0616A"/>
    <path d="M80.09 36.245s2.022-1.224 2.397-.917c.376.307.542 1.267.542 1.267l-2.337.967-.685-1.325.083.008z" fill="#243444"/>
  </g>
  <defs>
    <clipPath id="clip0">
      <path fill="#fff" transform="translate(.932 .589)" d="M0 0h96v80H0z"/>
    </clipPath>
  </defs>
</svg>
