<svg width="197" height="100" viewBox="0 0 197 100" fill="none" xmlns="http://www.w3.org/2000/svg">
<g clip-path="url(#clip0)">
<path d="M41.8019 90.7572C45.5585 90.7572 48.6038 84.5435 48.6038 76.8786C48.6038 69.2137 45.5585 63 41.8019 63C38.0453 63 35 69.2137 35 76.8786C35 84.5435 38.0453 90.7572 41.8019 90.7572Z" fill="#E6E6E6"/>
<path d="M43.2169 99.7931C40.4927 83.4482 43.1895 67.1625 43.217 67L43.7469 67.0898C43.7195 67.2514 41.0382 83.4516 43.747 99.7049L43.2169 99.7931Z" fill="#3F3D56"/>
<path d="M48.1507 73.7101L42 77L42.2535 77.474L48.4043 74.1841L48.1507 73.7101Z" fill="#3F3D56"/>
<path d="M36.2537 75.5261L36 76L42.15 79.2919L42.4037 78.8179L36.2537 75.5261Z" fill="#3F3D56"/>
<path d="M179.148 1H168V39.5904H179.148V1Z" fill="#3F3D56"/>
<path d="M186.558 32.2571L159.443 0L105.016 0.497647L72 32.6561L72.6671 33.085H72.4289V99.975H186.485V33.085L186.558 32.2571Z" fill="#3F3D56"/>
<path d="M159.874 0L126 39.7134V99.9063H186.887V32.1587L159.874 0Z" fill="#306B34"/>
<path d="M162.435 67H150V77.9908H162.435V67Z" fill="#3F3D56"/>
<path d="M162.435 48H150V58.8165H162.435V48Z" fill="#3F3D56"/>
<path d="M162.435 67H150V77.9908H162.435V67Z" fill="white"/>
<path d="M162.435 48H150V58.8165H162.435V48Z" fill="white"/>
<path d="M117 97.9889C117 97.9889 117.267 92.4033 122.731 93.0525Z" fill="#E6E6E6"/>
<path d="M115.735 92.4701C117.246 92.4701 118.47 91.2456 118.47 89.7351C118.47 88.2245 117.246 87 115.735 87C114.225 87 113 88.2245 113 89.7351C113 91.2456 114.225 92.4701 115.735 92.4701Z" fill="#306B34"/>
<path d="M115.772 95H115V100.404H115.772V95Z" fill="#E6E6E6"/>
<path d="M26.3037 82.2898C33.6511 82.2898 39.6074 70.1366 39.6074 55.1449C39.6074 40.1532 33.6511 28 26.3037 28C18.9563 28 13 40.1532 13 55.1449C13 70.1366 18.9563 82.2898 26.3037 82.2898Z" fill="#306B34"/>
<path d="M27.3769 100.054C22.0558 68.1277 27.3232 36.3176 27.377 36L27.9069 36.0898C27.8533 36.4066 22.6013 68.1311 27.9071 99.9659L27.3769 100.054Z" fill="#3F3D56"/>
<path d="M38.0304 49.5651L26 56L26.2535 56.474L38.2839 50.0391L38.0304 49.5651Z" fill="#3F3D56"/>
<path d="M13.2537 53.5261L13 54L25.0286 60.4382L25.2823 59.9643L13.2537 53.5261Z" fill="#3F3D56"/>
<path d="M57.205 76.2912C67.2594 76.2912 75.4101 59.6606 75.4101 39.1456C75.4101 18.6307 67.2594 2 57.205 2C47.1507 2 39 18.6307 39 39.1456C39 59.6606 47.1507 76.2912 57.205 76.2912Z" fill="#306B34"/>
<path d="M59.2514 99.6202C51.9726 55.9476 59.178 12.4344 59.2516 12L59.7815 12.0898C59.708 12.5233 52.5181 55.951 59.7816 99.532L59.2514 99.6202Z" fill="#3F3D56"/>
<path d="M73.4626 31.1944L57 40L57.2535 40.474L73.7161 31.6684L73.4626 31.1944Z" fill="#3F3D56"/>
<path d="M40.2537 35.5261L40 36L56.4603 44.8099L56.714 44.336L40.2537 35.5261Z" fill="#3F3D56"/>
<path d="M107.435 64H95V74.9908H107.435V64Z" fill="#3F3D56"/>
<path d="M107.435 45H95V55.8166H107.435V45Z" fill="#3F3D56"/>
<path d="M107.435 64H95V74.9908H107.435V64Z" fill="white"/>
<path d="M107.435 45H95V55.8166H107.435V45Z" fill="white"/>
</g>
<defs>
<clipPath id="clip0">
<rect width="196.464" height="100" fill="white"/>
</clipPath>
</defs>
</svg>
