<svg width="132" height="100" viewBox="0 0 132 100" fill="none" xmlns="http://www.w3.org/2000/svg">
<g clip-path="url(#clip0)">
<path d="M18.3056 58.6112C22.8927 58.6112 26.6112 54.8927 26.6112 50.3056C26.6112 45.7185 22.8927 42 18.3056 42C13.7185 42 10 45.7185 10 50.3056C10 54.8927 13.7185 58.6112 18.3056 58.6112Z" fill="#FF6584"/>
<path d="M35.1115 96.964H35.1031C34.8106 96.9637 34.5302 96.8473 34.3235 96.6405C34.1167 96.4337 34.0003 96.1534 34 95.8609V31.1031C34.0003 30.8106 34.1167 30.5302 34.3235 30.3235C34.5302 30.1167 34.8106 30.0003 35.1031 30H89.6087C89.9011 30.0003 90.1815 30.1166 90.3883 30.3234C90.5951 30.5302 90.7114 30.8106 90.7118 31.1031V81.4559C90.7114 81.7468 90.5963 82.0259 90.3913 82.2325C90.1864 82.439 89.9082 82.5563 89.6172 82.5589L35.1115 96.964Z" fill="#F2F2F2"/>
<path d="M76.3062 20.8326H51V6.16798C51.0004 5.85832 51.1235 5.56144 51.3425 5.34248C51.5614 5.12352 51.8583 5.00035 52.168 5H75.1382C75.4478 5.00035 75.7447 5.12352 75.9637 5.34248C76.1826 5.56144 76.3058 5.85832 76.3062 6.16798V20.8326ZM51.2596 20.573H76.0466V6.16798C76.0463 5.92713 75.9506 5.69622 75.7802 5.52592C75.6099 5.35562 75.379 5.25982 75.1382 5.25955H52.168C51.9271 5.25982 51.6962 5.35562 51.5259 5.52592C51.3556 5.69622 51.2598 5.92713 51.2596 6.16798V20.573Z" fill="#3F3D56"/>
<path d="M57.0382 12H67.9393C68.2147 12 68.4787 12.1094 68.6734 12.3041C68.8681 12.4988 68.9775 12.7629 68.9775 13.0382V28.6112H56V13.0382C56 12.7629 56.1094 12.4988 56.3041 12.3041C56.4988 12.1094 56.7629 12 57.0382 12Z" fill="#E6E6E6"/>
<path d="M60.3208 5.96966H55V0.648876C55.0002 0.476844 55.0686 0.311914 55.1903 0.190269C55.3119 0.0686235 55.4768 0.000196811 55.6489 0H59.6719C59.8439 0.000196811 60.0089 0.0686235 60.1305 0.190269C60.2522 0.311914 60.3206 0.476844 60.3208 0.648876V5.96966ZM55.2596 5.71011H60.0612V0.648876C60.0611 0.545655 60.0201 0.446694 59.9471 0.373706C59.8741 0.300717 59.7751 0.259663 59.6719 0.25955H55.6489C55.5457 0.259663 55.4467 0.300717 55.3737 0.373706C55.3007 0.446694 55.2597 0.545655 55.2596 0.648876V5.71011Z" fill="#3F3D56"/>
<path d="M103.137 84.614C103.086 84.614 103.035 84.614 102.984 84.6127C99.7731 84.5772 96.686 83.3706 94.3024 81.2195C94.2143 81.1392 94.1269 81.058 94.0402 80.9756L94 80.9373V56.0656L94.0124 56.0393C94.0983 55.8572 94.1854 55.6776 94.2726 55.4981C96.9719 50.0178 100.12 47 103.137 47C107.489 47 110.863 52.9688 112.488 56.5268C114.746 61.4743 116.324 67.6049 116.324 71.4354C116.323 74.9055 114.954 78.2352 112.513 80.7021C110.073 83.1691 106.758 84.5742 103.288 84.6128C103.24 84.614 103.188 84.614 103.137 84.614ZM94.2596 80.826C94.3314 80.8939 94.4041 80.961 94.4767 81.0271C96.8138 83.136 99.8406 84.3188 102.988 84.3532C103.041 84.3545 103.091 84.3531 103.141 84.3545C103.188 84.3545 103.236 84.3545 103.283 84.3533C110.332 84.2751 116.064 78.4801 116.064 71.4354C116.064 67.6382 114.497 61.5519 112.252 56.6345C110.653 53.1333 107.344 47.2595 103.137 47.2595C100.224 47.2595 97.1588 50.2259 94.5057 55.6121C94.4235 55.7815 94.341 55.9515 94.2595 56.1237L94.2596 80.826Z" fill="#3F3D56"/>
<path d="M104.149 99.7796C104.11 99.7796 104.072 99.7638 104.044 99.7358C104.016 99.7078 104 99.6699 104 99.6303V69.1502C104 69.1305 104.004 69.111 104.011 69.0928C104.019 69.0746 104.03 69.058 104.043 69.044C104.057 69.0301 104.074 69.019 104.092 69.0115C104.11 69.0039 104.13 69 104.149 69C104.169 69 104.188 69.0039 104.207 69.0115C104.225 69.019 104.241 69.0301 104.255 69.044C104.269 69.058 104.28 69.0746 104.287 69.0928C104.295 69.111 104.299 69.1305 104.299 69.1502V99.6303C104.299 99.6699 104.283 99.7078 104.255 99.7358C104.227 99.7638 104.189 99.7796 104.149 99.7796V99.7796Z" fill="#CCCCCC"/>
<path d="M26.1493 99.7796C26.1097 99.7796 26.0717 99.7638 26.0437 99.7358C26.0157 99.7078 26 99.6699 26 99.6303V69.1502C25.9999 69.1305 26.0037 69.111 26.0111 69.0928C26.0186 69.0746 26.0295 69.058 26.0434 69.044C26.0573 69.0301 26.0738 69.019 26.092 69.0115C26.1101 69.0039 26.1296 69 26.1493 69C26.169 69 26.1885 69.0039 26.2066 69.0115C26.2248 69.019 26.2413 69.0301 26.2552 69.044C26.2691 69.058 26.28 69.0746 26.2875 69.0928C26.2949 69.111 26.2987 69.1305 26.2986 69.1502V99.6303C26.2986 99.6699 26.2829 99.7078 26.2549 99.7358C26.2269 99.7638 26.1889 99.7796 26.1493 99.7796V99.7796Z" fill="#CCCCCC"/>
<path d="M103.658 74.9583C103.637 74.9584 103.616 74.9538 103.596 74.9449C103.577 74.936 103.56 74.9231 103.546 74.9069L96.0363 66.2469C96.0105 66.217 95.9975 66.178 96.0004 66.1386C96.0032 66.0991 96.0216 66.0624 96.0515 66.0365C96.0814 66.0106 96.1203 65.9976 96.1598 66.0004C96.1992 66.0031 96.236 66.0214 96.262 66.0513L103.771 74.7112C103.79 74.7328 103.802 74.7594 103.806 74.7877C103.81 74.816 103.806 74.8449 103.794 74.871C103.782 74.897 103.763 74.9191 103.739 74.9346C103.715 74.9501 103.687 74.9583 103.658 74.9584V74.9583Z" fill="#CCCCCC"/>
<path d="M104.149 80.5653C104.12 80.5653 104.091 80.5565 104.066 80.5401C104.042 80.5237 104.023 80.5004 104.011 80.4731C104 80.4458 103.997 80.4158 104.003 80.3869C104.009 80.3579 104.023 80.3313 104.044 80.3104L108.311 76.0434C108.339 76.0156 108.377 75.9999 108.416 76C108.456 76.0001 108.494 76.0158 108.521 76.0437C108.549 76.0717 108.565 76.1096 108.565 76.1491C108.565 76.1886 108.55 76.2265 108.522 76.2546L104.255 80.5216C104.241 80.5355 104.225 80.5465 104.206 80.554C104.188 80.5615 104.169 80.5653 104.149 80.5653V80.5653Z" fill="#CCCCCC"/>
<path d="M117.161 99.7131H106V99.5834C106 98.8503 106.144 98.1243 106.424 97.4469C106.704 96.7695 107.115 96.154 107.634 95.6355C108.152 95.117 108.767 94.7057 109.444 94.4251C110.122 94.1444 110.848 94 111.581 94C112.314 94 113.04 94.1444 113.717 94.4251C114.394 94.7057 115.01 95.117 115.528 95.6355C116.046 96.154 116.457 96.7695 116.737 97.4469C117.018 98.1243 117.162 98.8503 117.161 99.5834L117.161 99.7131ZM106.261 99.4536H116.9C116.866 98.0652 116.291 96.7451 115.297 95.7751C114.303 94.8052 112.969 94.2622 111.581 94.2622C110.192 94.2622 108.858 94.8052 107.864 95.7751C106.87 96.7451 106.295 98.0652 106.261 99.4536H106.261Z" fill="#3F3D56"/>
<path d="M111.915 97C111.876 97 111.839 97.0155 111.811 97.0432C111.784 97.0708 111.768 97.1082 111.768 97.1473V98.7123L110.244 97.4038C110.229 97.3912 110.212 97.3815 110.193 97.3755C110.175 97.3694 110.156 97.367 110.136 97.3685C110.117 97.3699 110.098 97.3752 110.081 97.3839C110.064 97.3927 110.048 97.4047 110.036 97.4194C110.023 97.4341 110.013 97.4512 110.007 97.4696C110.001 97.488 109.999 97.5074 110 97.5268C110.002 97.5461 110.007 97.5649 110.016 97.5822C110.025 97.5995 110.037 97.6148 110.052 97.6274L111.768 99.1006V100.02C111.768 100.039 111.772 100.059 111.779 100.077C111.787 100.095 111.797 100.111 111.811 100.125C111.825 100.138 111.841 100.149 111.859 100.157C111.877 100.164 111.896 100.168 111.915 100.168C111.935 100.168 111.954 100.164 111.972 100.157C111.99 100.149 112.006 100.138 112.02 100.125C112.034 100.111 112.044 100.095 112.052 100.077C112.059 100.059 112.063 100.039 112.063 100.02V97.1473C112.063 97.1082 112.047 97.0708 112.02 97.0432C111.992 97.0155 111.955 97 111.915 97Z" fill="#3F3D56"/>
<path d="M24.1613 99.7131H13V99.5834C12.9996 98.8503 13.1437 98.1243 13.424 97.4469C13.7043 96.7695 14.1153 96.154 14.6336 95.6355C15.1518 95.117 15.7672 94.7057 16.4444 94.4251C17.1217 94.1444 17.8476 94 18.5807 94C19.3138 94 20.0397 94.1444 20.7169 94.4251C21.3942 94.7057 22.0095 95.117 22.5277 95.6355C23.046 96.154 23.457 96.7695 23.7373 97.4469C24.0176 98.1243 24.1617 98.8503 24.1613 99.5834L24.1613 99.7131ZM13.2611 99.4536H23.9002C23.8664 98.0652 23.291 96.7451 22.2971 95.7751C21.3032 94.8052 19.9694 94.2622 18.5807 94.2622C17.1919 94.2622 15.8581 94.8052 14.8642 95.7751C13.8703 96.7451 13.295 98.0652 13.2611 99.4536H13.2611Z" fill="#3F3D56"/>
<path d="M18.9154 97C18.8764 97 18.8389 97.0155 18.8113 97.0432C18.7836 97.0708 18.7681 97.1082 18.7681 97.1473V98.7123L17.2436 97.4038C17.2289 97.3912 17.2119 97.3815 17.1935 97.3755C17.1751 97.3694 17.1556 97.367 17.1363 97.3685C17.117 97.3699 17.0982 97.3752 17.0809 97.3839C17.0636 97.3927 17.0482 97.4047 17.0355 97.4194C17.0229 97.4341 17.0133 97.4512 17.0073 97.4696C17.0013 97.488 16.9989 97.5074 17.0004 97.5268C17.0019 97.5461 17.0072 97.5649 17.016 97.5822C17.0248 97.5995 17.0369 97.6148 17.0516 97.6274L18.7681 99.1006V100.02C18.7681 100.039 18.7718 100.059 18.7792 100.077C18.7866 100.095 18.7974 100.111 18.8111 100.125C18.8248 100.138 18.8411 100.149 18.859 100.157C18.8769 100.164 18.8961 100.168 18.9154 100.168C18.9348 100.168 18.954 100.164 18.9719 100.157C18.9898 100.149 19.0061 100.138 19.0198 100.125C19.0335 100.111 19.0443 100.095 19.0517 100.077C19.0591 100.059 19.0628 100.039 19.0628 100.02V97.1473C19.0628 97.1082 19.0472 97.0708 19.0196 97.0432C18.992 97.0155 18.9545 97 18.9154 97V97Z" fill="#3F3D56"/>
<path d="M26.1878 84.614C26.136 84.614 26.0857 84.614 26.034 84.6127C22.5645 84.5735 19.2503 83.1681 16.8103 80.7013C14.3703 78.2344 13.0012 74.9051 13 71.4354C13 67.6048 14.5776 61.4742 16.8364 56.5268C18.4608 52.9688 21.8357 47 26.1878 47C27.9804 47 29.7854 48.0217 31.5529 50.0369C31.6405 50.1362 31.7284 50.2385 31.815 50.3434L31.8446 50.3794V83.3405L31.7715 83.376C31.6841 83.4183 31.5955 83.458 31.5069 83.4964C29.8782 84.2171 28.1193 84.597 26.3384 84.6128C26.2899 84.614 26.2382 84.614 26.1878 84.614ZM26.1878 47.2596C21.9808 47.2596 18.671 53.1333 17.0725 56.6345C14.8275 61.5517 13.2596 67.6381 13.2596 71.4354C13.2596 78.4789 18.9922 84.2738 26.0387 84.3532C26.0912 84.3545 26.1402 84.3549 26.1912 84.3545C26.2383 84.3545 26.2866 84.3545 26.3337 84.3533C28.0804 84.338 29.8055 83.9655 31.4029 83.2586C31.4641 83.2321 31.5249 83.2051 31.5851 83.1771V50.4729C31.51 50.3826 31.434 50.2944 31.358 50.2082C29.6418 48.2516 27.9023 47.2596 26.1878 47.2596V47.2596Z" fill="#3F3D56"/>
<path d="M25.6585 74.9583C25.6371 74.9584 25.6159 74.9538 25.5964 74.9449C25.5769 74.936 25.5596 74.9231 25.5456 74.9069L18.0363 66.2469C18.0105 66.217 17.9975 66.178 18.0004 66.1386C18.0032 66.0991 18.0216 66.0624 18.0515 66.0365C18.0814 66.0106 18.1203 65.9976 18.1598 66.0004C18.1992 66.0031 18.236 66.0214 18.262 66.0513L25.7712 74.7112C25.79 74.7328 25.8021 74.7594 25.8062 74.7877C25.8102 74.816 25.8061 74.8449 25.7942 74.871C25.7823 74.897 25.7632 74.9191 25.7392 74.9346C25.7151 74.9501 25.6871 74.9583 25.6585 74.9584V74.9583Z" fill="#CCCCCC"/>
<path d="M26.1493 80.5653C26.1198 80.5653 26.0909 80.5565 26.0663 80.5401C26.0418 80.5237 26.0227 80.5004 26.0114 80.4731C26.0001 80.4458 25.9971 80.4158 26.0029 80.3869C26.0086 80.3579 26.0228 80.3313 26.0437 80.3104L30.3106 76.0434C30.3386 76.0156 30.3766 75.9999 30.4161 76C30.4556 76.0001 30.4935 76.0158 30.5215 76.0437C30.5494 76.0717 30.5651 76.1096 30.5652 76.1491C30.5652 76.1886 30.5496 76.2265 30.5218 76.2546L26.2549 80.5216C26.241 80.5355 26.2246 80.5465 26.2064 80.554C26.1883 80.5615 26.1689 80.5653 26.1493 80.5653Z" fill="#CCCCCC"/>
<path d="M37.3278 22.2978L37.4239 22.4872C37.4664 22.569 37.4887 22.6598 37.4888 22.752V27.8781H42.0309V22.752C42.0309 22.6598 42.0532 22.569 42.0958 22.4872L42.1918 22.2978H37.3278ZM41.7713 22.752V27.6185H37.7483V22.752C37.7484 22.6864 37.7405 22.621 37.7249 22.5573H41.7947C41.7791 22.621 41.7713 22.6864 41.7713 22.752V22.752ZM43.0379 22.2978L43.134 22.4872C43.1765 22.569 43.1988 22.6598 43.1989 22.752V27.8781H47.741V22.752C47.7411 22.6598 47.7633 22.569 47.8059 22.4872L47.902 22.2978H43.0379ZM47.4814 22.752V27.6185H43.4584V22.752C43.4585 22.6864 43.4506 22.621 43.435 22.5573H47.5048C47.4892 22.621 47.4814 22.6864 47.4814 22.752V22.752ZM48.748 22.2978L48.8441 22.4872C48.8867 22.569 48.9089 22.6598 48.909 22.752V27.8781H53.4511V22.752C53.4512 22.6598 53.4734 22.569 53.516 22.4872L53.6121 22.2978H48.748ZM53.1916 22.752V27.6185H49.1685V22.752C49.1686 22.6864 49.1607 22.621 49.1451 22.5573H53.2149C53.1993 22.621 53.1915 22.6864 53.1916 22.752ZM54.4581 22.2978L54.5542 22.4872C54.5968 22.569 54.619 22.6598 54.6191 22.752V27.8781H59.1612V22.752C59.1613 22.6598 59.1835 22.569 59.2261 22.4872L59.3222 22.2978H54.4581ZM58.9017 22.752V27.6185H54.8786V22.752C54.8787 22.6864 54.8709 22.621 54.8552 22.5573H58.925C58.9094 22.621 58.9016 22.6864 58.9017 22.752ZM60.1682 22.2978L60.2643 22.4872C60.3069 22.569 60.3291 22.6598 60.3292 22.752V27.8781H64.8713V22.752C64.8714 22.6598 64.8936 22.569 64.9362 22.4872L65.0323 22.2978H60.1682ZM64.6118 22.752V27.6185H60.5887V22.752C60.5888 22.6864 60.581 22.621 60.5654 22.5573H64.6352C64.6195 22.621 64.6117 22.6864 64.6118 22.752V22.752ZM65.8783 22.2978L65.9744 22.4872C66.017 22.569 66.0392 22.6598 66.0393 22.752V27.8781H70.5814V22.752C70.5815 22.6598 70.6037 22.569 70.6463 22.4872L70.7424 22.2978H65.8783ZM70.3219 22.752V27.6185H66.2988V22.752C66.2989 22.6864 66.2911 22.621 66.2755 22.5573H70.3453C70.3297 22.621 70.3218 22.6864 70.3219 22.752V22.752ZM71.5884 22.2978L71.6845 22.4872C71.7271 22.569 71.7493 22.6598 71.7494 22.752V27.8781H76.2915V22.752C76.2916 22.6598 76.3138 22.569 76.3564 22.4872L76.4525 22.2978H71.5884ZM76.032 22.752V27.6185H72.009V22.752C72.009 22.6864 72.0012 22.621 71.9856 22.5573H76.0554C76.0398 22.621 76.0319 22.6864 76.032 22.752ZM77.2986 22.2978L77.3946 22.4872C77.4372 22.569 77.4594 22.6598 77.4595 22.752V27.8781H82.0016V22.752C82.0017 22.6598 82.024 22.569 82.0665 22.4872L82.1626 22.2978H77.2986ZM81.7421 22.752V27.6185H77.7191V22.752C77.7191 22.6864 77.7113 22.621 77.6957 22.5573H81.7655C81.7499 22.621 81.742 22.6864 81.7421 22.752ZM83.0087 22.2978L83.1047 22.4872C83.1473 22.569 83.1696 22.6598 83.1696 22.752V27.8781H87.7117V22.752C87.7118 22.6598 87.7341 22.569 87.7766 22.4872L87.8727 22.2978H83.0087ZM87.4522 22.752V27.6185H83.4292V22.752C83.4292 22.6864 83.4214 22.621 83.4058 22.5573H87.4756C87.46 22.621 87.4521 22.6864 87.4522 22.752ZM83.0087 22.2978L83.1047 22.4872C83.1473 22.569 83.1696 22.6598 83.1696 22.752V27.8781H87.7117V22.752C87.7118 22.6598 87.7341 22.569 87.7766 22.4872L87.8727 22.2978H83.0087ZM87.4522 22.752V27.6185H83.4292V22.752C83.4292 22.6864 83.4214 22.621 83.4058 22.5573H87.4756C87.46 22.621 87.4521 22.6864 87.4522 22.752ZM77.2986 22.2978L77.3946 22.4872C77.4372 22.569 77.4594 22.6598 77.4595 22.752V27.8781H82.0016V22.752C82.0017 22.6598 82.024 22.569 82.0665 22.4872L82.1626 22.2978H77.2986ZM81.7421 22.752V27.6185H77.7191V22.752C77.7191 22.6864 77.7113 22.621 77.6957 22.5573H81.7655C81.7499 22.621 81.742 22.6864 81.7421 22.752ZM71.5884 22.2978L71.6845 22.4872C71.7271 22.569 71.7493 22.6598 71.7494 22.752V27.8781H76.2915V22.752C76.2916 22.6598 76.3138 22.569 76.3564 22.4872L76.4525 22.2978H71.5884ZM76.032 22.752V27.6185H72.009V22.752C72.009 22.6864 72.0012 22.621 71.9856 22.5573H76.0554C76.0398 22.621 76.0319 22.6864 76.032 22.752ZM65.8783 22.2978L65.9744 22.4872C66.017 22.569 66.0392 22.6598 66.0393 22.752V27.8781H70.5814V22.752C70.5815 22.6598 70.6037 22.569 70.6463 22.4872L70.7424 22.2978H65.8783ZM70.3219 22.752V27.6185H66.2988V22.752C66.2989 22.6864 66.2911 22.621 66.2755 22.5573H70.3453C70.3297 22.621 70.3218 22.6864 70.3219 22.752V22.752ZM60.1682 22.2978L60.2643 22.4872C60.3069 22.569 60.3291 22.6598 60.3292 22.752V27.8781H64.8713V22.752C64.8714 22.6598 64.8936 22.569 64.9362 22.4872L65.0323 22.2978H60.1682ZM64.6118 22.752V27.6185H60.5887V22.752C60.5888 22.6864 60.581 22.621 60.5654 22.5573H64.6352C64.6195 22.621 64.6117 22.6864 64.6118 22.752V22.752ZM54.4581 22.2978L54.5542 22.4872C54.5968 22.569 54.619 22.6598 54.6191 22.752V27.8781H59.1612V22.752C59.1613 22.6598 59.1835 22.569 59.2261 22.4872L59.3222 22.2978H54.4581ZM58.9017 22.752V27.6185H54.8786V22.752C54.8787 22.6864 54.8709 22.621 54.8552 22.5573H58.925C58.9094 22.621 58.9016 22.6864 58.9017 22.752ZM48.748 22.2978L48.8441 22.4872C48.8867 22.569 48.9089 22.6598 48.909 22.752V27.8781H53.4511V22.752C53.4512 22.6598 53.4734 22.569 53.516 22.4872L53.6121 22.2978H48.748ZM53.1916 22.752V27.6185H49.1685V22.752C49.1686 22.6864 49.1607 22.621 49.1451 22.5573H53.2149C53.1993 22.621 53.1915 22.6864 53.1916 22.752ZM43.0379 22.2978L43.134 22.4872C43.1765 22.569 43.1988 22.6598 43.1989 22.752V27.8781H47.741V22.752C47.7411 22.6598 47.7633 22.569 47.8059 22.4872L47.902 22.2978H43.0379ZM47.4814 22.752V27.6185H43.4584V22.752C43.4585 22.6864 43.4506 22.621 43.435 22.5573H47.5048C47.4892 22.621 47.4814 22.6864 47.4814 22.752V22.752ZM37.3278 22.2978L37.4239 22.4872C37.4664 22.569 37.4887 22.6598 37.4888 22.752V27.8781H42.0309V22.752C42.0309 22.6598 42.0532 22.569 42.0958 22.4872L42.1918 22.2978H37.3278ZM41.7713 22.752V27.6185H37.7483V22.752C37.7484 22.6864 37.7405 22.621 37.7249 22.5573H41.7947C41.7791 22.621 41.7713 22.6864 41.7713 22.752V22.752ZM83.0087 22.2978L83.1047 22.4872C83.1473 22.569 83.1696 22.6598 83.1696 22.752V27.8781H87.7117V22.752C87.7118 22.6598 87.7341 22.569 87.7766 22.4872L87.8727 22.2978H83.0087ZM87.4522 22.752V27.6185H83.4292V22.752C83.4292 22.6864 83.4214 22.621 83.4058 22.5573H87.4756C87.46 22.621 87.4521 22.6864 87.4522 22.752ZM77.2986 22.2978L77.3946 22.4872C77.4372 22.569 77.4594 22.6598 77.4595 22.752V27.8781H82.0016V22.752C82.0017 22.6598 82.024 22.569 82.0665 22.4872L82.1626 22.2978H77.2986ZM81.7421 22.752V27.6185H77.7191V22.752C77.7191 22.6864 77.7113 22.621 77.6957 22.5573H81.7655C81.7499 22.621 81.742 22.6864 81.7421 22.752ZM71.5884 22.2978L71.6845 22.4872C71.7271 22.569 71.7493 22.6598 71.7494 22.752V27.8781H76.2915V22.752C76.2916 22.6598 76.3138 22.569 76.3564 22.4872L76.4525 22.2978H71.5884ZM76.032 22.752V27.6185H72.009V22.752C72.009 22.6864 72.0012 22.621 71.9856 22.5573H76.0554C76.0398 22.621 76.0319 22.6864 76.032 22.752ZM65.8783 22.2978L65.9744 22.4872C66.017 22.569 66.0392 22.6598 66.0393 22.752V27.8781H70.5814V22.752C70.5815 22.6598 70.6037 22.569 70.6463 22.4872L70.7424 22.2978H65.8783ZM70.3219 22.752V27.6185H66.2988V22.752C66.2989 22.6864 66.2911 22.621 66.2755 22.5573H70.3453C70.3297 22.621 70.3218 22.6864 70.3219 22.752V22.752ZM60.1682 22.2978L60.2643 22.4872C60.3069 22.569 60.3291 22.6598 60.3292 22.752V27.8781H64.8713V22.752C64.8714 22.6598 64.8936 22.569 64.9362 22.4872L65.0323 22.2978H60.1682ZM64.6118 22.752V27.6185H60.5887V22.752C60.5888 22.6864 60.581 22.621 60.5654 22.5573H64.6352C64.6195 22.621 64.6117 22.6864 64.6118 22.752V22.752ZM54.4581 22.2978L54.5542 22.4872C54.5968 22.569 54.619 22.6598 54.6191 22.752V27.8781H59.1612V22.752C59.1613 22.6598 59.1835 22.569 59.2261 22.4872L59.3222 22.2978H54.4581ZM58.9017 22.752V27.6185H54.8786V22.752C54.8787 22.6864 54.8709 22.621 54.8552 22.5573H58.925C58.9094 22.621 58.9016 22.6864 58.9017 22.752ZM48.748 22.2978L48.8441 22.4872C48.8867 22.569 48.9089 22.6598 48.909 22.752V27.8781H53.4511V22.752C53.4512 22.6598 53.4734 22.569 53.516 22.4872L53.6121 22.2978H48.748ZM53.1916 22.752V27.6185H49.1685V22.752C49.1686 22.6864 49.1607 22.621 49.1451 22.5573H53.2149C53.1993 22.621 53.1915 22.6864 53.1916 22.752ZM43.0379 22.2978L43.134 22.4872C43.1765 22.569 43.1988 22.6598 43.1989 22.752V27.8781H47.741V22.752C47.7411 22.6598 47.7633 22.569 47.8059 22.4872L47.902 22.2978H43.0379ZM47.4814 22.752V27.6185H43.4584V22.752C43.4585 22.6864 43.4506 22.621 43.435 22.5573H47.5048C47.4892 22.621 47.4814 22.6864 47.4814 22.752V22.752ZM37.3278 22.2978L37.4239 22.4872C37.4664 22.569 37.4887 22.6598 37.4888 22.752V27.8781H42.0309V22.752C42.0309 22.6598 42.0532 22.569 42.0958 22.4872L42.1918 22.2978H37.3278ZM41.7713 22.752V27.6185H37.7483V22.752C37.7484 22.6864 37.7405 22.621 37.7249 22.5573H41.7947C41.7791 22.621 41.7713 22.6864 41.7713 22.752V22.752ZM83.0087 22.2978L83.1047 22.4872C83.1473 22.569 83.1696 22.6598 83.1696 22.752V27.8781H87.7117V22.752C87.7118 22.6598 87.7341 22.569 87.7766 22.4872L87.8727 22.2978H83.0087ZM87.4522 22.752V27.6185H83.4292V22.752C83.4292 22.6864 83.4214 22.621 83.4058 22.5573H87.4756C87.46 22.621 87.4521 22.6864 87.4522 22.752ZM77.2986 22.2978L77.3946 22.4872C77.4372 22.569 77.4594 22.6598 77.4595 22.752V27.8781H82.0016V22.752C82.0017 22.6598 82.024 22.569 82.0665 22.4872L82.1626 22.2978H77.2986ZM81.7421 22.752V27.6185H77.7191V22.752C77.7191 22.6864 77.7113 22.621 77.6957 22.5573H81.7655C81.7499 22.621 81.742 22.6864 81.7421 22.752ZM71.5884 22.2978L71.6845 22.4872C71.7271 22.569 71.7493 22.6598 71.7494 22.752V27.8781H76.2915V22.752C76.2916 22.6598 76.3138 22.569 76.3564 22.4872L76.4525 22.2978H71.5884ZM76.032 22.752V27.6185H72.009V22.752C72.009 22.6864 72.0012 22.621 71.9856 22.5573H76.0554C76.0398 22.621 76.0319 22.6864 76.032 22.752ZM65.8783 22.2978L65.9744 22.4872C66.017 22.569 66.0392 22.6598 66.0393 22.752V27.8781H70.5814V22.752C70.5815 22.6598 70.6037 22.569 70.6463 22.4872L70.7424 22.2978H65.8783ZM70.3219 22.752V27.6185H66.2988V22.752C66.2989 22.6864 66.2911 22.621 66.2755 22.5573H70.3453C70.3297 22.621 70.3218 22.6864 70.3219 22.752V22.752ZM60.1682 22.2978L60.2643 22.4872C60.3069 22.569 60.3291 22.6598 60.3292 22.752V27.8781H64.8713V22.752C64.8714 22.6598 64.8936 22.569 64.9362 22.4872L65.0323 22.2978H60.1682ZM64.6118 22.752V27.6185H60.5887V22.752C60.5888 22.6864 60.581 22.621 60.5654 22.5573H64.6352C64.6195 22.621 64.6117 22.6864 64.6118 22.752V22.752ZM54.4581 22.2978L54.5542 22.4872C54.5968 22.569 54.619 22.6598 54.6191 22.752V27.8781H59.1612V22.752C59.1613 22.6598 59.1835 22.569 59.2261 22.4872L59.3222 22.2978H54.4581ZM58.9017 22.752V27.6185H54.8786V22.752C54.8787 22.6864 54.8709 22.621 54.8552 22.5573H58.925C58.9094 22.621 58.9016 22.6864 58.9017 22.752ZM48.748 22.2978L48.8441 22.4872C48.8867 22.569 48.9089 22.6598 48.909 22.752V27.8781H53.4511V22.752C53.4512 22.6598 53.4734 22.569 53.516 22.4872L53.6121 22.2978H48.748ZM53.1916 22.752V27.6185H49.1685V22.752C49.1686 22.6864 49.1607 22.621 49.1451 22.5573H53.2149C53.1993 22.621 53.1915 22.6864 53.1916 22.752ZM43.0379 22.2978L43.134 22.4872C43.1765 22.569 43.1988 22.6598 43.1989 22.752V27.8781H47.741V22.752C47.7411 22.6598 47.7633 22.569 47.8059 22.4872L47.902 22.2978H43.0379ZM47.4814 22.752V27.6185H43.4584V22.752C43.4585 22.6864 43.4506 22.621 43.435 22.5573H47.5048C47.4892 22.621 47.4814 22.6864 47.4814 22.752V22.752ZM37.3278 22.2978L37.4239 22.4872C37.4664 22.569 37.4887 22.6598 37.4888 22.752V27.8781H42.0309V22.752C42.0309 22.6598 42.0532 22.569 42.0958 22.4872L42.1918 22.2978H37.3278ZM41.7713 22.752V27.6185H37.7483V22.752C37.7484 22.6864 37.7405 22.621 37.7249 22.5573H41.7947C41.7791 22.621 41.7713 22.6864 41.7713 22.752V22.752ZM83.0087 22.2978L83.1047 22.4872C83.1473 22.569 83.1696 22.6598 83.1696 22.752V27.8781H87.7117V22.752C87.7118 22.6598 87.7341 22.569 87.7766 22.4872L87.8727 22.2978H83.0087ZM87.4522 22.752V27.6185H83.4292V22.752C83.4292 22.6864 83.4214 22.621 83.4058 22.5573H87.4756C87.46 22.621 87.4521 22.6864 87.4522 22.752ZM77.2986 22.2978L77.3946 22.4872C77.4372 22.569 77.4594 22.6598 77.4595 22.752V27.8781H82.0016V22.752C82.0017 22.6598 82.024 22.569 82.0665 22.4872L82.1626 22.2978H77.2986ZM81.7421 22.752V27.6185H77.7191V22.752C77.7191 22.6864 77.7113 22.621 77.6957 22.5573H81.7655C81.7499 22.621 81.742 22.6864 81.7421 22.752ZM71.5884 22.2978L71.6845 22.4872C71.7271 22.569 71.7493 22.6598 71.7494 22.752V27.8781H76.2915V22.752C76.2916 22.6598 76.3138 22.569 76.3564 22.4872L76.4525 22.2978H71.5884ZM76.032 22.752V27.6185H72.009V22.752C72.009 22.6864 72.0012 22.621 71.9856 22.5573H76.0554C76.0398 22.621 76.0319 22.6864 76.032 22.752ZM65.8783 22.2978L65.9744 22.4872C66.017 22.569 66.0392 22.6598 66.0393 22.752V27.8781H70.5814V22.752C70.5815 22.6598 70.6037 22.569 70.6463 22.4872L70.7424 22.2978H65.8783ZM70.3219 22.752V27.6185H66.2988V22.752C66.2989 22.6864 66.2911 22.621 66.2755 22.5573H70.3453C70.3297 22.621 70.3218 22.6864 70.3219 22.752V22.752ZM60.1682 22.2978L60.2643 22.4872C60.3069 22.569 60.3291 22.6598 60.3292 22.752V27.8781H64.8713V22.752C64.8714 22.6598 64.8936 22.569 64.9362 22.4872L65.0323 22.2978H60.1682ZM64.6118 22.752V27.6185H60.5887V22.752C60.5888 22.6864 60.581 22.621 60.5654 22.5573H64.6352C64.6195 22.621 64.6117 22.6864 64.6118 22.752V22.752ZM54.4581 22.2978L54.5542 22.4872C54.5968 22.569 54.619 22.6598 54.6191 22.752V27.8781H59.1612V22.752C59.1613 22.6598 59.1835 22.569 59.2261 22.4872L59.3222 22.2978H54.4581ZM58.9017 22.752V27.6185H54.8786V22.752C54.8787 22.6864 54.8709 22.621 54.8552 22.5573H58.925C58.9094 22.621 58.9016 22.6864 58.9017 22.752ZM48.748 22.2978L48.8441 22.4872C48.8867 22.569 48.9089 22.6598 48.909 22.752V27.8781H53.4511V22.752C53.4512 22.6598 53.4734 22.569 53.516 22.4872L53.6121 22.2978H48.748ZM53.1916 22.752V27.6185H49.1685V22.752C49.1686 22.6864 49.1607 22.621 49.1451 22.5573H53.2149C53.1993 22.621 53.1915 22.6864 53.1916 22.752ZM43.0379 22.2978L43.134 22.4872C43.1765 22.569 43.1988 22.6598 43.1989 22.752V27.8781H47.741V22.752C47.7411 22.6598 47.7633 22.569 47.8059 22.4872L47.902 22.2978H43.0379ZM47.4814 22.752V27.6185H43.4584V22.752C43.4585 22.6864 43.4506 22.621 43.435 22.5573H47.5048C47.4892 22.621 47.4814 22.6864 47.4814 22.752V22.752ZM37.3278 22.2978L37.4239 22.4872C37.4664 22.569 37.4887 22.6598 37.4888 22.752V27.8781H42.0309V22.752C42.0309 22.6598 42.0532 22.569 42.0958 22.4872L42.1918 22.2978H37.3278ZM41.7713 22.752V27.6185H37.7483V22.752C37.7484 22.6864 37.7405 22.621 37.7249 22.5573H41.7947C41.7791 22.621 41.7713 22.6864 41.7713 22.752V22.752ZM83.0087 22.2978L83.1047 22.4872C83.1473 22.569 83.1696 22.6598 83.1696 22.752V27.8781H87.7117V22.752C87.7118 22.6598 87.7341 22.569 87.7766 22.4872L87.8727 22.2978H83.0087ZM87.4522 22.752V27.6185H83.4292V22.752C83.4292 22.6864 83.4214 22.621 83.4058 22.5573H87.4756C87.46 22.621 87.4521 22.6864 87.4522 22.752ZM77.3946 22.4872C77.4372 22.569 77.4594 22.6598 77.4595 22.752V27.8781H82.0016V22.752C82.0017 22.6598 82.024 22.569 82.0665 22.4872L82.1626 22.2978H77.2986L77.3946 22.4872ZM81.7655 22.5573C81.7499 22.621 81.742 22.6864 81.7421 22.752V27.6185H77.7191V22.752C77.7191 22.6864 77.7113 22.621 77.6957 22.5573H81.7655ZM71.6845 22.4872C71.7271 22.569 71.7493 22.6598 71.7494 22.752V27.8781H76.2915V22.752C76.2916 22.6598 76.3138 22.569 76.3564 22.4872L76.4525 22.2978H71.5884L71.6845 22.4872ZM76.0554 22.5573C76.0398 22.621 76.0319 22.6864 76.032 22.752V27.6185H72.009V22.752C72.009 22.6864 72.0012 22.621 71.9856 22.5573H76.0554ZM65.9744 22.4872C66.017 22.569 66.0392 22.6598 66.0393 22.752V27.8781H70.5814V22.752C70.5815 22.6598 70.6037 22.569 70.6463 22.4872L70.7424 22.2978H65.8783L65.9744 22.4872ZM70.3453 22.5573C70.3297 22.621 70.3218 22.6864 70.3219 22.752V27.6185H66.2988V22.752C66.2989 22.6864 66.2911 22.621 66.2755 22.5573H70.3453ZM60.2643 22.4872C60.3069 22.569 60.3291 22.6598 60.3292 22.752V27.8781H64.8713V22.752C64.8714 22.6598 64.8936 22.569 64.9362 22.4872L65.0323 22.2978H60.1682L60.2643 22.4872ZM64.6352 22.5573C64.6195 22.621 64.6117 22.6864 64.6118 22.752V27.6185H60.5887V22.752C60.5888 22.6864 60.581 22.621 60.5654 22.5573H64.6352ZM54.5542 22.4872C54.5968 22.569 54.619 22.6598 54.6191 22.752V27.8781H59.1612V22.752C59.1613 22.6598 59.1835 22.569 59.2261 22.4872L59.3222 22.2978H54.4581L54.5542 22.4872ZM58.925 22.5573C58.9094 22.621 58.9016 22.6864 58.9017 22.752V27.6185H54.8786V22.752C54.8787 22.6864 54.8709 22.621 54.8552 22.5573H58.925ZM48.8441 22.4872C48.8867 22.569 48.9089 22.6598 48.909 22.752V27.8781H53.4511V22.752C53.4512 22.6598 53.4734 22.569 53.516 22.4872L53.6121 22.2978H48.748L48.8441 22.4872ZM53.2149 22.5573C53.1993 22.621 53.1915 22.6864 53.1916 22.752V27.6185H49.1685V22.752C49.1686 22.6864 49.1607 22.621 49.1451 22.5573H53.2149ZM43.134 22.4872C43.1765 22.569 43.1988 22.6598 43.1989 22.752V27.8781H47.741V22.752C47.7411 22.6598 47.7633 22.569 47.8059 22.4872L47.902 22.2978H43.0379L43.134 22.4872ZM47.5048 22.5573C47.4892 22.621 47.4814 22.6864 47.4814 22.752V27.6185H43.4584V22.752C43.4585 22.6864 43.4506 22.621 43.435 22.5573H47.5048ZM37.4239 22.4872C37.4664 22.569 37.4887 22.6598 37.4888 22.752V27.8781H42.0309V22.752C42.0309 22.6598 42.0532 22.569 42.0958 22.4872L42.1918 22.2978H37.3278L37.4239 22.4872ZM41.7947 22.5573C41.7791 22.621 41.7713 22.6864 41.7713 22.752V27.6185H37.7483V22.752C37.7484 22.6864 37.7405 22.621 37.7249 22.5573H41.7947ZM83.1047 22.4872C83.1473 22.569 83.1696 22.6598 83.1696 22.752V27.8781H87.7117V22.752C87.7118 22.6598 87.7341 22.569 87.7766 22.4872L87.8727 22.2978H83.0087L83.1047 22.4872ZM87.4756 22.5573C87.46 22.621 87.4521 22.6864 87.4522 22.752V27.6185H83.4292V22.752C83.4292 22.6864 83.4214 22.621 83.4058 22.5573H87.4756ZM77.3946 22.4872C77.4372 22.569 77.4594 22.6598 77.4595 22.752V27.8781H82.0016V22.752C82.0017 22.6598 82.024 22.569 82.0665 22.4872L82.1626 22.2978H77.2986L77.3946 22.4872ZM81.7655 22.5573C81.7499 22.621 81.742 22.6864 81.7421 22.752V27.6185H77.7191V22.752C77.7191 22.6864 77.7113 22.621 77.6957 22.5573H81.7655ZM71.6845 22.4872C71.7271 22.569 71.7493 22.6598 71.7494 22.752V27.8781H76.2915V22.752C76.2916 22.6598 76.3138 22.569 76.3564 22.4872L76.4525 22.2978H71.5884L71.6845 22.4872ZM76.0554 22.5573C76.0398 22.621 76.0319 22.6864 76.032 22.752V27.6185H72.009V22.752C72.009 22.6864 72.0012 22.621 71.9856 22.5573H76.0554ZM65.9744 22.4872C66.017 22.569 66.0392 22.6598 66.0393 22.752V27.8781H70.5814V22.752C70.5815 22.6598 70.6037 22.569 70.6463 22.4872L70.7424 22.2978H65.8783L65.9744 22.4872ZM70.3453 22.5573C70.3297 22.621 70.3218 22.6864 70.3219 22.752V27.6185H66.2988V22.752C66.2989 22.6864 66.2911 22.621 66.2755 22.5573H70.3453ZM60.2643 22.4872C60.3069 22.569 60.3291 22.6598 60.3292 22.752V27.8781H64.8713V22.752C64.8714 22.6598 64.8936 22.569 64.9362 22.4872L65.0323 22.2978H60.1682L60.2643 22.4872ZM64.6352 22.5573C64.6195 22.621 64.6117 22.6864 64.6118 22.752V27.6185H60.5887V22.752C60.5888 22.6864 60.581 22.621 60.5654 22.5573H64.6352ZM54.5542 22.4872C54.5968 22.569 54.619 22.6598 54.6191 22.752V27.8781H59.1612V22.752C59.1613 22.6598 59.1835 22.569 59.2261 22.4872L59.3222 22.2978H54.4581L54.5542 22.4872ZM58.925 22.5573C58.9094 22.621 58.9016 22.6864 58.9017 22.752V27.6185H54.8786V22.752C54.8787 22.6864 54.8709 22.621 54.8552 22.5573H58.925ZM48.8441 22.4872C48.8867 22.569 48.9089 22.6598 48.909 22.752V27.8781H53.4511V22.752C53.4512 22.6598 53.4734 22.569 53.516 22.4872L53.6121 22.2978H48.748L48.8441 22.4872ZM53.2149 22.5573C53.1993 22.621 53.1915 22.6864 53.1916 22.752V27.6185H49.1685V22.752C49.1686 22.6864 49.1607 22.621 49.1451 22.5573H53.2149ZM43.134 22.4872C43.1765 22.569 43.1988 22.6598 43.1989 22.752V27.8781H47.741V22.752C47.7411 22.6598 47.7633 22.569 47.8059 22.4872L47.902 22.2978H43.0379L43.134 22.4872ZM47.5048 22.5573C47.4892 22.621 47.4814 22.6864 47.4814 22.752V27.6185H43.4584V22.752C43.4585 22.6864 43.4506 22.621 43.435 22.5573H47.5048ZM37.4239 22.4872C37.4664 22.569 37.4887 22.6598 37.4888 22.752V27.8781H42.0309V22.752C42.0309 22.6598 42.0532 22.569 42.0958 22.4872L42.1918 22.2978H37.3278L37.4239 22.4872ZM41.7947 22.5573C41.7791 22.621 41.7713 22.6864 41.7713 22.752V27.6185H37.7483V22.752C37.7484 22.6864 37.7405 22.621 37.7249 22.5573H41.7947ZM92.9028 28.6567H91.3558C91.2705 28.3582 91.0905 28.0955 90.8428 27.9082C90.5951 27.7209 90.2933 27.6193 89.9828 27.6185H89.1393V22.752C89.1396 22.6475 89.1198 22.5439 89.0808 22.447C89.2279 22.3604 89.3424 22.2278 89.4066 22.0697C89.4708 21.9116 89.4812 21.7368 89.4362 21.5722C89.3911 21.4076 89.2932 21.2624 89.1575 21.159C89.0217 21.0556 88.8557 20.9997 88.6851 21H36.5154C36.3448 20.9997 36.1788 21.0556 36.043 21.159C35.9073 21.2624 35.8094 21.4076 35.7643 21.5722C35.7193 21.7368 35.7297 21.9116 35.7939 22.0697C35.8581 22.2278 35.9726 22.3604 36.1197 22.447C36.0807 22.5439 36.0609 22.6475 36.0612 22.752V27.6185H35.2177C34.9072 27.6193 34.6054 27.7209 34.3577 27.9082C34.11 28.0955 33.93 28.3582 33.8447 28.6567H32.168C31.8584 28.6572 31.5615 28.7804 31.3426 28.9993C31.1237 29.2183 31.0005 29.5151 31 29.8247V98.346C31.0007 98.6556 31.1239 98.9522 31.3428 99.1711C31.5617 99.39 31.8584 99.5133 32.168 99.514H92.9028C93.2124 99.5135 93.5092 99.3903 93.7281 99.1714C93.9471 98.9524 94.0703 98.6556 94.0707 98.346V29.8247C94.0703 29.5151 93.9471 29.2183 93.7281 28.9993C93.5092 28.7804 93.2124 28.6572 92.9028 28.6567V28.6567ZM93.8112 98.346C93.811 98.5314 93.754 98.7124 93.648 98.8646C93.542 99.0167 93.392 99.1328 93.2181 99.1973C93.1174 99.2357 93.0105 99.255 92.9028 99.2544H32.168C32.0602 99.255 31.9533 99.2357 31.8526 99.1973C31.6787 99.1328 31.5287 99.0167 31.4227 98.8646C31.3167 98.7124 31.2598 98.5314 31.2596 98.346V29.8247C31.2598 29.5839 31.3556 29.353 31.5259 29.1827C31.6962 29.0123 31.9271 28.9166 32.168 28.9163H34.0523L34.0731 28.8125C34.1277 28.549 34.2712 28.3123 34.4796 28.1422C34.688 27.9721 34.9486 27.8788 35.2177 27.8781H36.3208V22.752C36.3208 22.6464 36.3495 22.5427 36.4039 22.4522L36.4843 22.3185L36.3376 22.264C36.223 22.2225 36.1268 22.1418 36.0658 22.0363C36.0048 21.9307 35.983 21.8071 36.0043 21.687C36.0255 21.567 36.0884 21.4583 36.1819 21.3801C36.2754 21.3019 36.3935 21.2592 36.5154 21.2596H88.6851C88.8069 21.2592 88.925 21.3019 89.0186 21.3801C89.1121 21.4583 89.175 21.567 89.1962 21.687C89.2175 21.8071 89.1957 21.9307 89.1347 22.0363C89.0737 22.1418 88.9775 22.2225 88.8629 22.264L88.7162 22.3185L88.7966 22.4522C88.851 22.5427 88.8797 22.6464 88.8797 22.752V27.8781H89.9828C90.2519 27.8788 90.5125 27.9721 90.7209 28.1422C90.9293 28.3123 91.0728 28.549 91.1274 28.8125L91.1482 28.9163H92.9027C93.1436 28.9166 93.3745 29.0123 93.5448 29.1827C93.7151 29.353 93.8109 29.5839 93.8112 29.8247L93.8112 98.346ZM37.3278 22.2978L37.4239 22.4872C37.4664 22.569 37.4887 22.6598 37.4888 22.752V27.8781H42.0309V22.752C42.0309 22.6598 42.0532 22.569 42.0958 22.4872L42.1918 22.2978H37.3278ZM41.7713 22.752V27.6185H37.7483V22.752C37.7484 22.6864 37.7405 22.621 37.7249 22.5573H41.7947C41.7791 22.621 41.7713 22.6864 41.7713 22.752V22.752ZM43.0379 22.2978L43.134 22.4872C43.1765 22.569 43.1988 22.6598 43.1989 22.752V27.8781H47.741V22.752C47.7411 22.6598 47.7633 22.569 47.8059 22.4872L47.902 22.2978H43.0379ZM47.4814 22.752V27.6185H43.4584V22.752C43.4585 22.6864 43.4506 22.621 43.435 22.5573H47.5048C47.4892 22.621 47.4814 22.6864 47.4814 22.752V22.752ZM48.748 22.2978L48.8441 22.4872C48.8867 22.569 48.9089 22.6598 48.909 22.752V27.8781H53.4511V22.752C53.4512 22.6598 53.4734 22.569 53.516 22.4872L53.6121 22.2978H48.748ZM53.1916 22.752V27.6185H49.1685V22.752C49.1686 22.6864 49.1607 22.621 49.1451 22.5573H53.2149C53.1993 22.621 53.1915 22.6864 53.1916 22.752V22.752ZM54.4581 22.2978L54.5542 22.4872C54.5968 22.569 54.619 22.6598 54.6191 22.752V27.8781H59.1612V22.752C59.1613 22.6598 59.1835 22.569 59.2261 22.4872L59.3222 22.2978H54.4581ZM58.9017 22.752V27.6185H54.8786V22.752C54.8787 22.6864 54.8709 22.621 54.8552 22.5573H58.925C58.9094 22.621 58.9016 22.6864 58.9017 22.752V22.752ZM60.1682 22.2978L60.2643 22.4872C60.3069 22.569 60.3291 22.6598 60.3292 22.752V27.8781H64.8713V22.752C64.8714 22.6598 64.8936 22.569 64.9362 22.4872L65.0323 22.2978H60.1682ZM64.6118 22.752V27.6185H60.5887V22.752C60.5888 22.6864 60.581 22.621 60.5654 22.5573H64.6352C64.6195 22.621 64.6117 22.6864 64.6118 22.752V22.752ZM65.8783 22.2978L65.9744 22.4872C66.017 22.569 66.0392 22.6598 66.0393 22.752V27.8781H70.5814V22.752C70.5815 22.6598 70.6037 22.569 70.6463 22.4872L70.7424 22.2978H65.8783ZM70.3219 22.752V27.6185H66.2988V22.752C66.2989 22.6864 66.2911 22.621 66.2755 22.5573H70.3453C70.3297 22.621 70.3218 22.6864 70.3219 22.752V22.752ZM71.5884 22.2978L71.6845 22.4872C71.7271 22.569 71.7493 22.6598 71.7494 22.752V27.8781H76.2915V22.752C76.2916 22.6598 76.3138 22.569 76.3564 22.4872L76.4525 22.2978H71.5884ZM76.032 22.752V27.6185H72.009V22.752C72.009 22.6864 72.0012 22.621 71.9856 22.5573H76.0554C76.0398 22.621 76.0319 22.6864 76.032 22.752V22.752ZM77.2986 22.2978L77.3946 22.4872C77.4372 22.569 77.4594 22.6598 77.4595 22.752V27.8781H82.0016V22.752C82.0017 22.6598 82.024 22.569 82.0665 22.4872L82.1626 22.2978H77.2986ZM81.7421 22.752V27.6185H77.7191V22.752C77.7191 22.6864 77.7113 22.621 77.6957 22.5573H81.7655C81.7499 22.621 81.742 22.6864 81.7421 22.752V22.752ZM83.0087 22.2978L83.1047 22.4872C83.1473 22.569 83.1696 22.6598 83.1696 22.752V27.8781H87.7117V22.752C87.7118 22.6598 87.7341 22.569 87.7766 22.4872L87.8727 22.2978H83.0087ZM87.4522 22.752V27.6185H83.4292V22.752C83.4292 22.6864 83.4214 22.621 83.4058 22.5573H87.4756C87.46 22.621 87.4521 22.6864 87.4522 22.752V22.752ZM37.3278 22.2978L37.4239 22.4872C37.4664 22.569 37.4887 22.6598 37.4888 22.752V27.8781H42.0309V22.752C42.0309 22.6598 42.0532 22.569 42.0958 22.4872L42.1918 22.2978H37.3278ZM41.7713 22.752V27.6185H37.7483V22.752C37.7484 22.6864 37.7405 22.621 37.7249 22.5573H41.7947C41.7791 22.621 41.7713 22.6864 41.7713 22.752V22.752ZM43.0379 22.2978L43.134 22.4872C43.1765 22.569 43.1988 22.6598 43.1989 22.752V27.8781H47.741V22.752C47.7411 22.6598 47.7633 22.569 47.8059 22.4872L47.902 22.2978H43.0379ZM47.4814 22.752V27.6185H43.4584V22.752C43.4585 22.6864 43.4506 22.621 43.435 22.5573H47.5048C47.4892 22.621 47.4814 22.6864 47.4814 22.752V22.752ZM48.748 22.2978L48.8441 22.4872C48.8867 22.569 48.9089 22.6598 48.909 22.752V27.8781H53.4511V22.752C53.4512 22.6598 53.4734 22.569 53.516 22.4872L53.6121 22.2978H48.748ZM53.1916 22.752V27.6185H49.1685V22.752C49.1686 22.6864 49.1607 22.621 49.1451 22.5573H53.2149C53.1993 22.621 53.1915 22.6864 53.1916 22.752V22.752ZM54.4581 22.2978L54.5542 22.4872C54.5968 22.569 54.619 22.6598 54.6191 22.752V27.8781H59.1612V22.752C59.1613 22.6598 59.1835 22.569 59.2261 22.4872L59.3222 22.2978H54.4581ZM58.9017 22.752V27.6185H54.8786V22.752C54.8787 22.6864 54.8709 22.621 54.8552 22.5573H58.925C58.9094 22.621 58.9016 22.6864 58.9017 22.752V22.752ZM60.1682 22.2978L60.2643 22.4872C60.3069 22.569 60.3291 22.6598 60.3292 22.752V27.8781H64.8713V22.752C64.8714 22.6598 64.8936 22.569 64.9362 22.4872L65.0323 22.2978H60.1682ZM64.6118 22.752V27.6185H60.5887V22.752C60.5888 22.6864 60.581 22.621 60.5654 22.5573H64.6352C64.6195 22.621 64.6117 22.6864 64.6118 22.752V22.752ZM65.8783 22.2978L65.9744 22.4872C66.017 22.569 66.0392 22.6598 66.0393 22.752V27.8781H70.5814V22.752C70.5815 22.6598 70.6037 22.569 70.6463 22.4872L70.7424 22.2978H65.8783ZM70.3219 22.752V27.6185H66.2988V22.752C66.2989 22.6864 66.2911 22.621 66.2755 22.5573H70.3453C70.3297 22.621 70.3218 22.6864 70.3219 22.752V22.752ZM71.5884 22.2978L71.6845 22.4872C71.7271 22.569 71.7493 22.6598 71.7494 22.752V27.8781H76.2915V22.752C76.2916 22.6598 76.3138 22.569 76.3564 22.4872L76.4525 22.2978H71.5884ZM76.032 22.752V27.6185H72.009V22.752C72.009 22.6864 72.0012 22.621 71.9856 22.5573H76.0554C76.0398 22.621 76.0319 22.6864 76.032 22.752V22.752ZM77.2986 22.2978L77.3946 22.4872C77.4372 22.569 77.4594 22.6598 77.4595 22.752V27.8781H82.0016V22.752C82.0017 22.6598 82.024 22.569 82.0665 22.4872L82.1626 22.2978H77.2986ZM81.7421 22.752V27.6185H77.7191V22.752C77.7191 22.6864 77.7113 22.621 77.6957 22.5573H81.7655C81.7499 22.621 81.742 22.6864 81.7421 22.752V22.752ZM83.0087 22.2978L83.1047 22.4872C83.1473 22.569 83.1696 22.6598 83.1696 22.752V27.8781H87.7117V22.752C87.7118 22.6598 87.7341 22.569 87.7766 22.4872L87.8727 22.2978H83.0087ZM87.4522 22.752V27.6185H83.4292V22.752C83.4292 22.6864 83.4214 22.621 83.4058 22.5573H87.4756C87.46 22.621 87.4521 22.6864 87.4522 22.752V22.752ZM37.3278 22.2978L37.4239 22.4872C37.4664 22.569 37.4887 22.6598 37.4888 22.752V27.8781H42.0309V22.752C42.0309 22.6598 42.0532 22.569 42.0958 22.4872L42.1918 22.2978H37.3278ZM41.7713 22.752V27.6185H37.7483V22.752C37.7484 22.6864 37.7405 22.621 37.7249 22.5573H41.7947C41.7791 22.621 41.7713 22.6864 41.7713 22.752V22.752ZM43.0379 22.2978L43.134 22.4872C43.1765 22.569 43.1988 22.6598 43.1989 22.752V27.8781H47.741V22.752C47.7411 22.6598 47.7633 22.569 47.8059 22.4872L47.902 22.2978H43.0379ZM47.4814 22.752V27.6185H43.4584V22.752C43.4585 22.6864 43.4506 22.621 43.435 22.5573H47.5048C47.4892 22.621 47.4814 22.6864 47.4814 22.752V22.752ZM48.748 22.2978L48.8441 22.4872C48.8867 22.569 48.9089 22.6598 48.909 22.752V27.8781H53.4511V22.752C53.4512 22.6598 53.4734 22.569 53.516 22.4872L53.6121 22.2978H48.748ZM53.1916 22.752V27.6185H49.1685V22.752C49.1686 22.6864 49.1607 22.621 49.1451 22.5573H53.2149C53.1993 22.621 53.1915 22.6864 53.1916 22.752V22.752ZM54.4581 22.2978L54.5542 22.4872C54.5968 22.569 54.619 22.6598 54.6191 22.752V27.8781H59.1612V22.752C59.1613 22.6598 59.1835 22.569 59.2261 22.4872L59.3222 22.2978H54.4581ZM58.9017 22.752V27.6185H54.8786V22.752C54.8787 22.6864 54.8709 22.621 54.8552 22.5573H58.925C58.9094 22.621 58.9016 22.6864 58.9017 22.752V22.752ZM60.1682 22.2978L60.2643 22.4872C60.3069 22.569 60.3291 22.6598 60.3292 22.752V27.8781H64.8713V22.752C64.8714 22.6598 64.8936 22.569 64.9362 22.4872L65.0323 22.2978H60.1682ZM64.6118 22.752V27.6185H60.5887V22.752C60.5888 22.6864 60.581 22.621 60.5654 22.5573H64.6352C64.6195 22.621 64.6117 22.6864 64.6118 22.752V22.752ZM65.8783 22.2978L65.9744 22.4872C66.017 22.569 66.0392 22.6598 66.0393 22.752V27.8781H70.5814V22.752C70.5815 22.6598 70.6037 22.569 70.6463 22.4872L70.7424 22.2978H65.8783ZM70.3219 22.752V27.6185H66.2988V22.752C66.2989 22.6864 66.2911 22.621 66.2755 22.5573H70.3453C70.3297 22.621 70.3218 22.6864 70.3219 22.752V22.752ZM71.5884 22.2978L71.6845 22.4872C71.7271 22.569 71.7493 22.6598 71.7494 22.752V27.8781H76.2915V22.752C76.2916 22.6598 76.3138 22.569 76.3564 22.4872L76.4525 22.2978H71.5884ZM76.032 22.752V27.6185H72.009V22.752C72.009 22.6864 72.0012 22.621 71.9856 22.5573H76.0554C76.0398 22.621 76.0319 22.6864 76.032 22.752V22.752ZM77.2986 22.2978L77.3946 22.4872C77.4372 22.569 77.4594 22.6598 77.4595 22.752V27.8781H82.0016V22.752C82.0017 22.6598 82.024 22.569 82.0665 22.4872L82.1626 22.2978H77.2986ZM81.7421 22.752V27.6185H77.7191V22.752C77.7191 22.6864 77.7113 22.621 77.6957 22.5573H81.7655C81.7499 22.621 81.742 22.6864 81.7421 22.752V22.752ZM83.0087 22.2978L83.1047 22.4872C83.1473 22.569 83.1696 22.6598 83.1696 22.752V27.8781H87.7117V22.752C87.7118 22.6598 87.7341 22.569 87.7766 22.4872L87.8727 22.2978H83.0087ZM87.4522 22.752V27.6185H83.4292V22.752C83.4292 22.6864 83.4214 22.621 83.4058 22.5573H87.4756C87.46 22.621 87.4521 22.6864 87.4522 22.752V22.752ZM37.3278 22.2978L37.4239 22.4872C37.4664 22.569 37.4887 22.6598 37.4888 22.752V27.8781H42.0309V22.752C42.0309 22.6598 42.0532 22.569 42.0958 22.4872L42.1918 22.2978H37.3278ZM41.7713 22.752V27.6185H37.7483V22.752C37.7484 22.6864 37.7405 22.621 37.7249 22.5573H41.7947C41.7791 22.621 41.7713 22.6864 41.7713 22.752V22.752ZM43.0379 22.2978L43.134 22.4872C43.1765 22.569 43.1988 22.6598 43.1989 22.752V27.8781H47.741V22.752C47.7411 22.6598 47.7633 22.569 47.8059 22.4872L47.902 22.2978H43.0379ZM47.4814 22.752V27.6185H43.4584V22.752C43.4585 22.6864 43.4506 22.621 43.435 22.5573H47.5048C47.4892 22.621 47.4814 22.6864 47.4814 22.752V22.752ZM48.748 22.2978L48.8441 22.4872C48.8867 22.569 48.9089 22.6598 48.909 22.752V27.8781H53.4511V22.752C53.4512 22.6598 53.4734 22.569 53.516 22.4872L53.6121 22.2978H48.748ZM53.1916 22.752V27.6185H49.1685V22.752C49.1686 22.6864 49.1607 22.621 49.1451 22.5573H53.2149C53.1993 22.621 53.1915 22.6864 53.1916 22.752V22.752ZM54.4581 22.2978L54.5542 22.4872C54.5968 22.569 54.619 22.6598 54.6191 22.752V27.8781H59.1612V22.752C59.1613 22.6598 59.1835 22.569 59.2261 22.4872L59.3222 22.2978H54.4581ZM58.9017 22.752V27.6185H54.8786V22.752C54.8787 22.6864 54.8709 22.621 54.8552 22.5573H58.925C58.9094 22.621 58.9016 22.6864 58.9017 22.752V22.752ZM60.1682 22.2978L60.2643 22.4872C60.3069 22.569 60.3291 22.6598 60.3292 22.752V27.8781H64.8713V22.752C64.8714 22.6598 64.8936 22.569 64.9362 22.4872L65.0323 22.2978H60.1682ZM64.6118 22.752V27.6185H60.5887V22.752C60.5888 22.6864 60.581 22.621 60.5654 22.5573H64.6352C64.6195 22.621 64.6117 22.6864 64.6118 22.752V22.752ZM65.8783 22.2978L65.9744 22.4872C66.017 22.569 66.0392 22.6598 66.0393 22.752V27.8781H70.5814V22.752C70.5815 22.6598 70.6037 22.569 70.6463 22.4872L70.7424 22.2978H65.8783ZM70.3219 22.752V27.6185H66.2988V22.752C66.2989 22.6864 66.2911 22.621 66.2755 22.5573H70.3453C70.3297 22.621 70.3218 22.6864 70.3219 22.752V22.752ZM71.5884 22.2978L71.6845 22.4872C71.7271 22.569 71.7493 22.6598 71.7494 22.752V27.8781H76.2915V22.752C76.2916 22.6598 76.3138 22.569 76.3564 22.4872L76.4525 22.2978H71.5884ZM76.032 22.752V27.6185H72.009V22.752C72.009 22.6864 72.0012 22.621 71.9856 22.5573H76.0554C76.0398 22.621 76.0319 22.6864 76.032 22.752V22.752ZM77.2986 22.2978L77.3946 22.4872C77.4372 22.569 77.4594 22.6598 77.4595 22.752V27.8781H82.0016V22.752C82.0017 22.6598 82.024 22.569 82.0665 22.4872L82.1626 22.2978H77.2986ZM81.7421 22.752V27.6185H77.7191V22.752C77.7191 22.6864 77.7113 22.621 77.6957 22.5573H81.7655C81.7499 22.621 81.742 22.6864 81.7421 22.752V22.752ZM83.0087 22.2978L83.1047 22.4872C83.1473 22.569 83.1696 22.6598 83.1696 22.752V27.8781H87.7117V22.752C87.7118 22.6598 87.7341 22.569 87.7766 22.4872L87.8727 22.2978H83.0087ZM87.4522 22.752V27.6185H83.4292V22.752C83.4292 22.6864 83.4214 22.621 83.4058 22.5573H87.4756C87.46 22.621 87.4521 22.6864 87.4522 22.752V22.752Z" fill="#3F3D56"/>
<path d="M53.3303 45.6185H43.7602C43.5587 45.6183 43.3654 45.5381 43.2229 45.3956C43.0804 45.2531 43.0002 45.0598 43 44.8583V39.7602C43.0002 39.5587 43.0804 39.3654 43.2229 39.2229C43.3654 39.0804 43.5587 39.0002 43.7602 39H53.3303C53.5318 39.0002 53.7251 39.0804 53.8676 39.2229C54.0101 39.3654 54.0903 39.5587 54.0905 39.7602V44.8583C54.0903 45.0599 54.0101 45.2531 53.8676 45.3956C53.7251 45.5381 53.5318 45.6183 53.3303 45.6185V45.6185Z" fill="#306B34"/>
<path d="M68.3303 45.6185H58.7602C58.5587 45.6183 58.3654 45.5381 58.2229 45.3956C58.0804 45.2531 58.0002 45.0598 58 44.8583V39.7602C58.0002 39.5587 58.0804 39.3654 58.2229 39.2229C58.3654 39.0804 58.5587 39.0002 58.7602 39H68.3303C68.5318 39.0002 68.7251 39.0804 68.8676 39.2229C69.0101 39.3654 69.0903 39.5587 69.0905 39.7602V44.8583C69.0903 45.0598 69.0101 45.2531 68.8676 45.3956C68.7251 45.5381 68.5318 45.6183 68.3303 45.6185V45.6185Z" fill="#306B34"/>
<path d="M82.3303 45.6185H72.7602C72.5587 45.6183 72.3654 45.5381 72.2229 45.3956C72.0804 45.2531 72.0002 45.0598 72 44.8583V39.7602C72.0002 39.5587 72.0804 39.3654 72.2229 39.2229C72.3654 39.0804 72.5587 39.0002 72.7602 39H82.3303C82.5318 39.0002 82.7251 39.0804 82.8676 39.2229C83.0101 39.3654 83.0903 39.5587 83.0905 39.7602V44.8583C83.0903 45.0599 83.0101 45.2531 82.8676 45.3956C82.7251 45.5381 82.5318 45.6183 82.3303 45.6185V45.6185Z" fill="#306B34"/>
<path d="M53.3303 61.6186H43.7602C43.5587 61.6183 43.3654 61.5382 43.2229 61.3957C43.0804 61.2531 43.0002 61.0599 43 60.8583V55.7602C43.0002 55.5587 43.0804 55.3654 43.2229 55.2229C43.3654 55.0804 43.5587 55.0002 43.7602 55H53.3303C53.5318 55.0002 53.7251 55.0804 53.8676 55.2229C54.0101 55.3654 54.0903 55.5587 54.0905 55.7602V60.8583C54.0903 61.0599 54.0101 61.2531 53.8676 61.3957C53.7251 61.5382 53.5318 61.6183 53.3303 61.6186V61.6186Z" fill="#306B34"/>
<path d="M68.3303 61.6186H58.7602C58.5587 61.6183 58.3654 61.5382 58.2229 61.3957C58.0804 61.2531 58.0002 61.0599 58 60.8583V55.7602C58.0002 55.5587 58.0804 55.3654 58.2229 55.2229C58.3654 55.0804 58.5587 55.0002 58.7602 55H68.3303C68.5318 55.0002 68.7251 55.0804 68.8676 55.2229C69.0101 55.3654 69.0903 55.5587 69.0905 55.7602V60.8583C69.0903 61.0599 69.0101 61.2531 68.8676 61.3957C68.7251 61.5382 68.5318 61.6183 68.3303 61.6186V61.6186Z" fill="#306B34"/>
<path d="M82.3303 61.6186H72.7602C72.5587 61.6183 72.3654 61.5382 72.2229 61.3957C72.0804 61.2531 72.0002 61.0599 72 60.8583V55.7602C72.0002 55.5587 72.0804 55.3654 72.2229 55.2229C72.3654 55.0804 72.5587 55.0002 72.7602 55H82.3303C82.5318 55.0002 82.7251 55.0804 82.8676 55.2229C83.0101 55.3654 83.0903 55.5587 83.0905 55.7602V60.8583C83.0903 61.0599 83.0101 61.2531 82.8676 61.3957C82.7251 61.5382 82.5318 61.6183 82.3303 61.6186V61.6186Z" fill="#306B34"/>
<path d="M53.3303 78.6185H43.7602C43.5587 78.6183 43.3654 78.5381 43.2229 78.3956C43.0804 78.2531 43.0002 78.0599 43 77.8583V72.7602C43.0002 72.5587 43.0804 72.3654 43.2229 72.2229C43.3654 72.0804 43.5587 72.0002 43.7602 72H53.3303C53.5318 72.0002 53.7251 72.0804 53.8676 72.2229C54.0101 72.3654 54.0903 72.5587 54.0905 72.7602V77.8583C54.0903 78.0599 54.0101 78.2531 53.8676 78.3956C53.7251 78.5381 53.5318 78.6183 53.3303 78.6185V78.6185Z" fill="#306B34"/>
<path d="M68.3303 78.6185H58.7602C58.5587 78.6183 58.3654 78.5381 58.2229 78.3956C58.0804 78.2531 58.0002 78.0599 58 77.8583V72.7602C58.0002 72.5587 58.0804 72.3654 58.2229 72.2229C58.3654 72.0804 58.5587 72.0002 58.7602 72H68.3303C68.5318 72.0002 68.7251 72.0804 68.8676 72.2229C69.0101 72.3654 69.0903 72.5587 69.0905 72.7602V77.8583C69.0903 78.0599 69.0101 78.2531 68.8676 78.3956C68.7251 78.5381 68.5318 78.6183 68.3303 78.6185V78.6185Z" fill="#306B34"/>
<path d="M82.3303 78.6185H72.7602C72.5587 78.6183 72.3654 78.5381 72.2229 78.3956C72.0804 78.2531 72.0002 78.0599 72 77.8583V72.7602C72.0002 72.5587 72.0804 72.3654 72.2229 72.2229C72.3654 72.0804 72.5587 72.0002 72.7602 72H82.3303C82.5318 72.0002 82.7251 72.0804 82.8676 72.2229C83.0101 72.3654 83.0903 72.5587 83.0905 72.7602V77.8583C83.0903 78.0599 83.0101 78.2531 82.8676 78.3956C82.7251 78.5381 82.5318 78.6183 82.3303 78.6185V78.6185Z" fill="#306B34"/>
<path d="M51.0968 45.9268H40.0105C39.7426 45.9265 39.4857 45.8199 39.2963 45.6305C39.1069 45.441 39.0003 45.1842 39 44.9163V39.0105C39.0003 38.7426 39.1069 38.4858 39.2963 38.2963C39.4857 38.1069 39.7426 38.0003 40.0105 38H51.0968C51.3647 38.0003 51.6216 38.1069 51.811 38.2963C52.0004 38.4858 52.107 38.7426 52.1073 39.0105V44.9163C52.107 45.1842 52.0004 45.441 51.811 45.6305C51.6216 45.8199 51.3647 45.9265 51.0968 45.9268V45.9268ZM40.0105 38.2596C39.8114 38.2598 39.6205 38.339 39.4797 38.4798C39.339 38.6205 39.2598 38.8114 39.2596 39.0105V44.9163C39.2598 45.1154 39.339 45.3063 39.4797 45.4471C39.6205 45.5878 39.8114 45.667 40.0105 45.6673H51.0968C51.2959 45.667 51.4868 45.5878 51.6276 45.4471C51.7683 45.3063 51.8475 45.1154 51.8477 44.9163V39.0105C51.8475 38.8114 51.7683 38.6205 51.6276 38.4797C51.4868 38.339 51.2959 38.2598 51.0968 38.2596H40.0105Z" fill="#3F3D56"/>
<path d="M68.0968 45.9268H57.0105C56.7426 45.9265 56.4857 45.8199 56.2963 45.6305C56.1069 45.441 56.0003 45.1842 56 44.9163V39.0105C56.0003 38.7426 56.1069 38.4858 56.2963 38.2963C56.4857 38.1069 56.7426 38.0003 57.0105 38H68.0968C68.3647 38.0003 68.6216 38.1069 68.811 38.2963C69.0004 38.4858 69.107 38.7426 69.1073 39.0105V44.9163C69.107 45.1842 69.0004 45.441 68.811 45.6305C68.6216 45.8199 68.3647 45.9265 68.0968 45.9268ZM57.0105 38.2596C56.8114 38.2598 56.6205 38.339 56.4797 38.4797C56.339 38.6205 56.2598 38.8114 56.2596 39.0105V44.9163C56.2598 45.1154 56.339 45.3063 56.4797 45.4471C56.6205 45.5878 56.8114 45.667 57.0105 45.6673H68.0968C68.2959 45.667 68.4868 45.5878 68.6276 45.4471C68.7683 45.3063 68.8475 45.1154 68.8477 44.9163V39.0105C68.8475 38.8114 68.7683 38.6205 68.6276 38.4797C68.4868 38.339 68.2959 38.2598 68.0968 38.2596H57.0105Z" fill="#3F3D56"/>
<path d="M85.0968 45.9268H74.0105C73.7426 45.9265 73.4857 45.8199 73.2963 45.6305C73.1069 45.441 73.0003 45.1842 73 44.9163V39.0105C73.0003 38.7426 73.1069 38.4858 73.2963 38.2963C73.4857 38.1069 73.7426 38.0003 74.0105 38H85.0968C85.3647 38.0003 85.6216 38.1069 85.811 38.2963C86.0004 38.4858 86.107 38.7426 86.1073 39.0105V44.9163C86.107 45.1842 86.0004 45.441 85.811 45.6305C85.6216 45.8199 85.3647 45.9265 85.0968 45.9268ZM74.0105 38.2596C73.8114 38.2598 73.6205 38.339 73.4797 38.4797C73.339 38.6205 73.2598 38.8114 73.2596 39.0105V44.9163C73.2598 45.1154 73.339 45.3063 73.4797 45.4471C73.6205 45.5878 73.8114 45.667 74.0105 45.6673H85.0968C85.2959 45.667 85.4868 45.5878 85.6276 45.4471C85.7684 45.3063 85.8475 45.1154 85.8477 44.9163V39.0105C85.8475 38.8114 85.7684 38.6205 85.6276 38.4797C85.4868 38.339 85.2959 38.2598 85.0968 38.2596H74.0105Z" fill="#3F3D56"/>
<path d="M51.0968 62.9268H40.0105C39.7426 62.9265 39.4857 62.8199 39.2963 62.6305C39.1069 62.441 39.0003 62.1842 39 61.9163V56.0105C39.0003 55.7426 39.1069 55.4858 39.2963 55.2963C39.4857 55.1069 39.7426 55.0003 40.0105 55H51.0968C51.3647 55.0003 51.6216 55.1069 51.811 55.2963C52.0004 55.4858 52.107 55.7426 52.1073 56.0105V61.9163C52.107 62.1842 52.0004 62.4411 51.811 62.6305C51.6216 62.8199 51.3647 62.9265 51.0968 62.9268V62.9268ZM40.0105 55.2596C39.8114 55.2598 39.6205 55.339 39.4797 55.4798C39.339 55.6205 39.2598 55.8114 39.2596 56.0105V61.9163C39.2598 62.1154 39.339 62.3063 39.4797 62.447C39.6205 62.5878 39.8114 62.667 40.0105 62.6673H51.0968C51.2959 62.667 51.4868 62.5878 51.6276 62.4471C51.7683 62.3063 51.8475 62.1154 51.8477 61.9163V56.0105C51.8475 55.8114 51.7683 55.6205 51.6276 55.4797C51.4868 55.339 51.2959 55.2598 51.0968 55.2596H40.0105Z" fill="#3F3D56"/>
<path d="M68.0968 62.9268H57.0105C56.7426 62.9265 56.4857 62.8199 56.2963 62.6305C56.1069 62.4411 56.0003 62.1842 56 61.9163V56.0105C56.0003 55.7426 56.1069 55.4858 56.2963 55.2963C56.4857 55.1069 56.7426 55.0003 57.0105 55H68.0968C68.3647 55.0003 68.6216 55.1069 68.811 55.2963C69.0004 55.4858 69.107 55.7426 69.1073 56.0105V61.9163C69.107 62.1842 69.0004 62.441 68.811 62.6305C68.6216 62.8199 68.3647 62.9265 68.0968 62.9268ZM57.0105 55.2596C56.8114 55.2598 56.6205 55.339 56.4797 55.4797C56.339 55.6205 56.2598 55.8114 56.2596 56.0105V61.9163C56.2598 62.1154 56.339 62.3063 56.4797 62.4471C56.6205 62.5878 56.8114 62.667 57.0105 62.6673H68.0968C68.2959 62.667 68.4868 62.5878 68.6276 62.4471C68.7683 62.3063 68.8475 62.1154 68.8477 61.9163V56.0105C68.8475 55.8114 68.7683 55.6205 68.6276 55.4797C68.4868 55.339 68.2959 55.2598 68.0968 55.2596H57.0105Z" fill="#3F3D56"/>
<path d="M85.0968 62.9268H74.0105C73.7426 62.9265 73.4857 62.8199 73.2963 62.6305C73.1069 62.4411 73.0003 62.1842 73 61.9163V56.0105C73.0003 55.7426 73.1069 55.4858 73.2963 55.2963C73.4857 55.1069 73.7426 55.0003 74.0105 55H85.0968C85.3647 55.0003 85.6216 55.1069 85.811 55.2963C86.0004 55.4858 86.107 55.7426 86.1073 56.0105V61.9163C86.107 62.1842 86.0004 62.441 85.811 62.6305C85.6216 62.8199 85.3647 62.9265 85.0968 62.9268ZM74.0105 55.2596C73.8114 55.2598 73.6205 55.339 73.4797 55.4797C73.339 55.6205 73.2598 55.8114 73.2596 56.0105V61.9163C73.2598 62.1154 73.339 62.3063 73.4797 62.4471C73.6205 62.5878 73.8114 62.667 74.0105 62.6673H85.0968C85.2959 62.667 85.4868 62.5878 85.6276 62.4471C85.7684 62.3063 85.8475 62.1154 85.8477 61.9163V56.0105C85.8475 55.8114 85.7684 55.6205 85.6276 55.4797C85.4868 55.339 85.2959 55.2598 85.0968 55.2596H74.0105Z" fill="#3F3D56"/>
<path d="M51.0968 79.9268H40.0105C39.7426 79.9265 39.4857 79.8199 39.2963 79.6305C39.1069 79.441 39.0003 79.1842 39 78.9163V73.0105C39.0003 72.7426 39.1069 72.4858 39.2963 72.2963C39.4857 72.1069 39.7426 72.0003 40.0105 72H51.0968C51.3647 72.0003 51.6216 72.1069 51.811 72.2963C52.0004 72.4858 52.107 72.7426 52.1073 73.0105V78.9163C52.107 79.1842 52.0004 79.4411 51.811 79.6305C51.6216 79.8199 51.3647 79.9265 51.0968 79.9268V79.9268ZM40.0105 72.2596C39.8114 72.2598 39.6205 72.339 39.4797 72.4798C39.339 72.6205 39.2598 72.8114 39.2596 73.0105V78.9163C39.2598 79.1154 39.339 79.3063 39.4797 79.447C39.6205 79.5878 39.8114 79.667 40.0105 79.6673H51.0968C51.2959 79.667 51.4868 79.5878 51.6276 79.4471C51.7683 79.3063 51.8475 79.1154 51.8477 78.9163V73.0105C51.8475 72.8114 51.7683 72.6205 51.6276 72.4797C51.4868 72.339 51.2959 72.2598 51.0968 72.2596H40.0105Z" fill="#3F3D56"/>
<path d="M68.0968 79.9268H57.0105C56.7426 79.9265 56.4857 79.8199 56.2963 79.6305C56.1069 79.4411 56.0003 79.1842 56 78.9163V73.0105C56.0003 72.7426 56.1069 72.4858 56.2963 72.2963C56.4857 72.1069 56.7426 72.0003 57.0105 72H68.0968C68.3647 72.0003 68.6216 72.1069 68.811 72.2963C69.0004 72.4858 69.107 72.7426 69.1073 73.0105V78.9163C69.107 79.1842 69.0004 79.441 68.811 79.6305C68.6216 79.8199 68.3647 79.9265 68.0968 79.9268V79.9268ZM57.0105 72.2596C56.8114 72.2598 56.6205 72.339 56.4797 72.4797C56.339 72.6205 56.2598 72.8114 56.2596 73.0105V78.9163C56.2598 79.1154 56.339 79.3063 56.4797 79.4471C56.6205 79.5878 56.8114 79.667 57.0105 79.6673H68.0968C68.2959 79.667 68.4868 79.5878 68.6276 79.4471C68.7683 79.3063 68.8475 79.1154 68.8477 78.9163V73.0105C68.8475 72.8114 68.7683 72.6205 68.6276 72.4797C68.4868 72.339 68.2959 72.2598 68.0968 72.2596H57.0105Z" fill="#3F3D56"/>
<path d="M85.0968 79.9268H74.0105C73.7426 79.9265 73.4857 79.8199 73.2963 79.6305C73.1069 79.4411 73.0003 79.1842 73 78.9163V73.0105C73.0003 72.7426 73.1069 72.4858 73.2963 72.2963C73.4857 72.1069 73.7426 72.0003 74.0105 72H85.0968C85.3647 72.0003 85.6216 72.1069 85.811 72.2963C86.0004 72.4858 86.107 72.7426 86.1073 73.0105V78.9163C86.107 79.1842 86.0004 79.441 85.811 79.6305C85.6216 79.8199 85.3647 79.9265 85.0968 79.9268V79.9268ZM74.0105 72.2596C73.8114 72.2598 73.6205 72.339 73.4797 72.4797C73.339 72.6205 73.2598 72.8114 73.2596 73.0105V78.9163C73.2598 79.1154 73.339 79.3063 73.4797 79.4471C73.6205 79.5878 73.8114 79.667 74.0105 79.6673H85.0968C85.2959 79.667 85.4868 79.5878 85.6276 79.4471C85.7684 79.3063 85.8475 79.1154 85.8477 78.9163V73.0105C85.8475 72.8114 85.7684 72.6205 85.6276 72.4797C85.4868 72.339 85.2959 72.2598 85.0968 72.2596H74.0105Z" fill="#3F3D56"/>
<path d="M69.5537 88.1304C69.5572 87.8342 69.4431 87.5488 69.2362 87.3368C69.0293 87.1248 68.7467 87.0037 68.4506 87H63V100.432H69.5537V88.1304Z" fill="#3F3D56"/>
<path d="M62.8132 100.367H56V88.2329C56.0004 87.906 56.1304 87.5926 56.3615 87.3615C56.5926 87.1304 56.906 87.0004 57.2329 87H62.8132V100.367ZM56.2596 100.107H62.5536V87.2596H57.2329C56.9748 87.2598 56.7274 87.3625 56.5449 87.5449C56.3625 87.7274 56.2598 87.9748 56.2596 88.2329V100.107Z" fill="#3F3D56"/>
<path d="M58.3893 93.7787C58.6043 93.7787 58.7787 93.6043 58.7787 93.3893C58.7787 93.1743 58.6043 93 58.3893 93C58.1743 93 58 93.1743 58 93.3893C58 93.6043 58.1743 93.7787 58.3893 93.7787Z" fill="#3F3D56"/>
</g>
<defs>
<clipPath id="clip0">
<rect width="131.073" height="100" fill="white"/>
</clipPath>
</defs>
</svg>
