<svg fill="none" width="96" height="80" xmlns="http://www.w3.org/2000/svg" viewBox="0 0 97 81">
  <g clip-path="url(#clip0)">
    <path opacity=".1" d="M96.374 51.97a35.687 35.687 0 01-.576 6.432 32.159 32.159 0 01-1.178 4.547c-.139.407-.285.805-.44 1.195a21.064 21.064 0 01-.992 6.459c-1.187 3.654-3.303 6.61-5.964 8.326-1.664 1.075-3.482 1.641-5.325 1.656H18.598c-2.817.009-5.584-.994-8.022-2.905l-.038-.029a16.692 16.692 0 01-1.015-.874 18.194 18.194 0 01-2.084-2.328 21.133 21.133 0 01-2.291-3.846c-1.526-3.28-2.334-7.08-2.33-10.957C1.272 55.974.371 51.575.371 46.849c0-5.963 1.431-11.402 3.783-15.52.49-.86 1.027-1.67 1.606-2.422a17.02 17.02 0 011.837-2.037c.522-.49 1.066-.933 1.63-1.325a12.287 12.287 0 011.354-.815c.259-.133.521-.256.787-.368.266-.112.528-.21.787-.293a9.837 9.837 0 012.922-.497h.143c.29 0 .579.015.865.042.03-.082.063-.165.093-.245.114-.295.232-.59.35-.876a.05.05 0 010-.008l.063-.149c.096-.235.196-.468.299-.699a11.82 11.82 0 01.175-.393c.05-.11.099-.221.15-.331.251-.545.513-1.08.784-1.606l.07-.135c.042-.081.081-.16.128-.243a33.799 33.799 0 01.596-1.078c.212-.369.43-.737.652-1.105a28.075 28.075 0 01.794-1.236l.348-.515.048-.069c.042-.06.082-.121.127-.18a36.894 36.894 0 013.692-4.477c.043-.047.087-.09.13-.135a33.437 33.437 0 014.247-3.684 31.303 31.303 0 015.694-3.32 29.633 29.633 0 013.455-1.295A28.556 28.556 0 0146.338.59a28.618 28.618 0 019.536 1.634c.032.066.076.12.128.156.052.037.11.055.168.053h.274a29.696 29.696 0 012.321.984l.163.08a31.334 31.334 0 014.639 2.76 33.745 33.745 0 014.447 3.812c.225-.195.454-.382.687-.561a11.959 11.959 0 012.843-1.642c2.072-.83 4.263-.947 6.377-.338 2.71.778 5.163 2.71 7.145 5.46a22.943 22.943 0 012.275 3.973 28.482 28.482 0 011.365 3.685c.014.048.028.092.04.138a32.51 32.51 0 01.84 3.683c.009.064.02.127.03.191.198 1.214.332 2.445.401 3.685a37.015 37.015 0 01.017 3.822c0 .063-.006.128-.01.193-.008.167-.018.331-.029.5.623.68 1.205 1.424 1.743 2.227.237.35.467.715.69 1.093a25.292 25.292 0 011.776 3.685c1.379 3.524 2.17 7.67 2.17 12.109z" fill="#306B34"/>
    <path opacity=".1" d="M87.164 78.52c0 .755-1.918 1.461-5.265 2.069H18.598c-2.817.008-5.584-.995-8.022-2.906l-.037-.028c.961-.475 2.697-.918 5.06-1.318l.106-.017a84.27 84.27 0 013.538-.5c.033 0 .066-.007.099-.013 1.027-.123 2.12-.24 3.277-.347.037 0 .073-.01.11-.012.446-.043.902-.084 1.367-.123l.18-.016a241.12 241.12 0 0111.41-.662h.005c.585-.022 1.176-.042 1.773-.059.664-.021 1.336-.04 2.017-.056.519-.016 1.044-.027 1.572-.038h.012a360.73 360.73 0 017.351-.073c6.216 0 12.09.154 17.297.43h.014c.8.042 1.587.088 2.353.136l.652.042c.864.056 1.706.116 2.526.18 9.643.743 15.906 1.95 15.906 3.311z" fill="#306B34"/>
    <g opacity=".2">
      <path opacity=".2" d="M55.821 73.915c-.003.119-.013.237-.03.354a41.69 41.69 0 00-1.712-.331v-.095c.005-.331.076-.654.204-.937.168-.36.423-.585.704-.573.281.013.525.259.676.63.114.293.169.621.158.952z" fill="#243444"/>
      <path opacity=".2" d="M55.868 72.028c.02-.854-.354-1.563-.836-1.584-.481-.02-.888.655-.908 1.509-.02.854.355 1.563.836 1.584.481.02.888-.655.908-1.51z" fill="#243444"/>
      <path opacity=".2" d="M55.912 70.137c.02-.854-.354-1.563-.835-1.584-.482-.02-.888.656-.908 1.51-.02.853.354 1.562.836 1.583.48.02.887-.655.907-1.509z" fill="#243444"/>
      <path opacity=".2" d="M55.956 68.247c.02-.854-.354-1.563-.836-1.584-.481-.02-.887.655-.907 1.509-.02.854.354 1.563.835 1.584.482.02.888-.655.908-1.51z" fill="#243444"/>
      <path opacity=".2" d="M56 66.356c.02-.854-.355-1.563-.836-1.584-.481-.02-.888.655-.908 1.51-.02.853.355 1.562.836 1.583.481.02.888-.655.908-1.509z" fill="#243444"/>
      <path opacity=".2" d="M52.161 53.239a6.014 6.014 0 01-.31-.663l2.304-.412-2.48-.08a7.459 7.459 0 01-.328-2.248 7.427 7.427 0 01.354-2.24l3.27 2.479-2.995-3.185a5.315 5.315 0 011.174-1.676 3.706 3.706 0 011.57-.901 3.113 3.113 0 011.706.024 3.768 3.768 0 011.556.945 5.414 5.414 0 011.148 1.709c.292.67.48 1.415.55 2.188.07.773.02 1.556-.143 2.303a6.496 6.496 0 01-.81 2.034c.179.327.33.68.453 1.052l-3.023 1.966 3.206-1.307c.201.903.234 1.86.094 2.783-.14.924-.447 1.786-.895 2.508.466.855.744 1.87.803 2.93a7.393 7.393 0 01-.467 3.062c-.365.941-.918 1.724-1.595 2.26-.678.535-1.453.8-2.237.767-.784-.033-1.546-.365-2.197-.957s-1.167-1.42-1.487-2.39a7.504 7.504 0 01-.324-3.096c.109-1.053.434-2.043.938-2.857-.556-1.022-.842-2.268-.813-3.537.03-1.27.373-2.489.976-3.462h.002z" fill="#306B34"/>
      <path opacity=".1" d="M59.54 57.057c-.028 1.27-.373 2.49-.978 3.46.466.856.744 1.872.803 2.932a7.394 7.394 0 01-.467 3.061c-.365.941-.918 1.724-1.595 2.26-.678.535-1.453.8-2.237.767-.784-.033-1.546-.365-2.197-.957s-1.167-1.42-1.487-2.39a7.504 7.504 0 01-.324-3.096c.109-1.053.434-2.043.938-2.857-.536-.986 7.559-3.815 7.544-3.18z" fill="#243444"/>
    </g>
    <g opacity=".2">
      <path opacity=".2" d="M43.432 73.915c-.003.119-.013.237-.03.354a41.684 41.684 0 00-1.712-.331v-.095a2.37 2.37 0 01.204-.937c.168-.36.423-.585.704-.573.281.013.525.259.676.63.114.293.169.621.158.952z" fill="#243444"/>
      <path opacity=".2" d="M43.478 72.028c.02-.854-.354-1.563-.836-1.584-.481-.02-.888.656-.907 1.51-.02.854.354 1.563.835 1.583.482.02.888-.655.908-1.509z" fill="#243444"/>
      <path opacity=".2" d="M43.523 70.138c.02-.854-.355-1.563-.836-1.584-.482-.02-.888.655-.908 1.509-.02.854.354 1.563.836 1.584.481.02.887-.656.907-1.51z" fill="#243444"/>
      <path opacity=".2" d="M43.566 68.247c.02-.854-.354-1.563-.836-1.584-.481-.02-.887.655-.907 1.51-.02.853.354 1.562.835 1.583.482.02.888-.655.908-1.509z" fill="#243444"/>
      <path opacity=".2" d="M43.61 66.356c.02-.853-.354-1.563-.836-1.583-.481-.02-.888.655-.908 1.509-.02.854.355 1.563.836 1.584.481.02.888-.656.908-1.51z" fill="#243444"/>
      <path opacity=".2" d="M39.772 53.239a6.014 6.014 0 01-.31-.663l2.304-.412-2.48-.08a7.456 7.456 0 01-.328-2.248 7.423 7.423 0 01.354-2.24l3.27 2.479-2.995-3.185a5.315 5.315 0 011.174-1.676 3.705 3.705 0 011.57-.901 3.113 3.113 0 011.706.024 3.768 3.768 0 011.556.945 5.412 5.412 0 011.148 1.709c.292.67.48 1.415.55 2.188.07.773.02 1.556-.143 2.303a6.496 6.496 0 01-.81 2.034c.18.327.33.68.453 1.052l-3.023 1.966 3.206-1.307c.201.903.234 1.86.094 2.783-.14.924-.447 1.786-.895 2.508.465.855.744 1.87.803 2.93a7.393 7.393 0 01-.467 3.062c-.365.941-.918 1.724-1.595 2.26-.678.535-1.453.8-2.237.767-.784-.033-1.545-.365-2.197-.957-.651-.592-1.167-1.42-1.487-2.39a7.503 7.503 0 01-.324-3.096c.109-1.053.434-2.043.938-2.857-.556-1.022-.842-2.268-.813-3.537.03-1.27.373-2.489.976-3.462h.002z" fill="#306B34"/>
      <path opacity=".1" d="M47.151 57.057c-.028 1.27-.373 2.49-.978 3.46.465.856.744 1.872.803 2.932a7.394 7.394 0 01-.467 3.061c-.365.941-.918 1.724-1.595 2.26-.678.535-1.453.8-2.237.767-.784-.033-1.545-.365-2.197-.957-.651-.592-1.167-1.42-1.487-2.39a7.502 7.502 0 01-.324-3.096c.109-1.053.434-2.043.938-2.857-.536-.986 7.559-3.815 7.544-3.18z" fill="#243444"/>
    </g>
    <g opacity=".2">
      <path opacity=".2" d="M77.274 75.123c-.007.225-.026.45-.06.671a72.287 72.287 0 00-3.3-.634v-.182c.01-.638.146-1.26.393-1.803.326-.693.815-1.127 1.355-1.105.54.023 1.01.499 1.304 1.215.222.565.328 1.2.308 1.838z" fill="#243444"/>
      <path opacity=".2" d="M77.362 71.487c.039-1.644-.682-3.01-1.61-3.05-.926-.04-1.71 1.262-1.748 2.906-.038 1.645.682 3.01 1.61 3.05.927.04 1.71-1.261 1.748-2.906z" fill="#243444"/>
      <path opacity=".2" d="M77.447 67.847c.038-1.644-.682-3.01-1.61-3.05-.927-.039-1.71 1.262-1.748 2.907-.038 1.644.682 3.01 1.61 3.05.927.039 1.71-1.262 1.748-2.907z" fill="#243444"/>
      <path opacity=".2" d="M77.532 64.208c.039-1.645-.682-3.01-1.61-3.05-.926-.04-1.71 1.261-1.748 2.906-.038 1.645.683 3.01 1.61 3.05.927.04 1.71-1.262 1.748-2.906z" fill="#243444"/>
      <path opacity=".2" d="M77.522 60.403c.036-1.646-.687-3.01-1.614-3.048-.928-.038-1.71 1.266-1.746 2.91-.037 1.646.686 3.01 1.614 3.048.928.038 1.71-1.265 1.746-2.91z" fill="#243444"/>
      <path opacity=".2" d="M70.227 35.319c-.22-.406-.419-.831-.596-1.274l4.434-.792-4.772-.156a14.348 14.348 0 01-.634-4.327 14.29 14.29 0 01.682-4.313l6.296 4.772-5.766-6.131c.583-1.272 1.353-2.367 2.262-3.218.91-.85 1.938-1.439 3.022-1.727a5.991 5.991 0 013.28.05c1.08.322 2.098.94 2.993 1.82.895.878 1.646 1.996 2.208 3.286.561 1.289.921 2.72 1.056 4.207a14.63 14.63 0 01-.27 4.428c-.314 1.436-.843 2.768-1.553 3.915.343.63.635 1.31.871 2.026l-5.82 3.787 6.17-2.518a14.65 14.65 0 01.185 5.351c-.268 1.777-.859 3.435-1.719 4.825.896 1.647 1.431 3.602 1.546 5.642.114 2.04-.198 4.082-.9 5.893s-1.766 3.318-3.071 4.349c-1.305 1.03-2.797 1.543-4.306 1.478-1.51-.064-2.975-.703-4.229-1.843-1.254-1.14-2.246-2.734-2.863-4.602-.616-1.867-.832-3.932-.624-5.958.21-2.027.835-3.932 1.805-5.5-1.07-1.968-1.62-4.366-1.564-6.809.057-2.443.718-4.79 1.877-6.662z" fill="#306B34"/>
      <path opacity=".1" d="M84.434 42.669c-.053 2.443-.714 4.79-1.875 6.663.896 1.647 1.432 3.602 1.546 5.642.114 2.04-.198 4.082-.9 5.894-.702 1.81-1.766 3.318-3.07 4.348-1.305 1.03-2.797 1.543-4.307 1.478-1.51-.064-2.975-.703-4.229-1.843-1.254-1.14-2.246-2.734-2.862-4.602-.617-1.867-.833-3.932-.624-5.958.209-2.026.834-3.932 1.805-5.5-1.039-1.9 14.545-7.345 14.516-6.122z" fill="#243444"/>
    </g>
    <path d="M13.237 75.317l.855-.003h1.206l1.524-33.545L31.916 7.644l-.656-.954V4.274L14.936 40.978l-1.699 34.339z" fill="#CED0CE"/>
    <path opacity=".1" d="M14.183 75.314h1.115l1.524-33.545L31.916 7.644l-.656-.954-15.57 34.567-1.507 34.057z" fill="#243444"/>
    <path d="M10.718 75.596l39.11 4.055.034.004 37.85-3.154.03-.002v-2.166l-41.707-1.037-34.796-.045h-.255l-.027.243-.24 2.102z" fill="#CED0CE"/>
    <path opacity=".1" d="M10.718 75.596l39.11 4.055.034.004 37.85-3.154.03-.042v-2.08h-.034l-37.88 1.713-38.59-2.841h-.005l-.069.06-.207.183-.24 2.102z" fill="#243444"/>
    <path opacity=".1" d="M10.718 75.596l39.11 4.055v-3.559l-38.664-2.78-.207.182-.24 2.102z" fill="#243444"/>
    <path d="M31.255 6.644l17.243 25.074-.533 44.104 1.464.24.025.004h1.464l.176-42.455L83.38 48.224l.544 26.016 1.179.18.4.06-.925-28.06-33.752-16.054L32.32 4.299h-1.065v2.345z" fill="#CED0CE"/>
    <path opacity=".1" d="M50.96 32.8l.134.812L83.38 48.222l.544 26.016 1.179.18-.924-26.737L50.96 32.8zM31.255 6.644l17.243 25.074-.533 44.104 1.464.24.4-45.787L31.255 4.299v2.345z" fill="#243444"/>
    <path d="M51.024 50.5l11.842 3.16h.004l20.74 5.536.95-.516-.003-.09-.062-1.795-33.46-9.16-.011 2.865z" fill="#CED0CE"/>
    <path opacity=".1" d="M62.87 53.66l20.74 5.536.95-.516-.003-.09-21.687-4.93z" fill="#243444"/>
    <path d="M63.663 39.3l.32 23.889.166 12.256 1.458-.066.917-.042-.285-35.692-.632-.285-.139-.06h-1.805z" fill="#CED0CE"/>
    <path opacity=".1" d="M63.676 39.294v.006l.307 23.889.166 12.256 1.458-.066V39.294h-1.931z" fill="#243444"/>
    <path d="M40.822 45.4c.086.064.167.136.245.216.091.108.173.23.244.363.35.613.673 1.325.638 2.098.001.113-.014.224-.046.329a.922.922 0 01-.135.279c-.145.166-.352.174-.54.174-.206 0-.422 0-.6-.144-.178-.143-.326-.422-.536-.416a.203.203 0 01-.09 0c-.072-.032-.087-.161-.134-.243-.082-.147-.254-.11-.382-.046s-.27.16-.396.086a.51.51 0 01-.172-.233c-.302-.663-.367-1.459-.424-2.228-.035-.469-.302-2.065.436-1.702.326.159.63.477.927.71l.965.758z" fill="#243444"/>
    <path d="M40.094 45.558a.301.301 0 00.226.093.318.318 0 00.221-.117c.121-.148.199-.352.218-.572.081-.034.123.11.175.199.091.15.277.148.36.308.058.11.045.264.086.389.053.16.184.245.274.375.084.143.145.308.179.485l.134.543a3.5 3.5 0 01.122.704c.008.12-.001.241-.028.357-.026.115-.07.222-.127.315-.18.262-.473.29-.733.282a.712.712 0 01-.258-.041c-.23-.097-.378-.412-.44-.729-.06-.317-.054-.65-.09-.974a4.88 4.88 0 00-.204-.925c-.071-.23-.269-.572-.265-.816.058 0 .1.073.15.124z" fill="#243444"/>
    <path d="M40.386 44.44a2.409 2.409 0 01-.066-.485c0-.331.112-.643.224-.939l-.931.172c-.113.02-.238.051-.302.178a.573.573 0 000 .408c.047.126.084.258.11.394.003.12.013.238.031.355.029.085.07.163.12.228.266.4.466.872.665 1.339-.006-.014.561-.609.539-.803-.013-.11-.177-.243-.23-.35a2.145 2.145 0 01-.16-.497z" fill="#BE6F72"/>
    <path d="M48.374 40.126v1.087l-13.748 3.633-.713.586h-2.46v-.613l13.506-4.422 3.415-.271z" fill="#CED0CE"/>
    <path opacity=".1" d="M48.374 41.213l-13.748 3.633-.713.585h-2.46l13.607-3.945 3.314-.273z" fill="#243444"/>
    <path d="M37.336 71.003c-.153-.252-.364-.425-.6-.493a.82.82 0 00-.696.12.38.38 0 00-.119.125c-.081.155-.03.368-.022.56.019.465-.255.844-.501 1.17-.132.174-.267.36-.326.598-.06.237-.016.539.144.663.07.047.146.076.224.084.26.068.527.079.79.03a.912.912 0 00.628-.593.693.693 0 01.105-.235c.143-.153.363.027.526-.082.135-.091.14-.234.142-.421.005-.52-.052-1.107-.295-1.526zM39.292 70.983c.1.358.114.747.127 1.13.008.22.013.457-.075.643a.642.642 0 01-.425.332c-.34.095-.733.005-.953-.36-.168-.28-.203-.663-.172-1.025.026-.297.082-.645-.075-.856-.041-.056-.094-.096-.132-.157-.081-.135-.068-.338-.024-.503.057-.159.1-.326.128-.498.006-.082 1.103.057 1.204.124.138.092.117.246.158.431.058.258.17.492.24.739z" fill="#306B34"/>
    <path d="M39.494 55.12c.215.188.298.559.331.904.092.944-.069 1.898-.081 2.85-.012 1.336.274 2.695.03 3.988-.146.773-.022 1.657-.159 2.437-.04.232-.116.45-.155.683-.081.502.004 1.028.12 1.52.036.132.06.27.069.411-.006.217-.047.43-.12.623l-.489 1.567c-.054.175-.27.204-.407.227-.26.042-.549.072-.755-.145-.206-.218-.256-.582-.288-.923a19.087 19.087 0 01-.081-1.968 2.177 2.177 0 00-.034-.512c-.044-.188-.143-.352-.17-.552-.034-.258.063-.512.099-.773.024-.238.022-.48-.008-.716a38.186 38.186 0 00-.11-1.058c-.06-.492.025-.977.081-1.469.053-.463-.015-.934-.081-1.394.005.373-.029.745-.102 1.105-.043.175-.105.343-.143.522-.167.803.19 1.645.139 2.477-.024.388-.136.773-.105 1.156.022.28.118.538.184.805s.1.573 0 .823c-.264.678-.066 1.6.17 2.295.049.124.09.251.126.382.07.314.012.65.03.978a.34.34 0 01-.204-.018.444.444 0 01-.178-.138c-.036-.05-.065-.11-.1-.163a1.008 1.008 0 00-.34-.289.356.356 0 00-.245-.076.495.495 0 00-.233.196c-.08.096-.166.184-.255.264a.273.273 0 01-.13.078.089.089 0 01-.07-.015.143.143 0 01-.05-.068.255.255 0 01-.01-.057c-.03-.334-.046-.67-.048-1.005 0-.578-.51-.975-.574-1.546-.052-.46.044-.93.012-1.394-.016-.238-.064-.472-.061-.71 0-.155.026-.307.035-.46.007-.17.005-.341-.006-.511l-.025-.534c-.025-.526-.052-1.064-.205-1.546a6.822 6.822 0 01-.318-1.775c-.016-.387-.005-.773-.038-1.161-.03-.35-.095-.698-.076-1.05.016-.27.082-.533.097-.805.032-.523-.115-1.03-.23-1.53-.114-.5-.2-1.055-.048-1.538a.538.538 0 01.104-.205.392.392 0 01.192-.097 11.119 11.119 0 014.256-.368c.233.018.458.113.657.277z" fill="#243444"/>
    <path d="M34.867 43.39c.72 0 1.305-.791 1.305-1.768s-.584-1.77-1.305-1.77c-.722 0-1.306.793-1.306 1.77s.584 1.769 1.306 1.769z" fill="#BE6F72"/>
    <path d="M34.614 43.831a.849.849 0 010 .308.776.776 0 01-.086.195c-.126.22-.266.427-.418.616.078.234.217.42.39.522.173.1.354.17.54.209a.566.566 0 00.283.027c.087-.03.17-.081.244-.15l.726-.59c.11-.08.21-.179.301-.294.133-.185.209-.433.21-.691a.241.241 0 00-.025-.13.152.152 0 00-.1-.057c-.255-.076-.456-.357-.57-.675a4.619 4.619 0 01-.198-1.023l-.774.552c-.115.083-.229.166-.348.237-.076.047-.229.085-.283.18-.102.172.08.556.108.764z" fill="#BE6F72"/>
    <path d="M34.115 44.629c-.11.122-.196.28-.25.458-.05.22 0 .454.045.672.214.932.378 1.884.49 2.848.068.663.093 1.335.127 2.006.068 1.367.167 3.547.3 4.905.49.03.966-.164 1.451-.234.907-.13 1.84.168 2.727-.11-.215-1.152-.43-3.12-.645-4.27a10.758 10.758 0 01-.197-1.386c-.02-.337-.008-.674-.004-1.013.007-.663-.02-1.326-.047-1.988-.03-.773-.062-1.546-.197-2.302a.497.497 0 00-.095-.253c-.081-.08-.187-.052-.284-.035-.297.052-.598-.045-.846-.271-.108-.1-.252-.221-.352-.11a.561.561 0 00-.082.235 1.272 1.272 0 01-.2.415.885.885 0 01-.31.266 1.987 1.987 0 01-.722.2.271.271 0 01-.224-.033c-.116-.096-.124-.442-.27-.465-.128-.02-.329.353-.415.465z" fill="#243444"/>
    <path d="M36.044 47.325c-.301-.39-.433-.955-.652-1.435a3.06 3.06 0 00-.564-.84 1.946 1.946 0 01-.306-.352c-.078-.129-.136-.301-.254-.35a.23.23 0 00-.146.005.299.299 0 00-.128.097c-.072.092-.14.19-.204.293-.346.485-.953.553-1.227 1.114a1.076 1.076 0 00-.146.414c-.078.816.077 1.642.435 2.308.07.154.176.27.302.33-.017.207.003.415.059.608.15.7.336 1.383.555 2.049-.052.26-.089.525-.11.794-.056.674-.003 1.359-.057 2.035-.044.552-.163 1.09-.167 1.643 0 .088.005.193.062.238.03.021.063.03.097.028l1.002.04c.582.024 1.17.047 1.743-.099a.6.6 0 00.219-.093c.194-.147.258-.479.29-.773.04-.383.056-.77.047-1.155.122.52.266 1.057.633 1.283.194.119.416.11.628.102a8.858 8.858 0 001.369-.19c.028.004.056 0 .083-.013a.185.185 0 00.07-.062.271.271 0 00.041-.097.327.327 0 00.006-.112l.004-.603c.01-1.225-.214-2.395-.301-3.615-.028-.384-.025-.773-.095-1.15-.028-.157-.07-.312-.095-.47a4.508 4.508 0 01-.04-.472l-.064-1.215c-.03-.562-.074-1.104-.105-1.665a10.759 10.759 0 00-.175-1.619c-.07-.331-.218-.707-.474-.748-.136-.02-.268.06-.397.116a1.21 1.21 0 01-.978-.005c-.098-.053-.2-.09-.305-.11a.228.228 0 00-.155.027.33.33 0 00-.124.13.741.741 0 00-.043.278c-.038 1.103-.11 2.239-.334 3.311z" fill="#306B34"/>
    <path d="M34.732 47.358c-.376-.536-.761-1.083-1.245-1.424-.191-.135-.408-.236-.619-.186-.211.051-.408.3-.398.59.007.18.087.339.113.516.029.199-.013.41.032.603.037.126.093.242.163.339l.577.926c.245.387.49.779.804 1.046.315.267.722.392 1.068.202.246-.155.45-.41.585-.728.143-.309.245-.647.379-.966.21-.51.485-.964.815-1.34-.17-.06-.382-.143-.489-.33a1.248 1.248 0 01-.077-.19l-.133-.387a.25.25 0 00-.131.028.333.333 0 00-.113.097 2.56 2.56 0 01-.182.25c-.115.117-.27.15-.375.283-.04.057-.077.12-.109.186-.079.14-.179.256-.294.34a.746.746 0 01-.371.145z" fill="#243444"/>
    <path d="M37.036 45.05c.283-.7.27-1.538.35-2.327.01-.21.064-.41.156-.578.163-.25.451-.253.697-.22.073.01.163.057.16.155a.228.228 0 01-.038.094 3.23 3.23 0 00-.402 1.449c.128.12.326-.127.449 0 .081.093.044.276-.005.408-.114.307-.23.612-.351.915a3.125 3.125 0 01-.373.727c-.103.135-.225.241-.33.373-.244.31-.392.75-.644 1.052a.125.125 0 01-.082.056.124.124 0 01-.086-.052c-.126-.139-.23-.31-.308-.504-.096-.241-.081-.312.07-.482.284-.304.56-.63.737-1.067z" fill="#BE6F72"/>
    <path d="M34.26 46.884c.048.04.108.087.162.053a.207.207 0 00.055-.072c.093-.169.17-.352.231-.546a.268.268 0 00.017-.088c0-.07-.046-.123-.09-.163a3.04 3.04 0 00-.74-.477c-.215-.111-.44-.207-.668-.18a.515.515 0 00-.246.092.714.714 0 00-.2.216c-.163.283.11.37.281.472.396.244.825.386 1.197.693z" fill="#306B34"/>
    <path opacity=".1" d="M34.002 48.76a.217.217 0 00.005.076.178.178 0 00.03.064c.023-.157-.008-.322.017-.48.036-.238.206-.417.22-.655-.311-.083-.269.74-.272.996z" fill="#243444"/>
    <path opacity=".2" d="M48.374 40.126v1.087l-3.314.273-.1-1.089 3.414-.271z" fill="#243444"/>
    <path d="M33.691 41.885c.207-.229.087-.708.228-1.015.081-.168.219-.256.354-.331.163-.104.338-.17.518-.195.09-.011.18.004.265.047a.62.62 0 01.224.197c.053.082.089.181.138.266.062.1.142.174.233.217.09.042.187.05.28.024a.302.302 0 00.214-.295.47.47 0 00-.097-.236l-.234-.35c-.264-.398-.559-.82-.947-.919-.271-.07-.548.029-.809.147-.105.047-.223.118-.253.263-.02.1.01.207-.007.308-.033.2-.223.267-.31.435-.089.168-.062.367-.087.552-.025.186-.099.367-.108.559-.005.116.038.331.134.373.096.042.205-.185.264-.047z" fill="#243444"/>
    <path d="M36.066 40.641a3.983 3.983 0 00-.433-1.343c-.193-.372-.461-.66-.772-.83a.846.846 0 00-.49-.098.915.915 0 00-.471.2c-.214.208-.38.492-.48.821-.211.616-.29 1.37-.044 1.961.098-.16.266-.088.414-.146.186-.072.343-.24.52-.345.534-.32 1.186-.06 1.756-.22z" fill="#306B34"/>
    <path opacity=".1" d="M33.5 40.607c-.018-.199-.03-.43.074-.57a.059.059 0 01.02-.021.04.04 0 01.023-.006.056.056 0 01.02.015 2.885 2.885 0 01.167.43.235.235 0 00-.183.018.347.347 0 00-.143.154M35.405 40.046l-.03-.394a.243.243 0 01.007-.097.1.1 0 01.053-.053.071.071 0 01.066.008c.04.03.073.075.095.13.068.14.124.291.168.45a.735.735 0 00-.397.006M36.135 56.046v.9l-.562.051H32.62v-.951h3.516z" fill="#243444"/>
    <path d="M36.135 56.046v.951h-3.516L23.28 41.148V40.4h1.958l10.897 15.647z" fill="#CED0CE"/>
    <path opacity=".1" d="M36.135 56.046v.951h-3.516L23.28 41.148V40.4h1.958l10.897 15.647z" fill="#243444"/>
    <path opacity=".1" d="M36.135 56.046v.951h-3.516L23.28 41.148V40.4l9.39 15.647h3.465z" fill="#243444"/>
    <path d="M24.505 71.931a.447.447 0 01-.044.258.289.289 0 01-.075.09.204.204 0 01-.095.042c-.227.104-.467.207-.628.442-.16.235-.192.671 0 .862.099.08.212.122.326.12.37.035.755.028 1.09-.184.24-.15.465-.406.728-.383.136.011.281.097.403.013.121-.084.155-.318.156-.513a5.067 5.067 0 00-.134-1.203c-.012-.053-.53-.093-.593-.11l-.628-.11c-.12-.021-.376-.143-.47-.008-.093.135-.036.524-.036.684zM28.255 69.175c.026.199.07.393.129.579.087.3.198.62.412.765.194.131.432.084.63-.04a.57.57 0 00.209-.216 1.11 1.11 0 00.081-.496c0-.427-.019-.869-.163-1.249-.124-.331-.34-.616-.343-.983l-.742.195a.185.185 0 00-.11.058.292.292 0 00-.047.12c-.08.414-.098.844-.056 1.267zM19.388 58.685c-.031.355-.018.736.119 1.043.137.307.425.51.674.388a.09.09 0 00.036-.023c.01-.011.02-.025.026-.04a.204.204 0 00-.011-.11 2.17 2.17 0 01.025-1.228c.017-.051.052-.11.09-.091a.102.102 0 01.037.05c.04.093.059.199.057.306a1.53 1.53 0 00-.007.292c.016.095.09.185.156.144a.199.199 0 00.048-.061.265.265 0 00.026-.082c.182-.712.1-1.49.016-2.236a.155.155 0 00-.006-.05.124.124 0 00-.021-.042.086.086 0 00-.032-.026.065.065 0 00-.038-.004c-.384-.052-.595-.177-.815.308-.189.408-.38.97-.38 1.462z" fill="#306B34"/>
    <path d="M23.885 56.873c-.114.642-.229 1.293-.236 1.953.002.411.025.822.068 1.23l.086.955c.03.323.058.644.1.963.026.165.04.332.043.5-.009.166-.028.33-.058.492-.052.338-.08.682-.086 1.027-.009.552.042 1.104.073 1.656.064 1.1.054 2.206-.028 3.304-.033.297.014.6.133.852.049.08.089.168.119.262.06.253-.082.506-.119.766a.993.993 0 00.103.574.576.576 0 00.372.31c.652.104 1.322.056 1.91.46.062-.245-.074-.523-.012-.772.04-.155.147-.255.22-.386a1.43 1.43 0 00.14-.673 3.253 3.253 0 00-.12-.913c-.07-.244-.169-.483-.163-.744 0-.128.033-.262-.005-.38a.602.602 0 00-.105-.178 2.682 2.682 0 01-.427-1.309 8.147 8.147 0 01.035-1.451c.04-.457.093-.94.308-1.296-.1-1.082-.041-2.18.172-3.23.021-.097.054-.21.128-.233a.14.14 0 01.086.016.195.195 0 01.07.068c.128.162.19.397.245.622.06.244.123.505.076.755-.02.11-.058.207-.081.313-.05.213-.041.443.024.648a.783.783 0 01.059.244.857.857 0 01-.049.212c-.03.131-.04.269-.028.405s.044.267.096.385c.104.234.232.448.38.633a3.107 3.107 0 00.068 1.336.219.219 0 01-.004.063c-.015.042-.052.057-.082.087-.081.09-.03.262.024.38.15.324.315.635.495.93.163.264.148.773.391.868.102.03.208.03.31 0 .24-.05.507-.144.624-.431.048-.118.068-.262.143-.35.075-.088.172-.104.213-.21.042-.106-.005-.245.01-.368.013-.122.092-.22.117-.35.06-.298-.196-.543-.231-.848-.05-.441.36-.773.343-1.214-.036-.96-.059-1.924-.095-2.884a28.162 28.162 0 01-.02-2.582c.029-.536.082-1.097-.063-1.595a1.633 1.633 0 00-1.341-1.172c-.557-.075-1.112.104-1.664.221a7.79 7.79 0 01-2.767.079z" fill="#243444"/>
    <path d="M25.54 46.318c.72 0 1.306-.792 1.306-1.769 0-.977-.585-1.769-1.306-1.769-.721 0-1.306.792-1.306 1.77 0 .976.585 1.768 1.306 1.768z" fill="#FBBEBE"/>
    <path d="M25.008 46.648a.739.739 0 01-.214.34.452.452 0 01-.318.116c-.047.265.066.533.196.741.269.425.616.744 1.007.925.39.182.81.219 1.215.108a.968.968 0 00.437-.248c.177-.199.295-.477.334-.784.038-.304.049-.614.032-.922a.301.301 0 00-.036-.17.15.15 0 00-.114-.05c-.275-.034-.563-.048-.805-.231-.242-.184-.414-.598-.298-.938-.018.053-.494.079-.557.09-.197.037-.393.08-.589.128a.827.827 0 00-.276.07c-.118.083-.074.042-.046.193.041.23.102.394.032.632z" fill="#FBBEBE"/>
    <path d="M26.002 47.724a1.627 1.627 0 01-.523-.078.765.765 0 01-.428-.388c-.06-.124-.1-.28-.196-.349-.157-.11-.337.076-.462.247a1.898 1.898 0 01-.393.429c-.174.124-.378.169-.543.316a1.756 1.756 0 00-.326.477l-1.155 2.13c-.463.858-.867 1.778-1.28 2.682-.358.783-.546 1.684-.815 2.529a.37.37 0 00-.026.17c.01.057.062.104.098.07-.122.164-.015.442-.044.672a.897.897 0 01-.194.412c.18-.032.362-.02.538.034.183.07.355.182.509.331.098-.02.09-.258.163-.346.044-.052.109-.046.167-.061.218-.058.304-.412.471-.612.14-.167.337-.22.484-.378.24-.255.291-.709.417-1.085.106-.32.274-.598.368-.924.061-.212.09-.442.178-.638.14-.315.402-.483.652-.634.158-.097.326-.196.496-.18-.009.513-.057 1.019.025 1.52.029.177.069.349.103.525.156.79.192 1.614.2 2.429a4.113 4.113 0 011.14-.186c.303-.012.605.041.907.034.359-.01.713-.103 1.072-.136.359-.033.734 0 1.05.22-.025-.7-.01-1.4.044-2.098l.086-1.097c.02-.319.056-.636.109-.948.047-.251.116-.494.168-.745.183-.883.15-1.826.115-2.746-.018-.473-.153-.938-.311-1.358a4.133 4.133 0 00-.196-.451 2.2 2.2 0 00-.74-.83 1.5 1.5 0 00-.944-.241.267.267 0 00-.12.035.536.536 0 00-.154.249c-.169.41-.413.754-.71.998zM24.391 45.136c.037-.11.136-.152.196-.24.116-.168.064-.436.081-.663a.919.919 0 01.465-.726c.237-.103.489-.125.734-.063a.595.595 0 01.33.149c.043.042.082.096.122.135.073.06.16.078.243.052a.348.348 0 00.2-.193c-.288-.47-.608-.967-1.046-1.112a1.606 1.606 0 00-.457-.058c-.203-.006-.413-.01-.6.095-.255.142-.435.47-.527.824-.08.358-.123.73-.128 1.104-.017.25-.017.5 0 .75.032.342.125.667.272.947.02.044.048.079.082.103.372.22.003-1.013.033-1.105z" fill="#243444"/>
    <path d="M26.72 43.315c-.045-.52-.319-.95-.61-1.296a2.246 2.246 0 00-.819-.668c-.307-.122-.66-.096-.924.153-.212.2-.347.518-.45.838a3.443 3.443 0 00-.197 1.215c.02.417.17.84.438 1.05.096-.191.264-.29.424-.37.7-.359 1.413-.667 2.138-.922z" fill="#306B34"/>
    <path opacity=".1" d="M24.248 43.098c.026 0 .043.037.056.066.067.14.123.288.17.442-.095.028-.259.059-.306-.055-.025-.058.005-.458.08-.453zM26.105 42.849c-.02.025-.042-.027-.042-.064v-.429c0-.012.002-.024.006-.034a.043.043 0 01.012-.013.032.032 0 01.015-.005c.066-.01.12.066.163.14a2.6 2.6 0 01.167.376l-.345-.014" fill="#243444"/>
    <path d="M30.408 49.943c.075-.096.155-.185.24-.266.226-.204.499-.285.752-.415.254-.13.511-.341.61-.683.05-.215.065-.44.047-.663a.877.877 0 00-.036-.273.516.516 0 00-.129-.19c-.344-.344-.805-.372-1.232-.336a6.158 6.158 0 00-2.723.92.253.253 0 00-.114.11.417.417 0 00-.022.154c-.015.326.016.653.092.962.112.393.344.71.44 1.111.045.18.06.371.098.552a.823.823 0 00.229.462c.322.26.626-.09.85-.361l.898-1.084z" fill="#243444"/>
    <path d="M26.192 51.473l-.413-1.221a5.224 5.224 0 01-.157-.523c-.047-.213-.07-.434-.114-.648-.145-.713-.511-1.307-.69-2.006a.438.438 0 00-.066-.17.194.194 0 00-.088-.049.162.162 0 00-.094.005c-.25.059-.444.316-.673.462-.105.066-.22.11-.326.187a.45.45 0 00-.137.144.638.638 0 00-.081.208c-.025.169.037.331.089.496.221.678.272 1.435.282 2.177.007.5-.012 1.035-.23 1.436-.417.773-.15 1.908.006 2.843.02.11.041.23.054.347.014.146.02.294.019.442 0 .495-.02 1.007-.174 1.456.152.11.318.173.49.188.473.082.948.14 1.425.172.15.02.3.009.448-.03a.854.854 0 00.438-.402c.109-.196.166-.435.164-.68.026.305.074.637.238.85.164.211.402.244.625.26a8.6 8.6 0 001.883-.072.258.258 0 00.116-.036c.12-.082.127-.307.117-.488a27.99 27.99 0 00-.067-1.015 5.619 5.619 0 01-.04-.65c.013-.223.04-.445.082-.662.11-.689.196-1.392.16-2.098a4.783 4.783 0 01-.016-.518c.021-.39.173-.76.144-1.148-.081-1.14-.147-2.31-.382-3.41-.043-.196-.096-.407-.223-.52-.163-.147-.392-.07-.578-.164a1.433 1.433 0 01-.249-.2.944.944 0 00-.561-.234c-.15-.008-.318.038-.408.201a.996.996 0 00-.082.302c-.118.673-.256 1.34-.395 2.005l-.133.638-.356 1.714c-.035.182-.011.239-.047.41z" fill="#306B34"/>
    <path d="M28.276 44.786l7.884 11.225v.952h-3.515L26.72 46.487" fill="#CED0CE"/>
    <path opacity=".1" d="M28.276 44.786l7.884 11.225v.952h-3.515L26.72 46.487" fill="#243444"/>
    <path opacity=".1" d="M26.846 46.34l.025.011 5.824 9.66h3.465v.952h-3.515L26.72 46.487l.126-.148z" fill="#243444"/>
    <path d="M27.753 46.575c-.286.17-.603.386-.688.792a.61.61 0 00-.01.221c.02.087.06.163.113.218a.286.286 0 00.185.092.758.758 0 00.392-.097l1.683-.753c.046-.02.098-.05.11-.11a.249.249 0 00-.017-.11c-.052-.173-.103-.525-.212-.646-.09-.097-.268-.063-.376-.06-.417.004-.81.233-1.18.453z" fill="#306B34"/>
    <path d="M29.253 47.138c.284-.002.566.058.836.175.27.12.51.342.692.64.052.084.09.183.109.29.016.11.282.177.223.252.179-.039.136.075.317.073.181-.003.377-.066.485-.261.075-.16.109-.35.096-.54a1.21 1.21 0 00-.054-.382c-.082-.232-.27-.357-.442-.464l-1.456-.902a.818.818 0 00-.269-.13.743.743 0 00-.237.008l-.66.103c.145.127.262.302.341.508.08.207.117.438.11.67" fill="#243444"/>
  </g>
  <defs>
    <clipPath id="clip0">
      <path fill="#fff" transform="translate(.374 .589)" d="M0 0h96v80H0z"/>
    </clipPath>
  </defs>
</svg>
